<?xml version="1.0" standalone="no"?>
<!DOCTYPE svg PUBLIC "-//W3C//DTD SVG 20010904//EN"
 "http://www.w3.org/TR/2001/REC-SVG-20010904/DTD/svg10.dtd">
<svg version="1.0" xmlns="http://www.w3.org/2000/svg"
 width="1024.000000pt" height="583.000000pt" viewBox="0 0 1024.000000 583.000000"
 preserveAspectRatio="xMidYMid meet">

<g transform="translate(0.000000,583.000000) scale(0.100000,-0.100000)"
fill="#000000" stroke="none">
<path d="M5773 5763 c9 -9 19 -14 23 -11 10 10 -6 28 -24 28 -15 0 -15 -1 1
-17z"/>
<path d="M7390 5356 c0 -8 5 -18 10 -21 6 -3 10 1 10 9 0 8 -4 18 -10 21 -5 3
-10 -1 -10 -9z"/>
<path d="M6925 5285 c7 -33 34 -80 41 -72 9 8 -7 52 -27 77 l-21 25 7 -30z"/>
<path d="M7936 5211 c-4 -7 -5 -15 -2 -18 9 -9 19 4 14 18 -4 11 -6 11 -12 0z"/>
<path d="M2520 5129 c0 -16 32 -68 56 -90 l27 -24 -17 30 c-20 34 -66 93 -66
84z"/>
<path d="M5200 5109 c0 -16 27 -46 35 -38 2 2 -5 15 -15 29 -15 19 -20 21 -20
9z"/>
<path d="M8137 5090 c3 -11 7 -20 9 -20 2 0 4 9 4 20 0 11 -4 20 -9 20 -5 0
-7 -9 -4 -20z"/>
<path d="M7536 5082 c-2 -4 0 -36 5 -71 10 -69 0 -88 -46 -92 -17 -1 -17 -2
-2 -6 9 -2 33 1 53 7 42 14 58 4 27 -17 l-22 -15 25 -34 c29 -37 52 -44 60
-16 3 9 9 24 14 33 5 9 4 35 -1 58 -11 48 -4 68 17 50 11 -9 14 -9 14 1 0 8 9
10 28 5 22 -4 33 0 56 24 l28 29 -31 16 c-17 9 -31 21 -31 26 0 21 -41 9 -50
-14 -9 -24 -37 -46 -60 -46 -6 0 -15 10 -21 23 -10 22 -56 51 -63 39z"/>
<path d="M1150 5060 c20 -13 33 -13 25 0 -3 6 -14 10 -23 10 -15 0 -15 -2 -2
-10z"/>
<path d="M7835 5040 c-3 -5 -1 -10 4 -10 6 0 11 5 11 10 0 6 -2 10 -4 10 -3 0
-8 -4 -11 -10z"/>
<path d="M8080 4985 c0 -8 5 -15 10 -15 6 0 10 7 10 15 0 8 -4 15 -10 15 -5 0
-10 -7 -10 -15z"/>
<path d="M3282 4974 c10 -10 20 -15 24 -12 3 4 -5 12 -18 18 -22 12 -22 12 -6
-6z"/>
<path d="M6460 4982 c0 -12 19 -26 26 -19 2 2 -2 10 -11 17 -9 8 -15 8 -15 2z"/>
<path d="M7356 4924 c-4 -10 -13 -13 -25 -9 -26 8 -30 -12 -11 -66 16 -46 16
-47 33 -26 9 12 17 26 17 32 0 13 57 51 71 47 6 -1 9 3 7 10 -3 7 -14 12 -26
10 -12 -2 -30 2 -41 7 -15 8 -20 7 -25 -5z"/>
<path d="M2160 4890 c11 -20 30 -28 30 -12 0 11 -22 32 -32 32 -5 0 -4 -9 2
-20z"/>
<path d="M3370 4883 c0 -12 42 -73 51 -73 12 0 11 6 -6 39 -13 26 -45 50 -45
34z"/>
<path d="M7250 4877 c0 -17 40 -90 46 -84 7 7 -17 75 -31 87 -12 10 -15 9 -15
-3z"/>
<path d="M3260 4817 c0 -15 38 -49 43 -39 3 4 1 17 -4 30 -9 23 -39 31 -39 9z"/>
<path d="M3750 4783 c0 -11 7 -23 15 -27 19 -7 19 3 0 28 -15 19 -15 19 -15
-1z"/>
<path d="M7580 4776 c0 -9 5 -16 10 -16 6 0 10 4 10 9 0 6 -4 13 -10 16 -5 3
-10 -1 -10 -9z"/>
<path d="M3291 4744 c0 -11 3 -14 6 -6 3 7 2 16 -1 19 -3 4 -6 -2 -5 -13z"/>
<path d="M7512 4723 c2 -10 10 -17 16 -15 7 1 12 -3 12 -10 0 -9 3 -9 11 -1
17 17 3 43 -21 43 -15 0 -20 -5 -18 -17z"/>
<path d="M8260 4720 c0 -5 5 -10 10 -10 6 0 10 5 10 10 0 6 -4 10 -10 10 -5 0
-10 -4 -10 -10z"/>
<path d="M7360 4701 c0 -5 7 -11 15 -15 8 -3 15 -14 15 -24 0 -10 4 -22 9 -27
8 -9 15 -55 12 -80 -1 -5 -13 4 -27 20 -23 27 -26 28 -21 8 6 -25 -2 -30 -20
-12 -7 7 -12 4 -16 -10 -5 -21 8 -26 56 -22 9 1 20 -5 23 -13 3 -9 12 -16 20
-16 7 0 11 6 8 14 -3 8 4 23 15 33 31 26 26 45 -25 102 -44 48 -64 62 -64 42z"/>
<path d="M7654 4666 c4 -17 1 -29 -12 -38 -10 -7 -18 -28 -19 -48 l-2 -35 10
28 c9 22 16 28 34 25 32 -7 52 27 31 51 -9 10 -16 23 -16 29 0 7 -7 12 -16 12
-12 0 -15 -6 -10 -24z"/>
<path d="M3356 4665 c5 -11 -1 -15 -21 -15 -17 0 -25 -5 -22 -12 2 -7 15 -12
29 -10 15 2 29 -2 33 -7 3 -6 13 -11 20 -11 11 0 10 8 -6 35 -21 35 -44 49
-33 20z"/>
<path d="M4890 4666 c0 -8 7 -16 15 -20 13 -4 14 -2 5 14 -13 23 -20 26 -20 6z"/>
<path d="M5610 4670 c0 -5 14 -20 32 -35 23 -20 33 -23 39 -13 5 7 2 19 -7 29
-16 18 -64 32 -64 19z"/>
<path d="M7787 4661 c-3 -12 1 -22 10 -25 23 -9 25 -8 21 16 -4 28 -24 34 -31
9z"/>
<path d="M7540 4660 c0 -7 9 -23 20 -37 l20 -26 -4 34 c-2 21 -9 35 -20 37 -9
2 -16 -2 -16 -8z"/>
<path d="M8150 4649 c-11 -20 -11 -20 19 -4 36 18 39 25 11 25 -10 0 -24 -9
-30 -21z"/>
<path d="M7040 4635 c0 -18 19 -40 26 -32 4 4 0 15 -9 24 -9 10 -17 13 -17 8z"/>
<path d="M7720 4625 c0 -8 5 -15 10 -15 6 0 10 7 10 15 0 8 -4 15 -10 15 -5 0
-10 -7 -10 -15z"/>
<path d="M3454 4619 c-3 -6 0 -15 7 -20 23 -14 30 -10 19 11 -12 23 -16 24
-26 9z"/>
<path d="M2890 4609 c0 -5 5 -7 10 -4 6 3 10 8 10 11 0 2 -4 4 -10 4 -5 0 -10
-5 -10 -11z"/>
<path d="M5760 4601 c0 -13 29 -35 37 -28 7 8 -15 37 -28 37 -5 0 -9 -4 -9 -9z"/>
<path d="M7985 4600 c-3 -5 0 -10 8 -10 8 0 18 -8 21 -17 5 -13 9 -14 19 -4 9
10 8 15 -7 27 -23 17 -33 18 -41 4z"/>
<path d="M3070 4570 c0 -11 6 -20 14 -20 8 0 23 -3 33 -7 14 -5 13 -1 -6 20
-29 32 -41 34 -41 7z"/>
<path d="M6990 4585 c0 -18 19 -40 26 -32 4 4 0 15 -9 24 -9 10 -17 13 -17 8z"/>
<path d="M7502 4568 c2 -17 9 -22 23 -20 42 8 36 41 -8 42 -13 0 -18 -6 -15
-22z"/>
<path d="M7751 4574 c0 -11 3 -14 6 -6 3 7 2 16 -1 19 -3 4 -6 -2 -5 -13z"/>
<path d="M7065 4566 c-17 -12 -17 -13 8 -18 21 -4 27 -1 27 13 0 22 -10 24
-35 5z"/>
<path d="M7690 4547 c0 -19 16 -31 24 -18 3 5 -1 14 -9 21 -12 10 -15 10 -15
-3z"/>
<path d="M5065 4530 c10 -11 20 -20 22 -20 2 0 -1 9 -7 20 -6 11 -16 20 -22
20 -6 0 -3 -9 7 -20z"/>
<path d="M6908 4533 c7 -3 16 -2 19 1 4 3 -2 6 -13 5 -11 0 -14 -3 -6 -6z"/>
<path d="M7225 4520 c-3 -6 1 -7 9 -4 18 7 21 14 7 14 -6 0 -13 -4 -16 -10z"/>
<path d="M7630 4496 c0 -34 2 -37 23 -30 32 10 33 11 4 40 l-27 27 0 -37z"/>
<path d="M7765 4520 c-3 -5 -1 -10 4 -10 6 0 11 5 11 10 0 6 -2 10 -4 10 -3 0
-8 -4 -11 -10z"/>
<path d="M7000 4505 c7 -8 16 -15 21 -15 5 0 6 7 3 15 -4 8 -13 15 -21 15 -13
0 -13 -3 -3 -15z"/>
<path d="M2115 4490 c3 -5 11 -10 16 -10 6 0 7 5 4 10 -3 6 -11 10 -16 10 -6
0 -7 -4 -4 -10z"/>
<path d="M2260 4490 c0 -12 28 -25 36 -17 3 3 -4 10 -15 17 -15 7 -21 7 -21 0z"/>
<path d="M3615 4484 c9 -9 14 -23 11 -30 -3 -7 8 -23 24 -34 l30 -21 -31 50
c-18 28 -36 51 -41 51 -5 0 -2 -7 7 -16z"/>
<path d="M6900 4490 c0 -5 6 -10 14 -10 8 0 18 5 21 10 3 6 -3 10 -14 10 -12
0 -21 -4 -21 -10z"/>
<path d="M6950 4493 c0 -33 23 -71 43 -71 71 -1 86 -8 116 -49 34 -47 67 -73
93 -73 23 0 23 28 1 52 -10 11 -18 38 -18 64 -2 39 1 45 16 41 12 -3 16 0 12
9 -3 8 -10 11 -16 7 -5 -3 -16 1 -22 11 -14 18 -45 12 -45 -10 0 -20 -48 -29
-85 -15 -17 6 -37 11 -45 11 -7 0 -22 7 -32 17 -10 9 -18 12 -18 6z"/>
<path d="M5920 4481 c0 -6 4 -13 10 -16 6 -3 7 1 4 9 -7 18 -14 21 -14 7z"/>
<path d="M2524 4465 c22 -17 40 -20 32 -6 -3 5 -16 11 -28 14 -22 6 -22 5 -4
-8z"/>
<path d="M3867 4473 c-4 -6 0 -19 8 -29 11 -15 14 -16 15 -4 0 21 -16 44 -23
33z"/>
<path d="M6430 4471 c0 -5 7 -11 15 -15 8 -3 15 -1 15 3 0 5 -7 11 -15 15 -8
3 -15 1 -15 -3z"/>
<path d="M7520 4471 c0 -5 5 -13 10 -16 6 -3 10 -2 10 4 0 5 -4 13 -10 16 -5
3 -10 2 -10 -4z"/>
<path d="M3776 4461 c-8 -12 3 -41 15 -41 5 0 9 11 9 25 0 25 -14 34 -24 16z"/>
<path d="M4200 4453 c0 -13 5 -23 10 -23 13 0 13 11 0 30 -8 12 -10 11 -10 -7z"/>
<path d="M3500 4450 c1 -11 65 -50 68 -40 7 19 -16 43 -42 45 -14 0 -26 -2
-26 -5z"/>
<path d="M3972 4444 c11 -12 15 -28 11 -42 -6 -25 12 -30 21 -6 9 23 7 54 -3
54 -5 0 -18 3 -28 7 -17 6 -17 5 -1 -13z"/>
<path d="M6386 4437 c18 -15 40 -27 50 -27 17 0 17 1 -1 19 -11 11 -33 23 -50
27 l-30 7 31 -26z"/>
<path d="M6906 4435 c20 -30 24 -31 17 -6 -3 11 -11 22 -19 25 -11 4 -11 0 2
-19z"/>
<path d="M7233 4448 c-16 -18 -4 -71 13 -64 8 3 14 1 14 -3 0 -5 -5 -11 -11
-13 -13 -4 6 -58 21 -58 5 0 10 -9 10 -20 0 -10 9 -24 20 -30 11 -6 20 -20 20
-30 0 -25 -9 -25 -26 -2 -12 15 -13 14 -14 -12 0 -27 2 -28 31 -22 27 5 30 4
19 -9 -15 -18 -67 -9 -96 17 -13 11 -28 16 -38 12 -16 -6 -16 -8 0 -25 16 -17
15 -18 -12 -14 -16 2 -39 7 -52 11 -18 5 -21 3 -16 -10 3 -9 1 -16 -6 -16 -6
0 -8 -5 -4 -11 4 -8 9 -8 17 0 14 14 37 14 37 1 0 -5 -5 -10 -11 -10 -10 0
-29 -13 -86 -60 -17 -14 -45 -12 -41 2 3 7 -7 18 -20 25 -21 11 -26 11 -38 -4
-10 -15 -10 -19 2 -21 27 -7 14 -21 -15 -16 -16 4 -32 1 -35 -5 -4 -6 -12 -9
-17 -6 -16 11 -10 -11 12 -39 23 -29 22 -29 -46 -42 -53 -9 -83 -13 -190 -21
-55 -4 -82 -9 -70 -14 33 -12 0 -18 -108 -21 -94 -3 -126 5 -69 18 48 10 48
12 -3 14 -70 3 -99 0 -106 -12 -7 -10 -37 -14 -159 -22 -70 -4 -163 -19 -275
-42 -78 -16 -212 -17 -295 -3 -30 5 -63 11 -72 11 -10 1 -18 8 -18 15 0 7 -5
13 -11 13 -5 0 -8 -4 -5 -9 10 -16 -11 -17 -112 -5 -53 6 -104 7 -112 3 -9 -4
-38 -2 -65 4 -59 14 -215 12 -340 -4 -124 -16 -223 -14 -267 5 -21 9 -38 20
-38 25 0 13 -166 27 -389 32 -104 3 -117 5 -142 27 -16 13 -29 19 -29 13 0 -6
9 -15 20 -21 31 -17 24 -28 -22 -35 -58 -9 -181 -45 -193 -56 -18 -17 -60 -8
-100 22 l-40 30 -3 -25 c-3 -22 -8 -26 -39 -26 -40 0 -115 -20 -124 -32 -3 -5
-86 -10 -185 -13 -100 -3 -191 -10 -206 -16 -21 -9 -31 -9 -42 0 -11 9 -16 9
-22 0 -5 -8 -28 -10 -75 -6 -57 5 -69 3 -69 -9 0 -10 -7 -13 -22 -10 -13 3
-59 7 -103 10 -94 6 -188 33 -181 52 3 8 1 16 -4 19 -6 4 -10 -1 -10 -10 0
-11 -5 -15 -15 -11 -8 3 -15 1 -15 -4 0 -5 27 -21 59 -37 33 -15 60 -31 60
-34 1 -4 -11 -9 -25 -12 -23 -4 -123 30 -239 83 -17 8 -55 17 -102 26 -7 1
-13 -2 -13 -7 0 -11 -53 -12 -65 0 -10 8 -152 36 -233 44 -31 4 -48 0 -65 -14
l-22 -18 36 -1 c19 0 44 -7 55 -16 17 -14 9 -15 -103 -10 -67 3 -154 9 -193
12 -50 5 -70 4 -70 -5 0 -6 7 -11 15 -11 26 0 16 -18 -17 -30 -31 -11 -226
-33 -275 -31 -21 1 -48 -30 -37 -42 3 -3 -16 -8 -43 -12 -26 -3 -58 -10 -71
-16 -13 -5 -40 -10 -60 -10 l-37 -2 35 -7 c44 -9 38 -12 -50 -24 -55 -7 -123
-14 -148 -15 -9 -1 -10 -6 -3 -20 9 -16 6 -20 -17 -26 -15 -4 -62 -8 -106 -10
-43 -1 -81 -7 -85 -13 -4 -7 -18 -7 -47 0 -42 12 -74 6 -74 -12 0 -17 48 -30
268 -76 13 -2 21 -8 18 -13 -6 -9 -51 -14 -110 -12 -58 1 -32 -17 40 -29 32
-6 100 -10 149 -11 142 -2 168 -14 51 -24 -76 -6 -95 -10 -81 -18 10 -5 32
-12 49 -13 17 -2 40 -6 51 -8 34 -8 278 -8 324 -1 35 7 43 5 39 -6 -3 -8 -10
-13 -16 -12 -6 2 -9 -3 -6 -11 4 -11 25 -13 90 -11 76 3 105 -5 72 -18 -10 -4
-10 -7 0 -14 7 -6 43 -4 90 3 95 16 155 17 147 4 -3 -5 1 -10 10 -10 28 0 10
-25 -19 -28 -28 -3 -28 -4 -8 -18 12 -8 19 -21 16 -29 -6 -14 15 -21 41 -15 6
2 21 4 35 5 14 1 38 8 53 14 35 14 40 14 32 1 -8 -13 8 -13 21 0 13 13 46 2
38 -12 -4 -6 2 -7 17 -3 13 4 26 12 27 16 2 5 8 9 12 9 15 0 6 -50 -10 -60
-11 -7 -4 -9 21 -6 31 4 38 1 48 -20 13 -28 36 -27 83 6 23 17 27 17 32 4 5
-13 16 -14 59 -8 28 4 73 8 99 9 45 1 47 0 42 -22 -5 -20 -2 -23 22 -23 16 0
35 -4 43 -9 10 -6 40 7 100 44 116 71 145 85 177 85 22 0 25 -2 14 -15 -17
-20 -8 -19 52 7 39 17 52 18 58 9 6 -10 33 -1 113 38 121 59 153 64 143 26 -7
-29 8 -34 23 -8 19 35 21 5 2 -38 -13 -29 -36 -57 -65 -77 -54 -39 -96 -92
-72 -92 8 0 18 5 21 10 4 6 11 8 16 4 5 -3 -6 -19 -26 -36 -39 -35 -91 -106
-83 -114 3 -2 19 7 36 21 16 14 35 25 41 25 19 0 -4 -34 -33 -49 -17 -10 -27
-25 -31 -52 -10 -57 -25 -65 -93 -50 -90 20 -99 20 -136 0 -20 -10 -41 -19
-47 -19 -6 0 -20 -12 -31 -26 -11 -14 -26 -23 -33 -20 -14 5 -55 -33 -55 -52
0 -7 -7 -12 -15 -12 -8 0 -15 -5 -15 -12 0 -6 -33 -43 -74 -82 -107 -103 -118
-112 -148 -119 -14 -4 -34 -10 -44 -14 -14 -5 -16 -2 -12 15 9 35 -20 27 -96
-23 -37 -25 -87 -50 -109 -54 -40 -8 -227 -95 -312 -144 -22 -13 -77 -38 -123
-56 -45 -19 -92 -41 -105 -51 -34 -27 -148 -79 -214 -97 -56 -16 -80 -19 -150
-22 -17 0 -38 -7 -45 -14 -7 -6 -32 -24 -55 -40 -47 -30 -96 -98 -99 -137 -2
-14 -6 -35 -10 -47 -5 -20 -3 -23 19 -23 38 0 112 -36 95 -46 -9 -6 -1 -11 27
-17 164 -35 265 -9 444 115 139 95 172 109 148 61 -15 -29 -28 -162 -19 -195
4 -18 5 -18 24 -1 19 17 20 17 29 0 14 -24 72 -21 143 8 47 19 74 41 140 111
44 48 117 125 161 170 116 120 136 144 130 155 -4 5 1 9 9 9 8 0 18 -4 21 -10
3 -5 18 -10 32 -10 22 0 24 -2 13 -16 -12 -13 -8 -14 41 -9 30 4 59 8 66 10 7
2 15 0 18 -5 4 -6 19 -10 35 -10 15 0 30 -3 32 -8 2 -4 39 -18 83 -32 44 -13
97 -31 117 -41 21 -9 40 -13 44 -8 8 14 24 11 24 -6 0 -15 48 -31 165 -55 105
-22 135 -31 135 -40 0 -4 -6 -11 -12 -13 -8 -3 -6 -6 5 -6 9 -1 17 -7 17 -14
0 -20 213 -49 400 -54 150 -5 172 -3 238 17 40 12 79 28 87 36 7 8 18 14 24
14 6 0 15 9 21 19 5 11 32 32 60 47 27 15 57 38 65 50 9 13 20 24 25 24 12 0
90 81 90 93 0 5 7 7 15 3 9 -3 15 0 15 9 0 15 48 54 90 72 14 6 56 25 94 42
37 17 74 31 81 31 6 0 17 12 24 27 9 19 15 23 20 14 6 -10 11 -9 23 2 9 10 46
18 99 22 46 4 104 16 128 26 51 22 60 19 42 -15 -26 -48 17 -62 64 -22 44 38
105 48 76 12 -15 -18 8 -43 47 -52 54 -12 58 -14 42 -25 -12 -7 -11 -10 7 -15
13 -4 20 -11 16 -17 -4 -6 4 -8 21 -3 17 4 25 3 22 -3 -4 -5 -2 -12 3 -15 14
-9 70 5 68 17 -1 6 8 12 21 13 12 1 25 4 29 7 3 4 14 2 24 -4 13 -6 39 -5 84
6 75 17 99 19 91 6 -3 -4 -23 -11 -43 -14 -21 -4 -55 -15 -76 -25 -31 -15 -36
-21 -25 -30 10 -8 31 -9 67 -3 29 4 71 6 94 4 23 -3 51 -6 62 -7 11 0 26 -5
33 -9 7 -5 25 -7 40 -5 21 2 26 -1 24 -14 -2 -10 3 -18 12 -18 7 0 24 -11 37
-24 19 -20 27 -22 43 -14 11 6 44 12 73 13 52 2 69 -7 37 -19 -12 -5 -13 -10
-5 -19 7 -9 7 -18 1 -25 -7 -9 -7 -9 2 -2 7 6 26 10 44 10 20 0 34 6 38 16 4
12 2 15 -9 10 -8 -3 -22 -9 -30 -12 -8 -3 -15 -2 -15 4 0 15 66 35 90 27 11
-3 20 -12 20 -20 0 -17 40 -31 49 -18 3 6 25 13 49 16 24 3 52 13 63 23 15 13
19 14 20 3 0 -8 2 -26 3 -42 1 -19 -5 -32 -21 -42 -32 -21 -22 -54 16 -55 11
0 9 4 -5 14 -10 8 -16 18 -12 22 5 4 16 0 27 -10 10 -9 22 -16 27 -14 11 4 15
-7 9 -24 -10 -33 -10 -54 2 -63 8 -6 15 -47 19 -115 3 -58 6 -119 7 -137 1
-17 5 -35 9 -38 10 -10 30 34 24 53 -11 32 -14 102 -6 107 4 3 4 24 -2 47 -8
38 -5 93 8 139 3 9 19 20 37 23 41 8 74 36 83 70 8 32 24 44 24 19 0 -12 7
-19 20 -19 13 0 20 7 20 19 0 17 22 47 34 47 8 0 2 -53 -8 -68 -4 -7 -4 -17 0
-24 5 -8 -5 -9 -34 -5 -33 4 -42 2 -42 -9 0 -12 8 -13 35 -8 41 7 42 5 15 -26
-27 -32 -26 -60 3 -60 18 0 22 -5 22 -34 0 -19 -3 -38 -7 -42 -9 -9 -11 -54
-2 -54 3 0 13 4 22 9 14 7 17 22 16 78 -1 42 2 71 9 75 14 9 18 68 5 68 -5 0
-6 5 -3 11 5 7 14 3 26 -10 21 -22 25 -41 9 -41 -5 0 -10 -7 -10 -15 0 -8 5
-15 10 -15 6 0 10 -7 10 -15 0 -9 -9 -15 -22 -15 -14 0 -18 -4 -13 -9 12 -11
65 -2 65 11 0 5 9 6 20 3 13 -4 22 -1 26 9 3 9 10 16 16 16 5 0 6 -5 2 -11 -4
-8 0 -8 15 0 12 7 26 9 31 6 18 -11 10 24 -7 35 -16 10 -16 11 2 5 11 -4 29
-8 40 -10 29 -4 29 -3 14 -22 -7 -10 3 -3 23 15 20 20 38 29 42 24 3 -6 2 -13
-4 -17 -13 -8 -13 -25 0 -25 6 0 10 7 10 15 0 8 16 19 38 24 48 14 52 14 86
-4 22 -12 32 -13 43 -4 10 9 20 9 40 0 20 -9 28 -9 33 0 5 7 10 8 14 1 3 -6
15 -8 26 -5 16 4 19 2 14 -11 -3 -9 -1 -16 5 -16 6 0 11 5 11 11 0 13 86 5
138 -13 40 -15 40 -22 2 -38 -41 -17 -30 -24 48 -30 62 -5 66 -6 69 -32 2 -15
10 -39 18 -55 14 -26 13 -29 -13 -49 -32 -26 -23 -42 14 -25 30 13 44 5 47
-28 1 -13 6 -20 14 -17 7 3 22 -8 33 -24 25 -36 133 -89 220 -109 117 -27 168
-41 207 -55 28 -10 58 -14 87 -10 43 6 44 6 51 -27 10 -45 70 -168 96 -195 31
-33 128 -81 179 -89 25 -4 58 -14 73 -22 37 -18 103 -9 117 17 6 10 10 31 10
45 0 25 3 27 28 20 15 -3 37 -17 49 -30 26 -27 30 -29 148 -50 49 -9 108 -25
132 -36 23 -10 46 -19 52 -19 5 0 16 -8 23 -18 18 -24 111 -82 132 -82 12 0
16 -5 12 -15 -3 -9 0 -15 9 -15 8 0 27 -11 42 -25 43 -38 45 -39 92 -58 46
-17 63 -15 43 5 -15 15 -16 31 0 22 7 -4 8 -3 4 4 -4 7 -15 12 -24 12 -10 0
-23 9 -30 20 -7 11 -9 20 -5 20 26 0 173 -60 173 -71 0 -4 -6 -9 -12 -12 -9
-3 -6 -7 6 -13 13 -5 21 -3 24 4 5 16 28 15 79 -3 46 -16 67 -20 147 -30 46
-6 57 -5 62 9 3 9 15 16 26 16 14 0 18 5 14 16 -3 9 -9 28 -13 42 -12 53 -104
172 -164 213 -31 21 -63 45 -71 53 -9 9 -49 16 -114 21 -54 4 -103 11 -109 15
-5 4 -27 13 -48 20 -22 7 -51 18 -65 26 -15 8 -33 14 -40 14 -8 0 -44 18 -81
40 -37 22 -75 40 -83 40 -9 0 -19 4 -23 9 -3 5 -22 15 -43 22 -20 6 -50 22
-65 35 -16 13 -39 24 -52 24 -25 0 -50 24 -41 38 3 6 -8 15 -24 21 -17 6 -44
16 -62 23 -17 6 -46 26 -63 44 -18 18 -51 42 -73 53 -23 12 -78 46 -124 76
-45 30 -88 55 -95 55 -23 0 -70 56 -77 93 -4 20 -14 53 -23 74 -9 21 -16 43
-15 49 4 20 -117 101 -141 95 -15 -3 -47 20 -47 33 0 9 9 12 28 9 l27 -5 -30
26 c-21 19 -38 25 -57 21 -30 -5 -100 16 -105 32 -4 12 54 36 67 28 5 -3 16
-2 26 2 16 6 16 7 -2 14 -18 6 -17 8 6 17 27 11 26 12 -29 28 -7 2 -10 11 -7
19 3 8 1 15 -4 15 -6 0 -10 -11 -10 -25 0 -14 -5 -25 -11 -25 -6 0 -8 -9 -4
-22 6 -16 4 -20 -7 -16 -8 4 -20 -3 -26 -13 -15 -23 -40 -24 -70 -3 -12 8 -26
13 -31 10 -5 -3 -20 3 -32 14 -13 11 -21 20 -16 21 4 1 12 3 17 4 6 1 15 3 20
4 6 0 10 6 10 11 0 6 11 23 25 38 28 31 36 11 9 -26 -11 -17 -12 -22 -2 -22
18 0 33 12 41 33 7 20 27 23 27 4 0 -7 -7 -23 -16 -35 -9 -13 -13 -26 -10 -29
7 -7 5 -10 33 47 14 28 20 54 17 68 -4 14 -2 22 6 22 7 0 10 -7 7 -14 -4 -10
-1 -13 9 -9 7 3 14 11 14 19 0 8 5 14 11 14 6 0 9 -6 6 -12 -3 -7 -8 -21 -12
-30 -4 -10 -3 -18 3 -18 5 0 12 9 15 21 4 17 10 19 29 13 20 -6 21 -5 9 9 -18
22 -7 47 19 42 11 -2 20 -1 20 3 1 45 60 30 60 -16 l1 -27 15 28 c8 15 23 27
34 27 11 0 20 5 20 10 0 6 -4 10 -8 10 -4 0 -9 14 -10 31 -2 26 1 30 20 27 19
-2 24 2 27 27 l3 30 12 -34 c14 -39 38 -55 33 -22 -2 11 -6 24 -10 27 -10 10
-9 54 1 54 4 0 14 -19 22 -42 8 -23 21 -44 29 -46 15 -5 14 1 -12 71 -8 21
-12 50 -9 64 4 23 6 21 25 -21 11 -25 26 -46 33 -46 8 0 13 5 12 11 -4 17 54
20 78 4 13 -8 26 -10 35 -4 11 7 9 13 -13 34 -35 33 -35 40 2 41 17 1 30 -3
30 -7 0 -8 81 31 105 51 20 16 153 33 184 22 15 -5 40 -8 54 -5 16 3 60 -8
114 -29 88 -35 119 -46 203 -76 25 -9 78 -31 117 -50 70 -32 76 -33 155 -26
96 8 246 52 262 76 14 23 -6 97 -42 149 -15 22 -41 64 -58 92 -58 95 -234 336
-300 410 -42 47 -43 48 -28 82 8 19 14 48 14 65 0 31 -37 108 -70 145 -9 11
-22 35 -28 53 -6 18 -26 52 -45 75 -18 23 -46 63 -60 89 -15 25 -45 60 -67 78
-36 29 -53 60 -32 60 32 0 69 242 42 275 -13 15 -53 12 -78 -8 -18 -14 -21 -9
-33 79 -6 43 -14 86 -17 94 -3 8 -5 18 -4 22 1 4 -27 5 -61 3 -65 -3 -107 -20
-107 -42 0 -7 -3 -13 -7 -13 -5 0 -33 -23 -63 -52 -68 -63 -236 -188 -252
-188 -7 0 -30 19 -51 43 l-38 42 4 -40 c3 -22 8 -47 11 -55 3 -8 2 -21 -3 -28
-13 -22 -53 7 -45 32 5 15 3 18 -11 13 -9 -4 -18 -7 -20 -7 -2 0 -2 -15 1 -34
3 -30 2 -34 -16 -29 -11 3 -23 17 -26 32 -10 45 -13 51 -28 51 -8 0 -35 9 -61
20 -36 15 -46 24 -41 37 5 12 3 13 -6 5 -20 -16 -108 -27 -108 -13 0 6 -6 11
-13 11 -18 0 -61 46 -53 58 3 5 -6 15 -20 22 -19 11 -27 11 -36 2 -7 -7 -8
-12 -3 -12 5 0 -7 -11 -28 -25 -20 -14 -42 -23 -47 -20 -6 3 -10 -3 -10 -14 0
-23 -15 -28 -27 -8 -4 6 -16 13 -25 13 -25 2 -23 -32 2 -39 31 -8 23 -26 -11
-25 -21 1 -33 7 -39 22 -17 44 -80 88 -80 56 0 -5 -7 -10 -15 -10 -16 0 -17 5
-6 34 4 11 14 20 23 22 9 1 26 5 38 9 18 6 22 4 17 -8 -5 -12 3 -15 37 -15 24
1 49 -3 57 -8 14 -9 59 -13 59 -6 0 7 -42 42 -49 42 -4 0 -12 14 -18 30 -13
34 -46 42 -41 10 2 -10 0 -19 -4 -20 -26 -1 -30 2 -25 20 3 11 1 20 -4 20 -5
0 -9 17 -10 38 -1 36 -1 36 -16 -18 -9 -30 -18 -57 -19 -59 -5 -6 -58 31 -72
51 -7 10 -19 18 -26 18 -8 0 -16 9 -19 19 -3 15 -11 18 -27 14 -15 -4 -18 -9
-11 -16 6 -6 11 -15 11 -21 0 -6 -5 -5 -12 2 -17 17 -33 15 -18 -3 7 -8 19
-15 26 -15 8 0 14 -10 14 -24 0 -27 21 -47 28 -28 9 27 20 -1 12 -29 -12 -40
-23 -52 -18 -19 2 18 -3 28 -19 35 -13 5 -23 13 -23 17 0 5 -10 18 -22 30 -15
15 -23 36 -24 67 -4 51 -33 91 -51 69z m517 -290 c0 -33 2 -32 -38 -12 -47 23
-43 42 8 40 26 -1 30 -5 30 -28z m-550 -28 c0 -5 -7 -10 -15 -10 -8 0 -15 5
-15 10 0 6 7 10 15 10 8 0 15 -4 15 -10z m640 0 c0 -5 -7 -10 -15 -10 -8 0
-15 5 -15 10 0 6 7 10 15 10 8 0 15 -4 15 -10z m-861 -94 c8 -9 8 -16 2 -20
-6 -4 -15 3 -21 14 -12 23 2 27 19 6z m-1500 -172 c18 -3 31 -7 28 -10 -9 -9
-131 -17 -249 -16 -65 0 -120 -4 -123 -9 -4 -5 16 -9 45 -9 56 0 60 -14 8 -24
-46 -9 -54 -9 -130 1 -70 10 -88 2 -43 -19 34 -15 32 -28 -4 -28 -17 0 -33 -4
-36 -10 -3 -5 -13 -10 -21 -10 -8 0 -13 4 -10 8 3 5 -17 9 -44 9 -69 2 -78 11
-44 40 24 20 34 23 71 17 52 -8 55 1 8 20 -19 8 -35 20 -35 27 0 8 4 8 13 1
14 -12 57 -5 57 9 0 4 12 9 28 11 41 5 442 -1 481 -8z m-702 -30 c-3 -3 -12
-4 -19 -1 -8 3 -5 6 6 6 11 1 17 -2 13 -5z m-3061 -29 c-23 -18 -56 -20 -56
-4 0 6 7 9 15 5 8 -3 15 -1 15 4 0 6 10 10 23 10 21 -1 22 -1 3 -15z m93 -31
c-14 -17 -30 -9 -23 11 3 7 12 11 20 8 11 -4 12 -9 3 -19z m3018 9 c-9 -9 -19
-14 -23 -11 -10 10 6 28 24 28 15 0 15 -1 -1 -17z m1066 -4 c12 -11 16 -19 8
-17 -7 2 -15 -1 -17 -7 -3 -6 19 -9 53 -8 l58 2 -55 -13 c-30 -7 -65 -9 -76
-5 -12 4 -25 5 -28 2 -3 -4 -6 3 -6 15 0 14 -5 20 -14 16 -19 -7 -32 16 -15
27 24 15 69 10 92 -12z m600 11 c-13 -5 -62 -10 -109 -11 -67 -1 -95 -6 -121
-21 -32 -19 -47 -46 -20 -35 15 6 102 -15 114 -27 4 -4 4 -7 -2 -6 -29 6 -46
-3 -61 -31 -12 -24 -19 -28 -27 -20 -9 9 -8 14 3 21 22 14 5 23 -19 10 -13 -6
-21 -21 -21 -36 0 -25 -1 -26 -56 -20 -31 3 -62 10 -68 15 -6 5 -40 5 -76 1
-35 -5 -68 -6 -72 -3 -13 7 2 23 22 23 10 0 40 18 65 40 25 22 54 40 63 40 13
0 14 2 3 9 -7 5 -22 6 -33 3 -30 -7 -17 21 16 36 34 14 97 13 93 -3 -1 -6 5
-18 13 -26 13 -15 16 -14 25 5 8 15 27 24 70 32 74 14 231 17 198 4z m57 6 c0
-3 -4 -8 -10 -11 -5 -3 -10 -1 -10 4 0 6 5 11 10 11 6 0 10 -2 10 -4z m135 -6
c-3 -5 -15 -10 -26 -10 -10 0 -19 5 -19 10 0 6 12 10 26 10 14 0 23 -4 19 -10z
m-1299 -10 c22 9 199 7 251 -2 46 -8 34 -18 -23 -19 -32 0 -95 -2 -139 -5
-124 -9 -197 -6 -209 7 -8 9 -5 10 11 6 13 -3 26 -1 29 4 3 5 9 7 14 4 5 -3
12 0 15 6 5 7 11 7 17 1 7 -7 19 -7 34 -2z m-2566 -14 c0 -10 -7 -12 -22 -8
-21 5 -21 6 -2 13 10 4 20 8 22 8 1 1 2 -5 2 -13z m3120 10 c0 -3 -4 -8 -10
-11 -5 -3 -10 -1 -10 4 0 6 5 11 10 11 6 0 10 -2 10 -4z m-2900 -27 c0 -5 -6
-9 -14 -9 -23 0 -46 11 -41 20 6 10 55 0 55 -11z m580 11 c0 -5 -4 -10 -10
-10 -5 0 -10 5 -10 10 0 6 5 10 10 10 6 0 10 -4 10 -10z m1460 -9 c0 -5 14
-11 31 -15 43 -8 26 -26 -19 -19 -45 7 -44 6 -36 27 6 17 24 22 24 7z m-2480
-22 c0 -6 -4 -7 -10 -4 -5 3 -10 11 -10 16 0 6 5 7 10 4 6 -3 10 -11 10 -16z
m34 -1 c-5 -8 0 -9 14 -6 14 4 20 2 16 -4 -4 -6 1 -8 15 -3 15 5 21 2 21 -9 0
-20 -13 -20 -50 -1 -29 15 -40 35 -19 35 5 0 7 -5 3 -12z m102 -20 c-1 -23
-22 -45 -33 -34 -5 5 23 56 31 56 1 0 2 -10 2 -22z m2642 13 c1 -1 2 -5 2 -11
0 -13 -153 0 -167 14 -6 6 144 3 165 -3z m-195 -32 c21 -6 92 -10 159 -10 66
0 118 -2 115 -5 -11 -12 -152 -35 -240 -41 -102 -6 -110 -20 -26 -42 30 -8 57
-19 60 -24 4 -5 11 -7 16 -4 8 5 219 -8 281 -19 40 -6 41 -24 2 -52 -31 -23
-89 -29 -107 -11 -13 13 -126 39 -168 38 -29 -1 -29 -1 -5 -8 19 -6 25 -13 23
-34 -1 -18 3 -27 13 -27 8 0 14 -4 14 -10 0 -5 -6 -8 -12 -5 -7 2 -59 6 -116
9 -112 5 -149 19 -116 43 16 12 15 13 -13 13 -48 0 -93 20 -93 41 0 24 -60 89
-82 89 -21 0 -28 30 -12 50 11 13 39 16 141 17 70 1 145 -3 166 -8z m1310 -36
c-9 -25 -24 -43 -35 -43 -6 0 -8 7 -4 15 3 8 1 15 -4 15 -6 0 -10 -7 -10 -15
0 -11 -11 -15 -40 -16 -22 0 -56 -1 -75 -1 -30 -1 -65 11 -39 13 5 0 18 2 29
5 11 2 38 6 61 8 22 2 50 9 62 15 12 6 22 9 22 6 0 -3 8 -1 18 4 23 14 22 14
15 -6z m-5453 -2 c0 -15 -62 -33 -74 -21 -6 6 -1 13 15 19 31 13 59 13 59 2z
m75 -1 c3 -5 -3 -10 -15 -10 -12 0 -18 5 -15 10 3 6 10 10 15 10 5 0 12 -4 15
-10z m4785 0 c0 -5 -15 -10 -32 -10 -25 0 -29 3 -18 10 20 13 50 13 50 0z
m-2029 -50 c-27 -24 -41 -25 -41 -6 0 16 15 24 45 25 19 0 18 -1 -4 -19z
m-526 0 c3 -5 -1 -10 -9 -10 -9 0 -16 5 -16 10 0 6 4 10 9 10 6 0 13 -4 16
-10z m375 -14 c0 -3 -4 -8 -10 -11 -5 -3 -10 -1 -10 4 0 6 5 11 10 11 6 0 10
-2 10 -4z m2414 -11 c-4 -8 -18 -15 -32 -15 -25 0 -25 1 -6 15 25 19 45 19 38
0z m1174 6 c11 -7 11 -9 -1 -14 -16 -6 -27 0 -27 15 0 10 11 10 28 -1z m-3648
-21 c0 -5 -4 -10 -10 -10 -5 0 -10 5 -10 10 0 6 5 10 10 10 6 0 10 -4 10 -10z
m123 3 c4 -3 -4 -14 -19 -23 -14 -10 -26 -21 -25 -26 0 -5 -10 -20 -22 -33
l-22 -24 36 21 c46 28 57 28 33 1 -10 -11 -19 -28 -19 -36 0 -8 -14 -21 -32
-28 -27 -12 -31 -11 -26 1 3 8 9 14 14 14 5 0 9 4 9 9 0 4 -11 6 -25 3 -14 -2
-25 -11 -25 -18 0 -8 -4 -14 -10 -14 -6 0 -9 5 -7 12 4 21 -31 20 -38 -1 -3
-12 -11 -21 -17 -21 -25 0 21 45 47 46 35 1 52 24 50 63 -2 30 19 50 29 28 3
-8 11 -4 22 11 16 22 35 28 47 15z m2517 -2 c0 -16 -27 -31 -44 -25 -30 11
-16 34 21 34 13 0 23 -4 23 -9z m48 -23 c-3 -7 -17 -15 -33 -16 -25 -3 -27 -2
-16 12 16 19 55 22 49 4z m-2163 -7 c3 -5 1 -12 -5 -16 -5 -3 -10 1 -10 9 0
18 6 21 15 7z m2290 -1 c3 -5 -6 -12 -20 -16 -29 -7 -41 -1 -30 15 8 14 42 14
50 1z m-2645 -8 c0 -5 -6 -16 -13 -27 -10 -13 -16 -15 -21 -6 -4 6 -2 18 4 26
13 16 30 20 30 7z m1140 -22 c0 -5 -4 -10 -9 -10 -6 0 -13 5 -16 10 -3 6 1 10
9 10 9 0 16 -4 16 -10z m-1307 -15 c-3 -9 -8 -14 -10 -11 -3 3 -2 9 2 15 9 16
15 13 8 -4z m1247 -12 c0 -7 -7 -13 -15 -13 -8 0 -15 6 -15 13 0 8 7 14 15 14
8 0 15 -6 15 -14z m2084 2 c-5 -11 -2 -13 10 -9 9 3 16 1 16 -5 0 -6 -12 -11
-26 -11 -14 0 -23 4 -19 10 7 12 -5 13 -23 2 -7 -5 -10 -16 -6 -25 3 -10 1
-17 -6 -17 -6 0 -8 5 -5 10 4 6 -7 10 -24 10 -44 0 -38 17 9 25 22 4 42 11 46
16 9 16 34 10 28 -6z m-2854 -4 c0 -11 -26 -22 -34 -14 -12 12 -5 23 14 23 11
0 20 -4 20 -9z m137 3 c-3 -4 4 -15 16 -25 12 -10 18 -19 12 -19 -5 -1 -29 -3
-52 -6 -38 -4 -43 -3 -43 15 0 12 10 23 28 29 32 12 48 14 39 6z m1078 -4 c4
-6 -6 -10 -22 -9 -25 0 -26 1 -8 9 11 5 21 9 22 9 1 1 5 -3 8 -9z m1491 -5
c-21 -21 -59 -34 -116 -40 -27 -2 -52 -5 -57 -6 -4 -1 -17 -1 -27 0 -33 2 -5
17 57 31 32 7 60 17 63 22 3 4 25 8 50 8 40 0 44 -2 30 -15z m-2796 -15 c0 -6
-7 -13 -15 -16 -8 -4 -15 -11 -15 -17 0 -17 -32 -47 -49 -47 -23 0 -21 -39 2
-46 12 -4 16 -12 12 -25 -4 -10 -4 -19 0 -19 16 0 92 45 103 61 16 23 34 25
25 4 -3 -9 2 -22 13 -30 27 -19 15 -25 -56 -31 -75 -5 -80 -8 -72 -36 3 -14 2
-19 -7 -14 -6 4 -9 12 -6 17 4 5 2 9 -3 9 -6 0 -12 -7 -16 -15 -3 -8 -12 -15
-21 -15 -9 0 -27 -7 -41 -16 -13 -9 -27 -14 -31 -11 -3 3 -13 -3 -22 -14 -16
-20 -16 -20 -17 6 -2 21 5 29 40 44 22 11 49 21 59 25 9 3 17 13 17 21 0 17
-12 13 -42 -13 -10 -8 -18 -10 -18 -4 0 5 -9 8 -22 4 -17 -4 -20 -2 -15 11 4
10 1 17 -6 17 -7 1 6 16 27 34 37 32 38 34 13 29 -42 -8 -32 14 21 47 35 23
55 29 79 26 21 -3 33 0 37 10 6 16 26 19 26 4z m77 -14 l26 7 -23 -23 -23 -23
-17 21 c-10 12 -20 18 -24 15 -3 -4 -6 -2 -6 4 0 18 12 22 27 8 9 -10 24 -13
40 -9z m-352 -15 c-7 -23 -25 -29 -25 -8 0 14 21 39 28 33 2 -3 1 -14 -3 -25z
m425 19 c0 -12 -28 -25 -36 -17 -9 9 6 27 22 27 8 0 14 -5 14 -10z m278 -7
c-10 -2 -26 -2 -35 0 -10 3 -2 5 17 5 19 0 27 -2 18 -5z m1142 -4 c44 -1 51
-4 47 -19 -3 -12 4 -22 19 -31 24 -12 29 -31 9 -30 -6 0 -20 -9 -32 -21 -14
-13 -28 -18 -42 -13 -22 7 -29 25 -9 25 6 0 9 3 5 6 -10 10 -159 34 -214 34
-29 0 -53 5 -53 10 0 11 63 16 141 11 40 -2 47 1 52 19 3 12 10 19 16 16 5 -4
33 -7 61 -7z m-1750 -13 c0 -3 -4 -8 -10 -11 -5 -3 -10 -1 -10 4 0 6 5 11 10
11 6 0 10 -2 10 -4z m1413 -7 c34 1 47 -3 44 -12 -5 -15 -46 -22 -58 -10 -9 9
-128 -3 -139 -14 -11 -10 26 -21 61 -17 38 4 54 -11 24 -22 -28 -11 -5 -22 62
-29 89 -9 124 -23 66 -26 -24 -1 -47 -2 -53 -3 -5 0 -22 -15 -38 -32 -27 -30
-106 -63 -145 -61 -14 0 -18 6 -14 24 3 15 -1 23 -9 23 -16 0 -19 26 -3 35 5
4 14 18 19 31 5 13 17 24 26 24 13 0 14 3 4 15 -7 8 -23 15 -36 15 -15 0 -24
-6 -24 -15 0 -9 -9 -15 -24 -15 -14 0 -28 -4 -31 -10 -3 -5 -16 -10 -27 -10
-20 0 -20 1 -4 19 17 19 17 19 -6 15 -14 -3 -7 4 17 16 22 11 54 29 72 39 34
22 79 29 133 24 19 -2 57 -4 83 -4z m1614 5 c-3 -3 -12 -4 -19 -1 -8 3 -5 6 6
6 11 1 17 -2 13 -5z m-1862 -14 c-3 -5 -11 -10 -16 -10 -6 0 -7 5 -4 10 3 6
11 10 16 10 6 0 7 -4 4 -10z m2070 -2 c9 -9 -33 -30 -45 -23 -6 3 -10 -1 -10
-9 0 -9 -4 -16 -10 -16 -5 0 -10 5 -10 11 0 5 -5 7 -10 4 -13 -8 -50 3 -50 15
0 17 120 34 135 18z m-3333 -50 c-14 -15 -22 -18 -22 -9 0 15 32 43 39 35 3
-3 -5 -14 -17 -26z m-292 1 c0 -6 -27 -21 -42 -23 -13 -2 -21 -16 -9 -16 8 0
10 -7 5 -22 -6 -20 -5 -21 10 -9 29 24 29 3 1 -24 -16 -14 -25 -28 -22 -31 6
-6 -22 -41 -35 -44 -9 -1 -68 -59 -68 -66 0 -3 10 2 22 10 34 24 44 19 18 -9
-29 -31 -101 -70 -94 -51 3 8 14 16 25 19 25 7 25 27 0 27 -19 0 -19 1 2 40
12 22 34 45 50 51 15 6 27 15 27 20 0 5 -15 0 -32 -11 -87 -52 -90 -53 -86
-33 2 10 13 23 26 28 13 6 25 20 28 31 7 26 68 87 108 108 29 15 66 18 66 5z
m1030 -15 c0 -8 -7 -14 -15 -14 -8 0 -15 -4 -15 -10 0 -13 -26 -13 -51 1 -20
10 -20 10 0 28 24 21 81 17 81 -5z m-770 2 c0 -13 -39 -30 -49 -21 -5 6 29 34
42 35 4 0 7 -6 7 -14z m499 -11 c-16 -17 -79 -30 -79 -17 0 17 22 28 57 30 35
3 37 2 22 -13z m1581 -8 c-21 -16 -13 -54 13 -71 12 -8 43 -17 69 -20 38 -6
47 -11 52 -31 4 -14 11 -25 17 -25 6 0 6 -6 0 -19 -14 -25 -5 -31 32 -20 18 5
44 9 58 9 15 0 30 7 33 16 3 8 10 13 15 10 5 -4 22 -1 36 6 23 10 28 10 36 -5
7 -12 23 -17 51 -17 35 0 39 -2 28 -15 -7 -8 -18 -15 -25 -15 -7 0 -26 -7 -41
-15 -16 -8 -36 -15 -46 -15 -9 0 -30 -17 -46 -37 -17 -21 -34 -35 -38 -31 -4
4 -1 14 6 23 10 12 9 15 -6 16 -11 1 -26 1 -36 0 -9 -1 -19 3 -23 9 -3 5 -21
10 -38 10 -18 0 -45 9 -62 20 -16 11 -40 20 -52 20 -15 0 -23 6 -23 16 0 12 7
15 25 12 41 -8 39 10 -2 21 -21 6 -44 11 -51 11 -7 0 -12 7 -10 16 2 13 -12
21 -56 34 -64 17 -95 48 -37 35 30 -6 31 -5 26 18 -5 19 -2 25 14 30 11 2 22
0 24 -7 3 -6 8 -4 12 7 4 10 18 17 34 17 22 -1 24 -3 11 -13z m-1296 -64 c-21
-16 -11 -17 17 -3 13 8 19 7 19 0 0 -7 16 -9 46 -5 59 7 56 -13 -7 -38 -38
-15 -40 -17 -11 -13 17 3 32 2 32 -2 0 -5 16 -6 35 -4 19 2 35 7 35 11 0 4 12
6 28 5 56 -2 57 -3 34 -20 -12 -8 -27 -12 -33 -8 -6 3 -21 2 -32 -4 -37 -18
-104 -30 -118 -21 -19 11 -29 2 -29 -28 0 -21 2 -24 15 -13 12 10 15 10 15 0
0 -10 3 -10 15 0 20 16 33 4 19 -17 -12 -20 -26 -27 -81 -43 -24 -7 -43 -20
-46 -30 -4 -16 -2 -16 22 -4 37 20 47 17 26 -6 -10 -11 -22 -20 -28 -20 -5 0
-22 -9 -38 -21 -16 -11 -29 -15 -29 -9 0 6 7 13 15 16 8 4 12 10 9 16 -3 5
-12 7 -20 4 -20 -8 -17 0 11 28 14 14 25 35 25 47 0 22 0 22 -21 3 -15 -13
-22 -15 -28 -6 -5 9 -12 9 -27 -3 -10 -8 -14 -15 -7 -15 17 0 -81 -90 -98 -90
-10 0 -10 3 -1 12 20 20 13 32 -8 13 -19 -18 -20 -17 -26 15 -6 26 -9 29 -16
16 -5 -9 -14 -16 -20 -16 -6 0 -2 10 10 23 12 13 20 26 16 29 -3 3 17 18 45
34 63 34 61 42 -3 14 -59 -25 -59 -25 -46 0 12 23 -2 27 -20 5 -7 -8 -17 -15
-22 -15 -5 0 -1 8 9 18 25 26 132 76 166 78 16 1 34 7 40 13 14 14 57 15 57 1
0 -5 -12 -13 -26 -16 -28 -7 -81 -51 -72 -60 4 -3 25 4 48 16 23 12 49 19 57
16 9 -4 25 4 39 21 30 35 30 43 0 43 -13 0 -26 6 -29 13 -6 18 14 56 32 59 23
5 27 -23 5 -39z m-87 25 c7 18 23 14 16 -5 -4 -11 -3 -14 5 -9 7 4 12 3 12 -3
0 -14 -19 -24 -53 -28 -20 -2 -27 1 -23 9 3 7 9 21 12 31 5 15 9 16 16 5 7
-10 11 -10 15 0z m-697 -48 c-6 -11 -16 -20 -22 -20 -6 0 -3 9 7 20 10 11 20
20 22 20 2 0 -1 -9 -7 -20z m590 11 c0 -5 -11 -11 -25 -13 -24 -5 -32 2 -18
15 9 10 43 8 43 -2z m-300 -5 c0 -3 -4 -8 -10 -11 -5 -3 -10 -1 -10 4 0 6 5
11 10 11 6 0 10 -2 10 -4z m1313 -8 c15 1 27 -2 27 -7 0 -12 -62 -61 -77 -61
-22 0 -27 -2 -47 -15 -10 -8 -24 -24 -30 -37 -6 -12 -22 -28 -36 -34 -79 -38
-111 -41 -128 -13 -11 17 -8 24 20 49 18 17 37 30 42 30 5 0 17 7 27 16 30 27
144 82 159 76 8 -3 27 -5 43 -4z m-1853 -13 c0 -7 -81 -57 -86 -52 -2 2 13 16
33 30 36 26 53 33 53 22z m622 -17 c-4 -22 11 -23 28 -3 17 21 42 19 38 -2 -2
-10 -13 -19 -26 -21 -13 -2 -22 -10 -22 -21 0 -18 -18 -41 -32 -41 -4 0 -8 7
-8 16 0 14 -3 14 -15 4 -22 -18 -29 -6 -9 14 21 21 9 34 -16 18 -11 -7 -27
-12 -35 -12 -8 0 -15 -4 -15 -8 0 -11 -80 -96 -80 -85 0 4 -5 0 -11 -11 -8
-12 -14 -15 -18 -7 -5 8 -15 5 -31 -9 -13 -11 -32 -20 -44 -20 -18 0 -15 6 19
34 22 19 43 32 48 29 4 -2 12 7 17 21 6 14 15 38 21 54 10 25 11 26 21 8 8
-14 7 -25 -1 -39 -10 -15 -10 -18 0 -15 8 3 16 15 19 28 3 13 12 26 20 30 8 4
29 14 45 21 17 8 34 20 38 27 13 20 53 11 49 -10z m-522 -8 c0 -5 -4 -10 -10
-10 -5 0 -10 5 -10 10 0 6 5 10 10 10 6 0 10 -4 10 -10z m220 -30 c0 -5 -4
-10 -10 -10 -5 0 -10 5 -10 10 0 6 5 10 10 10 6 0 10 -4 10 -10z m3360 -15
c-7 -9 -15 -13 -17 -11 -7 7 7 26 19 26 6 0 6 -6 -2 -15z m248 -10 c-6 -14
-15 -25 -20 -25 -11 0 -10 7 4 30 18 29 30 25 16 -5z m-3935 -2 c9 -8 -22 -43
-38 -43 -7 0 -18 -7 -25 -15 -7 -8 -26 -15 -42 -15 -16 0 -39 -5 -51 -11 -21
-11 -21 -10 2 15 14 14 30 26 38 26 7 0 13 3 13 8 0 23 86 53 103 35z m271
-18 c-22 -17 -34 -19 -34 -6 0 5 8 12 18 14 32 9 36 7 16 -8z m1506 5 c0 -5
-5 -10 -11 -10 -5 0 -7 5 -4 10 3 6 8 10 11 10 2 0 4 -4 4 -10z m1040 0 c0 -5
-10 -11 -22 -11 -17 -1 -19 -2 -5 -6 9 -2 17 -9 17 -16 0 -6 6 -3 13 7 16 22
50 18 55 -7 2 -9 -4 -24 -12 -33 -24 -23 -20 -37 9 -30 26 7 65 -8 65 -24 0
-24 -51 -34 -174 -36 -76 -1 -123 2 -115 7 8 5 21 9 29 9 8 0 23 7 34 15 17
13 14 15 -33 21 -28 4 -54 10 -56 15 -6 9 100 59 126 59 11 0 19 6 19 14 0 13
13 20 43 25 4 0 7 -3 7 -9z m-1645 -20 c-3 -5 -11 -10 -16 -10 -6 0 -7 5 -4
10 3 6 11 10 16 10 6 0 7 -4 4 -10z m-962 -15 c-3 -9 -8 -14 -10 -11 -3 3 -2
9 2 15 9 16 15 13 8 -4z m1905 -6 c29 -6 50 -14 47 -19 -5 -9 -9 -9 -77 -13
-23 -1 -33 -6 -28 -11 6 -6 4 -16 -5 -26 -13 -14 -12 -16 7 -17 12 -1 27 2 33
6 8 6 47 7 75 2 17 -4 -31 -21 -60 -22 l-35 0 41 -19 c23 -10 45 -23 49 -29 3
-6 11 -9 16 -6 5 4 9 -1 9 -9 0 -9 7 -13 20 -11 11 2 20 -1 20 -6 0 -5 13 -3
30 6 39 20 67 21 50 0 -11 -13 -88 -32 -120 -28 -29 3 -108 -18 -113 -31 -3
-7 -27 -19 -54 -25 -26 -7 -66 -20 -88 -28 -22 -9 -53 -17 -68 -19 -16 -2 -41
-13 -56 -23 -28 -20 -74 -22 -92 -4 -6 6 16 22 63 45 171 84 246 118 257 118
7 0 19 6 27 14 12 12 7 15 -35 21 -29 4 -57 2 -69 -4 -11 -6 -22 -8 -24 -5 -3
2 -37 -11 -76 -31 -39 -19 -76 -35 -81 -35 -5 0 -9 12 -8 27 1 18 -3 28 -13
29 -8 0 -26 2 -40 2 -23 2 -22 4 15 29 22 14 43 31 47 37 4 6 8 0 9 -14 1 -15
3 -19 6 -9 4 15 26 29 123 74 19 9 44 22 56 28 28 16 78 18 142 6z m-2098 -3
c0 -3 -4 -8 -10 -11 -5 -3 -10 -1 -10 4 0 6 5 11 10 11 6 0 10 -2 10 -4z m153
-17 c3 -13 1 -19 -6 -16 -15 5 -22 37 -9 37 5 0 12 -9 15 -21z m512 11 c-3 -5
-12 -10 -18 -10 -7 0 -6 4 3 10 19 12 23 12 15 0z m1105 -5 c-7 -9 -15 -13
-19 -10 -3 3 1 10 9 15 21 14 24 12 10 -5z m-1455 -15 c-3 -5 -12 -10 -18 -10
-7 0 -24 -11 -39 -25 -15 -14 -32 -25 -38 -25 -5 0 -20 -10 -32 -22 -14 -14
-23 -17 -26 -10 -2 8 -9 8 -25 -2 -26 -17 -95 -27 -102 -16 -3 5 8 18 25 30
21 15 30 17 30 8 0 -8 7 -5 18 8 20 26 74 45 92 34 8 -5 28 -1 49 10 30 15 55
26 69 29 2 1 0 -3 -3 -9z m815 -11 c0 -15 -31 -59 -41 -59 -14 0 -11 68 4 73
16 5 37 -3 37 -14z m-1200 3 c0 -18 -28 -42 -85 -72 -33 -18 -73 -43 -88 -56
-16 -13 -35 -24 -43 -24 -8 0 -14 -7 -14 -16 0 -8 -5 -12 -11 -9 -6 4 -17 -2
-25 -14 -20 -27 -42 -27 -53 2 -9 24 -5 41 9 32 4 -3 19 7 32 22 27 31 53 50
81 59 9 4 17 12 17 20 0 21 46 47 70 39 12 -4 20 -2 20 5 0 6 4 9 8 6 5 -3 22
-1 38 4 39 11 44 11 44 2z m153 -7 c4 -8 1 -17 -5 -21 -7 -4 -8 -3 -4 4 4 7 1
12 -7 12 -10 0 -13 -8 -10 -24 3 -14 -1 -25 -9 -28 -19 -8 -17 43 2 59 20 16
27 16 33 -2z m147 5 c-20 -13 -33 -13 -25 0 3 6 14 10 23 10 15 0 15 -2 2 -10z
m1455 -20 c-3 -5 -11 -10 -16 -10 -6 0 -7 5 -4 10 3 6 11 10 16 10 6 0 7 -4 4
-10z m-1268 -15 c0 -8 -6 -15 -14 -15 -7 0 -13 -5 -13 -12 0 -6 -3 -9 -6 -6
-6 7 17 48 27 48 3 0 6 -7 6 -15z m-430 -15 c-14 -11 -30 -20 -35 -20 -5 0
-15 -7 -22 -15 -7 -8 -17 -12 -22 -9 -5 3 -12 -3 -15 -15 -3 -12 -13 -22 -22
-22 -9 -1 -26 -3 -38 -4 -35 -4 -18 11 50 44 34 16 71 36 82 45 11 8 26 16 34
16 8 0 2 -9 -12 -20z m2613 -30 c0 -5 -5 -10 -11 -10 -5 0 -7 5 -4 10 3 6 8
10 11 10 2 0 4 -4 4 -10z m-2370 -4 c0 -3 -4 -8 -10 -11 -5 -3 -10 -1 -10 4 0
6 5 11 10 11 6 0 10 -2 10 -4z m-205 -28 c4 -3 -4 -12 -17 -19 -12 -6 -26 -17
-30 -22 -3 -6 -14 -12 -22 -13 -9 -1 -32 -11 -50 -22 -19 -11 -37 -18 -40 -15
-14 14 -4 30 32 48 20 11 43 27 49 36 12 16 64 21 78 7z m2925 2 c0 -16 -38
-32 -46 -19 -7 12 12 29 34 29 6 0 12 -4 12 -10z m-1295 -10 c-3 -5 -10 -10
-16 -10 -5 0 -9 5 -9 10 0 6 7 10 16 10 8 0 12 -4 9 -10z m1211 -39 c-17 -19
-94 -46 -104 -37 -3 3 0 6 6 6 7 0 12 5 12 11 0 19 30 35 67 36 32 1 33 0 19
-16z m-401 -22 c-47 -22 -68 -24 -63 -6 5 12 45 24 83 25 13 0 5 -7 -20 -19z
m-2613 -23 c2 -13 -7 -25 -30 -37 -18 -10 -34 -19 -37 -19 -3 0 -8 0 -12 0 -5
0 -21 -11 -37 -25 -39 -34 -71 -33 -48 1 4 6 14 13 22 16 8 2 15 13 15 24 0
13 6 18 22 17 11 -1 27 4 33 12 7 8 19 15 27 15 7 0 16 7 20 16 7 18 20 7 25
-20z m934 7 c-10 -10 -19 5 -10 18 6 11 8 11 12 0 2 -7 1 -15 -2 -18z m474 18
c0 -5 -16 -19 -35 -32 -19 -13 -35 -27 -35 -31 0 -10 -71 -40 -78 -34 -8 8 88
97 98 91 5 -3 11 -1 15 5 8 12 35 13 35 1z m1700 3 c0 -21 -24 -44 -47 -44
l-26 0 23 25 c21 23 50 34 50 19z m-660 -35 c0 -21 -4 -27 -15 -23 -8 3 -24
-1 -37 -10 -12 -9 -34 -16 -48 -16 -14 0 -67 -11 -119 -25 -73 -20 -96 -23
-102 -13 -6 9 -10 8 -15 -5 -3 -9 -11 -17 -17 -17 -21 0 28 39 53 42 14 2 34
9 45 15 11 5 26 8 33 6 6 -3 12 1 12 7 0 7 13 10 35 8 20 -1 39 3 43 9 4 6 24
14 45 18 20 4 40 12 44 18 3 6 1 7 -5 3 -7 -4 -12 -3 -12 2 0 5 14 9 30 9 26
0 30 -4 30 -28z m238 23 c9 -6 6 -12 -12 -20 -19 -8 -25 -8 -30 3 -3 8 0 16 7
19 18 7 21 7 35 -2z m212 2 c0 -3 -7 -12 -15 -20 -16 -17 -18 -14 -9 10 6 15
24 23 24 10z m-971 -17 c-2 -1 -13 -9 -24 -17 -19 -14 -19 -14 -6 3 7 9 18 17
24 17 6 0 8 -1 6 -3z m661 -27 c0 -5 -2 -10 -4 -10 -3 0 -8 5 -11 10 -3 6 -1
10 4 10 6 0 11 -4 11 -10z m265 -8 c-33 -28 -83 -60 -104 -67 l-23 -7 23 31
c12 17 31 31 40 31 10 0 21 5 24 10 3 6 16 10 28 10 12 0 17 -4 12 -8z m1455
-2 c0 -5 -4 -10 -10 -10 -5 0 -9 -3 -8 -7 1 -5 -4 -20 -9 -34 -6 -14 -17 -44
-24 -67 -6 -23 -20 -49 -31 -58 -17 -16 -18 -16 -18 2 0 10 7 28 15 38 8 11
15 28 15 38 0 10 3 18 8 18 4 0 15 20 25 45 17 41 37 60 37 35z m-1310 -10 c0
-5 -4 -10 -9 -10 -6 0 -13 5 -16 10 -3 6 1 10 9 10 9 0 16 -4 16 -10z m-40
-29 c0 -7 -73 -61 -84 -61 -2 0 -2 8 1 18 6 24 83 64 83 43z m-92 -21 c-7 -11
-20 -20 -28 -20 -10 0 -7 7 10 20 31 25 33 25 18 0z m-348 -10 c0 -6 -4 -10
-9 -10 -5 0 -24 -3 -42 -6 -30 -5 -32 -4 -18 8 20 16 69 22 69 8z m154 -5 c-4
-8 -13 -15 -21 -15 -13 0 -13 3 -3 15 7 8 16 15 21 15 5 0 6 -7 3 -15z m3543
-47 c-3 -8 -6 -5 -6 6 -1 11 2 17 5 13 3 -3 4 -12 1 -19z m-3317 -18 c0 -5 -5
-10 -11 -10 -5 0 -7 5 -4 10 3 6 8 10 11 10 2 0 4 -4 4 -10z m2030 -1 c0 -14
-25 -39 -40 -39 -6 0 -4 10 6 25 17 26 34 33 34 14z m-2585 -17 c-17 -15 -95
-33 -108 -25 -8 5 3 12 28 19 47 15 93 18 80 6z m2385 -16 c0 -8 -4 -18 -10
-21 -5 -3 -10 3 -10 14 0 12 5 21 10 21 6 0 10 -6 10 -14z m-2513 -12 c-3 -3
-12 -4 -19 -1 -8 3 -5 6 6 6 11 1 17 -2 13 -5z m192 -50 c-13 -16 -59 -19 -59
-5 0 11 18 18 48 18 18 0 20 -2 11 -13z m-2915 -39 c-22 -17 -34 -19 -34 -6 0
5 8 12 18 14 32 9 36 7 16 -8z m5033 -17 c-3 -8 -6 -5 -6 6 -1 11 2 17 5 13 3
-3 4 -12 1 -19z m-2620 -24 c-3 -3 -12 -4 -19 -1 -8 3 -5 6 6 6 11 1 17 -2 13
-5z m2617 -27 c-3 -9 -10 -17 -15 -17 -11 0 -12 34 -2 44 11 11 24 -9 17 -27z
m-2689 2 c-22 -10 -48 -19 -57 -19 -10 0 -40 -9 -68 -20 -59 -23 -60 -23 -60
-10 0 13 33 26 125 50 89 24 111 24 60 -1z m2229 -84 c-7 -17 -14 -18 -40 -8
-16 6 -16 7 2 14 31 12 44 10 38 -6z m216 -21 c0 -10 5 -14 16 -10 8 3 12 2 9
-4 -3 -6 -12 -10 -20 -10 -7 0 -15 -7 -19 -15 -3 -9 -12 -12 -23 -8 -16 6 -16
5 -4 -10 12 -15 11 -17 -5 -17 -42 0 -44 15 -8 53 38 40 54 46 54 21z m-1685
-3 c-8 -14 -65 -41 -87 -41 -34 0 -18 19 30 34 57 18 65 19 57 7z m1575 -31
c0 -5 -5 -10 -11 -10 -5 0 -7 5 -4 10 3 6 8 10 11 10 2 0 4 -4 4 -10z m-1460
-13 c0 -7 -13 -21 -30 -30 -28 -17 -30 -17 -30 -1 0 10 3 14 7 11 3 -4 12 2
20 13 16 23 33 26 33 7z m-200 -41 c0 -2 -7 -7 -16 -10 -8 -3 -12 -2 -9 4 6
10 25 14 25 6z m-64 -31 c-23 -17 -36 -19 -36 -6 0 5 8 12 18 14 32 9 37 6 18
-8z m-56 -25 c-24 -15 -36 -11 -14 4 10 8 21 12 24 10 2 -3 -2 -9 -10 -14z
m-54 -25 c-18 -14 -66 -21 -66 -10 0 5 57 23 75 24 6 0 1 -6 -9 -14z m504
-113 c0 -10 -6 -27 -14 -38 -14 -19 -15 -19 -22 0 -5 12 -3 21 4 24 7 2 12 10
12 18 0 8 5 14 10 14 6 0 10 -8 10 -18z m377 -64 c18 -7 33 -16 33 -21 0 -5
-8 -6 -17 -2 -10 4 -26 7 -35 7 -9 0 -19 6 -22 14 -7 17 -2 17 41 2z m-153
-24 c11 -27 7 -37 -9 -24 -8 7 -15 9 -15 5 0 -5 -2 -6 -5 -3 -7 7 5 38 15 38
4 0 11 -7 14 -16z m1266 -35 c0 -6 -4 -7 -10 -4 -5 3 -10 11 -10 16 0 6 5 7
10 4 6 -3 10 -11 10 -16z m35 -19 c-3 -5 -10 -10 -16 -10 -5 0 -9 5 -9 10 0 6
7 10 16 10 8 0 12 -4 9 -10z m-4050 -40 c-3 -5 -11 -10 -16 -10 -6 0 -7 5 -4
10 3 6 11 10 16 10 6 0 7 -4 4 -10z m4180 -40 c3 -5 1 -10 -4 -10 -6 0 -11 5
-11 10 0 6 2 10 4 10 3 0 8 -4 11 -10z m30 -34 c34 -18 45 -34 44 -66 0 -23
-2 -22 -39 20 -53 60 -54 71 -5 46z m243 -455 c22 -41 22 -41 1 -28 -18 10
-69 94 -69 113 0 14 47 -45 68 -85z m267 -1 c3 -5 2 -10 -4 -10 -5 0 -13 5
-16 10 -3 6 -2 10 4 10 5 0 13 -4 16 -10z m-25 -110 c0 -5 -4 -10 -9 -10 -6 0
-13 5 -16 10 -3 6 1 10 9 10 9 0 16 -4 16 -10z"/>
<path d="M5088 3833 c6 -2 18 -2 25 0 6 3 1 5 -13 5 -14 0 -19 -2 -12 -5z"/>
<path d="M6120 3760 c0 -5 5 -10 11 -10 5 0 7 5 4 10 -3 6 -8 10 -11 10 -2 0
-4 -4 -4 -10z"/>
<path d="M6048 3653 c7 -3 16 -2 19 1 4 3 -2 6 -13 5 -11 0 -14 -3 -6 -6z"/>
<path d="M6170 3646 c0 -10 28 -13 41 -5 10 6 7 9 -13 9 -16 0 -28 -2 -28 -4z"/>
<path d="M5157 3486 c-4 -10 -1 -13 9 -9 15 6 19 23 5 23 -5 0 -11 -7 -14 -14z"/>
<path d="M3705 3500 c-3 -5 -2 -10 4 -10 5 0 13 5 16 10 3 6 2 10 -4 10 -5 0
-13 -4 -16 -10z"/>
<path d="M3875 3319 c-4 -6 -5 -12 -2 -15 2 -3 7 2 10 11 7 17 1 20 -8 4z"/>
<path d="M5408 3003 c-16 -3 -28 -9 -28 -15 0 -5 7 -7 16 -4 9 3 36 6 61 6 26
0 44 2 42 4 -8 8 -62 13 -91 9z"/>
<path d="M5595 2940 c-3 -5 -1 -10 4 -10 6 0 11 5 11 10 0 6 -2 10 -4 10 -3 0
-8 -4 -11 -10z"/>
<path d="M7480 4452 c0 -18 12 -42 21 -42 14 0 10 26 -6 40 -9 8 -15 8 -15 2z"/>
<path d="M3127 4444 c-12 -12 3 -22 23 -17 11 3 17 9 14 14 -6 10 -28 12 -37
3z"/>
<path d="M7560 4441 c0 -6 4 -13 10 -16 6 -3 7 1 4 9 -7 18 -14 21 -14 7z"/>
<path d="M7698 4421 c-7 -27 -12 -32 -28 -28 -17 4 -20 0 -20 -30 0 -19 4 -32
10 -28 5 3 6 13 3 23 -6 15 -5 15 10 3 15 -11 17 -11 17 2 0 8 5 17 11 19 6 2
9 19 7 38 l-3 35 -7 -34z"/>
<path d="M6820 4430 c0 -5 5 -10 11 -10 5 0 7 5 4 10 -3 6 -8 10 -11 10 -2 0
-4 -4 -4 -10z"/>
<path d="M8270 4415 c0 -8 5 -15 10 -15 6 0 10 7 10 15 0 8 -4 15 -10 15 -5 0
-10 -7 -10 -15z"/>
<path d="M6480 4405 c7 -9 15 -13 17 -11 7 7 -7 26 -19 26 -6 0 -6 -6 2 -15z"/>
<path d="M6862 4389 c2 -35 52 -96 111 -134 26 -17 27 -17 27 1 0 26 -45 73
-86 90 -19 8 -35 21 -35 29 -3 28 -4 33 -12 41 -4 4 -7 -8 -5 -27z"/>
<path d="M5170 4398 c0 -9 5 -20 11 -23 17 -11 20 0 4 21 -13 17 -14 17 -15 2z"/>
<path d="M7470 4401 c0 -5 5 -13 10 -16 6 -3 10 -2 10 4 0 5 -4 13 -10 16 -5
3 -10 2 -10 -4z"/>
<path d="M2875 4380 c19 -21 45 -27 45 -10 0 11 -33 30 -51 30 -8 0 -5 -7 6
-20z"/>
<path d="M2630 4382 c0 -4 23 -15 50 -25 28 -10 48 -22 45 -28 -4 -5 -2 -9 4
-9 17 0 23 20 11 35 -7 8 -27 15 -46 15 -18 0 -36 5 -39 10 -7 12 -25 13 -25
2z"/>
<path d="M2805 4380 c3 -5 10 -10 16 -10 5 0 9 5 9 10 0 6 -7 10 -16 10 -8 0
-12 -4 -9 -10z"/>
<path d="M3016 4381 c-4 -7 -5 -15 -2 -18 9 -9 19 4 14 18 -4 11 -6 11 -12 0z"/>
<path d="M6190 4375 c0 -8 2 -15 4 -15 2 0 6 7 10 15 3 8 1 15 -4 15 -6 0 -10
-7 -10 -15z"/>
<path d="M3588 4368 c7 -7 12 -20 12 -30 0 -11 5 -15 14 -12 20 7 0 54 -23 54
-12 0 -12 -3 -3 -12z"/>
<path d="M4777 4349 c7 -7 15 -10 18 -7 3 3 -2 9 -12 12 -14 6 -15 5 -6 -5z"/>
<path d="M6476 4344 c-10 -27 12 -56 37 -48 31 9 31 10 10 38 -21 29 -38 33
-47 10z"/>
<path d="M3497 4343 c-11 -10 -8 -43 3 -43 6 0 10 11 10 25 0 26 -2 29 -13 18z"/>
<path d="M7695 4340 c-3 -5 -1 -10 4 -10 6 0 11 5 11 10 0 6 -2 10 -4 10 -3 0
-8 -4 -11 -10z"/>
<path d="M2977 4333 c-6 -11 -2 -51 6 -59 4 -4 7 -2 7 5 0 8 7 11 15 7 15 -5
55 21 55 36 0 5 -11 6 -24 2 -13 -3 -27 -1 -30 5 -8 13 -23 14 -29 4z"/>
<path d="M4581 4324 c0 -11 3 -14 6 -6 3 7 2 16 -1 19 -3 4 -6 -2 -5 -13z"/>
<path d="M8139 4323 c-13 -16 -12 -17 4 -4 9 7 17 15 17 17 0 8 -8 3 -21 -13z"/>
<path d="M3285 4310 c3 -5 16 -10 28 -9 21 0 21 1 2 9 -28 12 -37 12 -30 0z"/>
<path d="M4190 4304 c0 -15 27 -50 34 -43 4 3 -2 17 -13 30 -11 13 -20 19 -21
13z"/>
<path d="M6650 4288 c0 -18 18 -34 28 -24 3 4 -2 14 -11 23 -16 16 -17 16 -17
1z"/>
<path d="M6860 4285 c7 -9 15 -13 17 -11 7 7 -7 26 -19 26 -6 0 -6 -6 2 -15z"/>
<path d="M7245 4291 c-3 -5 -1 -12 5 -16 5 -3 10 1 10 9 0 18 -6 21 -15 7z"/>
<path d="M7660 4290 c0 -5 7 -10 16 -10 8 0 12 5 9 10 -3 6 -10 10 -16 10 -5
0 -9 -4 -9 -10z"/>
<path d="M4300 4270 c0 -5 7 -10 15 -10 8 0 15 5 15 10 0 6 -7 10 -15 10 -8 0
-15 -4 -15 -10z"/>
<path d="M3693 4257 c-13 -5 -23 -13 -23 -16 0 -3 10 -6 23 -6 12 -1 33 -5 46
-9 17 -6 22 -5 19 5 -8 24 -41 38 -65 26z"/>
<path d="M7900 4259 c0 -5 4 -9 10 -9 5 0 12 -11 16 -24 8 -31 30 -41 37 -15
3 11 9 18 14 17 8 -3 13 5 13 23 0 8 -4 8 -15 -1 -11 -9 -21 -9 -45 3 -16 9
-30 11 -30 6z"/>
<path d="M8025 4260 c-3 -5 -1 -10 4 -10 6 0 11 5 11 10 0 6 -2 10 -4 10 -3 0
-8 -4 -11 -10z"/>
<path d="M2968 4253 c7 -3 16 -2 19 1 4 3 -2 6 -13 5 -11 0 -14 -3 -6 -6z"/>
<path d="M4345 4250 c-3 -5 -1 -10 4 -10 6 0 11 5 11 10 0 6 -2 10 -4 10 -3 0
-8 -4 -11 -10z"/>
<path d="M7820 4232 c0 -25 11 -34 28 -23 9 5 7 12 -8 26 -19 18 -20 18 -20
-3z"/>
<path d="M8040 4226 c0 -18 60 -40 73 -27 6 6 -3 15 -21 25 -38 20 -52 20 -52
2z"/>
<path d="M3040 4226 c0 -2 8 -10 18 -17 15 -13 16 -12 3 4 -13 16 -21 21 -21
13z"/>
<path d="M3125 4220 c3 -5 8 -10 11 -10 2 0 4 5 4 10 0 6 -5 10 -11 10 -5 0
-7 -4 -4 -10z"/>
<path d="M3460 4219 c0 -5 5 -7 10 -4 6 3 10 8 10 11 0 2 -4 4 -10 4 -5 0 -10
-5 -10 -11z"/>
<path d="M4298 4215 c-4 -4 -4 -13 -1 -20 2 -8 -7 -31 -21 -52 -30 -43 -33
-58 -11 -49 8 3 15 2 15 -3 0 -4 24 3 53 17 28 14 75 34 102 44 l50 18 -85 -2
-85 -3 -5 28 c-3 16 -8 26 -12 22z"/>
<path d="M6310 4210 c0 -5 7 -10 16 -10 8 0 12 5 9 10 -3 6 -10 10 -16 10 -5
0 -9 -4 -9 -10z"/>
<path d="M3314 4175 c2 -40 35 -72 64 -59 9 4 23 6 31 5 27 -5 3 24 -39 46
-24 13 -47 28 -50 34 -4 5 -6 -6 -6 -26z"/>
<path d="M6850 4196 c0 -8 5 -18 10 -21 6 -4 10 -15 8 -24 -6 -39 52 -70 66
-36 3 8 18 15 32 15 l27 0 -21 23 c-18 19 -19 26 -9 37 10 12 9 12 -5 1 -10
-7 -24 -11 -32 -8 -10 4 -13 1 -9 -9 3 -7 11 -14 19 -14 8 0 14 -4 14 -10 0
-5 -7 -10 -15 -10 -22 0 -65 30 -65 46 0 7 -4 16 -10 19 -5 3 -10 -1 -10 -9z"/>
<path d="M7870 4201 c0 -5 9 -7 20 -4 11 3 20 7 20 9 0 2 -9 4 -20 4 -11 0
-20 -4 -20 -9z"/>
<path d="M3900 4179 c-20 -17 -22 -22 -10 -29 8 -5 30 -20 49 -34 51 -38 57
-32 17 18 -41 49 -42 53 -18 59 12 3 12 5 2 6 -8 0 -26 -9 -40 -20z"/>
<path d="M8235 4190 c-3 -5 -2 -10 4 -10 5 0 13 5 16 10 3 6 2 10 -4 10 -5 0
-13 -4 -16 -10z"/>
<path d="M5199 4176 c12 -14 51 -29 51 -19 0 10 -34 32 -49 33 -10 0 -11 -3
-2 -14z"/>
<path d="M6268 4183 c7 -3 16 -2 19 1 4 3 -2 6 -13 5 -11 0 -14 -3 -6 -6z"/>
<path d="M6820 4180 c0 -5 5 -10 11 -10 5 0 7 5 4 10 -3 6 -8 10 -11 10 -2 0
-4 -4 -4 -10z"/>
<path d="M7990 4180 c19 -13 30 -13 30 0 0 6 -10 10 -22 10 -19 0 -20 -2 -8
-10z"/>
<path d="M8340 4175 c0 -8 2 -15 4 -15 2 0 6 7 10 15 3 8 1 15 -4 15 -6 0 -10
-7 -10 -15z"/>
<path d="M4003 4152 c10 -10 17 -26 17 -35 0 -9 5 -17 10 -17 17 0 11 25 -10
48 -12 12 -24 22 -27 22 -3 0 1 -8 10 -18z"/>
<path d="M6640 4151 c0 -12 54 -51 70 -51 23 0 3 25 -23 28 -15 2 -27 10 -27
18 0 8 -4 14 -10 14 -5 0 -10 -4 -10 -9z"/>
<path d="M7015 4140 c-3 -5 1 -10 10 -10 9 0 13 5 10 10 -3 6 -8 10 -10 10 -2
0 -7 -4 -10 -10z"/>
<path d="M2955 4130 c-3 -5 1 -10 10 -10 9 0 13 5 10 10 -3 6 -8 10 -10 10 -2
0 -7 -4 -10 -10z"/>
<path d="M6746 4115 c4 -9 14 -20 24 -25 11 -6 16 -17 13 -29 -3 -10 0 -22 7
-26 7 -4 10 0 8 11 -3 16 3 18 35 15 21 -1 37 2 37 8 0 6 -9 11 -20 11 -31 0
-33 1 -63 26 -33 27 -49 31 -41 9z"/>
<path d="M3200 4110 c-13 -8 -12 -10 3 -10 9 0 17 5 17 10 0 12 -1 12 -20 0z"/>
<path d="M3500 4107 c0 -16 20 -37 36 -37 7 0 9 10 6 25 -5 26 -42 37 -42 12z"/>
<path d="M3856 4104 c-27 -19 -13 -30 14 -11 12 8 18 17 13 20 -4 3 -17 -1
-27 -9z"/>
<path d="M3590 4100 c0 -5 5 -10 11 -10 5 0 7 5 4 10 -3 6 -8 10 -11 10 -2 0
-4 -4 -4 -10z"/>
<path d="M4110 4095 c-12 -15 -6 -20 25 -16 6 0 19 -13 30 -29 25 -37 39 -39
30 -2 -13 55 -58 79 -85 47z"/>
<path d="M6600 4102 c0 -4 5 -13 12 -20 9 -9 8 -12 -6 -12 -9 0 -14 -4 -11
-10 4 -6 13 -5 25 3 25 15 25 19 0 35 -11 7 -20 9 -20 4z"/>
<path d="M3765 4059 c-4 -6 -5 -13 -2 -16 7 -7 27 6 27 18 0 12 -17 12 -25 -2z"/>
<path d="M6675 4061 c-3 -5 -1 -12 5 -16 5 -3 10 1 10 9 0 18 -6 21 -15 7z"/>
<path d="M4440 4050 c0 -5 5 -10 10 -10 6 0 10 5 10 10 0 6 -4 10 -10 10 -5 0
-10 -4 -10 -10z"/>
<path d="M6830 4036 c0 -8 14 -21 30 -30 17 -8 30 -11 30 -7 0 4 -13 17 -30
29 -23 17 -30 19 -30 8z"/>
<path d="M3940 4031 c0 -5 7 -11 15 -15 8 -3 15 -1 15 3 0 5 -7 11 -15 15 -8
3 -15 1 -15 -3z"/>
<path d="M3020 4001 c0 -11 39 -25 47 -18 3 3 2 10 -2 16 -8 13 -45 15 -45 2z"/>
<path d="M3110 3986 c18 -16 83 -39 75 -26 -7 11 -64 40 -79 40 -6 0 -4 -6 4
-14z"/>
<path d="M2865 3980 c3 -5 11 -10 16 -10 6 0 7 5 4 10 -3 6 -11 10 -16 10 -6
0 -7 -4 -4 -10z"/>
<path d="M3120 3896 c0 -9 5 -16 10 -16 6 0 10 4 10 9 0 6 -4 13 -10 16 -5 3
-10 -1 -10 -9z"/>
<path d="M3080 3873 c1 -18 18 -35 24 -24 4 6 4 16 1 21 -7 12 -25 13 -25 3z"/>
<path d="M895 3670 c-3 -5 -1 -10 4 -10 6 0 11 5 11 10 0 6 -2 10 -4 10 -3 0
-8 -4 -11 -10z"/>
<path d="M1215 3340 c-3 -5 1 -10 9 -10 9 0 16 5 16 10 0 6 -4 10 -9 10 -6 0
-13 -4 -16 -10z"/>
<path d="M1523 3257 c-22 -10 -31 -27 -15 -27 12 0 48 28 42 33 -3 2 -15 0
-27 -6z"/>
<path d="M1663 3246 c-13 -7 -20 -15 -17 -18 6 -7 54 14 54 25 0 10 -10 8 -37
-7z"/>
<path d="M1959 3163 c-12 -15 -12 -16 4 -10 10 4 23 7 28 7 5 0 9 5 9 10 0 16
-26 12 -41 -7z"/>
<path d="M1895 3140 c-3 -5 -1 -10 4 -10 6 0 11 5 11 10 0 6 -2 10 -4 10 -3 0
-8 -4 -11 -10z"/>
<path d="M1906 3033 c-11 -11 -6 -23 9 -23 8 0 15 4 15 9 0 13 -16 22 -24 14z"/>
<path d="M2405 3010 c-3 -5 1 -10 9 -10 9 0 16 5 16 10 0 6 -4 10 -9 10 -6 0
-13 -4 -16 -10z"/>
<path d="M1255 2870 c-3 -5 -1 -10 4 -10 6 0 11 5 11 10 0 6 -2 10 -4 10 -3 0
-8 -4 -11 -10z"/>
<path d="M1198 2853 c7 -3 16 -2 19 1 4 3 -2 6 -13 5 -11 0 -14 -3 -6 -6z"/>
<path d="M625 2674 c20 -8 165 -20 165 -13 0 3 -24 9 -52 13 -58 6 -129 7
-113 0z"/>
<path d="M8260 2531 c-12 -24 -13 -34 -1 -26 5 3 12 1 16 -5 7 -11 -27 -42
-58 -52 -21 -7 -21 -7 3 -5 14 1 31 -2 38 -7 9 -5 15 -1 19 13 3 12 12 21 19
21 8 0 14 5 14 11 0 6 7 9 15 5 8 -3 15 -2 15 3 0 5 -10 11 -21 14 -16 4 -20
11 -16 26 7 28 -28 29 -43 2z"/>
<path d="M8345 2380 c3 -5 15 -10 26 -10 10 0 19 5 19 10 0 6 -12 10 -26 10
-14 0 -23 -4 -19 -10z"/>
<path d="M7967 2351 c3 -11 11 -17 18 -14 17 6 8 33 -10 33 -8 0 -11 -8 -8
-19z"/>
<path d="M8410 2355 c0 -8 9 -15 20 -15 11 0 20 7 20 15 0 8 -9 15 -20 15 -11
0 -20 -7 -20 -15z"/>
<path d="M8023 2343 c-21 -8 -15 -28 10 -29 12 0 30 -4 40 -8 12 -6 17 -4 17
6 0 12 -43 41 -53 37 -1 0 -8 -3 -14 -6z"/>
<path d="M7924 2314 c3 -9 6 -20 6 -25 0 -5 8 -9 18 -8 10 0 12 3 5 6 -7 2
-13 13 -13 24 0 10 -5 19 -11 19 -6 0 -8 -7 -5 -16z"/>
<path d="M8845 2310 c3 -5 10 -10 16 -10 5 0 9 5 9 10 0 6 -7 10 -16 10 -8 0
-12 -4 -9 -10z"/>
<path d="M7990 2275 c-11 -13 -10 -14 4 -9 9 3 16 10 16 15 0 13 -6 11 -20 -6z"/>
<path d="M8434 2279 c-9 -16 2 -22 21 -11 15 8 16 10 1 15 -8 3 -18 2 -22 -4z"/>
<path d="M8930 2240 c0 -5 7 -10 15 -10 8 0 15 5 15 10 0 6 -7 10 -15 10 -8 0
-15 -4 -15 -10z"/>
<path d="M8134 2215 c-10 -8 -28 -15 -39 -16 -11 0 -1 -7 24 -15 30 -9 49 -10
62 -3 23 12 23 13 3 33 -19 20 -25 20 -50 1z"/>
<path d="M8258 2223 c7 -3 16 -2 19 1 4 3 -2 6 -13 5 -11 0 -14 -3 -6 -6z"/>
<path d="M8743 2223 c-13 -2 -23 -9 -23 -15 0 -5 7 -7 16 -4 9 3 27 6 40 6 13
0 24 5 24 10 0 10 -16 11 -57 3z"/>
<path d="M4638 2193 c7 -3 16 -2 19 1 4 3 -2 6 -13 5 -11 0 -14 -3 -6 -6z"/>
<path d="M4723 2193 c15 -2 39 -2 55 0 15 2 2 4 -28 4 -30 0 -43 -2 -27 -4z"/>
<path d="M5410 2133 c-34 -15 -34 -16 -12 -24 14 -5 37 -5 55 0 l32 9 -30 1
c-29 2 -29 2 -11 16 25 19 11 18 -34 -2z"/>
<path d="M8215 2140 c-3 -5 1 -10 9 -10 9 0 16 5 16 10 0 6 -4 10 -9 10 -6 0
-13 -4 -16 -10z"/>
<path d="M5696 2105 c-21 -32 -20 -45 3 -45 14 0 18 5 14 20 -4 14 -1 20 8 18
7 -2 15 5 17 15 5 26 -23 21 -42 -8z"/>
<path d="M5634 2068 c3 -13 5 -26 5 -30 1 -5 4 -8 9 -8 4 0 7 14 8 30 1 19 -4
30 -12 30 -9 0 -12 -8 -10 -22z"/>
<path d="M8210 2080 c8 -5 20 -10 25 -10 6 0 3 5 -5 10 -8 5 -19 10 -25 10 -5
0 -3 -5 5 -10z"/>
<path d="M5887 2060 c-3 -13 1 -24 13 -30 22 -12 28 -6 22 25 -5 30 -28 33
-35 5z"/>
<path d="M5966 2054 c-5 -14 -4 -15 9 -4 17 14 19 20 6 20 -5 0 -12 -7 -15
-16z"/>
<path d="M8621 2059 c-1 -17 18 -29 45 -29 8 0 14 5 14 10 0 6 -11 10 -24 10
-13 0 -27 6 -29 13 -4 7 -6 6 -6 -4z"/>
<path d="M5758 2043 c7 -3 16 -2 19 1 4 3 -2 6 -13 5 -11 0 -14 -3 -6 -6z"/>
<path d="M8150 2040 c0 -5 7 -10 15 -10 8 0 15 5 15 10 0 6 -7 10 -15 10 -8 0
-15 -4 -15 -10z"/>
<path d="M9040 2040 c0 -5 5 -10 10 -10 6 0 10 5 10 10 0 6 -4 10 -10 10 -5 0
-10 -4 -10 -10z"/>
<path d="M8296 2033 c-11 -11 -6 -23 9 -23 8 0 15 4 15 9 0 13 -16 22 -24 14z"/>
<path d="M5666 2015 c-16 -12 -17 -15 -4 -15 24 0 48 11 48 21 0 13 -23 10
-44 -6z"/>
<path d="M5782 2017 c-17 -20 0 -35 36 -32 63 4 69 45 8 45 -19 0 -38 -6 -44
-13z"/>
<path d="M8570 2011 c0 -11 5 -23 10 -26 6 -3 10 -2 10 4 0 5 3 16 6 25 4 11
1 16 -10 16 -9 0 -16 -8 -16 -19z"/>
<path d="M8180 1990 c0 -5 5 -10 10 -10 6 0 10 5 10 10 0 6 -4 10 -10 10 -5 0
-10 -4 -10 -10z"/>
<path d="M5598 1983 c7 -3 16 -2 19 1 4 3 -2 6 -13 5 -11 0 -14 -3 -6 -6z"/>
<path d="M5716 1977 c-16 -12 -16 -14 -2 -26 22 -18 46 -7 39 18 -6 24 -13 26
-37 8z"/>
<path d="M6870 1960 c0 -5 4 -10 9 -10 6 0 13 5 16 10 3 6 -1 10 -9 10 -9 0
-16 -4 -16 -10z"/>
<path d="M6700 1950 c0 -5 5 -10 11 -10 5 0 7 5 4 10 -3 6 -8 10 -11 10 -2 0
-4 -4 -4 -10z"/>
<path d="M8546 1951 c-4 -5 -2 -12 3 -15 5 -4 12 -2 15 3 4 5 2 12 -3 15 -5 4
-12 2 -15 -3z"/>
<path d="M8597 1953 c-3 -5 -2 -15 2 -21 9 -15 43 -4 38 12 -5 14 -33 20 -40
9z"/>
<path d="M5055 1940 c3 -5 12 -10 20 -10 8 0 17 5 20 10 4 6 -5 10 -20 10 -15
0 -24 -4 -20 -10z"/>
<path d="M6263 1930 c-17 -26 -6 -52 21 -48 14 2 21 11 22 26 1 19 -1 20 -14
10 -13 -11 -14 -10 -8 10 9 27 -5 29 -21 2z"/>
<path d="M6637 1943 c-4 -3 -17 -7 -30 -9 -12 -1 -25 -3 -29 -3 -5 -1 -8 -10
-8 -21 0 -13 7 -20 20 -20 11 0 20 5 20 10 0 6 5 10 10 10 6 0 20 9 32 20 17
15 18 20 7 20 -9 0 -19 -3 -22 -7z"/>
<path d="M5298 1923 c7 -3 16 -2 19 1 4 3 -2 6 -13 5 -11 0 -14 -3 -6 -6z"/>
<path d="M5248 1903 c7 -3 16 -2 19 1 4 3 -2 6 -13 5 -11 0 -14 -3 -6 -6z"/>
<path d="M7100 1869 c0 -5 5 -7 10 -4 6 3 10 8 10 11 0 2 -4 4 -10 4 -5 0 -10
-5 -10 -11z"/>
<path d="M6473 1850 c-13 -5 -23 -13 -23 -18 0 -12 44 -10 52 2 18 26 8 31
-29 16z"/>
<path d="M5790 1840 c0 -5 11 -10 24 -10 14 0 28 5 31 10 4 6 -7 10 -24 10
-17 0 -31 -4 -31 -10z"/>
<path d="M5898 1833 c7 -3 16 -2 19 1 4 3 -2 6 -13 5 -11 0 -14 -3 -6 -6z"/>
<path d="M8200 1830 c0 -5 5 -10 10 -10 6 0 10 5 10 10 0 6 -4 10 -10 10 -5 0
-10 -4 -10 -10z"/>
<path d="M3838 1813 c7 -3 16 -2 19 1 4 3 -2 6 -13 5 -11 0 -14 -3 -6 -6z"/>
<path d="M6241 1804 c0 -11 3 -14 6 -6 3 7 2 16 -1 19 -3 4 -6 -2 -5 -13z"/>
<path d="M9135 1810 c3 -5 8 -10 11 -10 2 0 4 5 4 10 0 6 -5 10 -11 10 -5 0
-7 -4 -4 -10z"/>
<path d="M5598 1798 c9 -9 15 -9 24 0 9 9 7 12 -12 12 -19 0 -21 -3 -12 -12z"/>
<path d="M6277 1789 c-6 -22 6 -25 22 -5 9 10 8 15 -3 19 -8 3 -16 -2 -19 -14z"/>
<path d="M3681 1781 c-10 -6 8 -11 52 -16 68 -7 103 -2 93 14 -7 11 -127 13
-145 2z"/>
<path d="M6343 1770 c-3 -11 -10 -20 -17 -20 -7 0 -6 -4 2 -9 8 -4 13 -12 12
-17 -4 -21 18 -12 29 12 10 23 10 26 -4 20 -13 -4 -15 -1 -10 14 4 11 3 20 0
20 -4 0 -9 -9 -12 -20z"/>
<path d="M5648 1743 c7 -3 16 -2 19 1 4 3 -2 6 -13 5 -11 0 -14 -3 -6 -6z"/>
<path d="M6615 1720 c-3 -5 -1 -10 4 -10 6 0 11 5 11 10 0 6 -2 10 -4 10 -3 0
-8 -4 -11 -10z"/>
<path d="M3580 1711 l-25 -8 25 -4 c37 -6 91 2 84 12 -6 10 -48 10 -84 0z"/>
<path d="M4740 1700 c0 -5 7 -10 15 -10 8 0 15 5 15 10 0 6 -7 10 -15 10 -8 0
-15 -4 -15 -10z"/>
<path d="M4675 1680 c-3 -5 3 -10 14 -10 12 0 21 5 21 10 0 6 -6 10 -14 10 -8
0 -18 -4 -21 -10z"/>
<path d="M5880 1660 c0 -5 5 -10 10 -10 6 0 10 5 10 10 0 6 -4 10 -10 10 -5 0
-10 -4 -10 -10z"/>
<path d="M7125 1659 c-11 -17 0 -20 21 -4 17 13 17 14 2 15 -9 0 -20 -5 -23
-11z"/>
<path d="M6438 1653 c7 -3 16 -2 19 1 4 3 -2 6 -13 5 -11 0 -14 -3 -6 -6z"/>
<path d="M6218 1633 c7 -3 16 -2 19 1 4 3 -2 6 -13 5 -11 0 -14 -3 -6 -6z"/>
<path d="M5755 1620 c-8 -13 15 -13 35 0 12 8 11 10 -7 10 -12 0 -25 -4 -28
-10z"/>
<path d="M9105 1600 c3 -5 15 -10 26 -10 11 0 17 5 14 10 -3 6 -15 10 -26 10
-11 0 -17 -4 -14 -10z"/>
<path d="M6154 1565 c-16 -24 -16 -28 -1 -42 14 -14 16 -13 22 21 9 47 1 55
-21 21z"/>
<path d="M6327 1541 c-18 -35 -9 -41 18 -11 10 11 22 17 27 14 6 -4 5 -10 -3
-15 -19 -11 -5 -22 19 -15 22 7 19 46 -3 46 -8 0 -20 3 -28 6 -10 3 -20 -5
-30 -25z"/>
<path d="M2368 1543 c6 -2 18 -2 25 0 6 3 1 5 -13 5 -14 0 -19 -2 -12 -5z"/>
<path d="M3538 1543 c7 -3 16 -2 19 1 4 3 -2 6 -13 5 -11 0 -14 -3 -6 -6z"/>
<path d="M6675 1540 c-3 -5 -2 -10 4 -10 5 0 13 5 16 10 3 6 2 10 -4 10 -5 0
-13 -4 -16 -10z"/>
<path d="M2708 1513 c7 -3 16 -2 19 1 4 3 -2 6 -13 5 -11 0 -14 -3 -6 -6z"/>
<path d="M6270 1480 c0 -24 15 -27 24 -4 9 22 8 24 -9 24 -8 0 -15 -9 -15 -20z"/>
<path d="M6795 1489 c-11 -17 0 -20 21 -4 17 13 17 14 2 15 -9 0 -20 -5 -23
-11z"/>
<path d="M2290 1480 c0 -5 5 -10 10 -10 6 0 10 5 10 10 0 6 -4 10 -10 10 -5 0
-10 -4 -10 -10z"/>
<path d="M6151 1466 c-8 -10 -9 -16 -1 -21 5 -3 13 1 16 10 9 22 -1 29 -15 11z"/>
<path d="M6875 1380 c-3 -6 1 -7 9 -4 18 7 21 14 7 14 -6 0 -13 -4 -16 -10z"/>
<path d="M5325 1370 c-3 -5 -2 -10 4 -10 5 0 13 5 16 10 3 6 2 10 -4 10 -5 0
-13 -4 -16 -10z"/>
<path d="M5715 1370 c-3 -5 1 -10 9 -10 9 0 16 5 16 10 0 6 -4 10 -9 10 -6 0
-13 -4 -16 -10z"/>
<path d="M7452 1368 c-19 -19 -14 -30 8 -18 11 6 20 15 20 20 0 14 -14 12 -28
-2z"/>
<path d="M3093 1363 c9 -2 23 -2 30 0 6 3 -1 5 -18 5 -16 0 -22 -2 -12 -5z"/>
<path d="M6360 1340 c0 -5 4 -10 9 -10 6 0 13 5 16 10 3 6 -1 10 -9 10 -9 0
-16 -4 -16 -10z"/>
<path d="M6204 1325 c-7 -17 2 -45 14 -45 4 0 17 6 27 14 16 12 17 16 6 30
-17 20 -40 21 -47 1z"/>
<path d="M6580 1320 c-13 -8 -13 -10 2 -10 9 0 20 5 23 10 8 13 -5 13 -25 0z"/>
<path d="M6443 1273 c-12 -4 -19 -33 -9 -33 19 0 56 22 51 30 -7 11 -22 12
-42 3z"/>
<path d="M5225 1090 c-3 -5 -1 -10 4 -10 6 0 11 5 11 10 0 6 -2 10 -4 10 -3 0
-8 -4 -11 -10z"/>
<path d="M7435 1070 c-3 -5 -1 -10 4 -10 6 0 11 5 11 10 0 6 -2 10 -4 10 -3 0
-8 -4 -11 -10z"/>
<path d="M6690 1060 c0 -5 5 -10 10 -10 6 0 10 5 10 10 0 6 -4 10 -10 10 -5 0
-10 -4 -10 -10z"/>
<path d="M6167 1026 c-4 -10 -5 -21 -2 -24 9 -9 17 6 13 25 -3 17 -4 17 -11
-1z"/>
<path d="M6194 935 c-10 -40 1 -52 20 -23 17 26 15 48 -4 48 -5 0 -12 -11 -16
-25z"/>
<path d="M4795 879 c-3 -4 0 -11 6 -14 5 -4 8 -13 5 -21 -3 -9 1 -14 12 -14
26 0 46 16 39 33 -6 16 -55 29 -62 16z"/>
</g>
</svg>
