<?xml version="1.0" standalone="no"?>
<!DOCTYPE svg PUBLIC "-//W3C//DTD SVG 20010904//EN"
 "http://www.w3.org/TR/2001/REC-SVG-20010904/DTD/svg10.dtd">
<svg version="1.0" xmlns="http://www.w3.org/2000/svg"
 width="1195.000000pt" height="498.000000pt" viewBox="0 0 1195.000000 498.000000"
 preserveAspectRatio="xMidYMid meet">

<g transform="translate(0.000000,498.000000) scale(0.100000,-0.100000)"
fill="#000000" stroke="none">
<path d="M6851 4770 c0 -8 4 -22 9 -30 12 -18 12 -2 0 25 -6 13 -9 15 -9 5z"/>
<path d="M4700 4760 c0 -5 5 -10 10 -10 6 0 10 5 10 10 0 6 -4 10 -10 10 -5 0
-10 -4 -10 -10z"/>
<path d="M7415 4731 c-3 -5 -1 -12 5 -16 5 -3 10 1 10 9 0 18 -6 21 -15 7z"/>
<path d="M4386 4660 c10 -16 25 -32 33 -35 12 -5 11 -2 -2 13 -9 10 -17 23
-17 29 0 6 -7 14 -15 17 -14 5 -13 1 1 -24z"/>
<path d="M5880 4670 c6 -11 16 -20 22 -20 6 0 3 9 -7 20 -10 11 -20 20 -22 20
-2 0 1 -9 7 -20z"/>
<path d="M7190 4626 c11 -48 1 -58 -50 -52 -60 7 -83 -6 -68 -39 11 -25 28
-34 28 -14 0 21 26 36 75 42 29 4 44 3 36 -2 -17 -11 2 -51 24 -51 15 0 20 23
16 68 -1 15 2 21 8 17 6 -3 11 -1 11 5 0 7 8 9 20 5 13 -4 22 -1 26 9 3 9 10
13 15 10 5 -3 9 1 9 9 0 22 -62 31 -76 12 -14 -19 -33 -19 -40 0 -4 8 -14 15
-24 15 -15 0 -17 -5 -10 -34z"/>
<path d="M4800 4600 c0 -5 5 -10 10 -10 6 0 10 5 10 10 0 6 -4 10 -10 10 -5 0
-10 -4 -10 -10z"/>
<path d="M4854 4545 c3 -9 6 -21 6 -26 0 -5 7 -9 15 -9 22 0 18 23 -6 39 -19
11 -21 11 -15 -4z"/>
<path d="M7030 4547 c0 -7 7 -22 15 -33 13 -17 14 -16 4 14 -11 33 -19 41 -19
19z"/>
<path d="M4790 4516 c0 -2 7 -9 15 -16 9 -7 15 -8 15 -2 0 5 -7 12 -15 16 -8
3 -15 4 -15 2z"/>
<path d="M3660 4466 c0 -2 8 -10 18 -17 15 -13 16 -12 3 4 -13 16 -21 21 -21
13z"/>
<path d="M4525 4460 c3 -5 8 -10 11 -10 2 0 4 5 4 10 0 6 -5 10 -11 10 -5 0
-7 -4 -4 -10z"/>
<path d="M7180 4455 c0 -8 7 -15 15 -15 8 0 15 7 15 15 0 8 -7 15 -15 15 -8 0
-15 -7 -15 -15z"/>
<path d="M7098 4440 c15 -6 22 -18 22 -36 0 -18 -4 -25 -14 -21 -8 3 -17 -1
-20 -8 -6 -17 9 -29 24 -20 6 3 10 -1 10 -9 0 -9 8 -16 18 -16 15 0 15 2 2 11
-11 8 -12 12 -2 16 14 6 16 49 2 58 -6 4 -7 11 -4 17 4 7 2 8 -4 4 -7 -4 -12
-2 -12 3 0 6 -10 11 -22 10 l-23 0 23 -9z"/>
<path d="M7246 4418 c-9 -35 -7 -60 4 -53 6 4 8 11 5 16 -3 5 1 6 9 3 22 -8
31 22 13 41 -20 20 -24 19 -31 -7z"/>
<path d="M4728 4423 c6 -2 18 -2 25 0 6 3 1 5 -13 5 -14 0 -19 -2 -12 -5z"/>
<path d="M4832 4422 c-12 -2 -20 -8 -16 -13 3 -5 10 -7 15 -3 5 3 16 1 24 -6
7 -6 15 -7 18 -3 8 13 -17 28 -41 25z"/>
<path d="M5705 4420 c3 -5 11 -10 16 -10 6 0 7 5 4 10 -3 6 -11 10 -16 10 -6
0 -7 -4 -4 -10z"/>
<path d="M6124 4415 c8 -8 20 -15 27 -15 9 0 8 4 -1 15 -7 8 -19 15 -27 15
-12 0 -12 -2 1 -15z"/>
<path d="M7190 4420 c0 -5 5 -10 10 -10 6 0 10 5 10 10 0 6 -4 10 -10 10 -5 0
-10 -4 -10 -10z"/>
<path d="M7330 4420 c-12 -8 -10 -10 8 -10 13 0 20 4 17 10 -7 12 -6 12 -25 0z"/>
<path d="M7535 4420 c-8 -13 15 -13 35 0 12 8 11 10 -7 10 -12 0 -25 -4 -28
-10z"/>
<path d="M6910 4413 c0 -5 6 -15 12 -21 10 -10 10 -15 -2 -22 -13 -8 -12 -10
3 -10 21 0 23 33 2 50 -8 7 -15 8 -15 3z"/>
<path d="M4896 4402 c-3 -6 -1 -14 5 -17 15 -10 25 3 12 16 -7 7 -13 7 -17 1z"/>
<path d="M7436 4391 c-3 -5 4 -11 16 -14 25 -7 33 -3 23 12 -8 13 -32 14 -39
2z"/>
<path d="M6200 4380 c0 -6 7 -10 15 -10 8 0 15 2 15 4 0 2 -7 6 -15 10 -8 3
-15 1 -15 -4z"/>
<path d="M4680 4370 c0 -5 10 -10 23 -10 18 0 19 2 7 10 -19 13 -30 13 -30 0z"/>
<path d="M7170 4370 c0 -5 6 -10 14 -10 8 0 18 5 21 10 3 6 -3 10 -14 10 -12
0 -21 -4 -21 -10z"/>
<path d="M7305 4370 c3 -5 8 -10 11 -10 2 0 4 5 4 10 0 6 -5 10 -11 10 -5 0
-7 -4 -4 -10z"/>
<path d="M7020 4350 c-11 -11 -25 -20 -32 -20 -6 0 -20 -7 -30 -17 -15 -13
-23 -14 -43 -5 -13 6 -23 17 -21 24 1 7 1 10 -1 6 -3 -5 -11 -8 -19 -8 -8 0
-14 -9 -14 -20 0 -17 7 -20 40 -20 27 0 40 -4 40 -13 0 -8 9 -22 19 -31 11
-10 17 -24 14 -32 -3 -8 0 -14 7 -14 6 0 9 4 6 9 -3 5 4 11 15 14 17 5 19 9
10 26 -17 31 -13 56 14 85 36 39 32 53 -5 16z"/>
<path d="M7280 4355 c7 -9 15 -13 17 -11 7 7 -7 26 -19 26 -6 0 -6 -6 2 -15z"/>
<path d="M7370 4366 c0 -2 7 -7 16 -10 8 -3 12 -2 9 4 -6 10 -25 14 -25 6z"/>
<path d="M5045 4350 c3 -5 8 -10 11 -10 2 0 4 5 4 10 0 6 -5 10 -11 10 -5 0
-7 -4 -4 -10z"/>
<path d="M5806 4347 c3 -10 9 -15 12 -12 3 3 0 11 -7 18 -10 9 -11 8 -5 -6z"/>
<path d="M6830 4350 c0 -5 4 -10 9 -10 6 0 13 5 16 10 3 6 -1 10 -9 10 -9 0
-16 -4 -16 -10z"/>
<path d="M7320 4340 c0 -5 5 -10 11 -10 5 0 7 5 4 10 -3 6 -8 10 -11 10 -2 0
-4 -4 -4 -10z"/>
<path d="M7247 4329 c7 -7 15 -10 18 -7 3 3 -2 9 -12 12 -14 6 -15 5 -6 -5z"/>
<path d="M4238 4323 c7 -3 16 -2 19 1 4 3 -2 6 -13 5 -11 0 -14 -3 -6 -6z"/>
<path d="M4370 4321 c0 -5 7 -11 15 -15 8 -3 15 -1 15 3 0 5 -7 11 -15 15 -8
3 -15 1 -15 -3z"/>
<path d="M5131 4314 c0 -11 3 -14 6 -6 3 7 2 16 -1 19 -3 4 -6 -2 -5 -13z"/>
<path d="M6270 4326 c0 -2 7 -6 15 -10 8 -3 15 -1 15 4 0 6 -7 10 -15 10 -8 0
-15 -2 -15 -4z"/>
<path d="M6570 4320 c0 -5 5 -10 10 -10 6 0 10 5 10 10 0 6 -4 10 -10 10 -5 0
-10 -4 -10 -10z"/>
<path d="M6705 4320 c3 -5 8 -10 11 -10 2 0 4 5 4 10 0 6 -5 10 -11 10 -5 0
-7 -4 -4 -10z"/>
<path d="M7180 4324 c0 -13 18 -39 24 -34 2 3 -2 14 -10 24 -8 11 -14 16 -14
10z"/>
<path d="M5077 4313 c-12 -11 -8 -23 8 -23 8 0 15 7 15 15 0 16 -12 20 -23 8z"/>
<path d="M6530 4310 c0 -6 7 -13 15 -17 24 -9 27 1 5 15 -13 8 -20 8 -20 2z"/>
<path d="M4930 4300 c0 -5 7 -10 15 -10 8 0 15 -5 15 -12 0 -6 2 -9 5 -6 3 3
3 13 -1 22 -7 17 -34 22 -34 6z"/>
<path d="M4995 4300 c-3 -5 1 -10 10 -10 9 0 13 5 10 10 -3 6 -8 10 -10 10 -2
0 -7 -4 -10 -10z"/>
<path d="M5193 4285 c7 -13 14 -20 15 -14 5 14 -6 39 -17 39 -5 0 -4 -11 2
-25z"/>
<path d="M6823 4294 c-7 -7 -13 -19 -13 -27 0 -7 6 -19 13 -26 10 -11 9 -14
-1 -18 -6 -3 -9 -9 -6 -15 4 -6 9 -5 15 3 6 11 12 10 27 -4 10 -9 24 -17 30
-17 22 0 12 17 -23 41 -35 24 -46 54 -23 61 7 3 8 7 3 10 -6 3 -16 0 -22 -8z"/>
<path d="M7014 4292 c2 -9 8 -28 13 -42 6 -14 8 -30 6 -37 -3 -6 6 -13 18 -15
12 -2 24 -10 27 -18 4 -12 2 -13 -9 -2 -17 16 -29 15 -29 -1 0 -8 -13 -13 -33
-13 -48 0 -73 -12 -58 -27 9 -9 14 -9 22 3 9 13 10 13 6 0 -2 -8 -12 -14 -21
-14 -9 1 -16 -2 -16 -7 0 -5 -6 -9 -14 -9 -8 0 -17 -6 -19 -12 -4 -10 -6 -10
-6 0 -1 6 -11 12 -23 12 -13 0 -18 -4 -13 -8 14 -10 17 -32 5 -32 -6 0 -10 5
-10 10 0 7 -6 7 -19 0 -26 -14 -29 -13 -27 7 1 12 -7 19 -24 21 -14 2 -32 9
-40 15 -12 9 -13 9 -2 -3 6 -8 12 -23 12 -33 0 -14 5 -18 19 -14 23 6 38 -22
19 -34 -6 -4 -15 -6 -18 -4 -3 2 -32 -3 -65 -11 -65 -15 -138 -19 -80 -4 l30
8 -27 1 c-15 0 -30 -3 -33 -9 -3 -5 -14 -10 -23 -9 -14 0 -13 2 3 10 14 6 7 8
-25 4 -25 -3 -85 -9 -135 -14 -49 -6 -108 -15 -130 -20 -22 -6 -84 -11 -138
-11 -80 0 -99 3 -104 16 -4 12 -8 13 -14 3 -6 -10 -18 -11 -56 -2 -51 12 -255
11 -360 -1 -49 -6 -66 -5 -85 8 -12 9 -41 16 -65 16 -23 0 -44 4 -48 10 -3 6
-15 6 -29 0 -13 -5 -26 -7 -28 -5 -2 2 -23 5 -46 6 -24 2 -46 7 -48 11 -3 4
-10 8 -15 8 -6 0 -7 -5 -3 -12 4 -7 -15 0 -42 16 -35 19 -41 21 -21 6 15 -12
27 -25 27 -29 0 -5 -23 -11 -51 -14 -28 -4 -61 -13 -73 -21 -19 -12 -25 -12
-50 7 -25 18 -29 19 -37 4 -11 -18 -53 -25 -199 -33 -137 -7 -140 -7 -140 -16
0 -7 -41 -5 -60 2 -3 1 -9 2 -14 1 -5 -1 -13 4 -18 11 -6 9 -7 5 -3 -10 6 -22
5 -24 -27 -19 -62 10 -98 20 -104 28 -8 14 -44 10 -44 -4 0 -8 10 -19 23 -26
20 -10 19 -11 -13 -6 -18 3 -36 9 -40 14 -12 19 -53 31 -113 35 -35 2 -73 9
-85 15 -30 16 -128 14 -162 -4 -16 -8 -50 -14 -75 -13 -31 1 -51 -4 -65 -17
-15 -13 -43 -20 -101 -24 -44 -4 -83 -12 -87 -18 -4 -6 -32 -15 -62 -19 -38
-5 -49 -9 -35 -14 17 -6 16 -8 -8 -12 -21 -4 -27 -2 -23 8 3 8 1 14 -3 14 -5
0 -12 -7 -15 -16 -5 -12 -16 -15 -41 -12 -34 4 -48 -6 -22 -15 28 -10 -5 -17
-87 -18 -74 -1 -87 -4 -84 -18 2 -12 17 -17 53 -19 28 -1 57 -5 65 -9 8 -3 18
-7 22 -7 19 -3 18 -16 -2 -16 -50 0 -2 -21 53 -23 70 -3 87 -17 21 -18 -93 -1
-7 -20 99 -22 53 -1 97 -5 97 -9 0 -9 -20 -11 -60 -9 -19 1 -21 -1 -11 -8 8
-5 30 -7 50 -5 96 11 139 10 134 -2 -3 -10 8 -11 49 -7 81 10 91 9 95 -4 3 -7
-3 -13 -13 -13 -16 0 -16 -1 1 -20 10 -11 13 -20 7 -20 -7 0 -12 -5 -12 -12 0
-7 6 -6 18 4 11 10 41 16 86 17 61 2 68 0 57 -13 -7 -8 -20 -17 -29 -19 -9 -2
-5 -3 11 -1 40 5 88 -6 81 -20 -3 -6 0 -4 8 4 16 19 149 24 142 6 -7 -19 48
-11 106 17 34 16 77 27 110 28 30 2 62 8 70 14 8 6 34 20 58 30 41 18 43 18
57 -1 17 -22 19 -44 5 -44 -10 0 -70 -56 -70 -65 0 -4 5 -3 10 0 6 3 10 2 10
-4 0 -5 -6 -14 -13 -18 -8 -4 -22 -21 -32 -38 -10 -16 -12 -24 -5 -17 21 18
35 14 18 -5 -9 -10 -18 -27 -20 -38 -4 -21 -20 -23 -85 -9 -22 4 -33 2 -33 -5
0 -6 -7 -11 -15 -11 -20 0 -95 -47 -95 -60 0 -6 -25 -35 -55 -65 -59 -59 -105
-86 -105 -60 0 22 -12 19 -56 -13 -22 -16 -57 -31 -78 -35 -21 -3 -47 -15 -58
-27 -10 -11 -30 -20 -43 -20 -13 0 -26 -4 -29 -9 -7 -10 -101 -57 -133 -66
-13 -4 -23 -11 -23 -16 0 -5 -8 -9 -17 -9 -10 0 -27 -7 -37 -15 -11 -8 -35
-15 -53 -15 -18 0 -33 -4 -33 -9 0 -5 -15 -9 -32 -8 -22 0 -50 -11 -80 -32
-51 -34 -57 -41 -63 -68 -2 -10 -7 -28 -11 -40 -6 -21 -3 -23 30 -23 25 0 36
-4 36 -15 0 -32 164 -33 182 -1 5 9 14 16 20 16 6 0 34 15 62 33 82 54 83 54
78 -14 -5 -65 -8 -63 78 -59 50 2 70 9 70 26 0 8 7 14 15 14 8 0 15 4 15 10 0
15 189 200 205 200 8 0 12 -6 9 -13 -3 -9 13 -13 65 -15 49 -1 79 -7 103 -22
18 -11 38 -21 43 -23 65 -23 117 -37 138 -37 37 0 77 -17 77 -33 0 -16 153
-37 270 -37 70 0 145 23 176 55 9 8 22 15 30 15 8 0 14 7 14 15 0 8 9 15 20
15 11 0 20 7 20 15 0 8 9 20 20 27 11 7 20 19 20 26 0 7 4 11 8 8 5 -3 16 4
25 15 9 10 25 19 36 19 10 0 24 7 31 15 7 8 27 17 46 21 19 3 34 12 34 19 0 8
23 14 66 18 38 4 74 13 84 22 23 21 33 19 25 -5 -8 -26 24 -27 61 -3 24 15 25
15 22 -1 -2 -10 6 -23 16 -30 11 -6 34 -26 52 -43 27 -27 33 -30 38 -16 4 9 9
13 13 10 3 -4 13 -3 22 2 9 5 29 11 45 15 27 7 28 6 16 -9 -8 -10 -23 -21 -35
-26 -17 -8 -17 -9 5 -4 62 13 115 17 100 6 -13 -9 -12 -11 6 -11 11 0 25 5 32
12 8 8 12 8 12 1 0 -6 11 -14 25 -17 14 -4 25 -11 25 -17 0 -6 4 -8 9 -4 5 3
12 1 16 -5 4 -7 12 -7 26 0 11 6 19 7 19 2 0 -6 -9 -12 -20 -15 -11 -3 -20
-11 -20 -19 0 -10 3 -9 10 2 8 12 10 11 10 -5 0 -12 -5 -26 -12 -33 -9 -9 -8
-12 5 -12 9 0 17 6 17 13 0 15 100 68 112 60 5 -2 5 -15 2 -29 -4 -15 -2 -24
6 -24 6 0 8 5 5 11 -10 16 26 38 63 39 22 0 32 -5 32 -16 0 -8 -4 -12 -10 -9
-13 8 -13 -26 1 -45 9 -12 10 -12 5 4 -5 14 -2 17 10 12 8 -3 18 -6 20 -6 2 0
4 -7 4 -15 0 -9 -9 -15 -22 -16 l-23 0 23 -11 c12 -6 22 -20 23 -32 0 -12 2
-32 3 -46 1 -14 3 -42 4 -62 1 -26 6 -36 15 -32 13 5 19 134 6 134 -3 0 -4 11
-1 25 2 14 8 22 13 19 5 -3 6 2 3 10 -4 11 2 19 20 26 14 5 26 14 26 20 0 5
12 10 26 10 14 0 23 4 19 9 -3 5 -1 12 5 16 14 9 13 -7 -5 -48 -18 -45 -18
-47 -1 -47 11 0 13 -7 6 -30 -9 -33 -3 -70 12 -70 6 0 8 7 4 15 -3 9 0 15 10
15 9 0 13 5 9 13 -4 6 0 5 7 -4 12 -15 14 -15 24 5 9 19 7 21 -16 21 -16 0
-24 5 -22 14 1 7 -2 19 -8 26 -9 11 -7 14 9 12 15 -1 19 -6 16 -18 -3 -10 -1
-20 4 -23 5 -4 12 2 15 11 3 10 16 18 28 18 13 1 34 4 48 8 14 3 8 -1 -12 -10
-44 -18 -48 -29 -13 -35 13 -3 22 -1 19 4 -7 11 27 39 38 32 4 -3 5 1 2 9 -9
23 16 31 32 11 11 -15 13 -15 8 -3 -6 20 26 31 50 17 16 -9 16 -11 -1 -31
l-18 -22 25 21 c22 18 35 20 108 16 59 -3 82 -8 82 -17 0 -7 -6 -16 -12 -18
-7 -3 6 -6 28 -6 44 -1 54 -12 54 -55 0 -12 -6 -28 -12 -35 -11 -11 -10 -13 5
-8 12 5 26 -3 45 -25 33 -37 97 -66 175 -79 33 -5 69 -17 82 -25 14 -9 33 -13
44 -9 16 5 22 1 27 -19 3 -14 10 -26 14 -26 4 0 11 -12 14 -26 12 -47 68 -86
148 -103 61 -13 98 -4 98 24 0 20 7 19 37 -5 16 -13 41 -20 67 -20 42 0 96
-18 96 -32 0 -5 9 -8 20 -8 11 0 20 -4 20 -9 0 -5 18 -18 40 -29 22 -10 37
-22 33 -26 -3 -3 1 -6 10 -6 10 0 17 -7 17 -15 0 -8 7 -15 16 -15 9 0 32 -10
51 -22 l35 -21 -12 22 c-15 29 -11 32 26 22 21 -7 24 -10 9 -11 -18 -1 -18 -2
4 -11 15 -6 28 -6 35 0 7 6 20 4 36 -4 26 -15 106 -20 134 -9 18 7 12 49 -10
75 -8 8 -14 18 -14 21 0 8 -70 78 -78 78 -3 0 -13 6 -21 14 -9 8 -48 19 -87
24 -39 6 -85 17 -102 26 -17 9 -36 16 -42 16 -6 0 -28 11 -50 25 -22 14 -49
25 -60 25 -11 0 -30 10 -42 22 -13 13 -31 21 -40 20 -10 -2 -18 2 -18 7 0 6 6
11 13 11 6 1 -10 10 -37 20 -27 10 -57 28 -68 39 -10 12 -30 24 -43 27 -14 3
-25 10 -25 16 0 5 -13 14 -30 19 -16 6 -30 17 -30 25 0 8 -9 14 -20 14 -11 0
-20 7 -20 15 0 8 -3 15 -8 15 -8 0 -42 73 -42 90 0 6 -7 10 -16 10 -9 0 -18 9
-21 20 -3 11 -11 20 -19 20 -7 0 -18 8 -23 19 -7 11 -26 20 -52 24 -23 3 -45
9 -48 14 -3 4 -22 10 -41 11 -19 2 -38 9 -42 15 -9 14 -8 15 24 19 14 2 33 10
42 17 18 15 22 1 5 -16 -6 -6 -9 -17 -6 -25 6 -16 30 39 29 66 -1 27 10 11 13
-19 2 -14 -1 -25 -6 -25 -6 0 -8 -4 -5 -9 4 -5 0 -12 -6 -14 -7 -3 1 -6 19 -6
25 -1 31 2 27 14 -4 10 0 15 15 15 15 0 19 4 14 17 -4 11 -8 12 -11 5 -5 -17
-32 -15 -32 3 0 8 9 15 20 15 11 0 20 5 20 10 0 6 -4 10 -10 10 -5 0 -10 5
-10 10 0 6 7 10 15 10 8 0 15 5 15 10 0 7 7 7 21 -1 17 -9 19 -13 8 -20 -7 -4
-10 -12 -5 -16 5 -4 11 -2 13 5 3 7 11 19 19 26 8 8 14 22 14 30 0 9 4 16 10
16 5 0 12 11 16 25 7 27 24 34 24 10 0 -8 -4 -15 -10 -15 -5 0 -10 -7 -10 -15
0 -8 5 -15 10 -15 6 0 10 4 10 10 0 5 6 7 14 4 11 -4 13 0 9 17 -5 18 -3 21
10 16 9 -3 19 -1 23 4 3 6 16 8 29 5 15 -4 25 -1 29 9 3 8 0 14 -6 12 -6 -1
-12 3 -14 8 -3 6 12 12 33 13 21 2 46 11 56 20 32 29 187 20 187 -10 0 -5 15
-8 34 -8 19 0 42 -7 51 -16 8 -9 33 -18 55 -21 25 -4 40 -11 40 -19 0 -15 16
-17 105 -14 33 1 69 8 80 16 10 8 27 14 37 14 34 0 14 96 -27 130 -8 7 -15 21
-15 31 0 10 -6 22 -12 26 -14 9 -59 66 -98 125 -14 21 -28 38 -32 38 -5 0 -8
6 -8 14 0 8 -7 16 -15 20 -11 4 -15 22 -15 70 0 55 -3 67 -20 76 -11 6 -20 19
-20 30 0 10 -10 30 -23 44 -12 13 -29 37 -37 53 -18 34 -35 53 -48 53 -6 0
-12 7 -16 15 -3 9 0 15 8 15 17 0 23 31 22 102 -1 51 -2 53 -28 50 -24 -2 -28
1 -34 35 -13 71 -18 74 -101 64 -6 0 -15 -10 -18 -21 -3 -11 -12 -20 -18 -20
-7 0 -25 -14 -41 -30 -16 -17 -35 -30 -42 -30 -7 0 -15 -9 -19 -19 -3 -11 -13
-22 -21 -25 -10 -4 -13 -2 -8 7 5 7 0 6 -10 -3 -16 -13 -20 -12 -31 3 -18 25
-25 21 -25 -13 0 -29 -9 -38 -23 -23 -4 3 -2 12 4 19 8 9 5 11 -10 7 -12 -3
-21 -12 -21 -19 0 -8 -4 -14 -10 -14 -5 0 -10 6 -10 13 0 6 -15 19 -33 27 -23
11 -32 22 -34 40 0 14 -1 33 -2 43 -1 9 -6 17 -12 17 -5 0 -8 -4 -5 -9 15 -24
-28 -54 -44 -31 -3 4 -19 10 -37 13 -25 5 -35 2 -42 -11 -9 -15 -11 -15 -33 3
-13 11 -27 26 -31 33 -4 6 -13 12 -18 12 -6 0 -7 -4 -4 -10 3 -5 2 -10 -3 -10
-5 0 -12 10 -16 23 -5 18 -8 20 -16 7 -5 -8 -10 -10 -10 -5 0 6 -5 3 -10 -5
-8 -12 -14 -9 -36 18 -17 21 -29 30 -34 23 -8 -15 -40 -3 -40 14 0 7 -7 15
-15 19 -10 3 -14 0 -11 -12z m56 -47 c20 -24 6 -28 -15 -5 -10 11 -13 20 -8
20 6 0 16 -7 23 -15z m160 -67 c0 -6 7 -8 15 -4 8 3 15 1 15 -4 0 -6 -11 -10
-25 -10 -25 0 -33 -14 -15 -25 15 -9 12 -25 -4 -25 -8 0 -16 10 -20 23 -5 23
-46 55 -46 37 0 -5 -4 -10 -10 -10 -16 0 0 29 18 32 27 6 72 -3 72 -14z m80
-34 c0 -14 -3 -15 -17 -3 -10 7 -20 15 -22 16 -2 2 5 3 17 3 14 0 22 -6 22
-16z m85 6 c-3 -5 -10 -10 -16 -10 -5 0 -9 5 -9 10 0 6 7 10 16 10 8 0 12 -4
9 -10z m-35 -30 c0 -5 -4 -10 -10 -10 -5 0 -10 5 -10 10 0 6 5 10 10 10 6 0
10 -4 10 -10z m-1556 -152 c-3 -4 13 -11 36 -14 57 -9 41 -18 -28 -16 -39 2
-52 -1 -43 -7 12 -8 10 -11 -11 -16 -15 -4 -34 -5 -43 -3 -27 5 -22 23 8 26
21 3 27 8 23 20 -5 14 1 17 29 18 19 0 32 -3 29 -8z m116 2 c0 -12 -8 -12 -35
0 -18 8 -17 9 8 9 15 1 27 -3 27 -9z m37 4 c-3 -3 -12 -4 -19 -1 -8 3 -5 6 6
6 11 1 17 -2 13 -5z m308 -44 c8 -13 -5 -13 -25 0 -13 8 -13 10 2 10 9 0 20
-4 23 -10z m318 3 c-7 -2 -21 -2 -30 0 -10 3 -4 5 12 5 17 0 24 -2 18 -5z
m-569 -14 c-6 -10 -64 -8 -64 2 0 5 15 8 34 6 19 -1 32 -5 30 -8z m94 4 c-16
-2 -40 -2 -55 0 -16 2 -3 4 27 4 30 0 43 -2 28 -4z m346 -18 c-4 -8 -1 -15 5
-15 6 0 11 -4 11 -9 0 -8 -12 -14 -75 -39 -5 -2 -4 1 3 6 10 7 5 11 -19 16
-40 8 -28 25 22 32 19 3 38 10 44 15 13 13 15 11 9 -6z m-644 -22 c0 -5 28 -9
62 -11 59 -2 77 -7 67 -17 -3 -2 -23 -5 -44 -6 -22 -1 -44 -5 -50 -8 -18 -10
91 -34 173 -38 45 -3 82 -8 82 -12 0 -14 -24 -31 -44 -31 -22 0 -129 32 -136
40 -3 4 -16 3 -30 0 -26 -8 -25 -9 30 -27 12 -4 11 -7 -5 -19 -11 -8 -26 -12
-33 -9 -8 3 -25 5 -38 5 -14 0 -22 4 -19 10 3 6 -2 10 -13 10 -24 0 -72 37
-72 55 0 7 -9 15 -20 18 -11 3 -20 13 -20 22 0 14 8 16 40 13 22 -2 40 0 40 4
0 5 7 8 15 8 8 0 15 -3 15 -7z m690 -3 c0 -5 -2 -10 -4 -10 -3 0 -8 5 -11 10
-3 6 -1 10 4 10 6 0 11 -4 11 -10z m-502 -17 c-10 -2 -26 -2 -35 0 -10 3 -2 5
17 5 19 0 27 -2 18 -5z m-2463 -13 c-3 -5 -11 -10 -16 -10 -6 0 -7 5 -4 10 3
6 11 10 16 10 6 0 7 -4 4 -10z m1605 -14 c0 -2 -7 -7 -16 -10 -8 -3 -12 -2 -9
4 6 10 25 14 25 6z m1450 -46 c0 -5 -4 -10 -10 -10 -5 0 -10 5 -10 10 0 6 5
10 10 10 6 0 10 -4 10 -10z m-1237 -47 c-3 -7 -17 -13 -32 -13 -23 1 -24 2 -9
14 22 17 48 16 41 -1z m1442 8 c-6 -11 -64 -25 -72 -18 -12 13 11 27 43 27 19
0 33 -4 29 -9z m65 5 c0 -2 -7 -6 -15 -10 -8 -3 -15 -1 -15 4 0 6 7 10 15 10
8 0 15 -2 15 -4z m-1790 -16 c0 -5 -7 -10 -16 -10 -8 0 -12 5 -9 10 3 6 10 10
16 10 5 0 9 -4 9 -10z m140 -20 c0 -5 -7 -10 -15 -10 -18 0 -20 -21 -3 -38 9
-9 5 -12 -20 -12 -24 0 -31 3 -25 13 29 46 39 57 50 57 7 0 13 -4 13 -10z
m935 -8 c6 -16 -12 -42 -29 -42 -7 0 -6 4 2 9 17 10 -5 20 -46 22 -17 1 -21 3
-9 6 9 2 15 9 11 14 -3 6 9 9 30 7 20 -1 38 -8 41 -16z m-246 4 c-11 -9 -90
-16 -84 -6 3 5 25 10 47 10 23 0 39 -2 37 -4z m119 -3 c-10 -2 -26 -2 -35 0
-10 3 -2 5 17 5 19 0 27 -2 18 -5z m907 -3 c-28 -12 -37 -12 -30 0 3 6 16 10
28 9 21 0 21 -1 2 -9z m-1125 -13 c0 -2 -10 -12 -21 -23 -22 -19 -22 -19 -8 4
12 19 29 30 29 19z m-913 -21 c-3 -8 -1 -17 6 -20 7 -2 4 -5 -5 -5 -9 -1 -21
-7 -25 -13 -4 -7 -17 -18 -28 -25 -11 -6 -19 -16 -18 -22 2 -6 -4 -8 -12 -5
-21 8 -19 21 5 29 11 3 20 12 20 20 0 7 12 23 28 34 33 25 36 25 29 7z m178 4
c3 -5 1 -10 -4 -10 -6 0 -11 5 -11 10 0 6 2 10 4 10 3 0 8 -4 11 -10z m402
-12 c-3 -8 -6 -5 -6 6 -1 11 2 17 5 13 3 -3 4 -12 1 -19z m415 13 c-10 -6 -7
-10 12 -15 42 -10 33 -40 -16 -53 -33 -9 -44 -8 -55 3 -17 16 -2 44 31 61 26
13 46 16 28 4z m-599 -18 c-7 -2 -19 -2 -25 0 -7 3 -2 5 12 5 14 0 19 -2 13
-5z m945 -20 c-2 -10 -11 -19 -21 -21 -26 -5 -67 6 -67 19 0 6 9 8 20 4 11 -4
20 -2 20 4 0 6 12 11 26 11 19 0 25 -5 22 -17z m-1338 -11 c0 -12 -39 -52 -50
-52 -6 0 2 14 17 30 28 32 33 35 33 22z m560 -2 c0 -5 -5 -10 -11 -10 -5 0 -7
5 -4 10 3 6 8 10 11 10 2 0 4 -4 4 -10z m499 -19 c11 -7 10 -11 -7 -20 -12 -6
-33 -12 -47 -13 -17 -2 -24 -7 -20 -16 2 -7 1 -10 -4 -7 -5 3 -12 1 -16 -5 -4
-6 -11 -7 -17 -4 -7 5 -9 1 -5 -9 7 -19 -1 -21 -23 -7 -12 8 -11 12 8 30 12
11 22 17 22 13 0 -4 4 -3 8 4 7 10 67 42 82 42 3 1 11 -3 19 -8z m359 -21 c-4
-23 -1 -30 12 -30 9 0 20 3 23 7 4 3 17 7 29 9 13 1 28 3 33 4 6 1 25 2 44 1
l34 -1 -49 -26 c-27 -14 -55 -33 -63 -42 -13 -16 -13 -16 -8 1 5 14 0 17 -26
17 -18 0 -42 7 -53 15 -10 8 -27 15 -36 15 -26 0 -22 20 5 21 20 1 20 2 2 6
-62 13 -55 33 12 33 45 0 45 0 41 -30z m-838 16 c0 -9 -30 -14 -35 -6 -4 6 3
10 14 10 12 0 21 -2 21 -4z m85 -16 c3 -5 1 -10 -4 -10 -6 0 -11 5 -11 10 0 6
2 10 4 10 3 0 8 -4 11 -10z m-135 -10 c-8 -5 -11 -12 -7 -16 3 -4 12 -2 19 3
17 13 68 22 68 12 0 -4 -4 -11 -10 -14 -5 -3 -10 -12 -10 -18 0 -7 4 -6 10 3
7 12 12 12 21 3 15 -15 12 -18 -18 -27 -13 -4 -23 -3 -23 2 0 5 -17 5 -40 -2
-25 -6 -39 -15 -36 -23 3 -7 -1 -10 -10 -6 -10 4 -12 0 -7 -13 6 -16 5 -16 -8
-5 -17 16 -20 51 -4 51 5 0 16 9 22 19 13 20 1 24 -24 8 -8 -5 -13 -3 -13 7 0
14 21 22 65 24 16 1 17 0 5 -8z m-528 -30 c-24 -23 -44 -26 -36 -7 4 13 45 36
53 30 3 -2 -5 -12 -17 -23z m315 24 c-3 -3 -12 -4 -19 -1 -8 3 -5 6 6 6 11 1
17 -2 13 -5z m70 0 c-3 -3 -12 -4 -19 -1 -8 3 -5 6 6 6 11 1 17 -2 13 -5z
m1253 -28 c0 -8 -4 -18 -10 -21 -18 -11 -11 -25 12 -25 42 0 4 -18 -42 -20
-61 -2 -67 -1 -50 10 12 8 9 10 -12 10 -32 0 -46 16 -21 23 34 10 78 20 85 21
3 1 10 4 14 9 12 12 24 8 24 -7z m-448 -24 c-12 -2 -20 -8 -17 -13 4 -5 -8 -9
-25 -9 -32 0 -38 19 -10 28 8 3 10 0 5 -9 -5 -9 -1 -8 10 2 10 10 25 14 38 11
22 -7 22 -7 -1 -10z m-528 -17 c-4 -8 -10 -12 -15 -9 -11 6 -2 24 11 24 5 0 7
-7 4 -15z m-674 -5 c-8 -5 -18 -6 -22 -4 -4 3 -8 0 -8 -6 0 -7 -6 -10 -12 -8
-7 3 -21 -5 -30 -18 -10 -12 -29 -25 -43 -28 -14 -4 -25 -11 -25 -16 0 -6 -7
-10 -16 -10 -13 0 -10 6 10 25 15 14 32 23 37 20 5 -3 6 2 2 11 -4 11 -2 15 4
11 6 -4 14 0 17 9 4 10 14 14 26 11 11 -3 22 -2 24 2 3 4 15 7 28 8 17 2 19 0
8 -7z m1152 -10 c21 0 38 -4 38 -9 0 -5 8 -12 18 -15 9 -3 -1 -3 -23 -1 -26 3
-55 -3 -84 -15 -52 -24 -61 -25 -61 -4 0 8 -4 13 -9 9 -5 -3 -12 -1 -16 5 -5
9 1 12 21 9 4 0 10 3 13 9 12 18 46 31 56 21 5 -5 26 -9 47 -9z m-1009 0 c-13
-5 -23 -14 -23 -20 0 -5 -5 -10 -10 -10 -7 0 -7 6 0 20 6 11 20 20 33 19 l22
0 -22 -9z m1557 -40 c0 -5 -5 -10 -11 -10 -5 0 -7 5 -4 10 3 6 8 10 11 10 2 0
4 -4 4 -10z m-436 -11 c3 -3 -11 -12 -32 -21 -57 -24 -183 -61 -189 -55 -8 8
6 27 20 27 7 0 30 9 51 20 22 10 43 17 49 13 6 -3 7 -1 3 5 -3 6 2 12 11 15
24 5 80 3 87 -4z m378 -21 c-9 -9 -15 -9 -24 0 -9 9 -7 12 12 12 19 0 21 -3
12 -12z m-1712 -28 c0 -5 -5 -10 -11 -10 -5 0 -7 5 -4 10 3 6 8 10 11 10 2 0
4 -4 4 -10z m790 1 c0 -5 -7 -12 -16 -15 -24 -9 -28 -7 -14 9 14 17 30 20 30
6z m575 -11 c-28 -12 -37 -12 -30 0 3 6 16 10 28 9 21 0 21 -1 2 -9z m-45 -10
c0 -5 -9 -10 -21 -10 -11 0 -17 5 -14 10 3 6 13 10 21 10 8 0 14 -4 14 -10z
m280 -10 c-24 -15 -36 -11 -14 4 10 8 21 12 24 10 2 -3 -2 -9 -10 -14z m825
-30 c-4 -12 -9 -19 -12 -17 -3 3 -2 15 2 27 4 12 9 19 12 17 3 -3 2 -15 -2
-27z m-985 16 c0 -2 -7 -6 -15 -10 -8 -3 -15 -1 -15 4 0 6 7 10 15 10 8 0 15
-2 15 -4z m1351 -59 c-10 -9 -11 -8 -5 6 3 10 9 15 12 12 3 -3 0 -11 -7 -18z
m-1446 3 c-3 -5 -14 -10 -23 -10 -15 0 -15 2 -2 10 20 13 33 13 25 0z m1345
-10 c0 -5 -5 -10 -11 -10 -5 0 -7 5 -4 10 3 6 8 10 11 10 2 0 4 -4 4 -10z
m-1315 -30 c3 -5 1 -10 -4 -10 -6 0 -11 5 -11 10 0 6 2 10 4 10 3 0 8 -4 11
-10z m1199 -55 c-4 -8 -8 -15 -10 -15 -2 0 -4 7 -4 15 0 8 4 15 10 15 5 0 7
-7 4 -15z m-1557 -21 c-3 -3 -12 -4 -19 -1 -8 3 -5 6 6 6 11 1 17 -2 13 -5z
m1550 -36 c-3 -8 -6 -5 -6 6 -1 11 2 17 5 13 3 -3 4 -12 1 -19z m-1101 -23
c-16 -17 -36 -20 -36 -6 0 10 17 19 38 20 10 1 10 -3 -2 -14z m954 -5 c-6 -11
-13 -20 -15 -20 -3 0 -5 9 -5 20 0 11 7 20 15 20 13 0 14 -4 5 -20z m-1030
-120 c0 -5 -10 -10 -22 -9 -22 0 -22 1 -3 9 11 5 21 9 23 9 1 1 2 -3 2 -9z
m240 -20 c0 -11 -7 -20 -15 -20 -13 0 -13 3 -3 20 7 11 14 20 15 20 2 0 3 -9
3 -20z m965 -159 c3 -5 1 -12 -5 -16 -5 -3 -10 1 -10 9 0 18 6 21 15 7z m109
-226 c3 -8 1 -15 -4 -15 -6 0 -10 7 -10 15 0 8 2 15 4 15 2 0 6 -7 10 -15z"/>
<path d="M7156 4294 c-10 -25 -7 -34 9 -34 8 0 15 9 15 19 0 26 -16 35 -24 15z"/>
<path d="M4583 4283 c-17 -6 -17 -23 0 -23 8 0 14 7 14 15 0 8 -1 15 -1 14 -1
0 -7 -3 -13 -6z"/>
<path d="M5860 4281 c0 -6 4 -13 10 -16 6 -3 7 1 4 9 -7 18 -14 21 -14 7z"/>
<path d="M6595 4280 c3 -5 8 -10 11 -10 2 0 4 5 4 10 0 6 -5 10 -11 10 -5 0
-7 -4 -4 -10z"/>
<path d="M7280 4279 c0 -6 -7 -9 -15 -5 -10 4 -15 -1 -15 -15 0 -25 18 -21 38
9 9 14 10 22 3 22 -6 0 -11 -5 -11 -11z"/>
<path d="M4405 4270 c3 -5 16 -10 28 -9 21 0 21 1 2 9 -28 12 -37 12 -30 0z"/>
<path d="M4986 4264 c-7 -19 -8 -49 -1 -42 7 7 17 58 11 58 -2 0 -7 -7 -10
-16z"/>
<path d="M4498 4263 c-20 -5 -22 -12 -10 -31 6 -9 12 -6 20 13 6 14 11 24 9
24 -1 -1 -10 -3 -19 -6z"/>
<path d="M7345 4260 c-3 -5 1 -10 10 -10 9 0 13 5 10 10 -3 6 -8 10 -10 10 -2
0 -7 -4 -10 -10z"/>
<path d="M6596 4244 c-9 -23 -8 -24 14 -24 11 0 20 2 20 4 0 12 -13 36 -20 36
-4 0 -11 -7 -14 -16z"/>
<path d="M7395 4250 c-3 -5 -1 -10 4 -10 6 0 11 5 11 10 0 6 -2 10 -4 10 -3 0
-8 -4 -11 -10z"/>
<path d="M4926 4241 c-4 -7 -5 -15 -2 -18 9 -9 19 4 14 18 -4 11 -6 11 -12 0z"/>
<path d="M5531 4234 c0 -11 3 -14 6 -6 3 7 2 16 -1 19 -3 4 -6 -2 -5 -13z"/>
<path d="M4630 4214 c0 -13 5 -24 11 -24 6 0 9 6 6 14 -3 8 1 13 10 12 9 0 17
4 19 9 2 6 -7 11 -21 11 -20 2 -25 -3 -25 -22z"/>
<path d="M7520 4229 c0 -5 5 -7 10 -4 6 3 10 8 10 11 0 2 -4 4 -10 4 -5 0 -10
-5 -10 -11z"/>
<path d="M4590 4226 c0 -2 8 -10 18 -17 15 -13 16 -12 3 4 -13 16 -21 21 -21
13z"/>
<path d="M5310 4212 c0 -5 7 -13 16 -16 10 -4 14 -1 12 6 -5 15 -28 23 -28 10z"/>
<path d="M6690 4210 c0 -5 7 -10 16 -10 8 0 12 5 9 10 -3 6 -10 10 -16 10 -5
0 -9 -4 -9 -10z"/>
<path d="M7471 4192 c-1 -23 2 -26 54 -37 l30 -7 -27 21 c-14 12 -31 21 -36
21 -6 0 -13 6 -15 13 -3 6 -6 2 -6 -11z"/>
<path d="M5010 4190 c-20 -6 -17 -8 17 -6 24 0 43 4 43 9 0 9 -27 8 -60 -3z"/>
<path d="M4806 4175 c4 -8 10 -15 15 -15 5 0 9 7 9 15 0 8 -7 15 -15 15 -9 0
-12 -6 -9 -15z"/>
<path d="M4900 4180 c0 -5 5 -10 10 -10 6 0 10 5 10 10 0 6 -4 10 -10 10 -5 0
-10 -4 -10 -10z"/>
<path d="M6500 4175 c0 -8 4 -15 10 -15 5 0 7 7 4 15 -4 8 -8 15 -10 15 -2 0
-4 -7 -4 -15z"/>
<path d="M6635 4180 c3 -5 8 -10 11 -10 2 0 4 5 4 10 0 6 -5 10 -11 10 -5 0
-7 -4 -4 -10z"/>
<path d="M5366 4157 c-3 -14 -9 -32 -12 -41 -5 -13 -1 -15 27 -10 19 4 41 13
50 21 9 8 30 18 45 23 25 7 21 8 -26 9 -31 1 -61 6 -67 12 -7 7 -12 3 -17 -14z"/>
<path d="M5150 4160 c-11 -7 -12 -14 -4 -27 18 -30 34 -27 34 6 0 33 -6 37
-30 21z"/>
<path d="M6807 4158 c4 -7 8 -20 8 -28 0 -11 10 -15 33 -13 18 0 36 4 39 7 10
9 -25 36 -40 30 -8 -3 -18 -1 -22 5 -3 6 -11 11 -16 11 -6 0 -7 -6 -2 -12z"/>
<path d="M4826 4151 c-14 -21 6 -39 45 -39 34 -1 37 1 25 14 -8 8 -19 14 -25
14 -6 0 -11 5 -11 10 0 12 -27 13 -34 1z"/>
<path d="M5205 4130 c0 -16 5 -26 11 -23 7 2 9 13 7 24 -8 30 -18 30 -18 -1z"/>
<path d="M5890 4150 c19 -13 30 -13 30 0 0 6 -10 10 -22 10 -19 0 -20 -2 -8
-10z"/>
<path d="M4743 4143 c-28 -5 -30 -18 -4 -20 11 -1 22 5 25 13 3 8 4 13 3 13
-1 -1 -12 -4 -24 -6z"/>
<path d="M6690 4135 c0 -9 7 -18 15 -22 23 -8 24 0 3 20 -15 14 -18 15 -18 2z"/>
<path d="M4940 4100 c0 -5 5 -10 10 -10 6 0 10 5 10 10 0 6 -4 10 -10 10 -5 0
-10 -4 -10 -10z"/>
<path d="M5125 4100 c3 -5 8 -10 11 -10 2 0 4 5 4 10 0 6 -5 10 -11 10 -5 0
-7 -4 -4 -10z"/>
<path d="M5275 4094 c40 -31 53 -35 50 -16 -2 9 -4 20 -4 25 -1 4 -16 7 -33 7
-32 -1 -32 -1 -13 -16z"/>
<path d="M6670 4100 c-8 -5 -11 -12 -7 -16 4 -4 13 -2 19 4 15 15 7 24 -12 12z"/>
<path d="M4870 4060 c0 -5 5 -10 10 -10 6 0 10 5 10 10 0 6 -4 10 -10 10 -5 0
-10 -4 -10 -10z"/>
<path d="M4720 4041 c0 -10 30 -24 37 -17 3 3 2 9 -2 15 -8 13 -35 15 -35 2z"/>
<path d="M4595 4000 c3 -5 8 -10 11 -10 2 0 4 5 4 10 0 6 -5 10 -11 10 -5 0
-7 -4 -4 -10z"/>
<path d="M4630 4000 c0 -5 5 -10 11 -10 5 0 7 5 4 10 -3 6 -8 10 -11 10 -2 0
-4 -4 -4 -10z"/>
<path d="M3817 3643 c-4 -3 -7 -11 -7 -17 0 -6 5 -5 12 2 6 6 9 14 7 17 -3 3
-9 2 -12 -2z"/>
<path d="M3900 3630 c0 -5 5 -10 11 -10 5 0 7 5 4 10 -3 6 -8 10 -11 10 -2 0
-4 -4 -4 -10z"/>
<path d="M4460 3590 c-9 -6 -10 -10 -3 -10 6 0 15 5 18 10 8 12 4 12 -15 0z"/>
<path d="M4016 3577 c-14 -11 -13 -12 9 -13 14 -1 25 2 25 6 0 16 -17 19 -34
7z"/>
<path d="M4255 3570 c-3 -5 -1 -10 4 -10 6 0 11 5 11 10 0 6 -2 10 -4 10 -3 0
-8 -4 -11 -10z"/>
<path d="M4035 3510 c-3 -5 -1 -10 4 -10 6 0 11 5 11 10 0 6 -2 10 -4 10 -3 0
-8 -4 -11 -10z"/>
<path d="M4308 3493 c7 -3 16 -2 19 1 4 3 -2 6 -13 5 -11 0 -14 -3 -6 -6z"/>
<path d="M3388 3303 c6 -2 18 -2 25 0 6 3 1 5 -13 5 -14 0 -19 -2 -12 -5z"/>
<path d="M7599 3233 c0 -5 -2 -18 -3 -31 -2 -13 1 -25 6 -28 4 -3 8 1 8 10 0
8 5 16 11 18 12 4 1 38 -12 38 -5 0 -9 -3 -10 -7z"/>
<path d="M7640 3140 c0 -5 7 -10 15 -10 8 0 15 5 15 10 0 6 -7 10 -15 10 -8 0
-15 -4 -15 -10z"/>
<path d="M7450 3121 c0 -5 -3 -18 -7 -28 -6 -16 -4 -16 17 2 13 11 20 14 16 8
-5 -9 -2 -11 8 -7 26 10 19 34 -9 34 -14 0 -25 -4 -25 -9z"/>
<path d="M7616 3121 c-4 -7 -5 -15 -2 -18 9 -9 19 4 14 18 -4 11 -6 11 -12 0z"/>
<path d="M7928 3103 c7 -3 16 -2 19 1 4 3 -2 6 -13 5 -11 0 -14 -3 -6 -6z"/>
<path d="M7956 3058 c3 -4 11 -5 19 -1 21 7 19 12 -4 10 -11 0 -18 -5 -15 -9z"/>
<path d="M7516 3045 c-5 -13 0 -16 19 -13 32 4 38 22 9 26 -13 2 -24 -4 -28
-13z"/>
<path d="M7850 3050 c0 -12 8 -12 35 0 18 8 17 9 -7 9 -16 1 -28 -3 -28 -9z"/>
<path d="M6020 3020 c0 -5 -8 -10 -17 -11 -11 0 -13 -3 -6 -6 7 -2 23 3 35 11
18 13 19 16 5 16 -9 0 -17 -4 -17 -10z"/>
<path d="M7570 3010 c0 -5 5 -10 10 -10 6 0 10 5 10 10 0 6 -4 10 -10 10 -5 0
-10 -4 -10 -10z"/>
<path d="M8150 3010 c0 -5 5 -10 10 -10 6 0 10 5 10 10 0 6 -4 10 -10 10 -5 0
-10 -4 -10 -10z"/>
<path d="M7564 2981 c3 -5 16 -11 28 -14 22 -6 22 -5 4 8 -22 17 -40 20 -32 6z"/>
<path d="M6310 2959 c0 -5 5 -7 10 -4 6 3 10 8 10 11 0 2 -4 4 -10 4 -5 0 -10
-5 -10 -11z"/>
<path d="M7791 2956 c-10 -12 -8 -13 8 -9 12 3 18 9 15 14 -7 12 -10 11 -23
-5z"/>
<path d="M6200 2934 c0 -11 8 -14 27 -12 39 4 42 28 4 28 -21 0 -31 -5 -31
-16z"/>
<path d="M7600 2940 c0 -5 7 -7 15 -4 8 4 15 8 15 10 0 2 -7 4 -15 4 -8 0 -15
-4 -15 -10z"/>
<path d="M6165 2910 c3 -5 13 -10 21 -10 8 0 12 5 9 10 -3 6 -13 10 -21 10 -8
0 -12 -4 -9 -10z"/>
<path d="M7752 2912 c-7 -2 -10 -8 -6 -13 7 -12 74 -12 74 0 0 10 -50 19 -68
13z"/>
<path d="M5800 2900 c0 -5 4 -10 9 -10 6 0 13 5 16 10 3 6 -1 10 -9 10 -9 0
-16 -4 -16 -10z"/>
<path d="M6480 2900 c0 -5 -7 -10 -16 -10 -8 0 -12 -4 -9 -10 12 -19 45 -11
45 10 0 11 -4 20 -10 20 -5 0 -10 -4 -10 -10z"/>
<path d="M6210 2840 c0 -5 5 -10 10 -10 6 0 10 5 10 10 0 6 -4 10 -10 10 -5 0
-10 -4 -10 -10z"/>
<path d="M6388 2843 c7 -3 16 -2 19 1 4 3 -2 6 -13 5 -11 0 -14 -3 -6 -6z"/>
<path d="M5065 2820 c-27 -4 -40 -8 -28 -8 12 -1 24 -6 27 -11 7 -11 46 -3 46
9 0 5 8 11 18 13 24 7 -3 5 -63 -3z"/>
<path d="M6469 2822 c11 -8 11 -11 0 -16 -8 -3 -5 -4 6 -1 11 2 27 0 35 -5 13
-9 13 -10 0 -10 -13 0 -13 -2 -1 -9 8 -5 11 -15 8 -23 -3 -8 0 -15 6 -15 7 0
11 13 11 29 -2 43 -3 44 -21 44 -10 1 -27 4 -38 8 -14 6 -16 5 -6 -2z"/>
<path d="M4972 2770 c10 -6 25 -7 40 -1 20 9 18 10 -17 10 -31 0 -36 -2 -23
-9z"/>
<path d="M5605 2764 c-19 -16 -19 -16 5 -9 31 9 50 25 30 25 -8 0 -24 -8 -35
-16z"/>
<path d="M6458 2773 c7 -3 16 -2 19 1 4 3 -2 6 -13 5 -11 0 -14 -3 -6 -6z"/>
<path d="M6950 2736 c7 -7 13 -7 20 0 6 6 3 10 -10 10 -13 0 -16 -4 -10 -10z"/>
<path d="M6195 2720 c-3 -5 -2 -10 4 -10 5 0 13 5 16 10 3 6 2 10 -4 10 -5 0
-13 -4 -16 -10z"/>
<path d="M8070 2710 c0 -5 7 -10 16 -10 8 0 12 5 9 10 -3 6 -10 10 -16 10 -5
0 -9 -4 -9 -10z"/>
<path d="M6417 2697 c-11 -29 -9 -43 4 -30 6 6 9 19 7 29 -3 18 -4 18 -11 1z"/>
<path d="M6485 2680 c3 -5 8 -10 11 -10 2 0 4 5 4 10 0 6 -5 10 -11 10 -5 0
-7 -4 -4 -10z"/>
<path d="M6497 2664 c-27 -36 -13 -42 18 -8 15 16 23 23 19 15 -4 -8 -2 -12 5
-10 20 7 17 24 -4 26 -12 2 -27 -7 -38 -23z"/>
<path d="M6165 2580 c-3 -5 1 -10 9 -10 9 0 16 5 16 10 0 6 -4 10 -9 10 -6 0
-13 -4 -16 -10z"/>
<path d="M7146 2573 c-6 -14 -5 -15 5 -6 7 7 10 15 7 18 -3 3 -9 -2 -12 -12z"/>
<path d="M4698 2573 c7 -3 16 -2 19 1 4 3 -2 6 -13 5 -11 0 -14 -3 -6 -6z"/>
<path d="M6530 2559 c0 -5 5 -7 10 -4 6 3 10 8 10 11 0 2 -4 4 -10 4 -5 0 -10
-5 -10 -11z"/>
<path d="M6450 2545 c0 -9 6 -12 15 -9 8 4 15 7 15 9 0 2 -7 5 -15 9 -9 3 -15
0 -15 -9z"/>
<path d="M6575 2520 c-3 -5 1 -10 9 -10 9 0 16 5 16 10 0 6 -4 10 -9 10 -6 0
-13 -4 -16 -10z"/>
<path d="M503 2093 c-3 -10 -21 -54 -39 -97 -19 -44 -34 -86 -34 -94 0 -8 -6
-28 -14 -45 -52 -114 -66 -149 -66 -161 0 -8 -13 -45 -29 -83 -29 -67 -30 -68
-70 -71 -28 -2 -41 -8 -41 -18 0 -11 20 -14 105 -14 87 0 105 3 105 15 0 11
-11 15 -40 15 -39 0 -39 0 -33 33 3 17 16 56 29 85 l23 52 96 0 96 0 28 -63
c49 -109 49 -107 -3 -107 -34 0 -46 -4 -46 -15 0 -13 33 -15 235 -15 202 0
235 2 235 15 0 10 -10 15 -30 15 l-30 0 0 285 0 285 -75 0 c-60 0 -75 -3 -75
-15 0 -10 11 -15 35 -15 l35 0 0 -270 0 -271 -75 3 -76 3 -39 98 c-22 55 -40
104 -40 111 0 7 -18 57 -40 112 -22 54 -40 106 -40 115 0 9 -11 42 -25 73 -25
57 -50 72 -62 39z m47 -249 l38 -94 -84 0 -83 0 6 33 c3 17 13 50 23 72 9 22
26 60 36 84 16 37 20 40 22 21 2 -12 21 -65 42 -116z"/>
<path d="M3610 2095 c0 -11 11 -15 40 -15 l40 0 0 -270 0 -270 -40 0 c-29 0
-40 -4 -40 -15 0 -13 21 -15 125 -15 104 0 125 2 125 15 0 11 -11 15 -40 15
l-40 0 0 270 0 270 40 0 c29 0 40 4 40 15 0 13 -21 15 -125 15 -104 0 -125 -2
-125 -15z"/>
<path d="M4250 2095 c0 -10 10 -15 30 -15 l30 0 0 -270 0 -270 -30 0 c-20 0
-30 -5 -30 -15 0 -12 18 -15 105 -15 87 0 105 3 105 15 0 10 -11 15 -35 15
l-35 0 0 285 0 285 -70 0 c-56 0 -70 -3 -70 -15z"/>
<path d="M5610 2095 c0 -10 10 -15 30 -15 l30 0 0 -132 c-1 -86 -4 -127 -10
-117 -5 8 -28 22 -50 29 -35 12 -50 11 -97 -1 -51 -13 -60 -20 -87 -63 -43
-71 -47 -139 -12 -210 21 -43 36 -59 70 -75 56 -28 99 -26 144 4 30 21 38 23
40 10 5 -22 142 -22 142 0 0 10 -10 15 -30 15 l-30 0 0 285 0 285 -70 0 c-56
0 -70 -3 -70 -15z m8 -271 c36 -25 52 -68 52 -139 0 -70 -25 -137 -55 -149
-33 -12 -92 -6 -107 12 -51 57 -47 213 8 273 21 23 71 25 102 3z"/>
<path d="M6420 2095 c0 -11 11 -15 40 -15 l40 0 0 -224 c0 -268 7 -294 90
-341 28 -16 54 -20 125 -20 84 0 93 2 134 30 64 44 71 74 71 338 l0 217 45 0
c33 0 45 4 45 15 0 12 -18 15 -100 15 -82 0 -100 -3 -100 -15 0 -11 11 -15 40
-15 l40 0 0 -208 c0 -114 -4 -223 -10 -241 -5 -19 -24 -50 -42 -68 -31 -32
-35 -33 -108 -33 -84 0 -110 12 -135 60 -12 23 -15 75 -15 260 l0 230 40 0
c29 0 40 4 40 15 0 13 -20 15 -120 15 -100 0 -120 -2 -120 -15z"/>
<path d="M2323 2054 c-12 -19 -14 -30 -7 -42 31 -48 94 -36 94 17 0 52 -58 69
-87 25z"/>
<path d="M7573 2054 c-12 -19 -14 -30 -7 -42 31 -48 94 -36 94 17 0 52 -58 69
-87 25z"/>
<path d="M9313 2054 c-12 -19 -14 -30 -7 -42 31 -48 94 -36 94 17 0 52 -58 69
-87 25z"/>
<path d="M11634 2043 c-14 -12 -31 -23 -38 -23 -8 0 -16 -7 -20 -15 -4 -12
-11 -13 -31 -5 -33 13 -38 13 -30 0 3 -6 -5 -14 -20 -20 -14 -5 -29 -20 -34
-33 -10 -27 -9 -103 2 -113 13 -14 8 -104 -6 -104 -7 0 -26 -13 -41 -29 -24
-25 -36 -30 -77 -29 -35 0 -49 4 -49 14 0 8 -4 14 -9 14 -5 0 -7 9 -4 19 7 29
-49 56 -88 42 -16 -6 -36 -8 -44 -4 -11 3 -13 1 -10 -10 4 -10 -3 -16 -24 -20
-22 -5 -31 -12 -31 -27 0 -12 -9 -22 -23 -25 -17 -5 -26 -17 -33 -47 -5 -23
-18 -46 -28 -52 -11 -6 -32 -23 -47 -38 -16 -16 -33 -28 -39 -28 -15 0 -11
-72 6 -122 12 -34 11 -37 -9 -43 -21 -7 -21 -7 -2 -13 11 -4 20 -13 20 -19 0
-22 19 -17 32 8 7 13 21 27 32 31 12 4 21 14 21 23 0 8 7 15 15 15 8 0 15 5
15 10 0 6 7 10 15 10 8 0 15 4 15 9 0 6 12 6 32 0 18 -5 33 -9 33 -9 6 2 1 68
-5 81 -11 20 -3 52 11 43 5 -3 9 0 9 5 0 6 6 11 14 11 7 0 16 9 19 20 3 10 17
22 31 26 34 8 43 0 23 -20 -20 -20 -10 -56 14 -56 11 0 19 -4 19 -10 0 -21 30
-9 63 25 19 19 38 35 43 35 5 0 18 14 27 30 18 31 25 34 65 30 12 -1 22 3 22
9 0 6 11 11 25 11 13 0 28 7 33 16 7 13 13 14 30 5 31 -16 50 -13 57 8 3 11
19 26 35 33 17 7 30 21 30 30 0 21 33 40 54 32 14 -5 15 -2 6 20 -9 25 -8 26
21 26 26 0 30 3 26 20 -3 13 0 20 9 20 8 0 14 5 14 10 0 6 -5 10 -10 10 -7 0
-7 6 -2 18 5 9 7 42 5 74 -4 43 -9 57 -23 61 -10 3 -23 0 -29 -6 -8 -8 -11 -7
-11 5 0 37 -90 45 -126 11z"/>
<path d="M2043 1953 c-20 -4 -23 -11 -23 -49 0 -42 -1 -44 -30 -44 -20 0 -30
-5 -30 -15 0 -10 10 -15 30 -15 l30 0 0 -142 c1 -127 3 -146 20 -167 24 -28
93 -38 130 -19 29 16 54 62 46 85 -5 12 -11 8 -29 -18 -13 -20 -33 -35 -47
-37 -42 -7 -50 19 -50 165 l0 133 55 0 c42 0 55 3 55 15 0 12 -13 15 -55 15
l-55 0 0 50 c0 52 -1 52 -47 43z"/>
<path d="M9573 1953 c-20 -4 -23 -11 -23 -49 0 -42 -1 -44 -30 -44 -20 0 -30
-5 -30 -15 0 -10 10 -15 30 -15 l30 0 0 -142 c0 -122 3 -146 18 -166 21 -27
83 -39 124 -23 30 11 63 65 54 88 -5 12 -12 7 -29 -18 -13 -20 -33 -35 -47
-37 -42 -7 -50 19 -50 165 l0 133 55 0 c42 0 55 3 55 15 0 12 -13 15 -55 15
l-55 0 0 50 c0 52 -1 52 -47 43z"/>
<path d="M1205 1858 c-40 -14 -53 -26 -82 -71 -81 -129 4 -296 151 -297 57 0
119 39 133 84 10 33 8 46 -6 46 -4 0 -15 -15 -25 -34 -24 -44 -52 -58 -111
-54 -42 3 -51 7 -66 33 -10 17 -21 51 -24 78 l-7 47 131 0 131 0 -7 33 c-3 17
-15 52 -27 76 -17 35 -29 47 -61 57 -47 16 -88 17 -130 2z m100 -26 c14 -10
35 -59 35 -82 0 -18 -7 -20 -80 -20 -66 0 -80 3 -80 15 0 24 28 73 47 84 21
12 64 14 78 3z"/>
<path d="M2600 1855 c-70 -25 -91 -97 -33 -111 33 -9 55 18 46 54 -7 29 9 42
53 42 47 0 66 -20 71 -76 l5 -49 -78 -13 c-44 -6 -90 -20 -104 -31 -30 -22
-45 -68 -36 -114 8 -44 59 -72 117 -64 35 5 45 10 83 44 11 10 15 9 20 -2 8
-22 54 -36 92 -29 42 8 45 24 4 24 l-30 0 0 124 c0 147 -10 183 -56 202 -40
17 -106 16 -154 -1z m138 -219 c-3 -24 -15 -58 -27 -75 -18 -25 -29 -31 -61
-31 -42 0 -50 11 -50 64 0 55 37 83 114 85 28 1 29 0 24 -43z"/>
<path d="M3114 1860 c-12 -4 -31 -21 -43 -36 l-21 -27 0 32 0 31 -65 0 c-51 0
-65 -3 -65 -15 0 -10 10 -15 30 -15 l30 0 0 -145 0 -145 -30 0 c-20 0 -30 -5
-30 -15 0 -12 17 -15 90 -15 73 0 90 3 90 15 0 9 -9 15 -25 15 -25 0 -25 0
-25 95 0 101 11 143 49 183 29 29 75 29 95 0 13 -18 16 -51 16 -150 l0 -128
-25 0 c-16 0 -25 -6 -25 -15 0 -12 17 -15 90 -15 73 0 90 3 90 15 0 10 -10 15
-30 15 l-30 0 0 130 c0 75 -5 139 -11 154 -18 39 -100 58 -155 36z"/>
<path d="M4006 1860 c-41 -13 -65 -38 -72 -77 -7 -39 10 -89 34 -97 9 -3 24
-10 32 -15 8 -6 43 -22 77 -37 69 -29 81 -46 58 -80 -14 -21 -23 -24 -80 -24
l-64 0 -18 50 c-25 69 -43 66 -43 -9 l0 -59 44 -11 c68 -17 118 -13 167 12 50
27 73 65 64 106 -8 38 -40 65 -100 85 -81 26 -115 51 -115 84 0 21 7 32 25 40
63 29 135 -3 135 -59 0 -19 5 -29 15 -29 11 0 15 13 15 55 0 54 0 54 -37 64
-44 13 -96 13 -137 1z"/>
<path d="M4596 1856 c-48 -15 -74 -56 -57 -92 6 -13 19 -24 30 -24 25 0 54 29
47 46 -3 8 -9 20 -12 28 -4 11 4 17 30 21 74 14 96 -8 96 -96 0 -25 -4 -29
-27 -29 -27 -1 -143 -26 -147 -32 -1 -2 -12 -16 -24 -32 -79 -103 73 -213 170
-122 23 21 26 21 36 6 13 -21 54 -30 99 -23 44 7 42 23 -2 23 l-35 0 0 143 c0
100 -4 148 -12 159 -29 36 -118 47 -192 24z m134 -203 c0 -47 -20 -102 -40
-113 -30 -16 -87 -12 -94 6 -8 22 -7 77 2 91 11 17 72 42 105 43 23 0 27 -4
27 -27z"/>
<path d="M5093 1851 c-17 -11 -36 -28 -42 -38 -9 -15 -10 -13 -11 15 l0 32
-65 0 c-51 0 -65 -3 -65 -15 0 -10 10 -15 30 -15 l30 0 0 -145 0 -145 -30 0
c-20 0 -30 -5 -30 -15 0 -12 17 -15 95 -15 78 0 95 3 95 15 0 10 -10 15 -31
15 l-31 0 4 109 c2 92 6 114 24 138 32 43 67 59 101 47 l28 -9 3 -143 3 -142
-26 0 c-16 0 -25 -6 -25 -15 0 -12 17 -15 95 -15 78 0 95 3 95 15 0 10 -10 15
-30 15 l-30 0 0 130 c0 73 -5 140 -11 153 -20 45 -121 61 -176 28z"/>
<path d="M5946 1860 c-41 -13 -65 -38 -72 -77 -7 -39 10 -89 34 -97 9 -3 24
-10 32 -15 8 -6 43 -22 77 -37 69 -29 81 -46 58 -80 -14 -21 -23 -24 -80 -24
l-64 0 -18 50 c-25 69 -43 66 -43 -9 l0 -59 44 -11 c68 -17 118 -13 167 12 50
27 73 65 64 106 -8 38 -40 65 -100 85 -81 26 -115 51 -115 84 0 21 7 32 25 40
63 29 135 -3 135 -59 0 -19 5 -29 15 -29 11 0 15 13 15 55 0 54 0 54 -37 64
-44 13 -96 13 -137 1z"/>
<path d="M7244 1860 c-12 -4 -31 -21 -43 -36 l-21 -27 0 32 0 31 -65 0 c-51 0
-65 -3 -65 -15 0 -10 10 -15 30 -15 l30 0 0 -145 0 -145 -30 0 c-20 0 -30 -5
-30 -15 0 -12 17 -15 90 -15 73 0 90 3 90 15 0 9 -9 15 -25 15 -25 0 -25 0
-25 95 0 135 34 205 99 205 51 0 61 -27 61 -172 l0 -128 -25 0 c-16 0 -25 -6
-25 -15 0 -12 17 -15 90 -15 73 0 90 3 90 15 0 10 -10 15 -30 15 l-30 0 0 130
c0 75 -5 139 -11 154 -18 39 -100 58 -155 36z"/>
<path d="M8270 1848 c-77 -39 -108 -140 -75 -244 14 -45 25 -60 59 -82 56 -37
147 -38 191 -4 33 25 67 80 59 94 -11 18 -30 5 -56 -37 l-27 -45 -59 0 c-36 0
-64 5 -70 13 -10 12 -32 104 -32 132 0 12 23 15 130 15 l130 0 -6 33 c-22 122
-135 180 -244 125z m115 -14 c19 -8 45 -55 45 -84 0 -18 -6 -20 -81 -20 l-81
0 6 38 c11 58 58 86 111 66z"/>
<path d="M8774 1860 c-12 -4 -31 -21 -43 -36 l-21 -27 0 32 0 31 -65 0 c-51 0
-65 -3 -65 -15 0 -10 10 -15 30 -15 l30 0 0 -145 0 -145 -30 0 c-20 0 -30 -5
-30 -15 0 -12 18 -15 100 -15 82 0 100 3 100 15 0 11 -11 15 -36 15 l-36 0 4
103 c3 95 5 107 33 148 24 37 30 41 33 24 2 -11 9 -26 14 -32 15 -18 65 -16
72 3 23 61 -24 101 -90 74z"/>
<path d="M8995 1859 c-44 -17 -64 -38 -71 -76 -10 -53 10 -85 69 -112 29 -14
71 -34 94 -44 50 -24 59 -41 38 -73 -13 -21 -23 -24 -75 -24 -64 0 -81 12 -95
73 -4 15 -13 27 -21 27 -10 0 -14 -15 -14 -59 l0 -59 50 -11 c65 -14 99 -14
141 0 75 26 103 81 73 144 -9 20 -22 38 -28 40 -61 17 -142 52 -157 69 -24 25
-24 41 1 66 43 43 131 12 145 -50 4 -17 11 -30 16 -30 12 0 12 107 -1 115 -19
12 -136 14 -165 4z"/>
<path d="M1480 1845 c0 -10 11 -15 35 -15 l35 0 0 -139 c0 -131 1 -142 23
-166 42 -49 137 -44 191 10 15 15 16 15 16 -4 0 -19 6 -21 70 -21 56 0 70 3
70 15 0 10 -10 15 -30 15 l-30 0 0 160 0 160 -70 0 c-56 0 -70 -3 -70 -15 0
-10 10 -15 30 -15 l30 0 0 -105 c0 -111 -19 -175 -55 -189 -35 -13 -84 -6 -95
13 -5 11 -10 84 -10 165 l0 146 -70 0 c-56 0 -70 -3 -70 -15z"/>
<path d="M2270 1845 c0 -10 10 -15 30 -15 l30 0 0 -145 0 -145 -30 0 c-20 0
-30 -5 -30 -15 0 -12 17 -15 95 -15 78 0 95 3 95 15 0 10 -10 15 -30 15 l-30
0 0 160 0 160 -65 0 c-51 0 -65 -3 -65 -15z"/>
<path d="M7520 1845 c0 -10 10 -15 30 -15 l30 0 0 -145 0 -145 -30 0 c-20 0
-30 -5 -30 -15 0 -12 17 -15 95 -15 78 0 95 3 95 15 0 10 -10 15 -30 15 l-30
0 0 160 0 160 -65 0 c-51 0 -65 -3 -65 -15z"/>
<path d="M7710 1845 c0 -11 11 -15 40 -15 31 0 40 -4 40 -17 0 -10 17 -54 39
-98 21 -44 47 -100 57 -125 24 -60 44 -90 59 -90 11 0 85 136 85 157 0 6 18
47 40 91 37 76 42 82 70 82 20 0 30 5 30 15 0 12 -16 15 -80 15 -63 0 -80 -3
-80 -14 0 -9 12 -16 29 -18 l29 -3 -19 -39 c-10 -22 -19 -44 -19 -48 0 -5 -14
-38 -31 -74 -28 -59 -49 -75 -49 -38 0 8 -18 50 -40 94 -47 94 -49 110 -15
110 16 0 25 6 25 15 0 12 -18 15 -105 15 -87 0 -105 -3 -105 -15z"/>
<path d="M9250 1845 c0 -10 11 -15 35 -15 l35 0 0 -145 0 -145 -35 0 c-24 0
-35 -5 -35 -15 0 -12 18 -15 100 -15 82 0 100 3 100 15 0 10 -10 15 -30 15
l-30 0 0 160 0 160 -70 0 c-56 0 -70 -3 -70 -15z"/>
<path d="M9750 1845 c0 -10 10 -15 33 -15 30 0 34 -4 70 -83 21 -45 56 -119
77 -164 l39 -82 -25 -48 c-14 -26 -32 -59 -39 -73 -7 -14 -17 -34 -20 -45 -7
-20 -7 -19 -17 2 -28 59 -103 26 -83 -36 7 -24 36 -35 73 -26 31 6 95 97 119
168 8 23 30 73 49 111 19 38 34 74 34 80 0 6 18 47 40 90 22 43 40 85 40 92 0
9 12 14 35 14 24 0 35 5 35 15 0 12 -16 15 -80 15 -63 0 -80 -3 -80 -14 0 -9
12 -16 31 -18 l30 -3 -25 -48 c-14 -26 -26 -53 -26 -59 0 -6 -12 -36 -27 -66
-24 -50 -28 -53 -40 -36 -7 10 -13 24 -13 31 0 7 -18 49 -40 93 -22 44 -40 82
-40 85 0 3 14 5 30 5 20 0 30 5 30 15 0 12 -18 15 -105 15 -87 0 -105 -3 -105
-15z"/>
<path d="M10623 1408 c-7 -13 -17 -35 -23 -50 -12 -28 -43 -38 -55 -18 -3 6
-20 10 -36 10 -17 0 -28 -4 -24 -9 10 -17 13 -100 4 -103 -16 -5 -19 -48 -3
-48 8 0 14 4 14 9 0 5 11 12 25 15 14 4 23 11 20 16 -12 19 11 10 30 -12 12
-15 20 -18 23 -10 2 7 8 10 13 7 5 -3 18 -1 29 5 14 8 19 17 15 33 -4 13 -1
36 5 52 23 59 23 124 -1 110 -5 -4 -9 -1 -9 4 0 19 -15 12 -27 -11z"/>
<path d="M10267 1190 c-9 -11 -17 -25 -17 -30 0 -6 -5 -9 -11 -7 -6 1 -16 -6
-22 -16 -10 -15 -9 -20 5 -28 10 -5 25 -25 33 -43 12 -24 24 -35 45 -38 28 -4
65 13 53 25 -3 4 2 16 12 27 10 11 16 20 13 20 -3 0 -2 16 2 35 6 27 5 35 -6
35 -8 0 -14 4 -14 9 0 5 -10 11 -22 14 -13 2 -30 7 -38 11 -9 4 -22 -2 -33
-14z"/>
<path d="M10079 1098 c-10 -31 -8 -63 5 -70 9 -5 16 -16 16 -23 0 -24 18 -17
22 8 2 16 9 22 26 21 29 -1 23 20 -7 24 -12 2 -27 12 -34 23 -10 16 -25 25
-28 17z"/>
<path d="M9691 978 c9 -17 9 -24 -5 -33 -9 -7 -16 -18 -16 -24 0 -7 -13 -17
-30 -22 -31 -11 -34 -18 -24 -56 10 -36 51 -30 91 13 18 20 33 40 33 45 0 4
10 9 22 11 13 2 24 11 26 22 3 14 0 17 -12 13 -11 -4 -21 3 -31 23 -11 21 -23
30 -41 30 -22 0 -24 -2 -13 -22z"/>
<path d="M4505 980 c-11 -5 -35 -9 -54 -9 -23 -1 -39 -9 -53 -26 -13 -16 -29
-25 -49 -25 -16 0 -30 -6 -30 -12 -8 -69 -6 -89 10 -82 9 3 36 6 60 5 35 -2
51 -9 73 -31 33 -35 95 -50 104 -26 4 11 18 16 44 16 22 0 42 5 45 10 4 7 24
8 51 4 42 -6 44 -5 44 20 0 14 -4 26 -10 26 -5 0 -10 16 -10 35 0 25 -5 37
-17 41 -10 3 -25 9 -33 14 -10 4 -24 2 -35 -6 -17 -13 -20 -12 -26 2 -3 10
-19 19 -35 21 -16 3 -33 11 -37 19 -9 16 -14 16 -42 4z"/>
<path d="M9063 953 c-15 -3 -23 -12 -23 -25 0 -11 -8 -22 -20 -25 -13 -3 -20
-14 -20 -29 0 -22 -45 -74 -63 -74 -4 0 -6 -4 -3 -8 9 -15 -29 -53 -47 -46 -9
3 -14 10 -11 16 3 5 -11 2 -31 -6 -21 -9 -39 -16 -41 -16 -2 0 -4 -9 -4 -19 0
-31 -40 -38 -62 -11 -10 13 -22 19 -26 15 -4 -4 -1 -10 6 -12 20 -8 14 -22 -8
-16 -11 3 -20 0 -20 -6 0 -5 6 -8 14 -5 19 7 32 -16 15 -26 -9 -6 -5 -11 14
-15 15 -4 27 -12 27 -17 0 -15 82 -1 99 17 12 12 19 10 45 -12 26 -22 32 -23
34 -9 2 9 9 16 16 16 7 0 19 11 26 25 7 14 17 25 22 25 5 0 7 4 4 9 -7 12 12
27 45 35 28 6 66 -4 136 -35 24 -10 46 -19 49 -19 4 0 12 -7 18 -15 6 -8 30
-17 54 -21 39 -6 42 -5 42 17 1 13 9 34 19 46 16 19 26 22 59 17 33 -4 45 -1
62 16 28 28 19 50 -20 50 -19 0 -33 6 -37 16 -7 20 -51 10 -76 -17 -10 -11
-23 -17 -28 -13 -15 9 -61 -5 -54 -16 8 -14 -64 -9 -101 6 -40 17 -52 68 -23
100 19 21 26 50 10 39 -5 -3 -12 -1 -16 5 -3 5 -15 10 -26 10 -12 0 -19 7 -19
20 0 11 -3 19 -7 19 -5 -1 -18 -4 -30 -6z"/>
<path d="M8390 753 c-15 -4 -50 -68 -50 -91 0 -7 8 -12 18 -12 21 0 66 -46 58
-59 -7 -10 21 -24 34 -16 15 9 18 56 4 70 -11 10 -11 15 -1 18 9 4 8 6 -2 6
-28 2 -58 71 -30 71 5 0 7 5 4 10 -6 10 -10 11 -35 3z"/>
<path d="M4812 699 c-12 -5 -28 -6 -35 -3 -22 8 -70 -15 -64 -30 4 -9 -3 -13
-19 -13 -35 0 -38 -7 -20 -41 18 -35 40 -46 66 -32 13 7 21 7 25 0 12 -19 52
-11 58 11 3 13 12 19 24 17 14 -2 17 3 15 25 -2 15 -9 38 -16 51 -9 18 -16 21
-34 15z"/>
<path d="M5520 669 c0 -17 -4 -28 -10 -24 -5 3 -10 -1 -10 -9 0 -19 25 -32 68
-34 20 -2 32 2 32 10 0 7 3 23 6 36 5 18 2 22 -19 22 -14 0 -27 7 -31 15 -10
28 -36 17 -36 -16z"/>
<path d="M8195 635 c-22 -8 -41 -15 -42 -15 -11 0 1 -29 17 -43 22 -19 25 -39
10 -68 -16 -28 -29 -23 -28 11 2 47 -23 66 -86 67 -47 1 -56 -2 -62 -19 -4
-13 -12 -18 -24 -15 -13 3 -19 -3 -24 -24 -5 -27 -7 -28 -28 -17 -12 7 -27 18
-33 25 -5 6 -32 14 -60 17 -27 3 -71 8 -98 12 -26 3 -58 3 -71 0 -22 -5 -23
-8 -13 -46 6 -22 17 -40 24 -40 7 0 13 -4 13 -10 0 -5 9 -18 21 -29 13 -12 17
-21 10 -26 -6 -3 -11 -13 -11 -21 0 -11 8 -13 34 -9 25 5 35 3 39 -10 9 -21
81 -13 108 11 18 16 19 16 19 -2 1 -15 4 -14 15 8 13 23 21 27 57 26 24 0 57
-6 74 -13 33 -13 62 -5 50 14 -4 6 0 11 9 11 13 0 16 6 11 24 -5 19 -2 24 11
22 20 -3 27 -45 13 -82 -6 -15 -6 -24 0 -24 6 0 10 6 10 14 0 8 11 17 25 20
14 4 25 14 25 24 0 9 7 26 16 37 13 17 16 18 24 5 5 -8 10 -23 10 -32 0 -19
28 -38 48 -31 6 3 12 13 12 24 0 10 5 19 11 19 5 0 8 4 5 9 -13 21 21 40 82
46 43 4 68 11 82 25 11 11 17 20 13 20 -5 0 -3 4 4 8 6 4 9 19 6 34 -6 32 -30
27 -44 -8 -12 -33 -76 -34 -103 -3 -15 18 -25 20 -57 15 -23 -4 -39 -2 -39 4
0 5 -7 7 -15 4 -17 -7 -21 11 -5 21 16 10 11 25 -7 25 -10 -1 -36 -7 -58 -15z"/>
<path d="M6177 570 c-6 -16 -17 -30 -24 -30 -8 0 -19 -12 -25 -26 -8 -18 -17
-24 -31 -20 -16 4 -17 0 -11 -27 4 -18 8 -43 9 -57 3 -39 4 -42 15 -35 6 3 10
-3 10 -14 0 -22 14 -28 25 -10 4 6 7 25 7 44 0 27 5 34 24 39 23 6 26 13 28
64 1 9 5 20 9 23 4 3 10 22 14 42 5 33 3 37 -17 37 -15 0 -25 -9 -33 -30z"/>
<path d="M6833 551 c-28 -27 -39 -87 -18 -107 8 -8 15 -12 15 -7 0 4 4 2 8 -5
17 -26 112 23 112 58 0 21 -19 40 -41 40 -9 0 -19 9 -22 20 -6 25 -27 26 -54
1z"/>
<path d="M6353 539 c-12 -4 -21 -16 -21 -26 0 -10 -3 -30 -7 -45 -6 -23 -4
-28 11 -28 21 0 59 24 91 57 19 19 19 22 5 27 -10 3 -26 10 -37 15 -11 4 -30
5 -42 0z"/>
<path d="M6496 503 c4 -16 11 -32 15 -37 5 -6 9 -18 9 -27 0 -32 34 -27 59 10
22 31 22 35 7 46 -9 7 -16 17 -16 24 0 6 -17 11 -40 11 -39 0 -40 -1 -34 -27z"/>
<path d="M7470 527 c0 -3 7 -18 15 -33 13 -26 13 -30 0 -40 -20 -15 -10 -38
22 -53 36 -16 66 -5 59 22 -3 12 -6 26 -6 30 0 4 -9 3 -20 -3 -26 -14 -40 -6
-33 21 4 13 -2 27 -16 40 -11 11 -21 18 -21 16z"/>
<path d="M6574 317 c-3 -9 -14 -19 -25 -22 -23 -8 -25 -38 -4 -55 8 -7 15 -18
15 -26 0 -17 56 1 64 22 7 19 46 18 46 -2 0 -8 5 -12 10 -9 6 3 10 1 10 -4 0
-6 7 -11 15 -11 9 0 12 -6 9 -15 -5 -11 1 -15 20 -15 23 0 25 -2 16 -19 -22
-42 -13 -49 35 -27 24 12 44 27 45 34 0 7 13 12 29 12 24 0 28 3 24 20 -7 25
-10 27 -48 31 -20 3 -38 15 -53 37 -24 34 -37 40 -45 20 -4 -10 -8 -9 -16 2
-6 8 -11 11 -11 7 0 -4 -10 -2 -22 5 -13 6 -27 13 -33 14 -71 16 -75 16 -81 1z"/>
<path d="M7417 236 c-3 -8 -3 -17 0 -20 4 -3 7 -17 9 -31 2 -20 -3 -26 -29
-33 -24 -7 -31 -13 -29 -28 5 -27 8 -28 41 -14 18 7 31 21 33 33 2 13 13 23
28 27 28 7 39 41 18 57 -24 19 -65 24 -71 9z"/>
</g>
</svg>
