<?xml version="1.0" standalone="no"?>
<!DOCTYPE svg PUBLIC "-//W3C//DTD SVG 20010904//EN"
 "http://www.w3.org/TR/2001/REC-SVG-20010904/DTD/svg10.dtd">
<svg version="1.0" xmlns="http://www.w3.org/2000/svg"
 width="1946.000000pt" height="25.000000pt" viewBox="0 0 1946.000000 25.000000"
 preserveAspectRatio="xMidYMid meet">

<g transform="translate(0.000000,25.000000) scale(0.100000,-0.100000)"
fill="#000000" stroke="none">
<path d="M8957 217 c-70 -75 -145 -86 -244 -37 -34 17 -64 37 -67 45 -14 36
-84 7 -111 -46 -20 -37 -61 -39 -102 -5 -24 20 -39 24 -86 23 -44 -1 -63 4
-86 21 -37 27 -46 27 -72 1 -19 -19 -28 -21 -78 -14 -88 13 -139 7 -187 -21
-52 -31 -75 -26 -104 22 -24 38 -35 41 -62 17 -17 -15 -26 -15 -78 -5 -61 13
-88 10 -154 -14 -65 -25 -106 -21 -132 11 -21 27 -24 27 -54 15 -25 -10 -38
-10 -68 -1 -52 17 -98 11 -94 -12 4 -23 -58 -50 -93 -41 -14 3 -34 19 -46 35
-27 39 -45 36 -66 -8 -14 -29 -24 -38 -43 -38 -23 0 -25 4 -23 38 3 44 -9 47
-57 12 -45 -33 -93 -33 -124 0 -28 30 -47 32 -71 5 -23 -25 -43 -25 -75 0 -37
29 -58 25 -74 -15 -21 -49 -65 -49 -112 0 -38 41 -44 42 -67 15 -22 -26 -45
-25 -74 2 -23 21 -23 21 -57 3 -32 -17 -40 -18 -88 -6 -29 7 -83 15 -119 18
l-66 5 -13 -32 c-23 -57 -43 -62 -202 -58 -158 4 -200 16 -212 63 -6 23 -11
25 -57 25 -36 0 -58 -6 -80 -22 -27 -20 -41 -23 -115 -20 -69 2 -92 -2 -131
-20 -77 -36 -135 -31 -219 19 -78 48 -121 54 -149 23 -15 -16 -31 -20 -90 -20
-57 0 -82 -5 -121 -25 -48 -24 -50 -25 -81 -8 -30 16 -33 16 -51 0 -18 -16
-21 -16 -63 3 -24 11 -56 20 -71 20 -14 0 -41 12 -58 27 -22 18 -36 24 -45 17
-65 -48 -65 -48 -108 -35 -83 25 -104 25 -151 -3 -64 -38 -94 -34 -158 20 -24
19 -38 22 -103 20 -73 -1 -77 -3 -101 -34 -33 -41 -61 -41 -102 1 -31 32 -36
34 -103 33 l-70 -1 -22 -40 c-21 -36 -27 -40 -68 -43 -44 -3 -47 -1 -72 38
-27 39 -29 40 -85 40 -36 0 -66 -6 -78 -15 -27 -21 -100 -19 -138 4 -33 20
-140 27 -206 12 -19 -4 -49 -3 -67 2 -29 9 -34 7 -67 -27 -28 -30 -40 -36 -58
-31 -22 7 -40 23 -57 54 -12 19 -49 8 -96 -29 -50 -40 -72 -39 -91 5 -17 41
-32 44 -64 10 -30 -32 -58 -32 -70 0 -13 34 -44 32 -100 -5 -25 -16 -48 -30
-52 -30 -5 0 -20 13 -35 30 -32 37 -40 37 -74 4 -31 -29 -63 -26 -72 6 -7 28
-46 26 -87 -5 -42 -31 -48 -31 -60 0 -12 31 -22 31 -67 0 l-36 -24 -30 25
c-39 33 -81 30 -85 -6 -5 -34 -30 -60 -59 -60 -13 0 -62 20 -109 45 -100 53
-143 58 -168 20 -14 -21 -24 -25 -68 -25 -28 0 -75 -7 -104 -16 -63 -20 -79
-15 -101 31 -21 44 -35 40 -47 -13 -8 -39 -11 -42 -42 -42 -27 0 -40 8 -71 45
-47 57 -67 57 -91 1 l-20 -44 -68 2 c-88 2 -147 22 -185 60 l-31 31 -42 -49
c-42 -48 -44 -49 -76 -37 -47 16 -50 15 -50 -23 0 -26 5 -36 20 -41 11 -4 34
-23 50 -44 29 -35 34 -38 83 -37 44 1 52 4 55 21 12 79 22 81 116 30 118 -65
155 -65 182 1 18 43 30 43 51 -1 19 -39 36 -47 104 -48 56 -1 79 15 79 54 0
29 1 29 60 29 65 0 80 -12 62 -47 -17 -32 -3 -43 53 -43 62 0 85 17 85 61 0
18 5 29 14 29 26 0 70 -21 90 -42 l20 -22 14 33 c12 31 15 33 45 25 33 -8 97
-10 132 -3 15 3 21 -2 23 -21 6 -39 31 -60 72 -60 35 0 38 3 55 46 24 62 48
57 75 -19 8 -22 15 -27 45 -27 33 0 35 2 46 45 6 25 15 45 20 45 4 0 20 -16
35 -35 51 -67 80 -68 93 -3 8 38 21 40 93 12 l47 -18 26 24 c26 24 27 24 56 7
38 -21 53 -21 85 -1 23 16 29 16 84 -1 56 -17 61 -17 85 -1 19 13 35 15 58 10
18 -4 57 -7 87 -5 31 1 74 -5 99 -14 24 -8 52 -13 62 -10 9 3 49 -2 87 -10 75
-17 87 -15 141 26 17 14 40 19 81 19 61 0 80 -11 99 -63 16 -41 46 -35 71 13
26 51 45 59 73 32 32 -31 109 -62 135 -55 14 3 25 17 30 37 8 29 11 31 61 34
33 2 61 -2 74 -11 12 -8 51 -17 86 -20 54 -6 69 -4 102 15 36 20 40 20 57 5
39 -35 91 -48 162 -41 60 6 71 4 97 -15 22 -17 41 -22 74 -19 39 3 46 7 66 43
12 22 27 40 33 40 6 0 21 -18 33 -40 18 -33 29 -41 56 -43 53 -5 77 5 100 43
30 51 46 54 90 11 49 -48 87 -49 140 -1 46 42 78 45 91 10 12 -31 21 -31 58 0
17 14 34 25 39 25 5 0 31 -21 56 -46 41 -40 51 -45 84 -42 34 3 38 6 48 42 14
47 23 51 79 37 28 -7 79 -7 156 -1 112 9 116 9 150 -14 71 -48 156 -67 286
-64 101 3 119 5 122 20 5 24 -49 33 -87 14 -29 -15 -34 -15 -96 10 -104 42
-95 48 61 38 76 -5 166 -8 199 -7 33 0 139 3 235 5 96 2 198 1 225 -4 28 -4
91 -4 140 0 96 9 211 -3 252 -26 20 -11 24 -9 39 14 16 24 21 25 78 20 85 -8
193 -9 318 0 128 8 148 4 170 -36 22 -40 45 -38 65 5 19 40 32 43 59 14 38
-42 53 -44 90 -8 l33 32 35 -30 c19 -17 51 -37 72 -43 38 -13 38 -13 75 30 32
37 40 42 53 31 8 -7 18 -21 21 -32 9 -27 33 -23 65 11 15 17 31 30 35 30 4 0
21 -11 37 -26 l31 -25 28 27 28 27 41 -36 c33 -31 48 -37 83 -37 46 0 114 27
136 53 21 26 37 21 60 -18 11 -19 27 -35 35 -35 8 0 27 16 42 35 30 40 48 44
64 14 19 -35 70 -59 127 -59 48 0 53 3 83 40 17 22 37 40 44 40 7 0 25 -14 41
-30 36 -37 53 -37 140 0 39 16 82 30 98 30 24 0 27 -3 27 -35 0 -37 0 -38 88
-50 48 -6 95 2 86 16 -3 5 -28 19 -55 30 -53 23 -62 47 -13 39 29 -5 137 -5
229 0 35 2 64 -4 95 -18 61 -29 94 -28 123 4 22 24 25 24 41 9 9 -9 23 -30 31
-46 9 -16 19 -29 23 -30 4 0 18 -2 32 -3 44 -5 130 25 148 52 24 36 55 44 105
26 74 -27 77 -27 101 -5 l23 22 31 -26 c36 -30 45 -31 80 -6 49 34 78 35 112
1 38 -37 55 -38 73 -4 14 27 14 27 133 26 110 -1 124 -3 192 -32 77 -33 105
-32 122 0 6 11 19 24 30 30 16 8 26 3 63 -35 25 -25 53 -45 63 -45 50 1 99 21
134 55 l38 37 28 -36 c38 -47 66 -47 93 0 l21 35 46 -32 c37 -27 56 -34 109
-37 62 -4 66 -3 94 27 34 36 56 39 73 11 16 -26 26 -25 62 5 l30 24 38 -35
c41 -37 54 -37 68 2 13 33 42 30 62 -6 10 -17 25 -33 33 -37 25 -9 94 15 122
43 30 30 40 30 69 -1 30 -33 46 -32 88 6 l36 31 21 -36 c25 -43 55 -47 69 -11
17 46 39 48 291 30 73 -5 122 -4 154 4 53 13 115 5 115 -15 0 -23 20 -26 56
-9 35 16 127 22 299 16 44 -1 94 2 110 7 18 5 43 5 62 -1 21 -7 57 -7 105 0
45 6 96 7 133 2 33 -5 146 -6 250 -2 105 4 193 8 198 8 4 0 7 -4 8 -9 0 -5
-28 -20 -62 -34 -54 -22 -66 -23 -98 -12 -47 15 -85 10 -89 -12 -3 -16 5 -18
60 -19 35 -1 85 -3 113 -5 58 -4 198 36 243 70 28 20 35 21 143 12 74 -5 128
-5 158 2 55 12 71 7 71 -24 0 -24 31 -64 49 -64 27 0 69 25 103 62 l37 40 31
-26 c39 -33 49 -33 75 0 19 24 24 25 46 14 13 -7 34 -24 46 -37 17 -17 33 -23
66 -23 37 0 48 5 75 36 26 29 34 33 51 25 11 -6 22 -19 26 -30 9 -30 39 -51
79 -56 31 -4 42 0 67 24 16 16 29 37 29 45 0 29 37 18 48 -13 21 -60 96 -78
145 -34 15 14 35 17 106 15 82 -3 89 -1 131 27 l45 30 31 -20 c42 -25 136 -26
184 -1 30 16 76 20 133 13 4 -1 7 -11 7 -24 0 -65 73 -61 166 9 l31 24 20 -23
c11 -12 24 -32 28 -44 11 -39 51 -30 74 16 16 31 27 40 56 45 48 9 90 -1 137
-31 30 -20 45 -24 75 -19 21 3 67 8 103 12 36 3 85 13 109 21 30 9 62 12 97 7
29 -3 60 -2 70 4 14 7 26 6 44 -4 32 -17 65 -17 115 0 36 13 43 12 76 -7 l36
-21 35 22 c35 22 35 22 53 2 23 -25 51 -25 108 -1 47 20 67 14 67 -20 0 -62
48 -67 85 -9 31 50 52 51 61 5 7 -41 20 -53 54 -51 18 2 30 13 44 42 10 21 23
42 29 46 16 10 35 -9 42 -43 8 -36 37 -50 79 -38 34 10 46 24 46 57 0 24 14
27 55 12 19 -7 40 -6 73 3 54 16 72 13 72 -13 0 -29 19 -34 44 -11 24 22 73
41 92 34 6 -2 9 -14 7 -26 -9 -48 59 -81 119 -58 25 9 26 12 16 41 -5 17 -8
33 -5 36 3 3 33 6 66 7 l61 2 0 -33 c0 -37 25 -52 85 -52 51 0 82 16 100 50
20 39 31 38 52 -8 25 -52 55 -53 151 -6 42 21 85 41 94 46 24 10 48 -16 48
-53 0 -16 6 -29 13 -30 63 -4 102 0 106 12 7 22 58 69 75 69 12 0 15 10 14 39
-1 37 -3 39 -25 30 -44 -16 -65 -10 -100 31 -19 22 -39 40 -45 40 -5 0 -19
-11 -29 -24 -26 -32 -111 -60 -181 -59 -68 2 -74 4 -96 51 -21 44 -36 50 -59
21 -48 -60 -71 -78 -99 -76 -24 2 -30 9 -39 42 -15 51 -30 54 -50 12 -20 -42
-44 -50 -97 -31 -22 8 -65 14 -95 14 -47 0 -58 4 -81 29 -25 28 -30 29 -69 21
-23 -6 -71 -26 -106 -45 -82 -45 -132 -48 -148 -7 -21 51 -26 57 -50 54 -13
-2 -33 -12 -45 -23 -27 -25 -40 -24 -76 6 -24 20 -33 23 -44 14 -8 -6 -14 -17
-14 -25 0 -25 -20 -25 -52 -1 -50 37 -76 40 -94 11 -21 -31 -55 -31 -83 2
l-23 26 -32 -31 c-38 -37 -51 -38 -96 -8 -54 36 -68 39 -90 17 -11 -11 -20
-24 -20 -30 0 -18 -28 -11 -58 15 -39 33 -46 32 -71 -10 -11 -19 -24 -35 -28
-35 -4 0 -34 18 -67 40 -47 32 -62 38 -77 29 -10 -5 -19 -14 -19 -19 0 -18
-33 -40 -60 -40 -21 0 -36 9 -55 34 -24 31 -29 34 -53 25 -16 -6 -49 -8 -82
-3 -94 13 -164 7 -201 -15 -43 -26 -85 -26 -140 -1 -71 32 -106 27 -150 -21
-50 -54 -98 -60 -135 -16 -13 16 -24 33 -24 37 0 19 -38 30 -65 20 -18 -7 -33
-7 -46 0 -16 9 -26 4 -64 -31 -52 -48 -83 -48 -112 1 -9 17 -22 30 -28 31 -91
5 -149 -1 -169 -20 -12 -11 -39 -27 -60 -36 -37 -16 -39 -16 -103 15 l-64 31
-59 -20 c-65 -23 -82 -20 -122 17 l-27 24 -24 -26 c-18 -19 -40 -29 -77 -35
-28 -5 -56 -13 -63 -20 -14 -14 -42 -14 -67 1 -16 10 -25 10 -46 -3 -26 -16
-30 -15 -78 10 -42 22 -61 26 -116 23 -56 -2 -71 1 -98 22 -41 29 -72 24 -156
-28 -73 -44 -138 -49 -201 -14 -34 18 -54 21 -130 19 -80 -2 -94 1 -119 20
-30 24 -112 35 -133 17 -7 -6 -13 -18 -13 -28 0 -43 -131 -67 -295 -53 -90 8
-90 8 -107 42 -9 19 -22 37 -28 41 -17 10 -84 4 -155 -15 -63 -17 -67 -17
-105 0 -40 18 -41 18 -63 -3 -30 -28 -48 -28 -77 3 l-24 25 -36 -35 c-49 -48
-88 -51 -109 -10 -23 43 -32 46 -66 27 -53 -32 -63 -32 -94 -7 l-29 25 -37
-30 c-46 -37 -71 -38 -119 -5 -52 35 -66 33 -59 -9 4 -25 1 -35 -11 -39 -26
-10 -45 3 -58 39 -16 46 -30 48 -69 8 -35 -37 -68 -43 -114 -22 -18 8 -25 18
-22 30 4 15 -1 18 -32 18 -21 0 -52 -5 -69 -11 -24 -8 -37 -7 -60 5 -28 15
-30 14 -56 -14 -31 -36 -59 -38 -139 -10 -65 23 -87 24 -156 8 -44 -10 -53 -9
-69 5 -27 24 -36 21 -67 -19 -31 -41 -46 -42 -133 -3 -49 22 -56 22 -124 11
-68 -12 -74 -11 -100 8 -34 25 -43 25 -75 0 -20 -15 -41 -20 -90 -20 -55 0
-70 -4 -95 -25 -45 -38 -56 -34 -106 33 -9 12 -32 26 -50 31 -27 8 -36 6 -50
-9 -10 -11 -43 -33 -74 -49 -46 -25 -64 -29 -108 -26 -56 4 -80 16 -129 66
-34 33 -43 32 -65 -12 -19 -38 -40 -45 -93 -30 -81 23 -106 24 -168 2 -99 -35
-135 -28 -150 31 -10 40 -32 42 -65 6 l-29 -32 -63 10 c-50 9 -70 8 -97 -3
-47 -20 -85 -10 -79 22 4 18 0 25 -19 30 -13 3 -28 3 -34 -1 -9 -5 -156 -6
-314 -1 -59 2 -60 1 -77 -33 -10 -19 -19 -39 -21 -44 -4 -12 -75 -15 -104 -5
-12 5 -24 20 -28 38 -8 37 -20 47 -68 50 -32 2 -43 -3 -70 -32z m-6210 -33 c8
-21 -13 -42 -28 -27 -13 13 -5 43 11 43 6 0 13 -7 17 -16z m14001 -7 c2 -12
-3 -17 -17 -17 -12 0 -21 6 -21 13 0 31 32 34 38 4z"/>
</g>
</svg>
