<?xml version="1.0" standalone="no"?>
<!DOCTYPE svg PUBLIC "-//W3C//DTD SVG 20010904//EN"
 "http://www.w3.org/TR/2001/REC-SVG-20010904/DTD/svg10.dtd">
<svg version="1.0" xmlns="http://www.w3.org/2000/svg"
 width="1945.000000pt" height="38.000000pt" viewBox="0 0 1946.000000 38.000000"
 preserveAspectRatio="xMidYMid meet">

<g transform="translate(0.000000,38.000000) scale(0.100000,-0.100000)"
fill="#333333" stroke="none">
<path d="M9294 357 c9 -37 -8 -57 -48 -57 -29 0 -87 -29 -60 -30 5 0 18 -6 28
-13 17 -12 17 -16 2 -51 -17 -41 -22 -40 -68 3 -19 18 -28 36 -28 57 0 39 -19
96 -30 89 -5 -3 -6 -21 -3 -40 7 -44 -11 -46 -32 -5 -9 17 -27 35 -41 40 -34
13 -87 13 -79 0 3 -5 20 -10 36 -10 27 0 30 -3 27 -27 -3 -28 -4 -28 -78 -28
-63 0 -75 -3 -78 -17 -4 -23 -6 -23 -50 7 -42 29 -52 31 -52 10 0 -21 -10 -19
-53 10 -37 26 -48 50 -25 57 6 2 -12 4 -40 4 -57 0 -56 1 -42 -26 14 -26 -5
-37 -75 -41 -54 -4 -60 -2 -58 15 1 15 -4 17 -31 13 -18 -3 -56 1 -85 9 -59
15 -71 12 -71 -16 0 -19 -25 -34 -41 -24 -19 11 -9 45 17 55 36 13 27 19 -16
10 -25 -5 -36 -13 -40 -30 -3 -13 -15 -30 -27 -38 -21 -14 -25 -12 -62 26 -44
45 -69 55 -51 21 8 -16 8 -20 -3 -20 -8 0 -18 10 -21 23 -6 22 -7 22 -21 3 -8
-11 -15 -27 -15 -37 0 -24 -80 -36 -96 -14 -6 8 -20 15 -30 15 -24 0 -38 10
-52 35 -11 19 -11 19 -12 -4 0 -18 -4 -22 -17 -15 -10 4 -39 9 -65 12 -45 4
-49 2 -65 -27 -22 -37 -31 -38 -58 -7 -20 25 -37 30 -90 26 -30 -3 -30 -3 5
-9 43 -7 54 -43 20 -61 -33 -17 -62 -5 -132 53 -35 29 -73 54 -86 54 -20 2
-21 -1 -11 -13 17 -21 7 -25 -29 -12 -27 11 -37 9 -84 -15 -29 -15 -65 -27
-79 -27 -15 0 -38 -9 -52 -20 -26 -20 -26 -20 -36 -1 -14 26 -14 41 3 73 10
20 11 25 2 22 -18 -7 -47 -71 -40 -88 7 -17 -39 -50 -58 -43 -8 4 -5 8 10 12
39 13 23 69 -19 63 -26 -3 -42 -48 -17 -48 8 -1 6 -6 -6 -15 -11 -8 -27 -15
-35 -15 -13 0 -13 2 -2 9 9 6 10 11 2 15 -18 11 -13 77 7 93 13 11 10 11 -14
-1 -34 -17 -44 -33 -44 -74 0 -41 -15 -60 -37 -46 -14 9 -18 23 -16 65 2 49 1
52 -12 34 -39 -55 -45 -56 -85 -16 -16 16 -32 26 -35 23 -3 -3 -5 -1 -5 5 0 5
-11 15 -24 21 -24 11 -24 10 -19 -23 6 -36 -13 -98 -27 -90 -4 3 -13 -2 -20
-10 -20 -24 -30 -18 -30 18 -1 17 -6 42 -14 55 -13 24 -15 22 -42 -75 -9 -34
-64 -3 -78 43 -9 29 -53 37 -89 16 -23 -14 -31 -15 -60 -3 -17 7 -45 14 -62
15 -23 1 -31 6 -33 24 -3 18 -8 22 -20 17 -43 -18 -52 -17 -52 3 0 19 -2 19
-42 5 -33 -11 -48 -12 -67 -3 -18 8 -27 8 -29 1 -2 -6 -10 -11 -18 -11 -16 0
-19 -16 -4 -25 6 -3 10 -18 10 -32 0 -24 -2 -25 -37 -18 -77 16 -129 1 -135
-37 -2 -19 -10 -24 -40 -26 -54 -5 -78 12 -78 53 0 26 -3 33 -15 29 -8 -4 -15
-14 -15 -24 0 -35 -26 -44 -78 -28 -44 14 -47 18 -50 52 -4 41 11 52 50 37 15
-5 30 -6 39 0 12 7 11 9 -2 9 -9 0 -24 9 -34 20 -10 11 -28 20 -40 20 -18 0
-26 -11 -44 -59 -12 -32 -29 -62 -39 -66 -20 -7 -52 27 -52 56 0 10 -5 21 -11
25 -9 5 -11 -11 -7 -59 4 -52 3 -67 -7 -67 -8 0 -17 9 -20 20 -8 24 -38 42
-85 49 -26 5 -36 12 -38 29 -2 12 -8 22 -13 22 -14 0 -11 -54 6 -76 21 -28 18
-41 -10 -48 -21 -5 -32 0 -59 29 -21 22 -43 35 -59 35 -15 0 -32 9 -40 21
l-15 21 -7 -22 c-8 -26 8 -47 52 -65 22 -9 33 -21 33 -34 0 -26 -11 -26 -75
-3 -43 15 -50 22 -53 47 -2 17 -14 40 -27 53 -20 18 -23 27 -15 47 9 23 8 25
-9 15 -11 -5 -29 -10 -41 -10 -11 0 -32 -7 -46 -16 -23 -16 -26 -15 -44 1 -19
17 -21 17 -38 2 -22 -20 -44 -21 -95 -3 -20 8 -40 10 -43 5 -3 -5 -14 -9 -24
-9 -16 0 -18 -5 -14 -30 9 -43 -18 -50 -53 -15 -15 14 -36 31 -47 37 -20 11
-20 10 -3 -16 22 -33 15 -46 -24 -46 -17 0 -44 -7 -61 -16 -33 -17 -50 -10
-53 23 -4 40 -17 83 -26 83 -5 0 -10 -15 -11 -32 0 -18 -2 -37 -3 -43 -2 -5
-3 -18 -4 -27 -1 -24 -21 -23 -21 1 0 14 -8 21 -27 23 -25 3 -28 8 -31 44 -3
39 -1 42 27 52 39 14 39 17 -1 17 -34 0 -62 -22 -73 -56 -5 -15 -10 -17 -25
-9 -10 6 -28 10 -39 10 -12 0 -30 9 -41 20 -19 19 -21 19 -27 3 -4 -10 -11
-21 -17 -25 -17 -12 -66 -9 -66 3 0 7 -7 8 -17 4 -10 -4 -45 -12 -78 -16 -33
-5 -72 -14 -88 -20 -35 -15 -53 -1 -61 46 -9 47 -26 44 -26 -3 0 -21 -6 -47
-14 -57 -14 -19 -15 -19 -66 5 -28 13 -58 36 -65 50 l-14 25 -1 -29 c0 -19 12
-42 36 -68 54 -60 34 -78 -45 -40 -24 12 -38 28 -46 51 -14 44 -58 81 -96 81
-17 0 -39 5 -49 10 -16 9 -18 8 -14 -5 6 -15 24 -22 74 -27 31 -4 39 -34 13
-53 -24 -19 -33 -18 -33 1 0 11 -8 14 -32 12 -39 -4 -48 -25 -16 -37 20 -8 21
-10 6 -16 -26 -10 -47 1 -58 30 -5 14 -16 25 -25 25 -8 0 -15 5 -15 10 0 6 -7
10 -15 10 -8 0 -21 12 -29 27 l-15 28 -1 -36 c0 -38 12 -49 51 -49 20 0 25
-25 10 -49 -8 -12 -16 -12 -54 0 -40 11 -48 19 -68 61 -17 37 -20 50 -10 61 9
12 8 16 -7 19 -12 3 -24 -2 -31 -15 -10 -15 -20 -18 -44 -15 -18 3 -38 3 -45
1 -23 -8 18 -43 50 -43 21 0 28 -5 28 -19 0 -11 -8 -22 -18 -25 -20 -6 -129 8
-139 18 -10 10 10 39 38 53 30 16 18 16 -32 1 -48 -14 -89 1 -89 32 0 31 -17
15 -24 -23 -6 -32 -7 -33 -63 -34 -61 -2 -73 6 -73 45 0 12 -4 22 -8 22 -15 0
-30 -22 -25 -36 8 -21 -16 -44 -44 -44 -17 0 -30 -10 -45 -35 -23 -40 -42 -41
-46 -4 -3 31 -24 102 -32 112 -4 4 -8 -16 -9 -45 -2 -63 -7 -70 -46 -60 -25 7
-32 15 -39 50 -11 48 -30 54 -64 22 l-21 -20 -10 32 -9 33 -1 -31 c-2 -63 -52
-64 -113 -1 -36 35 -50 34 -97 -9 -39 -34 -41 -35 -81 -23 -32 10 -40 17 -37
31 3 10 1 18 -4 18 -4 0 -12 -14 -17 -32 -9 -37 -36 -58 -53 -41 -6 6 -14 26
-18 45 l-7 33 -17 -31 c-9 -17 -24 -34 -32 -38 -22 -8 -55 11 -55 32 0 20 -18
42 -34 42 -6 0 -5 -5 2 -12 7 -7 12 -29 12 -50 0 -21 5 -38 10 -38 16 0 12
-17 -5 -24 -9 -3 -24 3 -35 14 -11 11 -31 20 -45 20 -15 0 -31 10 -41 25 -17
26 -52 50 -60 42 -3 -2 0 -17 6 -32 15 -41 -7 -62 -51 -49 -25 7 -35 17 -41
42 -5 17 -14 32 -21 32 -7 0 -23 3 -37 5 -23 5 -23 4 3 -6 45 -18 30 -69 -21
-69 -13 0 -46 8 -73 17 -46 17 -50 17 -81 0 -33 -18 -88 -20 -88 -4 0 5 11 22
25 39 14 16 25 34 25 39 0 12 -27 12 -35 -1 -8 -13 -52 -13 -60 1 -5 6 -13 3
-22 -10 -10 -15 -25 -21 -54 -21 -21 0 -39 -4 -39 -10 0 -5 11 -10 24 -10 34
0 38 -12 21 -53 -27 -65 -79 -61 -113 9 -12 25 -26 42 -31 39 -5 -3 -12 3 -16
14 -7 23 -45 59 -45 43 0 -7 -9 -12 -20 -12 -23 0 -27 -15 -5 -24 8 -3 15 -16
15 -30 0 -27 -29 -63 -39 -48 -3 5 -24 15 -46 23 -44 14 -93 53 -105 84 -8 18
-9 18 -9 -5 -1 -15 4 -31 10 -37 7 -7 9 -23 5 -37 -6 -23 -11 -26 -51 -26 -36
0 -48 5 -61 25 -12 19 -20 22 -33 15 -10 -5 -27 -6 -39 -3 -16 4 -22 1 -22
-10 0 -9 -5 -19 -10 -22 -15 -9 -40 14 -40 36 0 24 -17 25 -24 2 -4 -10 -15
-29 -25 -42 -17 -22 -20 -23 -50 -10 -31 14 -43 39 -18 39 7 0 21 6 30 13 15
11 16 17 5 47 l-12 35 -6 -30 c-5 -28 -8 -30 -53 -29 -52 0 -54 -1 -32 -23 9
-8 14 -20 12 -27 -8 -23 -40 -17 -74 16 l-35 33 7 -35 c10 -48 42 -90 68 -91
21 0 21 -1 2 -8 -11 -5 -28 -5 -37 0 -34 18 -38 10 -38 -81 l0 -90 9730 0
9731 0 -2 118 c-2 115 -3 119 -23 115 -17 -4 -25 4 -39 35 -18 42 -41 56 -110
68 -54 9 -87 -10 -87 -50 0 -20 -7 -36 -19 -43 -11 -7 -21 -23 -23 -35 -5 -37
-40 -29 -63 14 -24 45 -55 62 -81 44 -11 -7 -34 -15 -51 -18 -28 -4 -33 -2
-33 16 0 12 7 30 15 40 8 11 15 30 15 43 0 38 -41 29 -89 -18 -39 -39 -43 -41
-55 -24 -10 14 -20 16 -42 11 -16 -4 -41 -10 -57 -13 -30 -6 -67 -50 -67 -81
0 -26 -17 -37 -34 -22 -11 8 -15 8 -18 -2 -3 -8 -7 -6 -11 6 -4 9 -3 15 2 12
5 -4 7 13 4 36 -8 69 -13 77 -28 40 -14 -32 -15 -33 -39 -17 -17 11 -35 15
-54 10 -34 -7 -51 9 -62 58 -6 30 -7 28 -21 -33 -17 -78 -36 -86 -93 -40 -36
28 -76 40 -76 23 0 -5 7 -17 15 -27 20 -26 19 -33 -6 -46 -22 -12 -76 2 -92
24 -7 10 -2 69 10 110 3 12 1 17 -8 14 -8 -3 -16 -17 -19 -33 -3 -15 -13 -33
-22 -39 -14 -8 -23 -5 -47 18 -16 15 -35 26 -43 23 -7 -2 -23 5 -35 16 -13 11
-23 15 -23 9 0 -6 4 -13 9 -16 13 -8 19 -50 10 -72 -6 -16 -8 -15 -8 8 -1 32
-31 52 -67 45 -16 -3 -24 0 -24 10 0 22 -44 37 -77 25 l-28 -10 31 -1 c26 -1
33 -6 37 -29 10 -47 -10 -57 -88 -41 -75 15 -91 32 -56 61 30 23 20 23 -28 -2
-41 -20 -53 -18 -44 8 4 10 -11 0 -32 -20 -21 -21 -43 -39 -49 -39 -55 -7 -59
-6 -78 27 -22 37 -68 49 -68 18 0 -24 -23 -11 -31 17 -4 13 -7 18 -8 11 -3
-40 -92 -83 -103 -50 -3 8 -22 1 -56 -20 -29 -18 -64 -32 -78 -32 -13 0 -36
-7 -49 -16 -31 -20 -52 -13 -65 23 -27 74 -67 102 -124 87 -16 -4 -26 -2 -26
5 0 6 -7 11 -15 11 -8 0 -14 -3 -13 -7 3 -10 -43 -63 -54 -63 -4 0 -8 8 -8 18
0 10 -7 27 -15 38 -14 19 -15 19 -21 -2 -3 -12 -22 -29 -43 -39 -27 -12 -44
-29 -59 -61 -12 -24 -28 -44 -37 -44 -18 0 -29 38 -23 85 6 51 -19 45 -29 -8
-12 -58 -38 -61 -81 -7 -26 32 -39 40 -65 40 -18 0 -39 6 -46 13 -11 10 -13 9
-9 -3 2 -8 19 -23 38 -32 50 -25 57 -35 38 -54 -13 -13 -19 -14 -36 -3 -27 17
-43 2 -18 -17 19 -13 19 -14 -5 -14 -30 0 -54 22 -77 70 -14 29 -23 36 -52 38
-42 4 -60 18 -60 44 0 17 -3 18 -14 9 -10 -8 -30 -10 -60 -6 -61 10 -72 -2
-81 -80 -6 -59 -9 -65 -29 -65 -24 0 -56 28 -56 48 0 6 12 18 28 27 l27 16
-40 -5 c-22 -3 -53 1 -69 8 l-30 12 22 22 c27 27 21 27 -41 5 -46 -17 -50 -17
-62 0 -11 16 -14 16 -25 1 -8 -8 -22 -13 -32 -11 -24 7 -23 -10 2 -25 11 -7
20 -23 20 -35 l0 -23 -32 20 c-47 29 -105 26 -130 -5 -24 -30 -34 -31 -48 -5
-17 31 -3 60 28 61 22 0 19 3 -15 14 -34 10 -50 10 -78 0 l-36 -12 25 -17 c16
-10 26 -26 26 -41 0 -35 -20 -31 -53 10 -22 28 -35 35 -62 35 -29 0 -35 -4
-45 -32 -14 -42 -57 -75 -79 -61 -9 6 -18 27 -21 48 -6 45 -25 57 -34 20 -6
-23 -11 -25 -56 -25 -38 0 -52 5 -63 20 -12 18 -15 18 -20 5 -4 -9 -19 -15
-39 -15 -18 0 -41 -9 -53 -20 -12 -12 -38 -23 -58 -27 -30 -4 -42 -1 -67 21
-34 28 -106 36 -127 15 -6 -6 -16 -8 -22 -4 -8 4 3 21 29 46 34 33 37 39 19
39 -11 0 -29 -5 -40 -11 -17 -9 -21 -7 -26 10 -8 30 -19 26 -32 -9 -10 -29
-12 -30 -51 -24 -49 8 -52 -5 -10 -53 35 -39 38 -53 10 -53 -11 0 -20 -7 -20
-15 0 -21 -117 58 -123 82 -3 14 -7 10 -17 -15 -15 -39 -52 -52 -79 -28 -10 9
-34 16 -55 16 -27 0 -44 7 -64 27 -29 30 -122 95 -122 86 0 -3 18 -27 40 -53
40 -48 67 -100 51 -100 -5 0 -14 7 -21 15 -9 11 -16 13 -24 5 -7 -7 -14 -1
-22 20 -14 31 -47 50 -90 50 -16 0 -30 10 -43 31 l-19 31 -7 -32 c-6 -25 -2
-37 15 -56 19 -19 21 -26 10 -39 -21 -26 -39 -17 -50 25 -14 50 -26 51 -34 1
-11 -72 -56 -81 -74 -14 l-10 38 1 -48 c1 -86 -40 -88 -72 -4 -20 54 -23 53
-38 -18 -12 -57 -39 -55 -35 3 3 39 -9 72 -27 72 -4 0 -6 -13 -3 -28 5 -35
-18 -57 -53 -48 -55 14 -56 79 -2 90 l32 7 -26 14 c-15 8 -30 22 -33 32 -7 17
-8 17 -17 1 -12 -22 -48 -24 -55 -3 -8 20 -24 19 -24 0 0 -24 -25 -28 -59 -10
-36 18 -38 13 -12 -24 11 -15 23 -39 26 -54 7 -25 5 -27 -28 -27 -51 0 -65 8
-83 46 -12 25 -24 35 -50 40 -19 3 -38 13 -43 21 -7 13 -9 11 -14 -6 -4 -15 0
-24 11 -27 29 -9 46 -20 50 -32 5 -16 -29 -15 -51 2 -14 11 -26 11 -52 3 -48
-14 -95 6 -96 42 l0 26 -16 -22 c-8 -13 -22 -23 -30 -23 -7 0 -18 10 -24 23
-7 17 -8 13 -4 -20 4 -34 2 -43 -10 -43 -9 0 -20 11 -25 24 -13 35 -42 40 -97
17 -26 -10 -61 -22 -78 -26 -16 -4 -40 -16 -52 -27 -27 -26 -43 -16 -43 27 0
34 -14 54 -25 35 -11 -18 -43 -11 -50 11 -11 34 -15 15 -5 -21 5 -19 6 -38 2
-42 -5 -5 -61 -9 -126 -10 -133 -2 -150 6 -150 68 0 32 -1 34 -13 17 -10 -12
-12 -35 -8 -73 3 -30 2 -49 -1 -43 -3 7 -14 13 -24 13 -33 0 -70 50 -71 95 0
34 -2 37 -9 17 -12 -28 -46 -29 -62 -2 -19 30 -28 24 -28 -15 0 -44 -31 -62
-68 -39 -13 8 -46 18 -75 21 -29 3 -60 12 -69 21 -14 12 -20 12 -33 2 -11 -9
-35 -11 -79 -7 -68 6 -76 2 -76 -44 0 -23 -44 -36 -64 -19 -10 8 -13 23 -9 47
4 26 3 34 -5 29 -7 -4 -12 -14 -12 -22 0 -8 -11 -19 -25 -24 -36 -14 -33 -53
6 -81 21 -15 27 -25 20 -32 -7 -7 -15 -6 -24 2 -8 6 -22 8 -32 5 -13 -5 -16
-2 -15 17 1 13 2 45 1 70 -1 44 -3 47 -33 54 -68 16 -78 16 -78 2 0 -23 -96
-32 -126 -12 -13 8 -24 20 -24 25 0 5 -11 -2 -25 -15 -13 -14 -35 -25 -48 -25
-28 0 -53 -24 -68 -68 -8 -24 -17 -32 -35 -32 -21 0 -24 5 -24 34 0 52 -18 95
-38 89 -18 -5 -56 -57 -66 -91 -8 -23 -46 -37 -50 -19 -2 7 -9 31 -16 54 -7
23 -10 49 -7 57 5 12 0 16 -18 16 -13 0 -27 5 -30 10 -4 6 -12 4 -22 -5 -9 -9
-24 -13 -37 -10 -21 6 -21 6 -2 -9 11 -9 30 -16 43 -16 16 0 24 -7 29 -25 8
-32 8 -32 -46 -40 -38 -5 -51 -3 -82 19 -42 28 -52 22 -43 -27 9 -45 -13 -64
-58 -50 -32 9 -36 19 -23 60 7 21 5 21 -24 10 -30 -11 -33 -10 -55 18 -56 71
-65 78 -98 71 -39 -8 -62 -33 -46 -53 9 -10 7 -13 -9 -13 -11 0 -22 6 -25 13
-2 6 -10 -1 -17 -18 -21 -52 -27 -60 -43 -63 -13 -3 -15 5 -10 52 4 39 2 56
-6 56 -6 0 -11 -8 -11 -18 0 -25 -28 -62 -47 -62 -8 0 -28 11 -45 25 -27 23
-58 33 -58 19 0 -16 26 -52 54 -76 l31 -27 -37 6 c-33 5 -38 3 -38 -13 -1 -18
-1 -18 -15 0 -8 11 -15 31 -16 45 0 35 -34 117 -42 104 -4 -6 -16 -9 -27 -6
-10 3 -32 -4 -49 -16 -35 -25 -47 -26 -59 -5 -8 15 -11 15 -35 -1 -28 -18 -58
-10 -76 23 -9 16 -11 16 -23 0 -10 -14 -19 -16 -43 -9 -18 5 -29 14 -27 22 2
9 -3 7 -17 -5 -19 -17 -20 -17 -37 16 -14 26 -19 29 -22 15 -2 -10 4 -34 13
-53 21 -46 17 -56 -27 -61 -44 -4 -54 8 -38 48 26 62 -50 93 -108 44 -23 -19
-41 -25 -80 -25 -44 0 -55 4 -83 33 l-31 32 6 -28z m6804 -9 c22 -22 14 -57
-14 -64 -28 -7 -38 0 -49 34 -5 17 -1 24 17 31 31 13 32 13 46 -1z m2842 2 c0
-5 -4 -10 -10 -10 -5 0 -10 5 -10 10 0 6 5 10 10 10 6 0 10 -4 10 -10z m-8450
-36 c15 -39 12 -48 -19 -65 l-29 -17 -6 45 c-7 52 -2 63 25 63 12 0 23 -10 29
-26z m6474 0 c17 -44 0 -72 -32 -55 -14 7 -25 6 -40 -5 -14 -10 -23 -11 -27
-3 -4 5 -5 11 -4 13 2 1 16 10 32 19 15 10 27 24 27 32 0 20 36 19 44 -1z
m-14184 -22 c14 -5 19 -11 12 -15 -6 -4 -23 5 -39 19 -15 15 -21 22 -12 16 8
-6 26 -15 39 -20z m5560 13 c0 -8 -6 -15 -14 -15 -17 0 -28 14 -19 24 12 12
33 6 33 -9z m3150 -9 c0 -29 -19 -44 -31 -25 -16 25 -10 49 11 49 15 0 20 -7
20 -24z m5240 19 c0 -2 -13 -11 -29 -20 -19 -10 -31 -24 -34 -42 l-4 -28 -2
28 c-1 21 6 32 32 47 35 21 37 22 37 15z m-10710 -30 c0 -26 -14 -33 -25 -15
-9 14 1 40 15 40 5 0 10 -11 10 -25z m5011 -38 c-17 -17 -24 18 -9 45 l13 23
3 -29 c2 -16 -1 -33 -7 -39z m8323 11 c0 -26 -3 -50 -6 -54 -10 -9 -98 68 -98
86 0 12 12 15 53 15 l52 0 -1 -47z m-12106 25 c2 -8 -5 -13 -17 -13 -21 0 -35
13 -24 24 10 10 36 3 41 -11z m462 -23 c0 -27 -4 -40 -14 -40 -9 0 -14 13 -14
40 -1 28 3 40 14 40 10 0 14 -12 14 -40z m2320 21 c0 -17 -18 -31 -41 -31 -10
0 -12 33 -2 43 14 15 43 7 43 -12z m1828 2 c5 -17 -26 -29 -40 -15 -6 6 -7 15
-3 22 9 14 37 9 43 -7z m4382 -2 c5 -11 10 -35 10 -53 0 -19 5 -39 12 -46 9
-9 7 -12 -9 -12 -21 0 -33 18 -33 50 0 19 -19 30 -51 30 -30 0 -22 20 14 35
42 19 44 18 57 -4z m2557 -8 c-3 -17 3 -43 14 -65 19 -38 19 -38 -1 -38 -14 0
-20 7 -20 24 0 33 -25 53 -45 36 -13 -11 -14 -10 -9 6 12 33 -10 5 -23 -29
l-12 -32 2 44 c1 28 8 47 17 51 8 4 24 12 35 18 35 19 48 15 42 -15z m83 11
c0 -8 -5 -12 -10 -9 -6 4 -8 11 -5 16 9 14 15 11 15 -7z m-7488 -11 c24 -21
23 -40 -3 -48 -15 -5 -28 -1 -42 13 -38 38 4 72 45 35z m-7402 -17 c0 -16 -7
-25 -22 -29 -13 -2 -31 -8 -40 -12 -14 -5 -18 -2 -18 13 0 28 26 52 56 52 19
0 24 -5 24 -24z m638 18 c16 -5 22 -14 22 -35 0 -33 -2 -34 -31 -16 -17 10
-22 9 -33 -5 -19 -26 -26 -22 -26 15 0 48 13 55 68 41z m10760 -38 c-2 -13
-12 -22 -25 -24 -18 -3 -23 1 -23 20 0 13 5 29 12 36 16 16 40 -5 36 -32z
m-13268 18 c0 -8 -4 -12 -10 -9 -5 3 -10 10 -10 16 0 5 5 9 10 9 6 0 10 -7 10
-16z m6500 8 c0 -14 -58 -42 -73 -36 -20 7 -33 -16 -16 -27 11 -6 11 -11 1
-21 -9 -9 -15 -8 -27 8 -17 23 -19 50 -3 60 28 18 118 30 118 16z m2599 -23
c-12 -23 -32 -21 -37 3 -2 9 5 18 15 20 27 7 34 -1 22 -23z m4419 19 c17 -17
15 -47 -3 -55 -22 -8 -54 24 -48 48 6 21 33 25 51 7z m1082 2 c0 -5 -6 -10
-14 -10 -8 0 -18 5 -21 10 -3 6 3 10 14 10 12 0 21 -4 21 -10z m600 0 c0 -5
-4 -10 -9 -10 -5 0 -11 -10 -13 -22 -2 -12 -9 -23 -15 -26 -19 -6 -16 29 5 49
19 20 32 24 32 9z m354 -11 c20 -12 36 -25 36 -30 0 -5 -14 0 -30 13 -27 20
-31 20 -43 6 -6 -9 -29 -21 -51 -28 -35 -11 -40 -10 -59 9 l-21 21 30 0 c17 0
39 7 50 15 26 20 47 19 88 -6z m-14924 7 c0 -3 -4 -8 -10 -11 -5 -3 -10 -1
-10 4 0 6 5 11 10 11 6 0 10 -2 10 -4z m1054 -11 c6 -16 -21 -48 -37 -42 -18
6 -19 24 -2 41 20 20 31 20 39 1z m7956 0 c0 -8 -4 -15 -9 -15 -5 0 -14 7 -21
15 -10 13 -9 15 9 15 12 0 21 -6 21 -15z m5670 2 c0 -19 -10 -27 -26 -20 -21
8 -17 33 6 33 11 0 20 -6 20 -13z m-14623 -3 c-3 -3 -12 -4 -19 -1 -8 3 -5 6
6 6 11 1 17 -2 13 -5z m3021 -11 c5 -17 -26 -29 -40 -15 -6 6 -7 15 -3 22 9
14 37 9 43 -7z m7052 7 c0 -5 -4 -10 -10 -10 -5 0 -10 5 -10 10 0 6 5 10 10
10 6 0 10 -4 10 -10z m-11638 -15 c-3 -14 -55 -26 -65 -16 -5 5 -6 14 -2 21 8
14 71 9 67 -5z m6698 -5 c14 -26 -5 -35 -44 -20 -15 5 -38 10 -52 10 -23 0
-31 10 -17 23 3 4 28 7 54 7 38 0 51 -4 59 -20z m2003 8 c21 -11 21 -12 -13
-19 -39 -8 -65 6 -40 21 20 13 27 12 53 -2z m268 -6 c-7 -2 -18 1 -23 6 -8 8
-4 9 13 5 13 -4 18 -8 10 -11z m2219 8 c0 -5 -2 -10 -4 -10 -3 0 -8 5 -11 10
-3 6 -1 10 4 10 6 0 11 -4 11 -10z m2698 4 c27 -8 28 -25 3 -48 -18 -16 -21
-16 -50 -1 -34 17 -37 25 -19 43 13 13 31 15 66 6z m-14829 -30 c30 -38 28
-57 -3 -43 -15 7 -22 17 -19 25 3 8 0 21 -7 29 -8 9 -8 15 -2 15 6 0 20 -12
31 -26z m531 -26 c0 -14 -70 -21 -85 -8 -20 17 -19 30 3 30 9 0 26 7 37 15 17
14 20 13 32 -7 7 -13 12 -26 13 -30z m890 42 c0 -5 -4 -10 -10 -10 -5 0 -10 5
-10 10 0 6 5 10 10 10 6 0 10 -4 10 -10z m1148 3 c-10 -2 -28 -2 -40 0 -13 2
-5 4 17 4 22 1 32 -1 23 -4z m2376 -8 c3 -8 1 -15 -4 -15 -6 0 -10 7 -10 15 0
8 2 15 4 15 2 0 6 -7 10 -15z m1904 1 c36 1 42 -10 13 -26 -29 -15 -62 -12
-83 7 -26 23 -22 35 10 26 15 -4 42 -8 60 -7z m352 -2 c0 -2 -13 -4 -30 -4
-16 0 -30 4 -30 8 0 5 14 7 30 4 17 -2 30 -6 30 -8z m908 -4 c4 -13 3 -13 -11
-2 -12 10 -21 11 -36 3 -30 -16 -40 -12 -11 4 30 17 52 15 58 -5z m532 9 c10
-7 11 -12 3 -15 -6 -3 -21 -14 -34 -25 -28 -24 -55 -31 -101 -27 -29 2 -34 6
-29 22 7 17 8 17 24 2 19 -20 37 -13 37 13 0 32 69 52 100 30z m220 -56 c0
-18 -19 -16 -26 2 -4 8 -12 15 -20 15 -9 0 -14 11 -14 27 l0 27 30 -29 c17
-16 30 -35 30 -42z m685 53 c17 -12 14 -14 -34 -14 -48 0 -51 1 -29 13 31 17
41 18 63 1z m215 -16 c0 -22 -16 -35 -25 -20 -9 14 4 52 16 45 5 -4 9 -15 9
-25z m317 19 c8 -8 17 -8 33 1 19 10 21 9 18 -11 -4 -32 -29 -43 -74 -35 -31
6 -35 9 -21 17 9 6 17 17 17 24 0 18 12 19 27 4z m1143 -10 c0 -6 -4 -7 -10
-4 -5 3 -10 11 -10 16 0 6 5 7 10 4 6 -3 10 -11 10 -16z m516 7 c15 5 16 4 8
-5 -15 -16 -46 -11 -52 9 -4 12 -3 13 10 2 9 -7 24 -9 34 -6z m594 4 c0 -5 -7
-7 -15 -4 -8 4 -15 8 -15 10 0 2 7 4 15 4 8 0 15 -4 15 -10z m430 0 c12 -7 11
-10 -5 -16 -11 -5 -26 -14 -33 -21 -17 -17 -32 -17 -32 1 0 7 -10 16 -22 20
-19 5 -21 8 -8 16 19 12 80 13 100 0z m859 -41 c-8 -4 -34 -4 -57 1 -33 6 -42
4 -42 -6 0 -8 -4 -14 -9 -14 -4 0 -6 12 -3 26 3 18 8 22 15 15 18 -18 45 -13
57 10 l12 21 21 -24 c19 -20 20 -24 6 -29z m409 30 c34 -13 90 -11 95 4 3 9
17 6 52 -11 37 -18 45 -26 34 -33 -28 -17 -112 -9 -164 16 -27 14 -64 25 -82
25 -17 0 -35 5 -38 10 -7 11 63 4 103 -11z m459 -1 c-3 -8 -6 -5 -6 6 -1 11 2
17 5 13 3 -3 4 -12 1 -19z m119 7 c-36 -19 -47 -19 -22 0 11 8 27 15 35 15 9
0 3 -7 -13 -15z m3404 -5 c0 -4 -6 -10 -14 -13 -10 -4 -12 0 -9 14 5 18 23 18
23 -1z m375 -11 c7 -33 3 -45 -14 -34 -13 8 -15 65 -2 65 5 0 12 -14 16 -31z
m525 27 c0 -3 -4 -16 -10 -30 -14 -37 -32 -33 -19 4 6 17 15 30 20 30 5 0 9
-2 9 -4z m-18639 -28 c11 -21 11 -22 -4 -9 -10 7 -17 17 -17 22 0 15 9 10 21
-13z m1870 -8 c10 -1 10 -3 -3 -10 -23 -14 -48 -2 -48 23 0 19 1 19 18 4 10
-10 25 -17 33 -17z m1689 20 c0 -5 -2 -10 -4 -10 -2 0 -12 -3 -20 -6 -12 -5
-15 -2 -10 10 7 17 34 22 34 6z m222 -11 c-5 -11 -11 -20 -15 -20 -4 1 -11 1
-17 1 -5 0 -2 9 7 20 23 26 34 26 25 -1z m176 9 c-3 -7 -15 -14 -29 -16 -23
-2 -23 -2 -5 13 24 18 39 20 34 3z m177 2 c3 -5 1 -10 -4 -10 -6 0 -11 5 -11
10 0 6 2 10 4 10 3 0 8 -4 11 -10z m385 -42 c0 -5 -7 -8 -15 -8 -10 0 -15 10
-15 33 l1 32 14 -25 c8 -14 14 -28 15 -32z m506 37 c9 -8 29 -15 45 -15 17 0
40 -5 51 -11 18 -9 24 -8 37 10 12 16 19 19 28 10 13 -13 113 -3 113 12 0 12
27 11 35 -1 3 -5 -5 -21 -19 -35 -22 -22 -33 -25 -98 -25 -48 1 -80 6 -92 15
-23 17 -72 20 -81 5 -9 -15 -52 -12 -85 5 -40 21 -38 33 8 38 20 2 38 4 40 5
2 1 10 -5 18 -13z m853 -16 c-17 -11 -39 -12 -39 -1 0 11 44 28 49 18 2 -4 -3
-12 -10 -17z m516 22 c-15 -13 -65 -23 -65 -12 0 5 10 12 23 14 40 8 51 7 42
-2z m5403 3 c33 -9 27 -19 -13 -21 -25 -1 -35 3 -35 13 0 15 12 17 48 8z m172
-24 c0 -31 -6 -36 -28 -21 -12 7 -12 12 -1 30 19 29 29 26 29 -9z m130 9 c0
-5 -4 -9 -10 -9 -5 0 -10 7 -10 16 0 8 5 12 10 9 6 -3 10 -10 10 -16z m964
-13 c-7 -28 -40 -36 -62 -14 -19 19 -14 28 17 28 17 0 33 5 36 11 11 17 16 3
9 -25z m115 -13 c8 -8 5 -14 -10 -18 -29 -9 -42 7 -33 40 7 27 8 27 20 9 7
-10 18 -24 23 -31z m2801 37 c0 -5 -2 -10 -4 -10 -3 0 -8 5 -11 10 -3 6 -1 10
4 10 6 0 11 -4 11 -10z m550 4 c0 -2 -7 -10 -16 -18 -18 -19 -65 -21 -82 -4
-20 20 -14 23 43 24 30 0 55 -1 55 -2z m2350 -20 c0 -24 -3 -26 -30 -21 -16 4
-32 2 -35 -3 -10 -17 -27 -11 -23 8 2 9 10 17 18 17 8 1 24 6 35 13 29 17 35
15 35 -14z m-12625 6 c-3 -5 -16 -10 -28 -10 -18 0 -19 2 -7 10 20 13 43 13
35 0z m1910 -10 c26 -28 17 -29 -35 -3 -43 23 -44 23 -14 23 18 0 38 -8 49
-20z m1366 -28 c-7 -2 -19 -1 -27 2 -12 5 -14 10 -5 20 6 7 10 15 8 17 -1 3 6
-4 16 -15 12 -13 15 -22 8 -24z m634 26 c-3 -9 -16 -19 -28 -24 -30 -13 -143
-2 -159 15 -11 11 2 12 79 6 81 -6 94 -5 99 9 4 9 8 15 10 13 3 -2 2 -11 -1
-19z m4253 5 c-2 -11 -12 -18 -27 -18 -29 0 -40 21 -14 28 35 9 44 7 41 -10z
m2272 2 c7 -9 10 -18 7 -21 -9 -9 -48 16 -42 27 9 13 21 11 35 -6z m-14530
-10 c-7 -9 -15 -13 -17 -11 -7 7 7 26 19 26 6 0 6 -6 -2 -15z m391 -2 c13 -16
12 -17 -3 -4 -17 13 -22 21 -14 21 2 0 10 -8 17 -17z m12855 7 c14 0 22 -4 19
-10 -9 -15 -39 -12 -61 6 -17 14 -17 15 -1 10 10 -3 30 -6 43 -6z m2288 1 c11
-17 -41 -30 -81 -19 -65 17 -62 28 9 28 37 0 69 -4 72 -9z m-17810 -15 c-21
-15 -30 -14 -19 3 3 6 14 11 23 11 13 0 13 -2 -4 -14z m830 1 c29 -16 24 -27
-11 -27 -23 0 -83 25 -83 35 0 11 69 4 94 -8z m6601 2 c10 -16 -1 -22 -26 -14
-17 6 -19 9 -8 16 19 12 26 11 34 -2z m8450 -9 c-14 -15 -21 -17 -32 -9 -22
19 -15 29 19 29 30 0 31 0 13 -20z m415 -1 c0 -5 -9 -9 -20 -9 -11 0 -20 6
-20 14 0 9 7 12 20 9 11 -3 20 -9 20 -14z m-16380 -9 c-24 -15 -37 -11 -16 5
11 8 22 12 25 9 3 -3 -1 -9 -9 -14z m14705 10 c3 -5 2 -10 -4 -10 -5 0 -13 5
-16 10 -3 6 -2 10 4 10 5 0 13 -4 16 -10z m4002 -6 c-3 -3 -12 -4 -19 -1 -8 3
-5 6 6 6 11 1 17 -2 13 -5z m-13404 -11 c-7 -2 -19 -2 -25 0 -7 3 -2 5 12 5
14 0 19 -2 13 -5z"/>
<path d="M1375 360 c3 -5 16 -10 28 -9 21 0 21 1 2 9 -28 12 -37 12 -30 0z"/>
<path d="M2328 363 c6 -2 18 -2 25 0 6 3 1 5 -13 5 -14 0 -19 -2 -12 -5z"/>
<path d="M2507 351 c-3 -14 -15 -21 -43 -23 l-39 -3 28 -15 c31 -15 51 -8 71
23 7 12 7 20 0 27 -8 8 -13 6 -17 -9z"/>
<path d="M6245 360 c-4 -6 -16 -8 -28 -4 -19 6 -20 5 -8 -10 17 -20 40 -21 48
-1 7 19 -2 31 -12 15z"/>
<path d="M6366 355 c3 -7 16 -15 30 -18 32 -6 30 -2 -5 16 -22 11 -28 12 -25
2z"/>
<path d="M17126 343 c-14 -19 -24 -23 -43 -18 -28 7 -28 -11 0 -29 13 -9 22
-5 43 15 14 15 24 33 22 42 -2 12 -7 9 -22 -10z"/>
<path d="M1557 349 c7 -7 15 -10 18 -7 3 3 -2 9 -12 12 -14 6 -15 5 -6 -5z"/>
<path d="M1920 345 c-14 -8 -20 -14 -14 -15 5 0 19 7 30 15 24 18 16 19 -16 0z"/>
<path d="M12482 344 c-16 -17 -54 -18 -71 -1 -10 10 -11 9 -6 -5 10 -25 65
-42 83 -24 8 7 12 20 10 29 -2 13 -5 13 -16 1z"/>
<path d="M12779 341 c12 -22 24 -25 56 -11 20 9 17 11 -21 15 -12 1 -27 6 -34
10 -9 6 -9 3 -1 -14z"/>
<path d="M15263 351 c-24 -4 -45 -10 -48 -13 -10 -9 89 4 100 13 10 10 11 10
-52 0z"/>
<path d="M14280 327 c0 -22 11 -47 20 -47 12 0 40 29 40 42 0 5 -7 7 -16 4 -9
-4 -23 -1 -30 5 -11 9 -14 8 -14 -4z"/>
<path d="M14828 333 c7 -3 16 -2 19 1 4 3 -2 6 -13 5 -11 0 -14 -3 -6 -6z"/>
<path d="M638 323 c6 -2 18 -2 25 0 6 3 1 5 -13 5 -14 0 -19 -2 -12 -5z"/>
<path d="M15235 267 c-4 -10 -5 -21 -1 -24 10 -10 18 4 13 24 -4 17 -4 17 -12
0z"/>
</g>
</svg>
