<?xml version="1.0" standalone="no"?>
<!DOCTYPE svg PUBLIC "-//W3C//DTD SVG 20010904//EN"
 "http://www.w3.org/TR/2001/REC-SVG-20010904/DTD/svg10.dtd">
<svg version="1.0" xmlns="http://www.w3.org/2000/svg"
 width="225.000000pt" height="225.000000pt" viewBox="0 0 225.000000 225.000000"
 preserveAspectRatio="xMidYMid meet">

<g transform="translate(0.000000,225.000000) scale(0.100000,-0.100000)"
fill="#000000" stroke="none">
<path d="M128 1959 c-17 -9 -18 -53 -18 -684 l0 -675 -39 0 c-59 0 -71 -18
-71 -106 0 -116 -3 -114 150 -114 l130 0 0 -40 c0 -29 5 -42 19 -50 27 -14
585 -14 612 0 14 8 19 21 19 50 l0 40 650 0 c748 0 670 -13 670 114 0 88 -12
106 -71 106 l-39 0 0 675 c0 656 -1 675 -19 685 -27 14 -1969 13 -1993 -1z
m1922 -719 l0 -640 -560 0 -560 0 0 115 c0 63 3 115 6 115 3 0 47 -36 97 -80
93 -81 111 -90 139 -67 12 10 157 164 350 374 41 44 48 58 48 93 0 23 -5 50
-10 61 -10 17 7 39 130 171 148 158 157 176 112 206 -22 14 -25 12 -105 -69
-45 -46 -113 -117 -150 -156 -58 -61 -72 -71 -87 -63 -43 23 -111 3 -148 -45
-11 -14 -57 -64 -101 -111 l-81 -86 -83 78 c-45 42 -96 83 -114 91 -24 10 -95
13 -280 13 -280 0 -313 -7 -353 -72 -19 -31 -20 -50 -20 -300 l0 -268 -40 0
-40 0 0 640 0 640 925 0 925 0 0 -640z m-598 -47 c33 -32 35 -44 9 -67 -19
-17 -21 -17 -55 9 -40 31 -43 40 -19 67 22 24 32 23 65 -9z m-442 -145 c63
-60 111 -98 124 -98 14 0 46 27 89 75 38 41 74 75 81 75 6 0 26 -15 44 -33
l31 -32 -116 -125 c-65 -69 -120 -126 -123 -127 -3 -2 -56 42 -118 97 -112 99
-143 115 -170 88 -9 -9 -12 -90 -12 -305 l0 -293 -235 0 -235 0 0 374 0 375
23 16 c19 14 56 15 268 13 l246 -3 103 -97z m-730 -558 c0 -19 -7 -20 -95 -20
-88 0 -95 1 -95 20 0 19 7 20 95 20 88 0 95 -1 95 -20z m1880 0 c0 -20 -7 -20
-615 -20 -608 0 -615 0 -615 20 0 20 7 20 615 20 608 0 615 0 615 -20z"/>
<path d="M538 1695 c-93 -30 -152 -114 -152 -215 0 -133 94 -230 224 -230 246
0 316 324 94 438 -37 19 -116 22 -166 7z m148 -100 c59 -38 79 -115 48 -181
-52 -108 -216 -93 -255 24 -39 119 101 227 207 157z"/>
</g>
</svg>
