<?xml version="1.0" standalone="no"?>
<!DOCTYPE svg PUBLIC "-//W3C//DTD SVG 20010904//EN"
 "http://www.w3.org/TR/2001/REC-SVG-20010904/DTD/svg10.dtd">
<svg version="1.0" xmlns="http://www.w3.org/2000/svg"
 width="427.000000pt" height="369.000000pt" viewBox="0 0 427.000000 369.000000"
 preserveAspectRatio="xMidYMid meet">

<g transform="translate(0.000000,369.000000) scale(0.100000,-0.100000)"
fill="#000000" stroke="none">
<path d="M150 2130 l0 -1400 1495 0 1495 0 0 34 c0 41 -7 47 -90 77 l-65 24
-1225 5 -1224 5 -13 65 c-25 122 -109 212 -211 225 -26 3 -54 10 -62 14 -13 7
-15 123 -18 932 -1 508 0 934 3 945 4 17 15 23 56 28 67 9 117 35 162 85 43
48 64 94 73 162 5 39 11 50 28 54 11 3 613 4 1336 3 l1315 -3 6 -25 c4 -14 12
-47 18 -75 23 -103 101 -176 211 -199 l65 -13 3 -676 2 -677 34 0 c19 0 38 -5
41 -10 3 -5 10 -10 16 -10 5 0 9 350 9 915 l0 915 -1730 0 -1730 0 0 -1400z"/>
<path d="M585 3283 c-22 -120 -134 -237 -248 -258 l-37 -7 2 -891 3 -890 45
-11 c61 -16 111 -48 159 -103 39 -44 81 -134 81 -173 0 -20 14 -20 1175 -20
l1174 0 20 42 c11 24 35 62 52 85 l32 43 -46 68 c-35 49 -47 77 -47 103 0 46
20 64 112 98 l73 27 6 84 c6 94 12 116 40 130 26 15 56 12 127 -10 35 -11 68
-20 73 -20 5 0 22 19 39 42 l30 41 -2 675 -3 675 -49 14 c-122 36 -211 134
-240 266 l-6 27 -1279 0 -1279 0 -7 -37z m1420 -88 c117 -25 208 -76 301 -170
62 -62 91 -100 118 -158 88 -182 86 -361 -5 -546 -101 -204 -308 -333 -539
-334 -108 -1 -174 15 -280 66 -244 119 -382 402 -325 670 25 118 77 211 169
302 158 156 350 214 561 170z m295 -1450 l0 -35 -440 0 -440 0 0 35 0 35 440
0 440 0 0 -35z m390 -235 l0 -30 -830 0 -830 0 0 30 0 30 830 0 830 0 0 -30z
m20 -235 l0 -35 -835 0 -835 0 0 28 c0 16 3 32 7 35 3 4 379 7 835 7 l828 0 0
-35z"/>
<path d="M1731 3135 c-142 -40 -279 -148 -345 -274 -101 -193 -88 -408 36
-589 28 -41 30 -42 56 -28 15 7 70 23 122 36 52 12 101 26 108 32 18 16 15 63
-7 82 -10 9 -27 36 -37 59 -10 23 -21 44 -25 47 -26 21 -50 152 -33 183 5 9 7
47 4 84 -10 108 -7 114 102 202 54 45 105 56 188 42 111 -19 170 -57 206 -135
20 -44 23 -67 22 -161 0 -129 -12 -192 -39 -218 -10 -10 -19 -23 -19 -30 0 -7
-14 -29 -31 -50 -24 -29 -30 -44 -27 -74 l3 -38 109 -21 c61 -12 123 -30 140
-40 29 -17 29 -17 53 12 71 89 113 216 113 341 0 234 -143 438 -365 523 -78
30 -253 38 -334 15z"/>
<path d="M1778 2950 c-9 -6 -31 -23 -48 -39 -18 -16 -41 -36 -51 -45 -12 -10
-19 -29 -19 -51 0 -41 12 -45 37 -10 10 14 25 36 34 48 l17 21 58 -18 c33 -11
92 -20 132 -22 72 -2 102 -14 102 -39 0 -7 7 -28 15 -46 l14 -34 1 61 c0 74
-25 117 -88 152 -48 27 -175 40 -204 22z"/>
<path d="M1739 2771 c-17 -20 -38 -52 -46 -71 -8 -19 -21 -42 -29 -51 -11 -12
-11 -23 -3 -55 6 -21 17 -46 24 -54 7 -8 18 -31 24 -51 13 -41 43 -73 84 -88
40 -16 113 -14 146 4 34 17 77 66 86 97 4 13 14 31 22 40 8 9 19 33 23 54 8
33 6 39 -21 61 -16 14 -37 47 -46 74 l-18 49 -61 0 c-33 0 -81 6 -107 14 l-45
14 -33 -37z"/>
<path d="M1920 2338 c-14 -5 -53 -7 -87 -4 -59 6 -63 5 -63 -14 0 -41 -41 -65
-158 -95 -69 -17 -111 -32 -109 -39 7 -22 127 -93 194 -115 179 -60 385 -23
527 92 28 23 29 25 10 35 -10 5 -57 17 -104 27 -148 29 -161 36 -179 101 -5
18 -10 20 -31 12z"/>
<path d="M3489 1601 c-24 -32 -53 -65 -63 -71 -26 -16 -81 -15 -135 4 -77 28
-78 27 -83 -69 -5 -103 -21 -124 -112 -155 -97 -32 -96 -29 -43 -107 62 -90
62 -117 2 -203 -52 -74 -51 -78 35 -105 30 -10 65 -25 77 -33 28 -18 43 -69
43 -149 0 -39 4 -63 11 -63 6 0 42 10 81 21 94 29 118 21 178 -56 26 -33 53
-61 61 -63 9 -1 34 23 58 56 41 57 74 82 108 82 9 0 48 -10 85 -22 84 -27 88
-24 88 80 0 67 3 76 28 101 15 15 57 38 95 50 37 13 67 27 67 32 0 6 -20 39
-45 76 -26 38 -45 77 -45 92 0 16 20 59 46 100 26 40 43 76 38 80 -5 5 -39 18
-75 30 -93 30 -103 44 -109 149 l-5 87 -30 -1 c-16 -1 -55 -8 -85 -16 -30 -8
-66 -12 -80 -8 -14 3 -48 35 -77 70 -28 36 -56 66 -61 68 -5 1 -29 -24 -53
-57z m324 -262 c8 -13 -21 -62 -144 -239 -84 -122 -162 -226 -172 -231 -10 -6
-27 -7 -37 -4 -26 8 -222 223 -218 237 2 6 12 16 21 22 14 9 33 -6 115 -87
l99 -98 108 158 c60 87 126 182 148 211 39 54 60 62 80 31z"/>
<path d="M3305 604 c-22 -8 -55 -17 -74 -18 -34 -3 -35 -5 -72 -107 -20 -57
-56 -155 -78 -217 l-41 -114 84 46 c48 26 91 43 100 40 8 -3 30 -44 47 -90 18
-47 35 -81 39 -77 9 10 160 426 160 441 0 6 -18 33 -40 61 -44 56 -58 60 -125
35z"/>
<path d="M3661 579 l-30 -40 23 -62 c13 -34 39 -104 57 -154 18 -51 36 -93 39
-93 3 0 23 31 43 69 21 38 43 71 50 74 7 2 47 -9 90 -24 42 -16 77 -24 77 -19
0 7 -90 259 -96 268 -1 1 -13 -2 -27 -9 -21 -9 -38 -8 -95 10 -39 11 -77 21
-86 21 -9 0 -29 -18 -45 -41z"/>
</g>
</svg>
