<?xml version="1.0" standalone="no"?>
<!DOCTYPE svg PUBLIC "-//W3C//DTD SVG 20010904//EN"
 "http://www.w3.org/TR/2001/REC-SVG-20010904/DTD/svg10.dtd">
<svg version="1.0" xmlns="http://www.w3.org/2000/svg"
 width="820.000000pt" height="667.000000pt" viewBox="0 0 820.000000 667.000000"
 preserveAspectRatio="xMidYMid meet">

<g transform="translate(0.000000,667.000000) scale(0.100000,-0.100000)"
fill="#000000" stroke="none">
<path d="M3922 5545 c-59 -26 -90 -54 -169 -153 -73 -90 -256 -307 -451 -531
-46 -53 -104 -121 -130 -151 -207 -241 -1219 -1391 -1236 -1405 -7 -5 -29 -32
-49 -58 -116 -153 -176 -423 -164 -736 10 -258 68 -414 206 -551 118 -117 46
-90 1276 -475 736 -230 792 -247 1005 -315 176 -56 201 -61 254 -56 71 7 149
44 202 95 33 31 305 357 538 645 28 34 300 367 606 741 306 374 566 694 579
711 l23 31 -2 348 c-1 383 -2 388 -63 425 -44 27 -153 27 -206 0 -74 -37 -91
-124 -91 -464 l0 -208 -104 -122 c-157 -182 -444 -518 -806 -941 -178 -209
-390 -456 -470 -549 -80 -94 -168 -199 -195 -235 -61 -78 -102 -106 -136 -92
-22 9 -222 70 -1064 325 -438 132 -681 203 -792 230 -223 55 -347 154 -405
325 -18 52 -22 88 -22 176 -1 180 42 277 145 329 85 42 145 37 405 -35 732
-202 1381 -401 1492 -458 93 -48 209 -56 290 -21 41 18 67 41 129 114 99 117
269 317 448 526 873 1022 1037 1210 1408 1613 60 66 107 158 107 209 0 50 -23
105 -62 145 -35 36 -55 45 -148 67 -922 216 -2246 516 -2276 516 -21 -1 -54
-7 -72 -15z m203 -775 c61 -16 360 -92 665 -170 305 -78 565 -148 578 -156 35
-23 45 -58 27 -100 -17 -42 -158 -203 -194 -223 -47 -26 -166 -7 -496 79 -170
44 -472 122 -669 172 -388 99 -410 108 -408 165 1 47 25 85 98 158 75 74 107
94 173 104 59 10 91 5 226 -29z"/>
</g>
</svg>
