<?xml version="1.0" standalone="no"?>
<!DOCTYPE svg PUBLIC "-//W3C//DTD SVG 20010904//EN"
 "http://www.w3.org/TR/2001/REC-SVG-20010904/DTD/svg10.dtd">
<svg version="1.0" xmlns="http://www.w3.org/2000/svg"
 width="200.000000pt" height="200.000000pt" viewBox="0 0 200.000000 200.000000"
 preserveAspectRatio="xMidYMid meet">

<g transform="translate(0.000000,200.000000) scale(0.100000,-0.100000)"
fill="#000000" stroke="none">
<path d="M692 1944 c-35 -24 -52 -68 -52 -132 l0 -60 -75 -4 c-66 -3 -78 -7
-102 -31 -24 -24 -28 -36 -31 -102 l-4 -75 -58 0 c-68 0 -100 -10 -129 -41
-21 -23 -21 -26 -21 -701 0 -737 -1 -721 55 -746 19 -9 156 -12 511 -12 532 0
528 0 559 60 8 16 15 55 15 88 l0 60 75 4 c66 3 78 7 102 31 24 24 28 36 31
102 l4 75 62 0 c70 0 121 24 136 66 6 15 10 234 10 552 l0 526 -177 178 -177
178 -356 0 c-306 0 -359 -2 -378 -16z m678 -183 c0 -138 7 -163 52 -191 28
-17 51 -20 156 -20 l122 0 -2 -497 -3 -498 -485 0 -485 0 -3 650 c-1 358 0
656 3 663 3 9 78 12 325 12 l320 0 0 -119z m193 -139 c-54 -2 -90 1 -99 9 -10
8 -14 37 -14 105 l0 94 99 -102 99 -103 -85 -3z m-923 -518 l0 -566 34 -34 34
-34 391 0 391 0 0 -60 c0 -48 -4 -61 -19 -70 -30 -16 -922 -14 -944 3 -16 11
-17 64 -17 660 0 356 2 652 5 657 4 6 33 10 66 10 l59 0 0 -566z m-210 -220
l0 -566 34 -34 34 -34 391 0 391 0 0 -52 c0 -29 -4 -59 -8 -66 -7 -10 -112
-12 -493 -10 l-484 3 -3 650 c-1 358 0 656 3 663 3 8 27 12 70 12 l65 0 0
-566z"/>
<path d="M887 1677 c-42 -128 -42 -127 -24 -127 8 0 19 18 26 40 11 38 14 40
52 40 38 0 42 -3 56 -40 9 -22 22 -40 30 -40 19 0 16 13 -26 130 -53 146 -65
146 -114 -3z m60 -25 c-37 -4 -42 1 -29 35 5 15 13 37 17 48 6 16 10 11 25
-30 l17 -50 -30 -3z"/>
<path d="M1150 1700 l0 -40 -40 0 c-29 0 -40 -4 -40 -15 0 -11 11 -15 40 -15
l40 0 0 -40 c0 -22 5 -40 10 -40 6 0 10 18 10 40 l0 40 40 0 c29 0 40 4 40 15
0 11 -11 15 -40 15 l-40 0 0 40 c0 22 -4 40 -10 40 -5 0 -10 -18 -10 -40z"/>
<path d="M803 1473 c-20 -8 -15 -51 6 -63 13 -6 160 -10 409 -10 420 0 418 0
410 52 l-3 23 -405 2 c-223 1 -411 -1 -417 -4z"/>
<path d="M808 1239 c-21 -12 -23 -42 -4 -58 9 -8 127 -10 417 -9 l404 3 3 23
c8 52 10 52 -412 52 -247 0 -397 -4 -408 -11z"/>
<path d="M797 1003 c-14 -13 -6 -53 12 -63 13 -6 158 -10 403 -10 414 0 423 1
416 51 l-3 24 -411 3 c-226 1 -413 -1 -417 -5z"/>
<path d="M802 768 c-16 -16 -15 -43 2 -57 9 -8 127 -10 417 -9 l404 3 3 29 c2
16 -2 32 -10 37 -22 14 -802 11 -816 -3z"/>
</g>
</svg>
