<?xml version="1.0" standalone="no"?>
<!DOCTYPE svg PUBLIC "-//W3C//DTD SVG 20010904//EN"
 "http://www.w3.org/TR/2001/REC-SVG-20010904/DTD/svg10.dtd">
<svg version="1.0" xmlns="http://www.w3.org/2000/svg"
 width="820.000000pt" height="608.000000pt" viewBox="0 0 820.000000 608.000000"
 preserveAspectRatio="xMidYMid meet">

<g transform="translate(0.000000,608.000000) scale(0.100000,-0.100000)"
fill="#000000" stroke="none">
<path d="M2425 5664 c-69 -11 -194 -46 -243 -69 -29 -14 -54 -25 -57 -25 -12
0 -119 -72 -172 -116 -149 -124 -245 -276 -299 -470 -23 -85 -27 -118 -27
-229 0 -249 79 -446 254 -629 277 -293 709 -365 1066 -179 l73 38 11 55 c45
223 150 414 322 583 l99 98 -7 92 c-35 472 -412 836 -880 852 -60 2 -123 1
-140 -1z"/>
<path d="M5560 5664 c-263 -47 -445 -148 -598 -333 -111 -134 -192 -329 -205
-496 l-5 -61 56 -39 c119 -83 266 -245 327 -359 12 -23 27 -51 33 -61 37 -66
77 -194 109 -350 l8 -40 95 -32 c140 -47 277 -60 408 -39 168 26 289 76 418
171 179 133 287 298 350 535 26 98 23 299 -5 410 -35 139 -106 274 -203 387
-72 84 -216 194 -293 223 -16 6 -43 18 -60 25 -92 43 -339 76 -435 59z"/>
<path d="M3965 4701 c-400 -89 -685 -405 -725 -804 -36 -364 146 -710 470
-889 36 -19 76 -39 90 -43 14 -4 39 -13 55 -20 104 -46 335 -61 475 -30 181
39 349 133 476 267 124 130 198 273 235 456 85 418 -150 848 -554 1014 -159
66 -361 85 -522 49z"/>
<path d="M1999 3759 c-334 -35 -665 -251 -852 -555 -75 -121 -157 -351 -157
-440 0 -13 -4 -24 -10 -24 -7 0 -10 -191 -10 -554 l0 -554 28 -5 c15 -3 124
-32 242 -64 250 -70 448 -112 680 -147 136 -20 380 -47 426 -46 8 0 13 73 17
243 4 170 10 264 22 317 20 92 80 271 108 325 142 269 313 456 549 598 43 26
80 47 82 47 3 0 39 16 81 35 43 20 90 39 106 42 16 3 29 10 29 15 0 5 -19 30
-43 56 -71 77 -102 122 -157 225 -74 138 -130 330 -130 443 0 29 -5 44 -16 48
-23 9 -906 5 -995 -5z"/>
<path d="M5287 3763 c-4 -3 -7 -28 -7 -55 0 -68 -36 -227 -72 -316 -57 -144
-123 -250 -220 -356 -21 -22 -38 -43 -38 -46 0 -3 27 -14 60 -24 95 -31 263
-119 355 -188 103 -77 255 -233 332 -344 45 -65 134 -245 162 -330 56 -169 63
-221 68 -484 3 -135 8 -248 12 -253 4 -4 63 -3 132 3 459 38 801 119 1112 263
l47 22 0 542 c0 355 -3 543 -10 543 -5 0 -10 12 -10 26 0 70 -56 247 -117 369
-166 332 -532 586 -904 625 -104 11 -892 14 -902 3z"/>
<path d="M3575 2808 c-22 -5 -69 -16 -105 -24 -197 -46 -381 -152 -535 -310
-109 -111 -124 -130 -177 -219 -54 -91 -83 -152 -111 -238 -56 -167 -60 -208
-64 -782 -2 -291 0 -535 4 -540 10 -13 330 -105 508 -146 695 -161 1372 -179
1975 -55 229 48 456 122 608 198 l23 12 -3 575 -3 576 -27 90 c-77 256 -187
430 -378 596 -161 138 -319 214 -539 258 -97 20 -136 21 -620 20 -286 -1 -534
-5 -556 -11z"/>
</g>
</svg>
