<?xml version="1.0" standalone="no"?>
<!DOCTYPE svg PUBLIC "-//W3C//DTD SVG 20010904//EN"
 "http://www.w3.org/TR/2001/REC-SVG-20010904/DTD/svg10.dtd">
<svg version="1.0" xmlns="http://www.w3.org/2000/svg"
 width="840.000000pt" height="572.000000pt" viewBox="0 0 840.000000 572.000000"
 preserveAspectRatio="xMidYMid meet">

<g transform="translate(0.000000,572.000000) scale(0.100000,-0.100000)"
fill="#000000" stroke="none">
<path d="M1983 5405 c-121 -33 -220 -105 -280 -206 -67 -113 -63 52 -63 -2339
0 -2341 -3 -2217 51 -2322 53 -105 184 -203 302 -228 36 -7 543 -10 1682 -8
l1630 3 78 37 c149 72 238 195 257 358 12 100 14 1830 2 1830 -4 0 -56 -48
-115 -108 l-107 -107 0 -810 c0 -765 -1 -812 -19 -851 -26 -58 -92 -111 -155
-124 -36 -8 -510 -10 -1636 -8 -1525 3 -1586 4 -1620 22 -49 26 -79 55 -103
101 l-22 40 -3 2130 c-2 1172 0 2154 3 2182 9 73 55 140 120 172 l49 26 1026
0 1025 0 5 -555 c6 -618 1 -581 78 -698 43 -67 99 -113 187 -154 63 -29 80
-32 185 -36 l115 -4 110 111 110 111 -184 0 c-117 0 -199 5 -225 12 -56 17
-131 91 -145 144 -8 28 -10 179 -9 460 l3 418 385 -411 385 -411 79 78 79 78
-503 541 -503 541 -1101 -1 c-909 0 -1110 -3 -1153 -14z"/>
<path d="M6041 4734 c-30 -8 -75 -26 -101 -40 -31 -17 -331 -310 -938 -917
l-891 -892 -142 -375 c-78 -206 -183 -485 -234 -620 -51 -135 -91 -246 -90
-248 2 -2 234 83 516 188 283 105 565 210 626 233 l113 42 889 890 c977 978
937 933 963 1083 15 89 0 183 -42 269 -38 76 -212 263 -302 323 -111 74 -244
97 -367 64z m204 -223 c23 -11 88 -68 156 -138 106 -108 117 -123 128 -170 21
-101 -4 -154 -128 -278 l-91 -90 -235 235 -236 235 103 101 c66 64 116 104
138 111 54 17 121 14 165 -6z m-680 -1421 l-590 -590 -235 235 -235 235 590
590 590 590 235 -235 235 -235 -590 -590z m-977 -513 l233 -233 -25 -23 c-14
-14 -171 -77 -397 -162 -205 -76 -374 -139 -375 -139 -1 0 61 168 139 373 122
326 163 417 186 417 4 0 111 -105 239 -233z"/>
<path d="M2420 3640 l0 -110 555 0 555 0 0 110 0 110 -555 0 -555 0 0 -110z"/>
<path d="M2420 2970 l0 -110 555 0 555 0 0 110 0 110 -555 0 -555 0 0 -110z"/>
<path d="M2420 2300 l0 -110 632 2 631 3 34 90 c18 50 36 98 39 108 5 16 -31
17 -665 17 l-671 0 0 -110z"/>
<path d="M2420 1635 l0 -115 504 0 504 0 41 110 c22 61 41 113 41 115 0 3
-245 5 -545 5 l-545 0 0 -115z"/>
<path d="M4098 1642 c-158 -59 -290 -111 -294 -115 -4 -4 233 -6 527 -5 l534
3 0 110 0 110 -240 2 -240 2 -287 -107z"/>
</g>
</svg>
