<?xml version="1.0" standalone="no"?>
<!DOCTYPE svg PUBLIC "-//W3C//DTD SVG 20010904//EN"
 "http://www.w3.org/TR/2001/REC-SVG-20010904/DTD/svg10.dtd">
<svg version="1.0" xmlns="http://www.w3.org/2000/svg"
 width="640.000000pt" height="640.000000pt" viewBox="0 0 640.000000 640.000000"
 preserveAspectRatio="xMidYMid meet">

<g transform="translate(0.000000,640.000000) scale(0.100000,-0.100000)"
fill="#000000" stroke="none">
<path d="M1276 6385 c-74 -39 -1230 -1201 -1264 -1271 -30 -65 -12 -89 356
-465 l241 -247 -60 -37 c-113 -70 -191 -208 -191 -340 -1 -180 117 -338 290
-390 l59 -18 6 -81 c13 -191 110 -318 286 -377 l61 -21 0 -41 c0 -63 25 -169
53 -224 45 -87 136 -159 253 -197 l51 -17 5 -89 c4 -71 11 -101 36 -154 72
-153 221 -237 401 -223 48 4 145 26 265 62 139 40 192 52 197 43 17 -27 23
-147 19 -363 -3 -126 -5 -315 -5 -420 0 -188 0 -191 28 -247 81 -166 253 -257
431 -228 36 6 71 12 78 15 18 7 28 -2 70 -65 42 -62 109 -118 183 -151 39 -18
69 -23 140 -23 50 -1 111 3 136 7 l47 9 38 -57 c45 -69 129 -137 204 -167 43
-17 75 -22 145 -21 50 0 102 5 117 11 36 15 50 9 72 -32 10 -19 37 -53 60 -76
120 -123 280 -160 442 -104 l75 25 180 -175 c183 -178 256 -236 293 -236 12 0
35 8 51 19 83 51 1223 1196 1260 1265 36 66 20 86 -372 486 -245 250 -261 268
-267 310 -30 191 -85 400 -150 570 -51 131 -114 257 -147 295 -53 60 -131 57
-184 -7 -31 -37 -32 -76 -1 -148 13 -30 40 -93 60 -139 39 -90 119 -308 130
-355 9 -39 1 -35 -169 79 -279 185 -428 237 -540 186 -47 -21 -90 -68 -117
-128 -33 -75 -36 -127 -73 -1158 -21 -583 -25 -606 -106 -647 -65 -34 -136
-20 -189 37 -24 26 -25 31 -25 173 0 81 2 235 4 342 4 144 1 201 -8 218 -17
31 -69 62 -106 62 -35 0 -89 -30 -104 -59 -6 -11 -16 -77 -21 -148 -29 -349
-33 -369 -89 -398 -54 -27 -102 -28 -151 -3 -82 42 -82 42 -74 430 l7 337 -31
30 c-52 48 -122 51 -169 9 -29 -27 -40 -87 -53 -289 -5 -91 -15 -181 -21 -200
-39 -116 -176 -145 -259 -54 -25 26 -25 29 -25 193 0 92 2 247 3 344 4 193 1
207 -51 238 -38 24 -87 25 -127 5 -51 -27 -57 -49 -69 -303 -8 -151 -12 -179
-33 -219 -31 -63 -66 -87 -125 -87 -59 1 -108 25 -133 67 -24 39 -25 125 -9
491 10 240 3 406 -22 500 l-10 38 70 73 c44 45 82 95 99 132 24 52 27 69 27
168 0 134 -16 176 -101 266 -69 71 -106 96 -182 118 l-57 17 -7 85 c-9 120
-39 189 -117 272 -46 49 -90 76 -166 102 -59 20 -60 22 -63 60 -10 154 -43
234 -132 319 -61 59 -113 89 -182 106 l-46 12 -4 87 c-5 109 -43 197 -116 270
-57 57 -108 85 -194 107 -80 21 -131 14 -332 -43 l-158 -46 -294 294 -294 294
507 507 508 508 195 -196 195 -196 -25 -16 c-111 -72 -200 -245 -200 -388 0
-143 109 -327 230 -389 56 -28 446 -152 955 -302 11 -3 121 -105 245 -227 124
-122 268 -259 320 -304 102 -89 226 -160 296 -168 38 -5 40 -4 147 103 l108
109 -96 11 c-168 20 -194 38 -560 393 -121 117 -243 230 -271 251 -65 50 -109
66 -590 214 -223 69 -418 132 -433 140 -126 64 -132 250 -13 342 73 56 93 54
392 -32 461 -132 752 -225 822 -262 59 -32 103 -87 483 -603 164 -223 300
-407 302 -410 2 -2 44 36 93 85 l90 90 -122 165 c-409 553 -590 790 -632 829
-86 78 -144 99 -815 301 l-404 121 -306 299 c-168 165 -321 311 -340 325 -40
29 -73 32 -115 10z m109 -2074 c59 -33 82 -127 49 -197 -23 -48 -95 -80 -356
-158 -287 -86 -331 -94 -383 -70 -102 49 -116 198 -23 258 36 23 465 158 603
189 29 7 76 -2 110 -22z m329 -465 c75 -31 115 -136 79 -206 -29 -55 -77 -76
-389 -170 -235 -71 -305 -84 -348 -66 -78 33 -115 130 -77 204 28 55 72 77
297 146 373 115 380 116 438 92z m365 -484 c50 -24 74 -62 79 -127 4 -54 3
-58 -34 -96 -24 -24 -62 -48 -103 -64 -81 -31 -364 -115 -488 -145 l-91 -23
-45 26 c-56 33 -92 99 -82 149 10 47 31 84 57 103 24 16 298 107 513 169 123
36 135 36 194 8z m350 -477 c53 -27 81 -71 81 -126 0 -102 -30 -129 -204 -185
-197 -63 -422 -124 -481 -131 -42 -4 -56 -1 -85 19 -49 33 -72 81 -67 141 5
54 30 88 87 117 58 29 421 143 540 168 66 14 98 14 129 -3z m2541 -608 c84
-47 296 -191 410 -276 102 -77 258 -221 502 -468 l208 -208 -508 -508 -507
-507 -154 154 -153 155 6 63 c12 120 26 416 47 1002 11 324 25 599 30 612 12
34 34 30 119 -19z"/>
<path d="M5482 5485 c-149 -33 -85 24 -1191 -1080 l-1016 -1014 -32 -88 c-17
-48 -49 -135 -71 -193 -22 -58 -74 -197 -116 -310 -43 -113 -95 -250 -116
-305 -82 -212 -180 -479 -180 -491 0 -5 68 17 170 56 58 22 222 83 365 135
143 53 294 109 335 125 41 16 156 58 255 95 99 36 203 75 232 86 45 18 150
120 960 932 500 502 952 961 1006 1022 53 60 111 137 129 169 28 54 32 72 36
162 5 123 -16 206 -76 300 -52 80 -220 254 -300 311 -114 82 -265 116 -390 88z
m199 -260 c50 -26 285 -264 304 -308 22 -53 19 -142 -6 -194 -12 -24 -68 -92
-124 -151 l-104 -107 -260 260 c-144 143 -261 265 -261 271 0 12 146 155 208
203 23 18 54 37 70 42 39 12 133 4 173 -16z m-369 -662 c142 -142 258 -262
258 -268 0 -6 -297 -307 -660 -670 l-660 -660 -260 260 c-143 143 -260 264
-260 270 0 10 1310 1325 1320 1325 3 0 121 -116 262 -257z m-1497 -1513 c258
-258 260 -260 240 -279 -28 -27 -200 -97 -605 -247 -96 -36 -192 -72 -214 -80
-21 -8 -41 -13 -44 -10 -2 3 37 117 88 253 180 483 239 623 264 623 6 0 128
-117 271 -260z"/>
</g>
</svg>
