<?xml version="1.0" standalone="no"?>
<!DOCTYPE svg PUBLIC "-//W3C//DTD SVG 20010904//EN"
 "http://www.w3.org/TR/2001/REC-SVG-20010904/DTD/svg10.dtd">
<svg version="1.0" xmlns="http://www.w3.org/2000/svg"
 width="512.000000pt" height="512.000000pt" viewBox="0 0 512.000000 512.000000"
 preserveAspectRatio="xMidYMid meet">

<g transform="translate(0.000000,512.000000) scale(0.100000,-0.100000)"
    stroke="none">
<path d="M2350 4790 c-1038 -108 -1847 -879 -2007 -1912 -21 -140 -24 -471 -4
-603 111 -762 554 -1383 1226 -1718 208 -104 405 -167 651 -208 171 -29 492
-32 661 -5 744 116 1358 560 1686 1221 104 209 167 405 208 651 32 185 32 503
0 688 -41 246 -106 448 -206 649 -117 233 -238 401 -425 588 -344 345 -767
559 -1255 634 -122 19 -419 27 -535 15z m316 -1053 c37 -19 90 -72 112 -112
15 -27 17 -92 17 -681 l0 -651 -30 -49 c-19 -30 -49 -60 -79 -79 -44 -27 -58
-30 -126 -30 -68 0 -82 3 -126 30 -30 19 -60 49 -79 79 l-30 49 -3 616 c-2
339 0 635 3 658 11 74 76 151 154 180 45 17 146 11 187 -10z m13 -1898 c207
-104 200 -396 -12 -489 -178 -79 -377 53 -377 251 0 203 206 329 389 238z"/>
</g>
</svg>
