<?xml version="1.0" standalone="no"?>
<!DOCTYPE svg PUBLIC "-//W3C//DTD SVG 20010904//EN"
 "http://www.w3.org/TR/2001/REC-SVG-20010904/DTD/svg10.dtd">
<svg version="1.0" xmlns="http://www.w3.org/2000/svg"
 width="840.000000pt" height="859.000000pt" viewBox="0 0 840.000000 859.000000"
 preserveAspectRatio="xMidYMid meet">

<g transform="translate(0.000000,859.000000) scale(0.100000,-0.100000)"
fill="#000000" stroke="none">
<path d="M3324 8451 c-228 -65 -368 -307 -309 -534 40 -154 143 -265 293 -319
55 -20 82 -21 837 -23 429 -1 812 1 850 6 223 29 386 215 387 440 1 175 -90
323 -247 402 -94 46 -110 47 -953 46 -729 0 -802 -2 -858 -18z"/>
<path d="M1045 8159 c-164 -24 -358 -102 -503 -201 -197 -135 -371 -365 -447
-592 -64 -192 -59 91 -62 -3166 -4 -3263 -7 -3065 58 -3263 91 -271 278 -503
524 -649 92 -55 122 -68 227 -104 200 -68 -19 -64 3363 -64 3370 0 3162 -4
3359 62 270 90 502 277 648 523 55 92 68 122 104 227 69 202 65 -6 61 3268
l-3 2955 -21 85 c-94 370 -323 656 -655 815 -197 94 -335 118 -664 113 -221
-3 -231 -4 -277 -28 -129 -65 -194 -219 -152 -355 24 -74 95 -154 167 -186 50
-22 65 -23 278 -24 148 -1 242 -6 275 -14 189 -50 343 -186 421 -376 l29 -70
3 -2935 c1 -1952 -1 -2953 -8 -2990 -30 -164 -160 -330 -320 -408 -47 -23
-109 -47 -139 -52 -75 -14 -6138 -14 -6212 0 -164 31 -330 161 -407 320 -23
47 -47 109 -52 139 -6 35 -10 1079 -10 2965 0 3208 -5 2954 62 3093 48 100
169 219 268 266 107 50 149 56 394 62 120 3 230 8 245 12 88 21 177 107 206
198 42 136 -23 290 -152 355 -47 24 -53 25 -298 27 -137 0 -277 -3 -310 -8z"/>
<path d="M1520 6349 c-244 -40 -410 -296 -346 -535 58 -218 255 -349 484 -322
246 29 423 292 358 533 -44 165 -170 286 -333 320 -76 16 -85 16 -163 4z"/>
<path d="M2847 6226 c-130 -47 -207 -172 -194 -315 9 -103 70 -192 167 -242
l45 -24 2025 0 c1918 0 2027 1 2063 18 55 26 115 84 145 141 36 68 38 196 6
267 -26 55 -79 111 -137 141 l-42 23 -2020 2 c-1683 2 -2026 0 -2058 -11z"/>
<path d="M1511 4559 c-158 -31 -295 -159 -335 -314 -49 -187 27 -379 192 -484
126 -80 317 -82 448 -5 56 33 136 120 167 180 161 318 -122 692 -472 623z"/>
<path d="M2812 4419 c-225 -112 -210 -455 24 -545 47 -18 111 -19 2054 -19
1943 0 2007 1 2054 19 228 88 250 422 35 541 l-54 30 -2026 3 -2025 2 -62 -31z"/>
<path d="M1511 2779 c-240 -47 -400 -300 -337 -534 32 -120 120 -229 233 -286
65 -33 70 -34 188 -34 116 0 122 1 187 33 137 69 232 207 244 353 24 290 -233
524 -515 468z"/>
<path d="M2811 2639 c-218 -109 -211 -440 12 -540 l52 -24 2015 0 2015 0 52
24 c135 60 202 219 158 369 -23 75 -70 131 -144 169 l-63 33 -2017 0 -2018 0
-62 -31z"/>
</g>
</svg>
