<?xml version="1.0" standalone="no"?>
<!DOCTYPE svg PUBLIC "-//W3C//DTD SVG 20010904//EN"
 "http://www.w3.org/TR/2001/REC-SVG-20010904/DTD/svg10.dtd">
<svg version="1.0" xmlns="http://www.w3.org/2000/svg"
 width="225.000000pt" height="225.000000pt" viewBox="0 0 225.000000 225.000000"
 preserveAspectRatio="xMidYMid meet">

<g transform="translate(0.000000,225.000000) scale(0.100000,-0.100000)"
fill="#000000" stroke="none">
<path d="M79 2171 l-29 -29 0 -1017 0 -1017 29 -29 29 -29 1017 0 1017 0 29
29 c36 37 38 79 5 118 l-24 28 -961 3 -961 2 -2 961 -3 961 -28 24 c-39 33
-81 31 -118 -5z"/>
<path d="M1705 1799 c-115 -9 -222 -18 -236 -18 -36 -1 -79 -46 -79 -83 0 -84
40 -98 232 -84 l147 11 -16 -25 c-12 -18 -519 -746 -527 -756 0 -1 -87 81
-193 182 -177 170 -195 184 -228 184 -50 0 -64 -16 -243 -278 l-153 -223 3
-129 3 -129 25 12 c15 7 94 113 192 256 91 134 171 248 177 254 7 7 69 -47
200 -171 181 -174 192 -182 230 -182 51 0 34 -21 383 480 l283 405 7 -65 c3
-36 9 -105 13 -154 6 -80 10 -93 35 -118 45 -44 105 -35 134 20 12 23 11 60
-5 277 -23 305 -23 309 -56 335 -31 24 -38 24 -328 -1z"/>
</g>
</svg>
