<?xml version="1.0" standalone="no"?>
<!DOCTYPE svg PUBLIC "-//W3C//DTD SVG 20010904//EN"
 "http://www.w3.org/TR/2001/REC-SVG-20010904/DTD/svg10.dtd">
<svg version="1.0" xmlns="http://www.w3.org/2000/svg"
 width="512.000000pt" height="496.000000pt" viewBox="0 0 512.000000 496.000000"
 preserveAspectRatio="xMidYMid meet">

<g transform="translate(0.000000,496.000000) scale(0.100000,-0.100000)"
fill="#000000" stroke="none">
<path d="M2558 4941 c-71 -10 -115 -36 -139 -81 -38 -71 -16 -152 54 -204 25
-19 38 -20 125 -16 360 18 630 -23 915 -140 496 -204 906 -634 1130 -1185 120
-295 169 -538 168 -845 -1 -563 -206 -1057 -616 -1479 -197 -203 -384 -341
-624 -460 -586 -290 -1254 -290 -1846 -2 -621 304 -1072 869 -1209 1517 -70
331 -58 704 31 1024 74 268 234 586 381 760 l30 35 6 -160 c21 -502 21 -493
42 -522 64 -86 162 -96 237 -25 15 14 31 40 36 57 5 18 1 242 -10 540 -21 585
-20 576 -104 617 l-45 22 -488 -68 c-268 -37 -503 -72 -524 -77 -45 -12 -95
-66 -104 -115 -14 -77 44 -166 118 -179 18 -3 153 12 301 33 147 21 267 36
267 34 0 -2 -15 -22 -34 -45 -123 -152 -284 -459 -360 -688 -92 -274 -129
-501 -130 -789 0 -272 28 -469 101 -710 119 -396 321 -729 628 -1035 213 -214
424 -365 690 -496 365 -180 728 -258 1134 -246 353 11 646 82 966 236 275 132
459 265 696 501 406 405 630 839 716 1390 24 160 25 509 0 670 -34 218 -83
397 -162 595 -304 758 -882 1291 -1598 1474 -199 51 -288 63 -512 66 -115 2
-235 0 -267 -4z"/>
<path d="M2594 3759 c-228 -26 -449 -184 -549 -394 -65 -135 -75 -196 -75
-454 l0 -221 -95 0 c-150 0 -135 71 -135 -648 0 -577 1 -610 18 -625 17 -16
94 -17 909 -17 849 0 891 1 906 18 15 17 17 75 17 625 0 710 11 647 -114 647
l-74 0 -5 238 c-5 261 -12 303 -71 427 -132 278 -423 439 -732 404z m246 -297
c110 -43 206 -139 251 -251 21 -51 23 -76 27 -288 l4 -233 -436 0 -436 0 0
218 c0 235 8 285 56 368 51 87 174 179 271 204 62 15 201 6 263 -18z m-127
-1106 c44 -18 93 -76 101 -120 4 -19 2 -53 -3 -74 -12 -43 -62 -99 -97 -108
-13 -3 -24 -12 -24 -18 0 -7 18 -95 40 -195 22 -100 40 -186 40 -191 0 -6 -50
-10 -119 -10 l-118 0 33 193 c19 105 34 197 34 204 0 6 -16 20 -34 31 -105 62
-97 224 14 280 51 25 87 28 133 8z"/>
</g>
</svg>
