<?xml version="1.0" standalone="no"?>
<!DOCTYPE svg PUBLIC "-//W3C//DTD SVG 20010904//EN"
 "http://www.w3.org/TR/2001/REC-SVG-20010904/DTD/svg10.dtd">
<svg version="1.0" xmlns="http://www.w3.org/2000/svg"
 width="1075.000000pt" height="1203.000000pt" viewBox="0 0 1075.000000 1203.000000"
 preserveAspectRatio="xMidYMid meet">

<g transform="translate(0.000000,1203.000000) scale(0.100000,-0.100000)"
fill="#000000" stroke="none">
<path d="M1826 11509 c-236 -16 -349 -45 -536 -139 -186 -93 -290 -168 -435
-314 -154 -154 -227 -258 -325 -461 -121 -251 -126 -276 -135 -680 l-7 -290
46 -135 c61 -179 178 -412 261 -523 162 -214 430 -426 562 -444 71 -9 147 45
173 123 25 76 -16 136 -202 292 -197 164 -277 264 -378 475 -74 154 -88 207
-101 388 -14 189 -1 361 36 474 63 193 166 365 305 509 112 117 220 197 355
262 152 73 230 93 415 105 220 15 5540 23 6420 10 743 -11 769 -13 915 -70
425 -164 768 -598 792 -1001 l6 -95 175 -177 c97 -98 178 -176 180 -174 9 9
-20 607 -32 677 -23 129 -119 334 -240 514 -78 117 -302 341 -417 418 -97 64
-329 180 -409 203 -141 42 -199 45 -1010 54 -985 11 -6253 10 -6414 -1z"/>
<path d="M1760 10794 c-72 -19 -183 -72 -262 -125 -97 -65 -247 -223 -292
-308 -67 -128 -116 -300 -116 -407 0 -155 154 -249 275 -170 36 24 52 62 80
193 33 159 68 226 165 322 69 69 161 133 174 121 2 -3 9 -1740 15 -3860 11
-3654 17 -4263 41 -4388 17 -90 122 -263 224 -371 109 -114 255 -201 398 -237
92 -23 1031 -35 2508 -32 l1194 3 37 49 c53 69 66 124 45 179 -9 24 -28 57
-44 74 l-27 32 -1810 12 c-1786 11 -1811 12 -1850 32 -116 58 -247 170 -287
244 -15 27 -32 78 -37 114 -26 160 -32 971 -38 4647 l-5 3812 -37 29 c-20 15
-46 33 -58 40 -31 16 -226 13 -293 -5z"/>
<path d="M9310 9744 c-76 -9 -203 -46 -278 -80 -29 -13 -57 -24 -61 -24 -5 0
-11 -3 -13 -7 -1 -5 -19 -21 -38 -37 -164 -133 -3797 -3757 -3807 -3796 -3
-14 -9 -29 -13 -35 -3 -5 -15 -32 -24 -60 -10 -27 -24 -63 -30 -80 -7 -16 -19
-46 -26 -65 -6 -19 -16 -44 -20 -55 -4 -11 -14 -36 -20 -55 -7 -19 -19 -48
-26 -65 -6 -16 -35 -93 -64 -170 -52 -141 -57 -155 -80 -210 -6 -16 -19 -50
-27 -75 -8 -25 -21 -58 -28 -75 -7 -16 -25 -64 -40 -105 -15 -41 -33 -88 -39
-105 -7 -16 -19 -46 -26 -65 -7 -19 -18 -48 -25 -65 -6 -16 -18 -46 -25 -65
-6 -19 -16 -44 -20 -55 -5 -11 -16 -42 -25 -70 -10 -27 -25 -68 -35 -90 -10
-22 -21 -51 -25 -65 -3 -14 -15 -43 -25 -65 -9 -22 -21 -56 -25 -75 -4 -19
-11 -39 -15 -45 -10 -15 -128 -325 -136 -360 -4 -16 -10 -34 -14 -40 -18 -24
-131 -347 -124 -354 5 -5 26 2 146 45 38 13 101 36 140 50 40 14 82 29 93 34
11 5 43 16 70 26 28 9 54 21 60 26 5 4 19 8 31 8 13 0 25 4 28 9 3 4 19 11 35
14 16 4 49 15 73 25 24 11 66 27 93 37 28 9 59 20 70 25 11 5 31 12 45 16 14
3 43 15 65 24 22 10 69 28 103 39 66 22 292 106 327 121 11 5 72 28 135 51 63
22 133 49 155 59 22 9 51 21 65 25 23 6 170 60 250 90 19 8 80 30 135 50 55
20 109 41 120 46 11 5 65 25 120 45 166 60 198 72 235 88 52 22 3294 3273
3616 3626 178 195 262 322 283 430 33 162 38 346 12 435 -5 16 -17 57 -27 90
-49 167 -160 319 -425 582 -178 177 -260 242 -374 297 -86 42 -118 54 -196 75
-75 20 -256 34 -329 25z m176 -465 c124 -17 170 -49 390 -265 273 -270 314
-327 331 -463 19 -146 -17 -244 -142 -391 -59 -70 -309 -320 -320 -320 -13 0
-985 963 -985 976 0 19 325 328 411 390 72 52 93 62 164 72 33 5 63 10 67 11
4 0 42 -4 84 -10z m-561 -1285 c267 -267 485 -489 485 -492 0 -4 -556 -563
-1235 -1242 l-1235 -1235 -495 495 -495 495 1232 1232 c678 678 1238 1233
1245 1233 7 0 231 -219 498 -486z m-3112 -2501 c99 -98 319 -317 489 -487
l310 -308 -27 -28 c-14 -15 -54 -41 -88 -57 -126 -61 -629 -255 -1357 -525
-74 -27 -146 -54 -159 -59 -13 -5 -26 -8 -28 -5 -6 6 54 183 122 356 8 19 41
109 75 200 34 91 72 192 85 225 13 33 51 134 85 225 123 327 231 576 272 628
6 6 17 12 26 12 9 0 97 -80 195 -177z"/>
<path d="M3445 9030 c-99 -6 -138 -22 -178 -70 -55 -65 -48 -149 18 -219 l44
-46 418 0 c477 0 480 0 515 68 26 51 28 148 5 194 -29 56 -65 64 -316 74 -250
9 -371 9 -506 -1z"/>
<path d="M6980 9030 c-70 -10 -100 -22 -127 -51 -45 -49 -55 -169 -18 -225 34
-52 68 -59 325 -59 218 0 238 1 269 20 40 24 80 95 81 143 0 69 -61 148 -127
162 -57 12 -340 20 -403 10z"/>
<path d="M4793 9020 c-54 -12 -84 -39 -110 -96 -31 -67 -26 -103 21 -171 l33
-48 154 -6 c85 -4 447 -7 806 -8 l651 -1 38 51 c47 65 56 125 26 192 -26 58
-51 74 -137 87 -82 11 -1433 12 -1482 0z"/>
<path d="M3518 7959 c-173 -9 -196 -16 -246 -73 -68 -78 -46 -198 46 -245 54
-27 268 -39 902 -47 512 -6 1496 9 1667 25 140 14 183 54 183 171 0 51 -4 67
-27 97 -47 62 -64 65 -408 74 -396 10 -1910 9 -2117 -2z"/>
<path d="M6595 7951 c-62 -8 -88 -24 -113 -70 -39 -70 -36 -149 6 -200 17 -21
18 -20 167 129 l150 150 -80 -1 c-44 -1 -102 -5 -130 -8z"/>
<path d="M10183 7208 l-173 -173 0 -2351 0 -2350 -45 -122 c-51 -137 -55 -175
-22 -223 63 -93 171 -122 242 -64 48 39 99 123 132 216 l26 74 9 1015 c4 558
7 1720 5 2583 l-2 1567 -172 -172z"/>
<path d="M3470 6871 c-164 -7 -185 -14 -215 -77 -38 -80 -28 -141 33 -206 45
-49 90 -53 632 -53 621 0 663 6 706 93 29 58 25 130 -9 180 -16 23 -43 46 -60
52 -37 13 -851 22 -1087 11z"/>
<path d="M5060 6818 c-38 -57 -42 -68 -38 -113 10 -119 62 -153 243 -162 l117
-6 164 164 c90 90 164 167 164 171 0 5 -137 8 -304 8 l-304 0 -42 -62z"/>
<path d="M3308 5783 c-103 -110 -103 -171 -1 -280 l40 -43 640 0 c501 0 643 3
650 13 9 12 123 318 123 331 0 3 -321 6 -713 6 l-713 0 -26 -27z"/>
<path d="M8020 4366 c-384 -81 -718 -389 -819 -756 -66 -239 -39 -544 70 -765
62 -128 212 -298 359 -407 55 -41 207 -114 298 -142 184 -58 433 -56 611 3
358 120 607 376 717 736 26 84 27 103 28 275 1 144 -3 199 -16 247 -112 407
-394 692 -786 794 -101 27 -366 35 -462 15z m427 -381 c209 -70 382 -245 454
-460 21 -60 24 -89 24 -210 0 -127 -3 -148 -28 -221 -57 -165 -194 -325 -360
-416 l-85 -48 -223 0 -222 0 -80 43 c-148 78 -313 257 -365 396 -34 89 -43
310 -18 423 51 229 236 425 474 503 119 38 296 34 429 -10z"/>
<path d="M7145 2441 c-16 -10 -42 -31 -57 -47 -81 -89 -477 -767 -568 -975
-28 -63 -30 -74 -19 -106 17 -51 74 -111 118 -122 20 -5 81 -15 136 -21 208
-23 212 -25 305 -155 53 -74 115 -143 154 -172 42 -32 105 -31 145 3 107 90
548 831 616 1033 16 50 16 55 0 91 -9 21 -33 53 -51 71 -31 30 -42 34 -102 37
-58 3 -71 1 -96 -19 -36 -28 -140 -188 -306 -470 -68 -116 -130 -214 -138
-217 -8 -3 -35 17 -64 48 -56 58 -99 80 -155 80 -21 0 -48 3 -60 6 -22 6 -22
7 19 88 22 44 80 151 128 236 211 375 253 495 193 562 -23 27 -110 68 -143 68
-14 0 -38 -8 -55 -19z"/>
<path d="M9185 2422 c-23 -11 -54 -34 -69 -53 -26 -31 -28 -38 -23 -93 6 -69
65 -195 203 -438 126 -222 168 -308 157 -319 -5 -5 -37 -14 -72 -20 -49 -9
-73 -20 -113 -53 -108 -88 -99 -83 -117 -57 -9 13 -67 112 -130 220 -290 500
-364 557 -507 398 -42 -47 -46 -55 -41 -91 7 -53 86 -211 267 -537 238 -426
289 -503 360 -539 99 -50 159 -10 327 220 57 78 76 92 130 97 282 24 310 31
356 82 50 56 55 93 22 172 -92 220 -505 920 -589 998 -35 33 -107 38 -161 13z"/>
</g>
</svg>
