<?xml version="1.0" standalone="no"?>
<!DOCTYPE svg PUBLIC "-//W3C//DTD SVG 20010904//EN"
 "http://www.w3.org/TR/2001/REC-SVG-20010904/DTD/svg10.dtd">
<svg version="1.0" xmlns="http://www.w3.org/2000/svg"
 width="515.000000pt" height="501.000000pt" viewBox="0 0 515.000000 501.000000"
 preserveAspectRatio="xMidYMid meet">

<g transform="translate(0.000000,501.000000) scale(0.100000,-0.100000)"
fill="#000000" stroke="none">
<path d="M1685 4741 c-90 -22 -173 -90 -215 -176 -24 -47 -25 -61 -28 -252
l-3 -202 -442 -3 -442 -3 -50 -25 c-64 -31 -124 -91 -155 -155 l-25 -50 0
-1752 0 -1752 21 -27 c11 -15 33 -37 48 -48 27 -21 37 -21 856 -24 l830 -2 2
589 c3 578 3 590 24 617 11 15 33 37 48 48 27 20 39 21 406 21 367 0 379 -1
406 -21 15 -11 37 -33 48 -48 21 -27 21 -39 24 -617 l2 -589 830 2 c819 3 829
3 856 24 15 11 37 33 48 48 l21 27 0 1752 0 1752 -34 63 c-37 69 -79 109 -151
144 -44 23 -51 23 -487 26 l-441 3 -4 202 -3 202 -34 63 c-37 69 -79 109 -151
144 l-45 23 -865 2 c-476 0 -878 -2 -895 -6z m641 -657 c53 -39 69 -71 69
-134 0 -63 -16 -95 -69 -134 -23 -18 -45 -22 -144 -24 -137 -4 -179 6 -221 53
-52 59 -54 147 -4 206 44 52 73 59 215 57 110 -3 130 -6 154 -24z m800 0 c53
-39 69 -71 69 -134 0 -63 -16 -95 -69 -134 -23 -18 -45 -22 -144 -24 -137 -4
-179 6 -221 53 -52 59 -54 147 -4 206 44 52 73 59 215 57 110 -3 130 -6 154
-24z m-1920 -640 c53 -39 69 -71 69 -134 0 -63 -16 -95 -69 -134 -23 -18 -45
-22 -144 -24 -137 -4 -179 6 -221 53 -52 59 -54 147 -4 206 44 52 73 59 215
57 110 -3 130 -6 154 -24z m1120 0 c53 -39 69 -71 69 -134 0 -63 -16 -95 -69
-134 -23 -18 -45 -22 -144 -24 -137 -4 -179 6 -221 53 -52 59 -54 147 -4 206
44 52 73 59 215 57 110 -3 130 -6 154 -24z m800 0 c53 -39 69 -71 69 -134 0
-63 -16 -95 -69 -134 -23 -18 -45 -22 -144 -24 -137 -4 -179 6 -221 53 -52 59
-54 147 -4 206 44 52 73 59 215 57 110 -3 130 -6 154 -24z m1120 0 c53 -39 69
-71 69 -134 0 -63 -16 -95 -69 -134 -23 -18 -45 -22 -144 -24 -137 -4 -179 6
-221 53 -52 59 -54 147 -4 206 44 52 73 59 215 57 110 -3 130 -6 154 -24z
m-3040 -640 c53 -39 69 -71 69 -134 0 -63 -16 -95 -69 -134 -23 -18 -45 -22
-144 -24 -137 -4 -179 6 -221 53 -52 59 -54 147 -4 206 44 52 73 59 215 57
110 -3 130 -6 154 -24z m1120 0 c53 -39 69 -71 69 -134 0 -63 -16 -95 -69
-134 -23 -18 -45 -22 -144 -24 -137 -4 -179 6 -221 53 -52 59 -54 147 -4 206
44 52 73 59 215 57 110 -3 130 -6 154 -24z m800 0 c53 -39 69 -71 69 -134 0
-63 -16 -95 -69 -134 -23 -18 -45 -22 -144 -24 -137 -4 -179 6 -221 53 -52 59
-54 147 -4 206 44 52 73 59 215 57 110 -3 130 -6 154 -24z m1120 0 c53 -39 69
-71 69 -134 0 -63 -16 -95 -69 -134 -23 -18 -45 -22 -144 -24 -137 -4 -179 6
-221 53 -52 59 -54 147 -4 206 44 52 73 59 215 57 110 -3 130 -6 154 -24z
m-3040 -640 c53 -39 69 -71 69 -134 0 -63 -16 -95 -69 -134 -23 -18 -45 -22
-144 -24 -137 -4 -179 6 -221 53 -52 59 -54 147 -4 206 44 52 73 59 215 57
110 -3 130 -6 154 -24z m1120 0 c53 -39 69 -71 69 -134 0 -63 -16 -95 -69
-134 -23 -18 -45 -22 -144 -24 -137 -4 -179 6 -221 53 -52 59 -54 147 -4 206
44 52 73 59 215 57 110 -3 130 -6 154 -24z m800 0 c53 -39 69 -71 69 -134 0
-63 -16 -95 -69 -134 -23 -18 -45 -22 -144 -24 -137 -4 -179 6 -221 53 -52 59
-54 147 -4 206 44 52 73 59 215 57 110 -3 130 -6 154 -24z m1120 0 c53 -39 69
-71 69 -134 0 -63 -16 -95 -69 -134 -23 -18 -45 -22 -144 -24 -137 -4 -179 6
-221 53 -52 59 -54 147 -4 206 44 52 73 59 215 57 110 -3 130 -6 154 -24z
m-3040 -640 c53 -39 69 -71 69 -134 0 -63 -16 -95 -69 -134 -23 -18 -45 -22
-144 -24 -137 -4 -179 6 -221 53 -52 59 -54 147 -4 206 44 52 73 59 215 57
110 -3 130 -6 154 -24z m3040 0 c53 -39 69 -71 69 -134 0 -63 -16 -95 -69
-134 -23 -18 -45 -22 -144 -24 -137 -4 -179 6 -221 53 -52 59 -54 147 -4 206
44 52 73 59 215 57 110 -3 130 -6 154 -24z"/>
<path d="M2400 750 l0 -480 160 0 160 0 0 480 0 480 -160 0 -160 0 0 -480z"/>
</g>
</svg>
