<?xml version="1.0" standalone="no"?>
<!DOCTYPE svg PUBLIC "-//W3C//DTD SVG 20010904//EN"
 "http://www.w3.org/TR/2001/REC-SVG-20010904/DTD/svg10.dtd">
<svg version="1.0" xmlns="http://www.w3.org/2000/svg"
 width="860.000000pt" height="962.000000pt" viewBox="0 0 860.000000 962.000000"
 preserveAspectRatio="xMidYMid meet">

<g transform="translate(0.000000,962.000000) scale(0.100000,-0.100000)"
fill="#000000" stroke="none">
<path d="M1555 9210 c-280 -10 -365 -31 -570 -139 -124 -65 -223 -140 -325
-247 -104 -109 -163 -196 -240 -356 -96 -199 -104 -237 -104 -533 l-1 -250 43
-125 c93 -264 212 -444 401 -602 118 -97 224 -153 274 -144 63 12 117 72 117
131 0 54 -46 108 -186 217 -127 100 -214 212 -291 374 -63 134 -77 207 -78
404 0 128 4 179 18 230 100 362 375 644 715 731 70 18 133 21 717 30 752 13
4806 5 5045 -10 123 -7 170 -15 228 -35 357 -124 632 -451 674 -801 7 -62 12
-1052 15 -3153 l4 -3062 -41 -107 c-38 -97 -41 -110 -31 -144 20 -68 111 -123
170 -104 63 20 126 117 159 242 16 64 17 254 17 3093 0 3136 -2 3280 -41 3449
-8 36 -46 127 -89 211 -83 161 -164 265 -309 395 -100 90 -135 113 -289 191
-151 76 -202 89 -407 105 -180 13 -5224 21 -5595 9z"/>
<path d="M1426 8638 c-66 -12 -165 -59 -240 -112 -76 -54 -184 -167 -218 -229
-53 -95 -98 -250 -98 -339 0 -113 107 -189 204 -143 47 22 61 50 81 161 23
126 52 184 132 263 61 60 130 107 142 95 2 -2 7 -1470 11 -3261 8 -3642 0
-3299 81 -3453 107 -207 289 -346 499 -381 57 -10 413 -13 1490 -16 l1416 -4
33 41 c59 74 62 137 8 204 l-23 28 -1449 10 -1450 9 -69 37 c-75 40 -174 129
-199 179 -10 17 -22 62 -27 100 -21 136 -29 1231 -30 3964 l0 2785 -27 26
c-16 14 -38 31 -50 37 -25 13 -147 13 -217 -1z"/>
<path d="M2706 7220 c-121 -21 -163 -152 -76 -235 l31 -30 334 -3 c378 -3 389
-1 419 63 13 27 17 53 14 91 -5 62 -25 89 -77 105 -44 15 -574 22 -645 9z"/>
<path d="M3875 7221 c-77 -10 -100 -23 -125 -71 -30 -58 -26 -101 13 -152 l33
-43 640 -3 641 -2 32 41 c44 54 49 100 19 159 -38 74 -31 73 -653 76 -297 1
-567 -1 -600 -5z"/>
<path d="M5560 7221 c-79 -17 -110 -58 -110 -144 0 -110 38 -127 274 -127 207
0 234 7 265 69 26 51 26 84 0 131 -37 65 -62 73 -239 76 -85 2 -171 0 -190 -5z"/>
<path d="M2960 6371 c-140 -5 -266 -11 -280 -16 -14 -4 -37 -19 -52 -33 -74
-69 -50 -185 46 -222 105 -39 2013 -36 2109 3 53 23 77 61 77 123 0 47 -4 59
-33 90 -31 35 -38 37 -118 45 -117 12 -1439 19 -1749 10z"/>
<path d="M5610 6370 c-256 -4 -361 -8 -377 -17 -86 -50 -95 -174 -17 -242 l36
-32 746 3 c724 3 748 4 786 23 55 28 79 64 79 120 0 55 -23 90 -78 119 -64 33
-322 39 -1175 26z"/>
<path d="M2654 5486 c-43 -19 -78 -91 -68 -140 3 -20 16 -48 27 -62 42 -54 63
-57 432 -62 372 -4 578 7 619 33 31 20 56 73 56 118 0 40 -35 96 -70 114 -38
19 -952 18 -996 -1z"/>
<path d="M4058 5468 c-42 -55 -50 -78 -43 -115 17 -91 44 -109 183 -123 110
-11 1121 -12 1314 -1 116 6 129 9 153 31 65 61 71 122 20 193 l-35 47 -784 0
-784 0 -24 -32z"/>
<path d="M6062 5467 c-77 -79 -56 -188 43 -228 40 -16 664 -24 838 -11 127 10
129 10 163 43 57 55 56 146 -2 200 l-26 24 -491 3 -492 3 -33 -34z"/>
<path d="M2626 4600 c-64 -68 -61 -118 12 -192 l36 -38 912 0 912 0 31 35 c16
19 36 53 42 75 10 34 10 46 -6 81 -10 22 -32 51 -48 65 l-29 24 -907 0 -908 0
-47 -50z"/>
<path d="M4988 4641 c-115 -16 -153 -141 -71 -232 l35 -39 774 0 774 0 40 51
c57 72 56 109 -6 178 l-46 51 -726 -1 c-400 -1 -748 -5 -774 -8z"/>
<path d="M3064 3790 c-232 -35 -418 -202 -465 -415 -16 -73 -16 -306 0 -392
25 -133 108 -341 168 -420 59 -77 130 -76 203 4 39 41 42 48 36 85 -4 21 -28
98 -55 171 -62 169 -83 260 -83 372 0 193 85 299 249 311 133 10 174 -39 181
-217 8 -181 -25 -378 -107 -643 -36 -114 -39 -168 -11 -213 22 -37 41 -48 92
-58 52 -10 104 18 207 110 46 41 87 75 91 75 4 0 10 -20 13 -45 10 -68 33
-104 80 -126 80 -36 113 -24 242 91 49 44 93 80 97 80 4 0 8 -14 8 -30 0 -41
25 -99 57 -132 l27 -28 300 1 c166 0 322 4 349 8 53 9 92 39 113 88 20 47 -8
130 -52 155 -41 24 -164 38 -326 38 l-128 0 0 65 c0 79 -13 107 -75 164 l-47
43 -83 -4 c-73 -4 -94 -10 -178 -50 l-95 -46 -23 36 c-32 49 -104 102 -138
102 -15 0 -54 -9 -86 -20 l-58 -20 7 48 c3 26 9 108 12 182 15 342 -73 529
-286 607 -65 24 -165 34 -236 23z"/>
<path d="M6480 3500 c-298 -29 -585 -254 -699 -548 -88 -230 -58 -544 71 -744
52 -80 176 -209 252 -260 84 -58 191 -105 293 -129 74 -18 109 -20 218 -17
113 4 143 9 227 38 285 95 492 317 569 608 29 109 29 296 0 407 -36 137 -113
277 -208 381 -124 136 -332 242 -505 259 -127 12 -144 12 -218 5z m235 -300
c352 -90 533 -475 375 -796 -52 -106 -146 -204 -251 -259 l-74 -40 -174 -3
-174 -4 -75 38 c-54 26 -97 58 -152 113 -125 124 -170 228 -170 388 0 181 47
303 159 413 149 146 340 200 536 150z"/>
<path d="M5714 1951 c-18 -11 -43 -34 -57 -53 -74 -97 -333 -540 -419 -715
-46 -94 -49 -105 -39 -136 6 -18 27 -48 45 -66 33 -32 40 -34 158 -47 181 -20
167 -13 241 -117 110 -155 164 -190 234 -154 78 41 513 784 513 877 0 32 -32
84 -65 106 -32 21 -103 24 -137 6 -30 -16 -92 -109 -218 -327 -118 -205 -138
-235 -153 -235 -6 0 -24 18 -39 39 -34 47 -81 71 -141 71 -25 0 -48 4 -51 9
-3 4 47 100 111 212 232 407 246 471 118 530 -51 23 -63 23 -101 0z"/>
<path d="M7333 1930 c-51 -30 -67 -63 -60 -119 7 -58 47 -140 191 -391 59
-101 105 -191 104 -200 -2 -8 -14 -16 -28 -18 -78 -8 -95 -15 -146 -64 -29
-27 -57 -47 -63 -44 -6 4 -43 64 -82 134 -213 377 -277 455 -358 437 -36 -8
-108 -79 -116 -115 -7 -34 44 -139 219 -453 191 -343 234 -406 285 -429 28
-13 54 -18 75 -14 40 8 104 72 181 184 41 59 63 82 78 83 12 0 80 6 150 13
111 11 131 16 153 37 40 37 56 76 48 112 -23 107 -440 824 -496 853 -38 20
-97 17 -135 -6z"/>
</g>
</svg>
