<?xml version="1.0" standalone="no"?>
<!DOCTYPE svg PUBLIC "-//W3C//DTD SVG 20010904//EN"
 "http://www.w3.org/TR/2001/REC-SVG-20010904/DTD/svg10.dtd">
<svg version="1.0" xmlns="http://www.w3.org/2000/svg"
 width="512.000000pt" height="512.000000pt" viewBox="0 0 512.000000 512.000000"
 preserveAspectRatio="xMidYMid meet">

<g transform="translate(0.000000,512.000000) scale(0.100000,-0.100000)"
fill="#000000" stroke="none">
<path d="M1005 5101 c-16 -10 -247 -237 -512 -502 -322 -323 -484 -493 -488
-511 -4 -16 -4 -40 0 -55 4 -18 93 -115 247 -270 l241 -241 -40 -21 c-106 -53
-183 -199 -168 -316 8 -70 56 -165 102 -206 42 -37 128 -79 161 -79 21 0 22
-4 22 -65 0 -148 90 -268 233 -310 l42 -12 6 -74 c13 -150 94 -253 231 -295
l53 -17 1 -66 c2 -170 131 -301 304 -309 67 -3 93 2 244 48 92 28 170 49 172
48 2 -2 8 -37 15 -78 8 -56 8 -143 -1 -361 -14 -312 -11 -346 35 -424 79 -136
235 -190 397 -139 12 3 22 -4 33 -26 62 -120 210 -194 337 -170 29 6 61 13 70
16 12 3 22 -4 33 -26 44 -84 136 -151 235 -170 45 -9 130 -1 172 15 12 5 21
-2 33 -25 75 -145 266 -214 413 -150 l53 23 162 -161 c164 -163 190 -181 245
-167 38 9 1018 989 1027 1028 4 15 4 39 0 55 -4 17 -97 118 -260 282 l-253
255 -12 80 c-27 181 -95 397 -180 568 -49 98 -69 117 -122 117 -30 0 -46 -7
-69 -29 -39 -39 -38 -74 5 -159 58 -116 157 -392 141 -392 -3 0 -62 39 -132
87 -176 119 -277 166 -357 167 -52 1 -69 -4 -103 -26 -47 -31 -78 -88 -93
-169 -5 -30 -17 -277 -25 -549 -9 -272 -20 -554 -24 -626 -9 -148 -19 -172
-84 -199 -42 -17 -78 -12 -118 16 -50 35 -52 55 -39 325 9 192 9 253 -1 276
-13 31 -54 58 -89 58 -34 0 -76 -27 -88 -57 -6 -15 -15 -105 -20 -199 -10
-192 -16 -211 -85 -239 -42 -17 -78 -12 -118 16 -50 35 -52 55 -40 327 13 273
11 291 -40 318 -33 17 -73 18 -100 4 -38 -21 -48 -61 -55 -229 -8 -175 -17
-208 -66 -244 -36 -26 -98 -26 -136 1 -54 39 -56 56 -43 332 10 215 10 254 -3
278 -28 54 -106 69 -152 29 -23 -20 -28 -34 -35 -108 -4 -46 -8 -124 -8 -174
-1 -135 -43 -198 -130 -198 -49 0 -85 22 -107 65 -15 29 -16 57 -4 316 12 276
10 340 -11 450 l-11 53 53 47 c73 65 109 144 109 238 0 104 -22 157 -95 231
-51 51 -73 65 -122 80 l-61 17 -4 76 c-9 147 -111 269 -251 299 -27 6 -28 8
-31 76 -2 43 -11 88 -23 116 -40 89 -127 164 -220 188 l-42 11 0 65 c0 171
-146 315 -318 315 -38 0 -102 -14 -192 -41 l-134 -40 -236 235 -236 236 407
407 408 408 155 -155 c85 -85 155 -157 155 -160 0 -3 -14 -14 -31 -25 -90 -57
-157 -207 -146 -325 10 -114 93 -242 188 -291 21 -10 159 -55 306 -100 147
-44 313 -94 367 -111 l100 -30 226 -222 c125 -122 253 -239 286 -261 93 -62
170 -85 317 -96 216 -17 397 -75 592 -193 110 -67 150 -73 196 -27 42 43 40
93 -4 135 -46 43 -183 122 -285 165 l-86 36 -186 250 c-102 138 -273 368 -379
513 -107 145 -209 276 -228 291 -69 57 -135 81 -553 206 l-425 127 -250 248
c-137 136 -260 253 -272 259 -32 16 -64 13 -98 -8z m985 -815 c212 -63 409
-127 437 -142 48 -24 68 -47 227 -263 96 -130 232 -315 304 -411 71 -96 129
-176 128 -177 -1 -1 -48 2 -105 6 -160 14 -175 24 -451 296 -185 182 -247 237
-290 257 -31 15 -209 72 -395 128 -187 56 -352 108 -366 116 -95 48 -116 173
-44 253 39 43 84 62 135 56 19 -3 208 -56 420 -119z m-890 -831 c42 -22 60
-53 60 -107 0 -78 -29 -101 -185 -149 -352 -108 -366 -111 -412 -94 -45 17
-67 43 -77 92 -9 40 14 96 49 119 34 22 460 152 503 153 18 1 46 -6 62 -14z
m288 -385 c41 -25 66 -81 57 -128 -13 -68 -39 -82 -304 -161 -274 -82 -290
-83 -340 -25 -43 48 -44 110 -2 156 26 29 55 41 263 105 128 39 247 72 263 72
17 1 45 -8 63 -19z m265 -374 c48 -20 69 -50 75 -105 4 -45 2 -52 -29 -84 -31
-33 -54 -42 -268 -107 -128 -38 -249 -70 -268 -70 -51 0 -113 63 -113 114 0
40 19 84 45 106 16 13 475 157 508 159 10 1 32 -5 50 -13z m323 -410 c29 -29
34 -41 34 -80 0 -53 -20 -90 -60 -111 -49 -25 -462 -145 -501 -145 -74 0 -133
83 -109 154 20 61 46 74 282 146 267 82 305 85 354 36z m2019 -474 c36 -20
139 -89 228 -152 143 -101 191 -143 407 -357 l245 -243 -407 -407 -408 -408
-125 125 c-99 99 -125 129 -120 145 10 35 24 304 40 800 8 264 18 495 21 513
8 41 22 39 119 -16z"/>
<path d="M3978 2743 c-56 -35 -65 -108 -19 -154 69 -68 187 -5 166 89 -14 64
-94 99 -147 65z"/>
</g>
</svg>
