<?xml version="1.0" standalone="no"?>
<!DOCTYPE svg PUBLIC "-//W3C//DTD SVG 20010904//EN"
 "http://www.w3.org/TR/2001/REC-SVG-20010904/DTD/svg10.dtd">
<svg version="1.0" xmlns="http://www.w3.org/2000/svg"
 width="644.000000pt" height="626.000000pt" viewBox="0 0 644.000000 626.000000"
 preserveAspectRatio="xMidYMid meet">

<g transform="translate(0.000000,626.000000) scale(0.100000,-0.100000)"
fill="#000000" stroke="none">
<path d="M2097 5919 c-63 -15 -118 -49 -177 -108 -86 -87 -102 -130 -111 -291
-4 -74 -8 -189 -8 -256 l-1 -121 -187 -6 c-104 -4 -351 -7 -551 -7 l-363 0
-57 -29 c-85 -43 -153 -109 -196 -190 l-36 -69 0 -2192 0 -2191 49 -52 49 -52
134 -6 c73 -4 543 -8 1044 -8 l911 -1 7 713 c4 391 11 730 16 752 11 48 79
115 119 116 58 1 59 4 176 315 62 164 186 490 275 724 l162 425 870 871 871
872 -246 7 -245 7 -4 252 -3 251 -35 60 c-50 88 -115 152 -192 191 l-68 34
-1082 -1 c-596 -1 -1100 -5 -1121 -10z m772 -799 c39 -11 86 -51 107 -92 8
-16 14 -56 14 -95 0 -79 -17 -115 -76 -159 l-37 -29 -172 0 c-170 0 -172 0
-213 28 -69 45 -104 137 -82 216 13 49 84 127 121 134 47 9 305 7 338 -3z
m1000 0 c39 -11 86 -51 107 -92 8 -16 14 -56 14 -95 0 -79 -17 -115 -76 -159
l-37 -29 -173 0 -172 0 -43 30 c-105 75 -116 213 -24 302 24 23 54 43 67 46
46 9 304 7 337 -3z m-2400 -800 c76 -21 124 -94 124 -186 0 -73 -19 -111 -76
-158 l-39 -31 -171 0 c-163 0 -174 1 -210 23 -40 25 -81 87 -92 138 -11 54 14
123 61 170 23 23 52 44 65 47 47 9 305 7 338 -3z m1400 0 c39 -11 86 -51 107
-92 8 -16 14 -56 14 -95 0 -79 -17 -115 -76 -159 l-37 -29 -172 0 c-170 0
-172 0 -213 28 -68 44 -104 137 -83 213 14 52 74 121 114 133 43 12 304 13
346 1z m1000 0 c39 -11 86 -51 107 -92 8 -16 14 -56 14 -95 0 -79 -17 -115
-76 -159 l-37 -29 -173 0 -172 0 -43 30 c-70 50 -101 133 -79 213 14 53 71
119 114 131 42 13 303 13 345 1z m-2386 -804 c81 -34 125 -127 108 -223 -10
-53 -30 -84 -78 -120 l-36 -28 -171 0 c-162 0 -173 1 -209 23 -40 26 -81 87
-92 141 -16 74 50 190 118 210 53 15 323 13 360 -3z m1394 3 c34 -13 80 -55
99 -91 8 -16 14 -56 14 -95 0 -79 -17 -115 -76 -159 l-37 -29 -172 0 c-170 0
-172 0 -213 28 -68 45 -104 137 -82 216 14 52 72 118 114 130 44 13 319 13
353 0z m-1394 -803 c81 -34 125 -127 108 -223 -10 -53 -30 -84 -78 -120 l-36
-28 -166 0 c-144 0 -171 3 -205 19 -72 36 -119 142 -97 222 13 49 65 112 105
130 44 19 325 19 369 0z m1394 3 c34 -13 80 -55 99 -91 19 -36 18 -151 -1
-187 -20 -39 -69 -78 -113 -91 -49 -13 -267 -13 -317 1 -77 22 -124 75 -140
160 -14 75 39 174 110 205 37 16 320 19 362 3z m-1394 -803 c80 -34 125 -127
108 -221 -10 -52 -24 -77 -61 -109 -47 -39 -99 -48 -249 -44 -161 4 -198 17
-242 86 -34 54 -44 107 -29 161 13 49 62 109 105 127 43 19 324 19 368 0z"/>
<path d="M5575 5301 c-27 -10 -62 -23 -77 -29 -40 -16 -397 -364 -1255 -1224
-726 -727 -774 -776 -792 -828 -11 -30 -40 -109 -66 -175 -26 -66 -55 -142
-65 -170 -9 -27 -38 -104 -63 -170 -70 -182 -185 -489 -222 -590 -18 -49 -42
-114 -54 -143 -14 -34 -17 -52 -9 -52 11 0 213 73 493 177 66 25 145 54 175
65 63 22 455 168 545 202 33 13 81 31 106 40 39 14 169 140 930 904 886 888
1074 1083 1111 1156 30 58 51 172 43 236 -18 145 -68 233 -224 394 -165 169
-274 226 -436 225 -62 0 -105 -5 -140 -18z m219 -232 c49 -14 285 -240 316
-303 27 -57 27 -143 0 -197 -11 -21 -66 -87 -122 -145 l-102 -105 -258 258
-259 258 108 104 c59 57 126 112 148 122 45 21 111 24 169 8z m-334 -664 l255
-255 -648 -648 -647 -647 -257 258 -258 257 645 645 c355 355 647 645 650 645
3 0 120 -115 260 -255z m-1461 -1469 l253 -253 -27 -21 c-38 -30 -832 -339
-843 -328 -4 4 214 583 269 716 45 107 64 140 82 140 7 0 126 -114 266 -254z"/>
<path d="M5215 3062 l-770 -768 -462 -180 c-346 -134 -455 -180 -430 -181 118
-10 139 -15 174 -46 69 -61 66 -25 71 -825 l4 -724 1027 4 c978 3 1028 4 1064
22 20 10 51 35 67 56 l30 38 -2 1686 -3 1686 -770 -768z m62 -343 c34 -13 80
-55 99 -91 19 -36 18 -151 -1 -187 -21 -41 -69 -79 -117 -92 -25 -6 -99 -9
-184 -7 -140 3 -143 4 -185 33 -70 50 -101 133 -80 213 14 50 63 109 106 128
37 16 320 19 362 3z m6 -803 c38 -16 94 -76 103 -111 12 -48 -1 -153 -22 -182
-51 -67 -98 -82 -262 -83 -143 0 -195 13 -241 59 -34 34 -61 95 -61 137 0 68
55 154 115 180 42 19 324 19 368 0z"/>
<path d="M3000 940 l0 -600 200 0 200 0 0 600 0 600 -200 0 -200 0 0 -600z"/>
</g>
</svg>
