<?xml version="1.0" standalone="no"?>
<!DOCTYPE svg PUBLIC "-//W3C//DTD SVG 20010904//EN"
 "http://www.w3.org/TR/2001/REC-SVG-20010904/DTD/svg10.dtd">
<svg version="1.0" xmlns="http://www.w3.org/2000/svg"
 width="1024.000000pt" height="1024.000000pt" viewBox="0 0 1024.000000 1024.000000"
 preserveAspectRatio="xMidYMid meet">

<g transform="translate(0.000000,1024.000000) scale(0.100000,-0.100000)"
fill="#000000" stroke="none">
<path d="M2657 10130 c-194 -33 -342 -115 -493 -272 -111 -116 -173 -223 -216
-378 -19 -68 -22 -107 -26 -417 l-4 -343 -402 0 c-368 0 -409 -2 -480 -20
-125 -32 -208 -81 -317 -190 -79 -78 -103 -110 -137 -180 -23 -47 -50 -114
-59 -150 -17 -61 -18 -265 -18 -3700 0 -3440 1 -3639 18 -3710 57 -245 269
-461 517 -527 61 -17 284 -18 4070 -18 3796 0 4008 1 4069 18 200 55 369 195
461 382 77 155 70 -210 70 3850 l0 3650 -21 75 c-34 126 -82 204 -189 310
-108 109 -190 158 -316 190 -71 18 -112 20 -480 20 l-402 0 -4 338 c-4 307 -7
344 -26 417 -46 167 -126 299 -259 426 -94 90 -192 151 -306 190 -123 42 -188
49 -472 49 -284 0 -349 -7 -472 -49 -114 -39 -212 -100 -306 -190 -133 -127
-213 -259 -259 -426 -19 -73 -22 -110 -26 -417 l-4 -338 -1059 0 -1059 0 0
278 c0 153 -5 316 -10 362 -27 219 -113 386 -280 543 -130 122 -284 200 -450
226 -75 12 -582 13 -653 1z m570 -711 c40 -15 73 -48 94 -94 18 -38 19 -84 19
-860 0 -524 -4 -833 -10 -857 -13 -45 -75 -103 -127 -117 -50 -14 -382 -14
-438 0 -49 12 -101 58 -121 106 -11 26 -14 187 -14 862 0 562 3 839 11 858 14
37 57 82 94 99 38 17 449 20 492 3z m4250 0 c40 -15 73 -48 94 -94 18 -38 19
-84 19 -868 0 -911 3 -866 -63 -924 -52 -46 -91 -53 -292 -53 -201 0 -240 7
-292 53 -66 58 -63 13 -63 922 0 893 -2 864 53 924 43 46 68 50 299 51 130 0
228 -4 245 -11z m-4669 -3616 l-3 -798 -795 0 -795 0 -3 798 -2 797 800 0 800
0 -2 -797z m2122 -3 l0 -800 -882 2 -883 3 -3 798 -2 797 885 0 885 0 0 -800z
m2128 3 l-3 -798 -882 -3 -883 -2 0 800 0 800 885 0 885 0 -2 -797z m1950 0
l-3 -798 -795 0 -795 0 -3 798 -2 797 800 0 800 0 -2 -797z m-6198 -2038 l0
-885 -800 0 -800 0 0 885 0 885 800 0 800 0 0 -885z m2120 0 l0 -885 -885 0
-885 0 0 885 0 885 885 0 885 0 0 -885z m2130 0 l0 -885 -885 0 -885 0 0 885
0 885 885 0 885 0 0 -885z m1950 0 l0 -885 -800 0 -800 0 0 885 0 885 800 0
800 0 0 -885z m-6202 -2037 l2 -798 -800 0 -800 0 0 793 c0 437 3 797 7 800 3
4 362 6 797 5 l791 -3 3 -797z m2122 2 l0 -800 -885 0 -885 0 0 793 c0 437 3
797 7 800 3 4 402 7 885 7 l878 0 0 -800z m2128 -2 l2 -798 -885 0 -885 0 0
800 0 800 883 -2 882 -3 3 -797z m1950 0 l2 -798 -800 0 -800 0 0 793 c0 437
3 797 7 800 3 4 362 6 797 5 l791 -3 3 -797z"/>
</g>
</svg>
