<?xml version="1.0" standalone="no"?>
<!DOCTYPE svg PUBLIC "-//W3C//DTD SVG 20010904//EN"
 "http://www.w3.org/TR/2001/REC-SVG-20010904/DTD/svg10.dtd">
<svg version="1.0" xmlns="http://www.w3.org/2000/svg"
 width="1025.000000pt" height="834.000000pt" viewBox="0 0 1025.000000 834.000000"
 preserveAspectRatio="xMidYMid meet">

<g transform="translate(0.000000,834.000000) scale(0.100000,-0.100000)"
fill="#000000" stroke="none">
<path d="M3544 6490 c-59 -18 -128 -75 -209 -171 -301 -359 -427 -507 -719
-844 -387 -446 -942 -1078 -1316 -1498 -312 -351 -330 -373 -374 -452 -181
-321 -207 -995 -51 -1307 48 -96 88 -148 177 -234 90 -88 147 -117 376 -195
334 -114 2605 -824 2685 -840 105 -21 236 22 328 108 28 26 129 140 223 253
226 269 1861 2270 1939 2372 l28 37 -3 443 c-3 503 -1 488 -83 528 -40 19 -58
22 -134 18 -108 -5 -147 -24 -178 -88 -35 -71 -43 -153 -50 -476 l-6 -302
-860 -1003 c-472 -552 -930 -1090 -1017 -1194 -97 -117 -172 -198 -194 -210
-34 -18 -37 -18 -88 -2 -74 25 -1235 378 -1578 480 -358 107 -532 157 -701
202 -256 68 -399 163 -481 321 -56 107 -71 184 -65 339 6 176 29 248 101 320
71 72 145 99 242 91 95 -7 181 -28 585 -142 828 -232 1412 -414 1638 -511 158
-67 319 -57 414 27 25 22 121 129 213 238 1244 1459 1645 1923 2044 2361 201
221 207 228 251 314 55 107 46 200 -27 286 -61 70 -8 55 -874 255 -1281 296
-2080 474 -2152 481 -29 2 -67 0 -84 -5z m506 -1047 c974 -245 1265 -325 1298
-355 37 -36 30 -89 -22 -162 -60 -84 -172 -204 -209 -223 -57 -29 -217 -4
-592 92 -71 19 -358 93 -636 164 -563 145 -687 182 -714 211 -23 25 -22 78 2
128 23 48 170 195 222 221 49 26 131 40 191 33 25 -2 232 -51 460 -109z"/>
<path d="M9195 5863 c-61 -9 -150 -35 -196 -59 -69 -35 -366 -324 -1606 -1566
l-1092 -1093 -46 -120 c-25 -66 -54 -142 -65 -170 -11 -27 -33 -86 -49 -130
-16 -44 -46 -123 -66 -175 -20 -52 -47 -124 -60 -160 -13 -36 -44 -119 -70
-185 -25 -66 -61 -160 -80 -210 -18 -49 -47 -128 -65 -175 -56 -147 -102 -272
-134 -365 -18 -50 -35 -96 -40 -103 -11 -19 26 -15 86 9 29 12 89 34 133 49
44 16 130 47 190 70 61 23 146 54 190 70 44 16 130 47 190 70 61 23 142 52
180 66 39 14 89 34 112 45 23 10 46 19 50 19 4 0 49 15 98 34 50 19 153 58
230 86 77 28 154 57 170 64 17 8 55 22 85 31 30 10 71 26 90 36 30 15 1616
1596 2215 2209 327 334 453 481 480 559 28 83 40 213 27 304 -27 193 -75 272
-311 508 -156 155 -172 169 -261 213 -126 62 -259 86 -385 69z m221 -344 c33
-16 100 -74 209 -184 191 -191 209 -220 210 -340 0 -75 -3 -85 -35 -140 -19
-32 -92 -117 -162 -189 l-127 -131 -343 343 -343 343 130 127 c139 136 195
179 247 193 57 14 161 4 214 -22z m-471 -869 l340 -340 -863 -863 -862 -862
-342 343 -343 342 860 860 c473 473 862 860 865 860 3 0 158 -153 345 -340z
m-1949 -1952 c184 -182 334 -336 334 -342 0 -22 -76 -61 -263 -136 -308 -123
-877 -334 -883 -327 -10 9 315 870 385 1021 46 100 57 116 78 116 8 0 165
-149 349 -332z"/>
</g>
</svg>
