<?xml version="1.0" standalone="no"?>
<!DOCTYPE svg PUBLIC "-//W3C//DTD SVG 20010904//EN"
 "http://www.w3.org/TR/2001/REC-SVG-20010904/DTD/svg10.dtd">
<svg version="1.0" xmlns="http://www.w3.org/2000/svg"
 width="200.000000pt" height="200.000000pt" viewBox="0 0 200.000000 200.000000"
 preserveAspectRatio="xMidYMid meet">

<g transform="translate(0.000000,200.000000) scale(0.100000,-0.100000)"
fill="#000000" stroke="none">
<path d="M592 1684 l-183 -176 3 -504 3 -504 28 -27 27 -28 331 -3 331 -3 -38
45 -39 45 -277 1 -278 0 0 460 0 460 136 0 136 0 29 29 29 29 0 131 0 131 300
0 300 0 2 -390 3 -390 43 -26 42 -25 0 425 0 426 -29 32 -29 33 -344 3 -343 2
-183 -176z"/>
<path d="M910 1555 l0 -35 185 0 185 0 0 35 0 35 -185 0 -185 0 0 -35z"/>
<path d="M650 1355 l0 -35 315 0 315 0 0 35 0 35 -315 0 -315 0 0 -35z"/>
<path d="M650 1145 l0 -35 315 0 315 0 0 35 0 35 -315 0 -315 0 0 -35z"/>
<path d="M650 945 l0 -35 231 0 c225 0 232 1 259 23 15 12 36 27 46 34 15 9
-40 12 -258 12 l-278 1 0 -35z"/>
<path d="M1225 916 c-55 -25 -110 -81 -132 -134 -19 -46 -19 -148 1 -194 52
-122 189 -185 318 -146 50 15 122 78 151 132 30 57 30 165 0 222 -67 126 -213
179 -338 120z m168 -181 c7 -2 29 -6 51 -10 l39 -6 -37 -38 c-37 -38 -37 -39
-28 -90 5 -28 7 -51 3 -51 -3 0 -24 11 -45 25 l-39 24 -49 -25 -50 -25 7 53
c6 51 5 54 -30 88 -31 30 -33 35 -18 42 10 3 33 7 50 7 29 1 36 7 59 53 l26
52 25 -47 c13 -27 29 -50 36 -52z"/>
<path d="M650 735 l0 -35 182 2 182 3 7 33 6 32 -188 0 -189 0 0 -35z"/>
<path d="M1200 279 l0 -134 67 69 67 68 63 -68 62 -69 1 134 c0 119 -2 132
-16 127 -75 -29 -154 -29 -226 -1 -17 7 -18 -3 -18 -126z"/>
</g>
</svg>
