<?xml version="1.0" standalone="no"?>
<!DOCTYPE svg PUBLIC "-//W3C//DTD SVG 20010904//EN"
 "http://www.w3.org/TR/2001/REC-SVG-20010904/DTD/svg10.dtd">
<svg version="1.0" xmlns="http://www.w3.org/2000/svg"
 width="400.000000pt" height="400.000000pt" viewBox="0 0 400.000000 400.000000"
 preserveAspectRatio="xMidYMid meet">

<g transform="translate(0.000000,400.000000) scale(0.100000,-0.100000)"
stroke="none">
<path d="M1715 3661 c-140 -26 -215 -47 -330 -92 -532 -211 -912 -662 -1037
-1232 -20 -90 -23 -130 -23 -337 0 -207 3 -247 23 -337 147 -671 644 -1168
1315 -1315 90 -20 130 -23 337 -23 207 0 247 3 337 23 671 147 1168 644 1315
1315 20 90 23 130 23 337 0 207 -3 247 -23 337 -146 669 -645 1169 -1309 1314
-142 31 -485 36 -628 10z m1375 -742 c55 -25 105 -71 133 -124 29 -54 30 -172
3 -230 -13 -27 -255 -276 -735 -756 -678 -679 -719 -718 -769 -734 -64 -21
-150 -17 -203 9 -46 22 -716 691 -743 742 -30 56 -29 173 1 230 29 54 101 117
151 132 60 18 141 14 192 -9 32 -14 110 -85 277 -252 l233 -232 608 608 c334
334 610 607 612 607 3 0 23 7 45 15 58 21 142 18 195 -6z"/>
</g>
</svg>
