<?xml version="1.0" standalone="no"?>
<!DOCTYPE svg PUBLIC "-//W3C//DTD SVG 20010904//EN"
 "http://www.w3.org/TR/2001/REC-SVG-20010904/DTD/svg10.dtd">
<svg version="1.0" xmlns="http://www.w3.org/2000/svg"
 width="250.000000pt" height="250.000000pt" viewBox="0 0 250.000000 250.000000"
 preserveAspectRatio="xMidYMid meet">

<g transform="translate(0.000000,250.000000) scale(0.100000,-0.100000)"
fill="#000000" stroke="none">
<path d="M1145 2344 c-79 -48 -740 -430 -827 -478 -37 -21 -70 -42 -74 -47 -3
-5 -6 -258 -6 -562 l-1 -552 34 -23 c19 -13 147 -87 284 -165 138 -79 341
-196 452 -261 l202 -118 198 116 c109 63 326 188 483 278 l285 164 0 564 0
565 -50 29 c-283 161 -507 289 -691 397 -122 71 -223 129 -225 129 -2 0 -31
-16 -64 -36z m155 -260 c93 -57 517 -304 524 -304 2 0 35 -18 73 -39 l68 -40
-1 -437 c-1 -418 -1 -437 -20 -451 -10 -8 -73 -44 -138 -80 -103 -56 -278
-158 -529 -306 l-67 -40 -83 49 c-254 148 -388 226 -524 303 l-153 86 0 437 0
437 68 37 c124 68 486 277 582 336 52 32 101 58 110 58 9 0 49 -21 90 -46z"/>
<path d="M1107 1734 c-4 -4 -7 -153 -7 -331 l0 -323 215 0 215 0 0 110 0 110
-110 0 -111 0 3 218 3 217 -101 3 c-55 1 -103 0 -107 -4z"/>
</g>
</svg>
