<?xml version="1.0" standalone="no"?>
<!DOCTYPE svg PUBLIC "-//W3C//DTD SVG 20010904//EN"
 "http://www.w3.org/TR/2001/REC-SVG-20010904/DTD/svg10.dtd">
<svg version="1.0" xmlns="http://www.w3.org/2000/svg"
 width="500.000000pt" height="500.000000pt" viewBox="0 0 500.000000 500.000000"
 preserveAspectRatio="xMidYMid meet">

<g transform="translate(0.000000,500.000000) scale(0.100000,-0.100000)"
fill="#000000" stroke="none">
<path d="M3290 4323 c-8 -3 -84 -32 -168 -65 -115 -44 -186 -65 -285 -83 -167
-30 -248 -48 -368 -85 -121 -38 -170 -38 -317 -1 -206 52 -289 64 -432 65
-186 0 -293 -32 -417 -125 -49 -37 -97 -48 -173 -37 -180 25 -432 49 -614 58
-244 12 -289 5 -358 -60 -45 -44 -50 -83 -18 -158 11 -26 31 -116 44 -200 31
-194 59 -252 159 -329 24 -18 27 -25 18 -42 -17 -30 -13 -65 14 -136 34 -90
83 -169 117 -190 16 -9 72 -23 126 -31 203 -30 353 -88 437 -170 80 -78 115
-179 115 -339 1 -93 2 -98 15 -73 20 35 45 143 45 193 1 34 7 22 41 -80 61
-185 139 -335 216 -413 35 -36 66 -63 68 -60 3 2 -11 36 -31 74 -34 68 -59
171 -36 149 31 -29 145 -237 174 -318 l33 -92 8 65 c8 69 2 209 -13 275 l-9
40 46 -49 c50 -55 104 -156 139 -260 27 -77 69 -269 79 -361 4 -33 11 -67 15
-74 12 -23 25 108 24 244 l0 120 18 -60 c11 -33 28 -125 39 -204 29 -207 76
-317 179 -416 l42 -40 -26 52 c-38 76 -51 147 -37 194 24 81 88 72 186 -26 53
-52 76 -88 148 -231 47 -93 86 -167 87 -164 0 3 -15 66 -34 140 -33 131 -63
297 -54 305 2 2 28 -33 58 -77 128 -194 301 -319 568 -412 57 -20 107 -36 110
-36 4 0 -30 24 -74 54 -102 69 -192 151 -222 205 -13 22 -20 41 -17 41 4 0 26
-16 48 -36 54 -46 203 -118 287 -138 101 -24 223 -36 355 -35 96 0 115 3 95
11 -140 62 -297 144 -350 184 l-65 48 55 8 c73 9 220 -6 300 -33 121 -39 189
-79 382 -225 51 -39 117 -85 145 -102 112 -67 248 -112 343 -112 l55 0 -80 35
c-109 48 -203 114 -280 197 -36 39 -65 74 -65 79 0 4 42 -12 93 -36 133 -62
208 -79 359 -79 87 0 132 4 140 12 9 9 9 12 -4 12 -43 0 -184 86 -258 157
-111 105 -162 186 -284 444 -153 324 -328 473 -605 514 -134 21 -141 20 -95
-11 98 -65 173 -162 205 -265 24 -76 24 -123 0 -176 -58 -127 -261 -99 -475
65 -34 26 -98 84 -143 130 l-83 83 34 -59 c69 -117 92 -206 61 -232 -12 -10
-22 -8 -55 14 -75 49 -192 244 -265 441 -20 55 -39 102 -42 105 -3 3 -3 -28 0
-67 3 -44 20 -113 41 -176 56 -162 46 -227 -38 -227 -143 0 -274 165 -389 490
-9 26 -7 -31 4 -125 12 -97 44 -218 84 -318 21 -53 22 -58 5 -37 -35 46 -117
214 -160 330 -65 175 -148 287 -252 341 -47 24 -80 24 -102 0 -28 -31 -10 -69
78 -158 45 -46 77 -83 72 -83 -20 0 -179 93 -253 149 -144 107 -296 277 -395
444 -22 37 -43 67 -45 67 -11 0 8 -121 28 -182 11 -35 36 -92 56 -128 l35 -65
-37 35 c-21 19 -81 89 -135 155 -224 277 -357 352 -710 400 -63 8 -125 22
-137 31 -47 30 -113 165 -113 229 0 39 20 55 68 55 16 0 83 9 148 21 68 12
145 19 181 17 72 -4 71 4 -5 45 -30 16 -85 33 -143 42 -120 21 -221 68 -278
130 -23 25 -44 45 -47 45 -17 0 6 -107 34 -162 l32 -60 -43 34 c-68 56 -97
105 -109 184 -6 38 -16 100 -23 137 -12 66 -12 67 8 61 17 -5 19 -3 12 12 -18
44 -16 58 3 28 11 -18 25 -35 31 -38 15 -9 76 18 92 41 8 11 31 28 53 38 66
32 95 104 60 153 l-16 23 68 -5 c38 -4 152 -13 254 -21 102 -9 223 -22 269
-31 96 -17 185 -20 221 -6 14 5 43 24 65 42 157 125 411 151 735 75 268 -64
247 -62 341 -37 46 12 125 33 174 47 50 14 162 38 250 54 107 19 191 41 255
66 152 59 200 75 215 68 35 -13 7 -237 -48 -383 -52 -139 -153 -311 -235 -401
-19 -22 -33 -42 -30 -45 10 -10 124 86 166 140 125 162 222 452 222 668 0 77
-29 103 -90 81z m-2912 -405 c7 -7 12 -26 12 -42 0 -17 -4 -26 -8 -20 -4 6
-18 11 -32 10 -19 -1 -26 5 -28 23 -5 35 31 54 56 29z m178 -603 c14 -11 15
-14 4 -15 -8 0 -26 -3 -39 -7 -21 -5 -22 -4 -12 16 14 25 21 26 47 6z"/>
<path d="M3064 4070 c-78 -20 -160 -58 -213 -97 -29 -23 -32 -23 -22 -5 6 11
32 39 58 62 43 39 45 42 20 36 -159 -38 -287 -142 -338 -275 l-17 -46 -12 30
c-7 18 -10 60 -7 102 2 40 0 70 -5 67 -4 -3 -20 -29 -35 -57 -67 -130 -5 -341
131 -439 38 -27 45 -29 103 -22 81 8 150 -9 214 -53 l50 -34 -15 29 c-24 47
-67 93 -113 123 -53 33 -45 38 72 48 l80 7 -50 24 c-37 17 -68 23 -127 24 -42
1 -73 5 -69 9 5 5 35 17 67 27 l59 19 -113 -2 c-109 -2 -112 -2 -90 15 46 36
131 60 233 67 l100 7 -54 17 c-30 9 -75 17 -100 17 -26 0 -41 4 -35 9 22 20
86 34 184 40 l105 7 -39 18 c-21 9 -60 20 -86 23 -77 9 -81 16 -35 63 36 37
108 95 175 142 33 22 13 22 -76 -2z"/>
<path d="M1410 3978 c-47 -25 -98 -48 -114 -52 -54 -13 -12 -26 109 -32 l120
-7 70 33 c39 18 95 40 125 50 l55 18 -40 12 c-22 6 -85 14 -140 17 l-100 5
-85 -44z m150 13 c0 -5 -9 -19 -20 -32 -15 -19 -19 -21 -20 -7 0 9 -3 23 -6
32 -5 12 0 16 20 16 14 0 26 -4 26 -9z m55 -1 c22 -35 -44 -78 -131 -87 -46
-5 -53 -3 -63 16 -18 33 -3 44 26 21 49 -38 115 -18 136 43 7 19 22 22 32 7z"/>
<path d="M2420 3958 c-75 -23 -206 -28 -371 -14 -153 13 -253 -15 -383 -108
-85 -60 -116 -75 -178 -82 -74 -8 -145 7 -353 76 -201 66 -306 87 -484 98
l-121 7 -27 -54 c-21 -41 -38 -60 -68 -75 -36 -18 -88 -67 -108 -103 -25 -43
36 -140 122 -195 61 -38 76 -37 55 4 -25 49 -15 129 23 176 76 96 182 136 337
130 128 -6 188 -26 376 -128 163 -89 276 -137 406 -175 94 -28 250 -43 300
-30 28 7 28 8 -18 19 -89 24 -158 105 -158 187 0 57 38 120 94 154 45 27 57
30 135 30 76 0 93 -4 145 -30 80 -40 158 -120 245 -247 74 -110 126 -164 183
-194 28 -14 23 -7 -33 53 -156 165 -178 341 -63 501 9 12 15 21 13 21 -2 -1
-33 -10 -69 -21z"/>
<path d="M3650 3930 c-136 -13 -306 -79 -318 -122 -24 -94 -157 -298 -243
-373 l-34 -30 90 0 c78 -1 97 -4 144 -29 48 -25 141 -107 141 -125 0 -4 61 5
136 20 192 40 353 53 467 39 99 -12 215 -47 288 -86 58 -32 183 -125 244 -183
25 -24 48 -41 50 -39 7 6 -60 132 -107 201 -60 89 -182 207 -263 255 -120 70
-208 94 -370 101 l-140 7 60 19 c82 26 237 24 370 -3 54 -12 101 -20 103 -17
2 2 -40 29 -93 60 -230 136 -428 180 -630 141 -38 -8 -72 -12 -74 -10 -7 6 72
74 117 101 23 14 72 35 108 48 105 37 100 39 -46 25z"/>
<path d="M1220 3557 c0 -43 -24 -91 -56 -112 -25 -17 -46 -20 -149 -20 -66 0
-176 4 -245 8 l-125 8 75 -24 c95 -29 153 -59 212 -108 45 -37 47 -38 50 -17
7 51 100 62 378 46 l125 -7 -73 23 c-87 29 -116 53 -131 109 -6 23 -22 60 -35
82 -25 39 -25 39 -26 12z"/>
<path d="M2631 3357 c-68 -27 -78 -47 -24 -47 52 0 106 -29 118 -64 8 -24 6
-31 -15 -48 -37 -30 -108 -19 -211 33 -136 68 -181 80 -309 85 l-115 4 75 -20
c41 -11 103 -34 137 -50 62 -31 127 -92 120 -113 -11 -36 -141 -9 -313 63
-133 57 -226 81 -339 86 l-100 5 80 -29 c153 -56 306 -148 335 -201 30 -57
-31 -77 -199 -65 -185 13 -423 10 -526 -6 -84 -14 -86 -15 -40 -17 419 -20
813 -122 889 -231 82 -119 36 -219 -111 -239 l-47 -6 39 -15 c64 -23 192 -21
241 5 46 25 99 75 120 116 18 34 31 29 100 -45 84 -89 122 -183 131 -326 3
-51 9 -88 14 -81 16 26 31 186 27 283 -5 98 -10 117 -65 245 -12 27 79 -33
119 -79 73 -82 136 -251 155 -415 6 -54 7 -57 15 -30 4 17 11 89 14 160 8 157
-6 275 -47 399 -16 49 -29 102 -29 118 0 44 28 95 59 108 84 34 176 -74 197
-231 5 -40 9 -49 15 -34 11 29 10 193 -2 245 -17 75 -71 171 -132 236 -76 82
-40 75 51 -10 73 -67 66 -47 -21 61 -126 157 -265 208 -406 150z"/>
<path d="M3735 3204 c-56 -8 -227 -45 -251 -54 -21 -8 -23 -12 -13 -37 17 -46
39 -171 26 -149 -49 79 -102 138 -158 174 -35 23 -70 42 -77 42 -7 0 5 -21 27
-47 82 -99 134 -212 152 -328 9 -56 2 -261 -8 -251 -2 2 -11 37 -19 78 -9 40
-33 109 -54 153 -37 75 -117 195 -131 195 -4 0 0 -19 8 -42 50 -144 55 -313
13 -515 l-12 -58 -27 75 c-15 41 -36 93 -48 114 l-20 39 -5 -99 c-4 -81 -13
-121 -47 -222 -25 -76 -41 -141 -41 -170 0 -55 26 -152 40 -152 6 0 10 26 10
58 0 32 8 74 18 96 l18 40 22 -61 c52 -143 159 -255 355 -372 l37 -23 -55 73
c-77 102 -108 184 -109 279 0 83 15 124 60 159 96 76 259 35 449 -114 136
-106 233 -225 370 -454 82 -138 157 -231 205 -256 26 -14 26 -11 -19 64 -53
87 -86 180 -76 211 20 63 97 38 189 -61 102 -110 173 -277 192 -445 9 -86 17
-68 40 88 35 238 -5 508 -117 786 -35 87 -36 94 -14 67 34 -41 108 -194 136
-280 12 -38 25 -74 29 -78 13 -15 20 183 10 286 -23 245 -100 416 -259 581
-57 59 -68 74 -43 60 52 -29 174 -146 248 -237 100 -122 97 -119 78 -57 -49
166 -105 288 -189 415 -138 207 -306 334 -531 401 -75 22 -112 27 -234 29 -80
2 -158 1 -175 -1z"/>
<path d="M455 3140 c13 -49 60 -113 95 -131 58 -30 133 -39 319 -38 l176 2
-100 13 c-313 42 -374 60 -454 137 -38 37 -42 39 -36 17z"/>
</g>
</svg>
