<?xml version="1.0" standalone="no"?>
<!DOCTYPE svg PUBLIC "-//W3C//DTD SVG 20010904//EN"
 "http://www.w3.org/TR/2001/REC-SVG-20010904/DTD/svg10.dtd">
<svg version="1.0" xmlns="http://www.w3.org/2000/svg"
 width="1709.000000pt" height="639.000000pt" viewBox="0 0 1709.000000 639.000000"
 preserveAspectRatio="xMidYMid meet">

<g transform="translate(0.000000,639.000000) scale(0.100000,-0.100000)"
fill="#000000" stroke="none">
<path d="M6060 6381 c0 -5 5 -13 10 -16 6 -3 10 -2 10 4 0 5 -4 13 -10 16 -5
3 -10 2 -10 -4z"/>
<path d="M10510 6253 c0 -5 4 -15 10 -23 11 -18 25 -7 17 15 -6 15 -27 21 -27
8z"/>
<path d="M10054 6176 c3 -22 15 -49 26 -60 20 -20 20 -20 20 -1 0 11 -12 38
-26 60 l-25 40 5 -39z"/>
<path d="M6232 6148 c2 -6 10 -14 16 -16 7 -2 10 2 6 12 -7 18 -28 22 -22 4z"/>
<path d="M11130 6125 c0 -5 5 -17 10 -25 5 -8 10 -10 10 -5 0 6 -5 17 -10 25
-5 8 -10 11 -10 5z"/>
<path d="M11066 6105 c-9 -24 5 -41 16 -20 7 11 7 20 0 27 -6 6 -12 3 -16 -7z"/>
<path d="M6110 6071 c0 -5 5 -13 10 -16 6 -3 10 -2 10 4 0 5 -4 13 -10 16 -5
3 -10 2 -10 -4z"/>
<path d="M5640 6025 c0 -12 55 -90 74 -106 36 -30 30 -13 -19 50 -43 57 -55
69 -55 56z"/>
<path d="M8320 6014 c0 -17 37 -60 45 -53 3 4 -5 20 -19 35 -14 16 -26 24 -26
18z"/>
<path d="M11261 5998 c0 -7 4 -22 9 -33 8 -18 9 -17 9 7 1 15 -3 30 -9 33 -5
3 -10 0 -9 -7z"/>
<path d="M10657 5974 c-3 -4 -3 -14 2 -23 5 -9 11 -37 14 -63 6 -41 4 -49 -15
-63 -27 -18 -69 -20 -86 -3 -10 10 -15 10 -22 -2 -8 -13 -13 -13 -31 -2 -15
10 -24 11 -32 3 -6 -6 -19 -11 -28 -11 -9 0 -19 -6 -22 -14 -7 -18 23 -116 35
-116 5 0 7 4 4 9 -3 5 1 14 9 21 8 7 15 18 15 24 0 26 46 56 86 56 21 1 57 7
79 15 48 18 55 18 55 5 0 -5 -7 -10 -15 -10 -25 0 -28 -27 -6 -51 12 -13 21
-26 21 -30 0 -4 8 -10 17 -13 14 -6 35 13 38 34 1 3 4 15 9 27 4 12 3 38 -2
57 -11 39 -6 51 15 35 10 -9 13 -8 13 5 0 12 7 14 31 9 24 -5 33 -1 46 17 15
22 17 22 30 4 12 -16 13 -16 11 10 -2 18 -10 31 -23 36 -12 4 -27 15 -34 24
-20 24 -50 20 -61 -9 -5 -14 -21 -30 -35 -37 -22 -10 -28 -8 -40 8 -8 10 -15
25 -15 32 0 7 -4 11 -9 7 -5 -3 -12 -1 -16 5 -7 11 -28 13 -38 4z"/>
<path d="M4270 5961 c0 -10 30 -24 37 -17 3 2 -5 9 -16 16 -12 6 -21 7 -21 1z"/>
<path d="M10965 5930 c-3 -5 1 -10 10 -10 9 0 13 5 10 10 -3 6 -8 10 -10 10
-2 0 -7 -4 -10 -10z"/>
<path d="M4700 5920 c0 -5 5 -10 11 -10 5 0 7 5 4 10 -3 6 -8 10 -11 10 -2 0
-4 -4 -4 -10z"/>
<path d="M11215 5887 c-4 -10 -5 -21 -1 -24 10 -10 18 4 13 24 -4 17 -4 17
-12 0z"/>
<path d="M6410 5860 c6 -11 15 -20 20 -20 6 0 10 9 10 20 0 13 -7 20 -20 20
-18 0 -19 -3 -10 -20z"/>
<path d="M9590 5873 c0 -13 29 -38 35 -31 3 3 -4 13 -15 23 -11 10 -20 13 -20
8z"/>
<path d="M5280 5792 c0 -4 5 -13 12 -20 16 -16 28 -15 28 2 0 8 -7 17 -16 20
-21 8 -24 8 -24 -2z"/>
<path d="M10380 5769 c0 -29 41 -99 47 -82 6 18 -15 79 -33 93 -11 10 -14 8
-14 -11z"/>
<path d="M6500 5773 c0 -16 40 -73 51 -73 13 0 2 39 -19 63 -16 18 -32 23 -32
10z"/>
<path d="M8510 5761 c0 -5 5 -13 10 -16 6 -3 10 -2 10 4 0 5 -4 13 -10 16 -5
3 -10 2 -10 -4z"/>
<path d="M6378 5717 c-15 -12 -13 -14 12 -25 22 -10 28 -19 27 -39 -1 -14 3
-27 8 -29 16 -6 10 87 -6 97 -18 11 -21 11 -41 -4z"/>
<path d="M6880 5683 c0 -17 8 -33 20 -41 23 -14 25 -5 5 22 -8 10 -12 22 -10
27 3 4 1 10 -5 14 -6 4 -10 -5 -10 -22z"/>
<path d="M10710 5666 c0 -8 5 -18 10 -21 6 -3 10 3 10 14 0 12 -4 21 -10 21
-5 0 -10 -6 -10 -14z"/>
<path d="M9330 5641 c0 -5 5 -13 10 -16 6 -3 10 -2 10 4 0 5 -4 13 -10 16 -5
3 -10 2 -10 -4z"/>
<path d="M10400 5640 c0 -5 5 -10 11 -10 5 0 7 5 4 10 -3 6 -8 10 -11 10 -2 0
-4 -4 -4 -10z"/>
<path d="M10643 5624 c-7 -18 23 -47 38 -38 15 9 10 42 -7 48 -22 9 -24 8 -31
-10z"/>
<path d="M11390 5616 c0 -17 14 -29 23 -20 8 8 -3 34 -14 34 -5 0 -9 -6 -9
-14z"/>
<path d="M4384 5605 c22 -17 40 -20 32 -6 -3 5 -16 11 -28 14 -22 6 -22 5 -4
-8z"/>
<path d="M5915 5610 c3 -5 8 -10 11 -10 2 0 4 5 4 10 0 6 -5 10 -11 10 -5 0
-7 -4 -4 -10z"/>
<path d="M10460 5601 c0 -15 5 -21 13 -18 8 3 20 2 27 -3 16 -10 40 -76 40
-109 l0 -24 -25 23 -25 23 -1 -24 c0 -13 -3 -18 -6 -11 -7 18 -20 15 -26 -8
-4 -15 0 -20 16 -22 12 0 28 -2 35 -2 8 -1 19 -8 25 -16 11 -14 19 -16 45 -11
4 1 0 6 -8 11 -12 8 -11 13 8 33 12 13 22 32 22 43 0 24 -80 114 -101 114 -8
0 -20 5 -27 12 -9 9 -12 7 -12 -11z"/>
<path d="M9820 5595 c0 -8 4 -15 10 -15 5 0 7 7 4 15 -4 8 -8 15 -10 15 -2 0
-4 -7 -4 -15z"/>
<path d="M6405 5591 c-3 -5 -1 -12 5 -16 5 -3 10 1 10 9 0 18 -6 21 -15 7z"/>
<path d="M10890 5580 c0 -5 8 -14 18 -19 14 -9 14 -12 4 -19 -10 -7 -7 -11 13
-16 31 -8 40 -3 32 17 -6 17 -67 50 -67 37z"/>
<path d="M5945 5570 c3 -5 8 -10 11 -10 2 0 4 5 4 10 0 6 -5 10 -11 10 -5 0
-7 -4 -4 -10z"/>
<path d="M6475 5570 c-3 -5 -1 -10 5 -10 6 0 8 -4 5 -10 -3 -5 -17 -10 -30
-10 -27 0 -25 -24 1 -34 9 -3 12 -1 9 4 -10 16 31 11 45 -5 9 -10 17 -12 23
-6 6 6 -1 22 -18 45 -30 40 -31 40 -40 26z"/>
<path d="M10020 5575 c0 -5 9 -21 20 -35 11 -14 20 -20 20 -15 0 6 -9 21 -20
35 -11 14 -20 21 -20 15z"/>
<path d="M10778 5548 c-2 -20 -8 -32 -15 -30 -9 1 -13 -11 -13 -38 0 -22 4
-40 10 -40 5 0 7 6 4 13 -8 21 23 42 39 28 11 -8 17 -5 27 17 11 23 13 24 19
9 6 -16 8 -16 24 3 16 19 16 20 -12 20 -28 0 -49 15 -50 35 0 6 -7 11 -15 13
-10 2 -16 -7 -18 -30z"/>
<path d="M11359 5569 c-8 -5 -26 -9 -40 -9 -14 0 -34 -9 -44 -20 -21 -24 -14
-25 28 -6 18 8 48 19 67 24 23 5 29 10 19 14 -9 3 -22 2 -30 -3z"/>
<path d="M8020 5558 c0 -18 18 -34 28 -24 3 4 -2 14 -11 23 -16 16 -17 16 -17
1z"/>
<path d="M8740 5560 c0 -11 48 -60 59 -60 5 0 13 5 16 10 4 6 12 8 18 4 7 -3
-1 5 -18 19 -29 25 -75 41 -75 27z"/>
<path d="M10666 5561 c-3 -4 3 -20 14 -36 24 -37 16 -56 -21 -48 -26 5 -29 3
-29 -21 0 -27 7 -31 35 -20 41 16 62 117 25 127 -11 3 -22 2 -24 -2z"/>
<path d="M6278 5553 c12 -2 32 -2 45 0 12 2 2 4 -23 4 -25 0 -35 -2 -22 -4z"/>
<path d="M5190 5531 c0 -5 5 -13 10 -16 6 -3 10 -2 10 4 0 5 -4 13 -10 16 -5
3 -10 2 -10 -4z"/>
<path d="M10170 5532 c0 -19 19 -52 30 -52 15 0 12 12 -10 40 -11 14 -20 19
-20 12z"/>
<path d="M5975 5520 c3 -5 8 -10 11 -10 2 0 4 5 4 10 0 6 -5 10 -11 10 -5 0
-7 -4 -4 -10z"/>
<path d="M6580 5509 c-13 -8 -13 -10 0 -19 32 -21 55 -5 27 18 -8 7 -18 7 -27
1z"/>
<path d="M5830 5500 c0 -5 5 -10 11 -10 5 0 7 5 4 10 -3 6 -8 10 -11 10 -2 0
-4 -4 -4 -10z"/>
<path d="M6015 5501 c-9 -16 9 -20 23 -5 10 12 10 14 -2 14 -8 0 -17 -4 -21
-9z"/>
<path d="M8886 5498 c16 -28 37 -47 46 -42 5 3 -1 17 -13 30 -24 25 -45 33
-33 12z"/>
<path d="M11112 5494 c-11 -12 -9 -14 8 -14 11 0 20 -7 20 -15 0 -16 25 -21
34 -7 7 11 -5 27 -29 39 -15 8 -23 7 -33 -3z"/>
<path d="M6196 5458 c-9 -35 -7 -41 8 -29 11 9 20 10 35 1 28 -14 27 1 -2 28
-29 27 -33 27 -41 0z"/>
<path d="M10120 5466 c0 -20 19 -31 32 -18 7 7 3 14 -11 21 -17 10 -21 9 -21
-3z"/>
<path d="M10210 5473 c-22 -9 -44 -33 -30 -33 7 0 20 -10 31 -22 l18 -23 1 43
c0 23 -1 42 -2 41 -2 0 -10 -3 -18 -6z"/>
<path d="M10870 5473 c0 -5 5 -15 10 -23 8 -12 10 -11 10 8 0 12 -4 22 -10 22
-5 0 -10 -3 -10 -7z"/>
<path d="M10998 5451 c-24 -24 -23 -26 13 -27 23 -1 27 1 16 8 -9 5 -14 15
-11 23 8 19 3 18 -18 -4z"/>
<path d="M10400 5451 c0 -5 5 -13 10 -16 6 -3 10 -2 10 4 0 5 -4 13 -10 16 -5
3 -10 2 -10 -4z"/>
<path d="M8180 5445 c1 -17 29 -49 37 -41 4 3 -3 16 -15 29 -12 12 -22 17 -22
12z"/>
<path d="M10810 5442 c0 -10 22 -32 32 -32 15 0 8 28 -8 34 -21 8 -24 8 -24
-2z"/>
<path d="M6845 5420 c3 -5 8 -10 11 -10 2 0 4 5 4 10 0 6 -5 10 -11 10 -5 0
-7 -4 -4 -10z"/>
<path d="M10027 5419 c8 -8 16 -8 30 0 16 9 14 10 -11 11 -22 0 -27 -3 -19
-11z"/>
<path d="M10355 5419 c-4 -6 -5 -12 -2 -15 7 -7 37 7 37 17 0 13 -27 11 -35
-2z"/>
<path d="M6266 5404 c-4 -9 -4 -19 -1 -22 2 -3 7 3 11 12 4 9 4 19 1 22 -2 3
-7 -3 -11 -12z"/>
<path d="M10120 5411 c0 -13 29 -35 37 -28 7 8 -15 37 -28 37 -5 0 -9 -4 -9
-9z"/>
<path d="M10759 5415 c-1 -3 -1 -14 -1 -25 0 -50 1 -51 25 -38 12 7 24 14 25
15 6 3 -32 52 -40 53 -5 0 -8 -2 -9 -5z"/>
<path d="M10890 5410 c0 -5 7 -10 16 -10 8 0 12 5 9 10 -3 6 -10 10 -16 10 -5
0 -9 -4 -9 -10z"/>
<path d="M10037 5391 c-16 -6 -17 -9 -4 -19 8 -7 22 -10 31 -6 12 5 19 -2 27
-25 7 -20 17 -31 28 -30 46 7 121 -28 121 -56 0 -15 71 -65 92 -65 25 0 29 26
7 49 -23 25 -25 113 -2 104 12 -5 14 -11 17 -52 1 -8 6 -16 12 -18 7 -2 10
-12 7 -23 -3 -10 4 -27 16 -39 12 -12 21 -29 21 -40 0 -10 9 -21 20 -24 13 -3
20 -14 20 -28 0 -21 -1 -22 -20 -4 -20 18 -20 17 -20 -8 0 -31 -23 -36 -50
-12 -13 12 -23 13 -41 6 -13 -5 -18 -10 -11 -10 7 -1 10 -6 6 -12 -4 -6 -20
-8 -40 -4 -25 4 -34 3 -32 -7 2 -8 -5 -12 -19 -10 -15 2 -23 -2 -23 -12 0 -9
6 -13 14 -10 8 3 23 0 33 -6 16 -10 16 -11 1 -6 -13 4 -18 0 -18 -14 0 -17 -7
-20 -48 -20 -26 0 -53 5 -59 11 -8 8 -17 7 -35 -5 l-23 -16 22 -6 c35 -9 20
-19 -27 -18 -40 1 -41 -1 -35 -25 4 -14 11 -27 16 -29 8 -3 14 -32 6 -32 -2 0
-24 19 -48 42 -24 22 -36 38 -27 35 22 -8 35 12 17 24 -8 5 -24 9 -35 9 -12 0
-24 6 -27 14 -3 7 -19 18 -36 24 -29 10 -31 10 -20 -9 5 -11 17 -23 25 -26 8
-3 14 -18 14 -33 0 -29 12 -45 24 -33 3 3 1 12 -5 20 -9 10 -8 13 4 13 9 0 19
-9 22 -21 4 -11 18 -25 31 -31 13 -6 24 -15 24 -19 0 -17 -120 -32 -270 -33
-101 -1 -115 -3 -118 -18 -3 -14 -13 -18 -45 -18 -31 0 -38 3 -27 10 8 5 23
10 32 10 9 0 20 5 23 11 9 14 -140 5 -159 -10 -8 -7 -65 -16 -128 -21 -112 -9
-227 -26 -343 -50 -69 -14 -250 -8 -305 11 -19 7 -40 20 -47 28 -11 14 -12 14
-13 -3 0 -17 -5 -18 -62 -11 -35 5 -99 10 -143 11 -44 1 -123 5 -175 9 -65 5
-130 3 -205 -7 -165 -22 -257 -23 -305 -2 -22 10 -40 21 -40 26 0 4 -21 8 -47
8 -27 0 -66 5 -88 11 -22 6 -56 10 -75 10 -108 -2 -166 1 -175 9 -7 6 -16 5
-23 -2 -9 -9 -19 -5 -40 15 -31 30 -42 34 -42 13 0 -7 10 -17 23 -21 19 -6 20
-8 4 -12 -10 -3 -30 4 -44 14 -84 59 -113 75 -113 64 0 -6 9 -15 21 -21 11 -7
29 -20 40 -31 10 -10 24 -19 29 -19 6 0 10 -4 10 -9 0 -5 -26 -12 -57 -16 -32
-4 -65 -9 -73 -12 -8 -3 -24 -8 -35 -10 -11 -2 -39 -13 -63 -25 -47 -22 -67
-18 -111 24 -27 24 -39 23 -43 -4 -3 -20 -11 -24 -63 -31 -33 -5 -70 -9 -83
-9 -15 0 -22 -5 -18 -13 4 -10 -13 -14 -70 -17 -41 -2 -74 0 -74 4 0 4 -12 5
-27 3 -16 -2 -28 -5 -28 -6 0 -1 -34 -3 -75 -5 -116 -5 -165 -10 -177 -17 -6
-4 -30 -4 -54 -1 -63 8 -81 7 -89 -6 -7 -11 -43 -10 -181 4 -67 7 -117 28
-123 50 -4 14 -9 17 -13 10 -5 -7 -19 -14 -33 -16 -22 -3 -19 -7 33 -37 31
-18 57 -37 57 -43 0 -12 -53 -1 -105 23 -119 55 -181 73 -255 74 -41 1 -91 6
-110 13 -19 6 -75 15 -124 21 -80 10 -92 9 -132 -9 -23 -11 -50 -20 -58 -20
-8 0 -18 -4 -21 -10 -7 -12 -65 -13 -97 -2 -28 10 -118 3 -118 -9 0 -5 9 -9
21 -9 11 0 18 -4 15 -9 -11 -18 -116 -40 -215 -45 -73 -4 -108 -10 -120 -21
-10 -8 -22 -15 -28 -15 -6 0 -13 -4 -15 -9 -1 -5 -32 -15 -68 -21 -118 -22
-120 -23 -80 -30 l35 -6 -53 -12 c-68 -15 -65 -16 -59 9 3 13 1 19 -6 16 -7
-2 -12 -10 -12 -18 0 -11 -16 -14 -66 -15 -37 -1 -72 -5 -78 -8 -20 -13 -11
-28 14 -24 17 4 25 1 25 -8 0 -15 -3 -16 -100 -20 -36 -1 -87 -5 -115 -8 -27
-2 -62 -5 -77 -5 -21 -1 -28 -6 -28 -20 0 -21 21 -33 65 -37 17 -1 57 -9 90
-17 33 -9 73 -18 89 -21 16 -3 31 -7 33 -10 8 -7 -125 -19 -136 -11 -6 3 -11
0 -11 -9 0 -8 12 -17 27 -20 73 -13 135 -19 210 -20 45 -1 85 -5 89 -9 7 -6
-85 -12 -129 -8 -26 3 -20 -18 8 -25 14 -3 25 -9 25 -13 0 -4 15 -8 33 -8 70
-1 352 -11 357 -12 14 -4 -29 -21 -53 -21 -16 0 -26 -4 -23 -9 4 -5 0 -12 -6
-14 -7 -3 16 -3 52 0 36 3 72 9 79 13 8 5 25 4 36 0 12 -5 39 -3 63 3 45 12
65 4 39 -16 -16 -11 -16 -13 3 -25 11 -7 20 -8 20 -3 0 5 10 9 23 9 12 0 40 3
62 6 112 16 125 17 125 7 0 -6 7 -11 16 -11 9 0 14 -6 11 -12 -2 -7 -14 -13
-27 -13 -28 0 -39 -22 -16 -31 9 -3 13 -10 10 -15 -9 -15 45 -34 58 -21 7 7
17 8 28 2 12 -7 21 -5 29 4 12 14 39 15 59 2 7 -4 20 -2 28 5 13 10 17 10 24
-1 5 -7 15 -10 25 -6 10 3 23 1 31 -4 17 -15 -17 -50 -43 -44 -21 6 -79 -21
-65 -30 11 -6 83 12 97 25 5 5 22 9 37 9 22 0 28 -5 28 -21 0 -18 5 -21 30
-17 24 4 30 1 25 -10 -3 -8 0 -12 7 -9 7 2 12 10 11 16 -2 6 6 11 17 11 13 0
18 5 14 15 -4 8 -1 15 5 15 6 0 11 -6 11 -13 0 -15 26 -15 105 1 54 11 95 -3
95 -33 0 -11 7 -14 24 -9 13 3 34 1 45 -6 18 -9 27 -7 54 13 17 14 59 39 92
56 33 18 64 36 70 42 5 5 25 9 45 9 26 0 31 -3 20 -10 -25 -16 14 -13 56 5 26
10 42 12 61 4 20 -8 29 -7 34 4 5 7 39 26 76 42 37 16 73 32 78 36 6 4 23 10
38 13 23 4 27 1 27 -18 0 -12 5 -27 11 -33 18 -18 3 -56 -29 -75 -40 -24 -104
-97 -96 -109 4 -8 10 -7 17 0 6 6 15 11 21 11 5 0 -11 -20 -35 -44 -79 -79
-100 -143 -27 -81 17 14 33 23 37 19 3 -3 -10 -20 -31 -37 -22 -20 -39 -45
-43 -65 -9 -44 -43 -57 -92 -37 -45 19 -93 19 -129 0 -16 -8 -37 -15 -46 -15
-10 0 -24 -13 -33 -30 -16 -31 -32 -42 -21 -15 3 8 2 15 -2 15 -8 0 -31 -25
-92 -99 -52 -62 -143 -151 -171 -167 -11 -5 -17 -13 -13 -17 3 -3 -7 -9 -22
-12 -16 -4 -33 -8 -39 -10 -24 -6 -30 -4 -30 13 0 22 -30 18 -68 -9 -75 -54
-99 -67 -136 -73 -40 -6 -269 -112 -300 -139 -9 -8 -63 -33 -121 -57 -58 -23
-118 -53 -133 -66 -16 -13 -34 -24 -41 -24 -7 0 -38 -13 -69 -30 -32 -17 -72
-30 -91 -30 -19 0 -37 -4 -40 -9 -3 -5 -17 -11 -31 -13 -13 -3 -22 -1 -19 3
16 26 -104 -7 -142 -39 -18 -15 -47 -37 -64 -50 -16 -13 -33 -34 -36 -48 -3
-13 -10 -24 -14 -24 -5 0 -8 -8 -8 -17 1 -10 -2 -34 -6 -53 l-7 -36 60 -18
c56 -17 79 -34 49 -37 -26 -3 69 -21 132 -26 117 -9 186 16 350 127 140 94
169 104 140 49 -14 -26 -22 -170 -10 -188 7 -12 11 -12 24 -2 13 11 19 11 32
0 19 -16 46 -14 124 8 48 14 67 27 145 107 82 84 242 253 272 287 7 8 19 20
28 27 8 7 13 17 10 23 -4 5 -1 9 4 9 6 0 11 -4 11 -10 0 -5 11 -10 25 -10 17
0 23 -4 19 -15 -5 -12 6 -15 67 -15 117 1 129 0 129 -9 0 -4 35 -18 77 -30 42
-12 96 -32 121 -43 37 -18 45 -19 53 -7 7 11 9 11 9 -2 0 -23 25 -31 230 -71
56 -11 78 -26 57 -40 -8 -5 -7 -8 4 -8 9 0 19 -6 22 -14 3 -7 25 -16 49 -20
178 -27 271 -35 393 -37 120 -1 149 2 205 21 82 28 115 45 132 69 12 17 52 43
119 78 15 7 39 29 53 48 42 55 86 100 87 90 0 -6 4 0 9 12 10 25 68 65 82 57
4 -3 8 0 8 5 0 6 5 11 11 11 6 0 43 15 82 34 40 19 79 37 87 41 20 8 54 28 71
42 8 5 52 13 99 17 46 4 98 13 114 21 39 20 63 20 46 1 -6 -8 -10 -25 -8 -38
2 -18 9 -22 28 -20 14 1 30 9 36 17 15 20 82 47 89 36 3 -5 -4 -13 -16 -16
-19 -6 -18 -8 12 -31 18 -13 42 -24 53 -24 23 0 60 -20 39 -20 -23 0 -13 -20
10 -20 22 -1 22 -1 2 -16 -19 -15 -19 -15 8 -9 18 5 27 3 27 -5 0 -17 126 -3
224 26 27 8 51 12 54 10 3 -4 -44 -28 -80 -40 -10 -3 -18 -12 -18 -20 0 -8 -8
-17 -17 -19 -10 -2 7 -2 37 0 30 3 67 8 82 13 19 6 30 5 39 -6 14 -17 80 -19
97 -2 10 10 15 10 22 -2 6 -9 21 -14 42 -12 27 2 30 1 16 -8 -26 -16 -106 -39
-112 -32 -4 3 -6 0 -6 -6 0 -7 -8 -12 -19 -12 -10 0 -24 -7 -31 -15 -10 -12
-8 -15 12 -20 31 -7 73 -1 73 11 0 5 -8 8 -18 7 -10 -2 -15 1 -12 7 12 20 155
47 155 29 0 -5 -7 -9 -15 -9 -8 0 -15 -4 -15 -10 0 -13 6 -13 30 0 15 8 21 6
29 -7 8 -14 13 -15 33 -6 58 28 75 25 34 -8 -31 -25 -25 -73 8 -63 31 9 44 24
21 24 -17 0 -16 2 5 14 30 15 46 10 29 -10 -9 -11 -8 -14 4 -14 9 0 18 4 21 9
10 16 127 25 136 10 7 -10 14 -9 34 4 14 9 38 17 53 17 16 0 38 7 49 15 26 17
34 11 34 -27 0 -23 -4 -28 -17 -24 -28 9 -29 -55 -2 -72 12 -8 24 -10 27 -6 4
4 1 9 -5 11 -7 3 -13 12 -13 20 0 14 3 14 19 -1 11 -10 25 -15 30 -11 14 8 14
-6 1 -39 -6 -17 -17 -26 -32 -27 -18 0 -16 -3 12 -13 30 -11 35 -17 36 -47 1
-19 2 -36 3 -39 1 -3 4 -39 7 -80 5 -66 8 -102 13 -141 1 -8 5 -8 15 0 18 15
27 49 15 57 -14 8 -9 165 5 162 6 -2 12 2 12 7 0 6 -6 9 -12 7 -7 -1 -15 2
-19 8 -3 5 2 10 12 10 14 0 15 2 4 9 -10 6 -12 21 -7 53 7 44 31 68 69 68 13
0 47 35 47 48 0 5 7 17 16 28 13 16 15 16 10 2 -4 -13 0 -18 14 -18 31 0 35 3
33 27 -1 12 4 23 11 26 18 7 14 -62 -4 -73 -20 -13 -40 -12 -40 0 0 19 -18 10
-23 -11 -5 -19 -3 -20 29 -14 l35 6 -15 -30 c-22 -42 -20 -61 7 -61 19 0 22
-5 21 -34 -1 -18 -7 -43 -14 -56 -10 -18 -9 -25 4 -38 9 -9 16 -11 16 -5 0 6
16 13 35 15 19 2 35 0 35 -4 0 -17 15 -7 27 17 10 22 9 25 -10 25 -11 0 -28
-7 -38 -16 -17 -15 -18 -15 -18 2 0 11 -2 42 -4 71 -4 41 -2 50 9 46 8 -3 14
0 14 6 0 6 6 8 14 5 18 -7 9 -34 -11 -34 -8 0 -11 -5 -8 -10 4 -6 15 -8 25 -5
14 5 17 1 13 -22 -3 -24 -1 -22 13 10 13 30 20 36 36 31 11 -3 33 0 49 7 23 9
33 9 42 0 11 -11 0 -16 -32 -11 -15 2 -53 -35 -44 -44 4 -3 19 -6 35 -6 17 0
27 -4 23 -10 -7 -12 12 -12 40 0 18 8 17 9 -7 9 -27 1 -51 21 -26 21 7 0 33
23 57 50 45 52 67 64 56 30 -5 -14 -2 -20 9 -20 9 0 15 5 14 12 -4 18 61 37
95 27 41 -12 45 -18 22 -37 -11 -10 -27 -26 -35 -37 -15 -19 -15 -19 15 -1 57
36 69 46 57 46 -7 0 -10 5 -6 11 4 7 21 9 48 4 22 -3 50 -6 61 -6 11 0 23 -5
26 -11 6 -9 11 -9 21 -1 15 13 131 -2 136 -17 2 -5 11 -6 20 -3 15 6 15 4 4
-10 -8 -9 -22 -19 -33 -22 -36 -12 -8 -25 54 -25 l62 0 19 -60 18 -60 -23 -19
c-29 -24 -18 -38 16 -23 24 11 27 10 41 -23 8 -19 21 -35 28 -35 8 0 24 -13
36 -30 12 -16 28 -30 36 -30 8 0 22 -4 32 -9 65 -33 103 -45 223 -70 47 -10
103 -27 125 -38 25 -12 48 -16 64 -12 49 14 70 10 70 -11 0 -33 69 -172 103
-208 39 -41 90 -68 154 -82 26 -6 65 -18 85 -26 26 -12 50 -14 81 -10 45 7 60
23 69 79 3 17 6 16 38 -7 51 -37 72 -45 171 -62 85 -14 193 -55 214 -79 21
-25 105 -75 125 -75 15 0 20 -5 17 -14 -3 -8 6 -19 21 -27 15 -8 31 -20 35
-26 4 -7 14 -13 22 -13 7 0 15 -4 17 -9 2 -7 26 -19 113 -60 6 -2 4 3 -4 12
-7 10 -10 17 -5 17 4 0 -1 7 -12 15 -12 9 -14 14 -5 15 7 0 11 6 7 15 -6 17 6
19 32 6 9 -6 29 -12 45 -16 37 -8 34 -25 -5 -26 l-33 -2 30 -4 c16 -3 33 -10
37 -16 5 -8 13 -6 26 7 18 15 25 16 64 5 23 -7 48 -16 53 -19 6 -4 47 -11 93
-14 71 -6 83 -5 88 9 4 9 12 14 20 11 9 -3 12 4 12 25 -1 16 -5 29 -11 29 -5
0 -7 7 -3 15 9 25 -106 166 -184 224 -73 55 -95 61 -208 60 -37 0 -250 81
-293 112 -15 10 -30 19 -33 19 -3 0 -35 14 -71 30 -36 17 -70 30 -75 30 -5 0
-21 11 -36 25 -15 14 -36 25 -48 25 -22 1 -56 22 -56 35 0 4 7 4 16 1 8 -3 12
-2 9 3 -3 5 -22 15 -43 21 -55 17 -104 45 -146 85 -21 19 -43 35 -50 35 -7 0
-56 29 -110 65 -53 36 -103 65 -110 65 -19 0 -39 27 -31 41 4 6 1 15 -6 20 -8
5 -16 3 -21 -4 -7 -12 -7 -13 -26 58 -21 82 -40 117 -78 148 -21 17 -42 35
-45 40 -3 5 -9 8 -13 8 -21 -2 -68 14 -78 27 -11 13 -9 15 19 9 26 -5 31 -3
26 8 -3 8 -11 15 -18 15 -7 0 -18 7 -26 16 -8 9 -22 14 -37 11 -14 -3 -39 0
-56 5 -17 5 -37 12 -45 14 -27 8 10 34 50 34 21 0 41 5 44 10 3 6 1 10 -4 10
-26 0 -8 20 23 26 32 6 34 8 24 30 -13 29 -32 32 -23 4 5 -17 2 -20 -24 -20
-39 0 -42 7 -24 51 12 30 18 35 38 31 15 -2 25 0 25 7 0 6 -7 11 -16 11 -19 0
-13 25 7 26 45 3 47 4 42 24 -6 24 9 26 31 4 18 -17 21 -44 6 -44 -5 0 -10 -4
-10 -10 0 -21 22 -9 38 21 16 28 20 30 57 25 l40 -5 -27 15 c-16 8 -29 18 -29
22 -5 25 -6 52 -2 52 2 0 12 -4 22 -9 14 -8 17 -5 19 16 3 37 10 40 18 7 7
-27 20 -43 36 -44 3 0 4 9 1 20 -6 23 0 25 27 8 30 -19 33 -4 11 41 -23 43
-27 81 -11 81 6 0 13 -13 16 -29 8 -38 26 -45 57 -21 23 19 67 18 67 -1 0 -11
11 -11 30 1 12 8 10 14 -15 41 -17 17 -23 29 -15 27 8 -3 23 -1 33 4 16 8 17
7 7 -11 -9 -18 -4 -16 34 9 24 17 48 30 54 30 5 0 14 6 20 13 18 21 168 42
187 27 9 -7 28 -10 47 -6 25 4 56 -3 122 -29 49 -19 94 -35 100 -35 6 0 34
-12 61 -25 28 -14 59 -25 70 -25 11 -1 45 -14 75 -30 30 -17 60 -30 67 -30 6
0 13 -4 15 -10 8 -23 329 45 350 75 25 33 -7 125 -72 211 -21 28 -46 67 -54
85 -9 19 -36 59 -61 89 -25 30 -65 84 -89 120 -24 36 -70 97 -103 135 -57 68
-59 71 -47 100 26 61 10 129 -51 210 -12 17 -26 41 -30 55 -4 14 -22 43 -40
65 -17 22 -45 63 -60 90 -16 28 -40 59 -54 70 -58 47 -64 55 -49 73 31 38 45
89 47 177 2 113 -3 123 -59 106 -23 -7 -44 -11 -46 -9 -2 2 -6 31 -9 64 -4 32
-12 78 -18 101 -10 37 -14 42 -32 36 -11 -4 -35 -6 -53 -5 -43 3 -47 0 -145
-90 -121 -112 -255 -210 -278 -203 -11 4 -19 10 -19 15 0 13 -72 81 -79 75 -3
-3 -1 -9 5 -13 13 -8 25 -88 17 -108 -4 -10 -10 -11 -25 -3 -14 8 -17 14 -9
23 14 17 2 29 -15 15 -8 -7 -14 -7 -19 1 -3 5 -11 10 -17 10 -7 0 -6 -5 2 -14
13 -17 10 -61 -5 -61 -5 0 -15 16 -21 35 -8 22 -19 36 -35 41 -70 18 -118 68
-60 62 11 -2 21 2 21 7 0 13 -23 13 -57 -2 -37 -16 -55 -16 -70 -1 -19 17 -16
26 8 20 13 -3 19 -1 16 6 -2 7 -14 11 -27 9 -13 -1 -30 7 -42 20 -16 19 -21
20 -28 8 -14 -21 -7 -34 20 -40 23 -5 61 -50 42 -50 -29 0 -108 61 -95 74 3 3
0 12 -7 21 -14 17 -60 21 -60 4 0 -6 -7 -17 -15 -26 -14 -13 -19 -12 -46 11
-17 14 -34 26 -39 26 -5 0 -11 14 -15 30 -5 23 -12 30 -30 30 -18 0 -22 -4
-18 -20 4 -14 0 -20 -11 -20 -11 0 -16 7 -15 18 1 9 -1 25 -6 35 -4 9 -5 24
-2 32 4 8 2 17 -3 20 -6 4 -10 19 -10 35 0 16 -5 32 -11 35 -20 13 -21 -4 -4
-48 13 -35 14 -49 5 -66 -6 -12 -15 -19 -21 -16 -5 4 -9 0 -9 -9 0 -8 6 -17
13 -19 7 -4 6 -6 -5 -6 -21 -1 -101 65 -111 92 -6 17 -10 18 -16 8 -5 -7 -14
-10 -20 -7 -6 4 -11 0 -11 -8 0 -9 -5 -16 -11 -16 -8 0 -8 -5 1 -15 7 -8 19
-15 26 -15 9 0 14 -11 14 -30 0 -33 -14 -40 -23 -12 -4 9 -16 29 -28 44 -19
23 -20 30 -9 43 8 10 9 15 1 15 -6 0 -11 11 -11 25 0 22 -31 51 -42 39 -3 -2
-11 2 -18 11 -7 8 -17 15 -23 15 -6 0 -18 7 -28 16 -15 14 -19 13 -39 -15 -24
-35 -61 -41 -96 -16 -12 8 -24 11 -28 8 -3 -3 -15 2 -26 12 -11 10 -23 15 -27
12 -3 -4 -11 -3 -17 2 -6 5 -19 5 -29 2z m483 -231 c0 -5 -8 -10 -17 -10 -15
0 -16 2 -3 10 19 12 20 12 20 0z m130 -20 c0 -5 -5 -10 -12 -10 -6 0 -8 -3 -5
-7 4 -3 29 -5 57 -4 30 1 50 -3 50 -9 0 -6 12 -9 26 -8 16 2 29 -3 32 -11 3
-10 -2 -11 -18 -6 -18 6 -22 4 -17 -7 3 -9 -1 -15 -9 -15 -8 0 -14 6 -14 13 0
7 -8 10 -20 7 -13 -3 -20 -14 -20 -29 0 -13 3 -23 8 -23 18 3 32 -2 32 -11 0
-5 -13 -8 -30 -7 -16 1 -30 7 -30 14 0 6 -16 28 -36 49 -33 33 -38 36 -49 21
-12 -17 -35 -23 -35 -9 1 14 29 57 30 44 0 -10 5 -10 22 2 26 18 38 20 38 6z
m-190 -64 c0 -3 -4 -8 -10 -11 -5 -3 -10 -1 -10 4 0 6 5 11 10 11 6 0 10 -2
10 -4z m406 -6 c8 0 14 -9 14 -20 0 -11 -2 -20 -4 -20 -13 0 -66 23 -66 29 0
14 14 22 28 16 7 -3 20 -5 28 -5z m-576 -30 c0 -5 -4 -10 -10 -10 -5 0 -10 5
-10 10 0 6 5 10 10 10 6 0 10 -4 10 -10z m680 -20 c0 -5 -7 -10 -15 -10 -8 0
-15 5 -15 10 0 6 7 10 15 10 8 0 15 -4 15 -10z m-862 -98 c6 -18 -15 -14 -22
4 -4 10 -1 14 6 12 6 -2 14 -10 16 -16z m-375 -101 c8 -8 -5 -11 -46 -11 -54
0 -67 7 -49 24 10 10 82 0 95 -13z m-4634 -55 c21 -12 18 -13 -38 -12 -61 1
-81 11 -38 19 39 8 52 7 76 -7z m3491 -17 c30 -8 28 -9 -105 -16 -111 -6 -113
-6 -206 0 -86 6 -126 -7 -53 -17 26 -3 62 -6 80 -6 41 0 45 -16 6 -22 -39 -6
-212 13 -212 23 0 5 -7 6 -16 2 -12 -4 -15 -2 -12 8 3 9 19 14 49 13 24 -1 32
1 17 3 -16 2 -28 9 -28 14 0 12 441 10 480 -2z m-3740 -49 c0 -5 -2 -10 -4
-10 -3 0 -8 5 -11 10 -3 6 -1 10 4 10 6 0 11 -4 11 -10z m3110 -14 c0 -3 -4
-8 -10 -11 -5 -3 -10 -1 -10 4 0 6 5 11 10 11 6 0 10 -2 10 -4z m173 -14 c15
-9 27 -19 27 -22 0 -10 -160 -9 -166 1 -3 6 -3 16 0 24 7 20 103 18 139 -3z
m877 3 c14 -17 14 -17 -22 -19 -16 -1 -28 2 -28 6 0 4 -7 5 -15 2 -15 -6 -21
7 -8 19 12 13 60 7 73 -8z m590 5 c0 -5 -25 -10 -56 -10 -34 0 -53 4 -49 10 3
6 28 10 56 10 27 0 49 -4 49 -10z m-841 -20 c11 -6 -8 -10 -59 -11 -41 -1 -79
0 -85 1 -5 2 -17 2 -25 1 -97 -10 -131 -10 -128 1 5 14 47 16 67 4 7 -5 16 -4
20 2 3 5 15 12 26 14 30 7 167 -2 184 -12z m491 0 c-8 -5 -17 -7 -19 -4 -3 3
1 9 9 14 8 5 17 7 19 4 3 -3 -1 -9 -9 -14z m50 -10 c0 -5 -4 -10 -9 -10 -5 0
-11 -7 -15 -15 -4 -11 1 -14 19 -13 14 1 25 7 25 13 0 6 3 6 8 -1 4 -6 17 -16
30 -23 25 -13 31 -36 6 -27 -12 4 -15 2 -10 -9 4 -10 -1 -15 -15 -15 -26 0
-61 -19 -55 -29 3 -4 -7 -6 -22 -3 -24 5 -24 6 -7 13 18 7 17 8 -5 8 -15 1
-30 5 -35 10 -6 5 -21 11 -35 13 l-25 4 30 14 c17 8 33 19 36 24 4 5 12 5 18
2 6 -4 18 6 29 23 17 31 32 40 32 21z m-1080 -25 c0 -12 -19 -12 -23 0 -4 9
-1 12 9 8 7 -3 14 -7 14 -8z m790 5 c0 -5 -4 -10 -10 -10 -5 0 -10 5 -10 10 0
6 5 10 10 10 6 0 10 -4 10 -10z m30 0 c0 -5 -5 -10 -11 -10 -5 0 -7 5 -4 10 3
6 8 10 11 10 2 0 4 -4 4 -10z m390 -50 c0 -24 -6 -25 -26 -6 -19 20 -18 26 6
26 13 0 20 -7 20 -20z m-1227 4 c6 -6 87 -13 160 -13 42 -1 83 -19 71 -31 -5
-5 -43 -11 -84 -13 -120 -5 -136 -28 -35 -47 36 -7 62 -16 59 -21 -3 -5 10 -8
28 -7 18 0 80 -2 138 -6 170 -11 182 -17 138 -63 -24 -26 -64 -30 -93 -9 -11
7 -60 21 -110 30 -142 26 -216 17 -92 -10 50 -11 44 -29 -8 -26 -30 2 -36 0
-25 -7 8 -6 23 -11 33 -11 10 0 16 -4 13 -8 -9 -15 -170 -2 -186 15 -13 13 -7
14 54 9 51 -4 66 -2 58 6 -6 6 -38 12 -71 14 -75 4 -143 22 -138 37 6 19 -74
107 -98 107 -23 0 -18 38 5 45 11 4 43 5 70 4 27 -2 53 0 56 4 9 9 48 9 57 1z
m357 -24 c-14 -7 -82 -14 -105 -10 -5 1 -1 5 10 9 27 11 114 12 95 1z m-4402
-22 c-5 -13 -58 -31 -58 -20 0 7 37 28 53 31 5 0 7 -4 5 -11z m4957 -8 c3 -5
-1 -10 -10 -10 -9 0 -13 5 -10 10 3 6 8 10 10 10 2 0 7 -4 10 -10z m445 -19
c0 -3 -24 -7 -53 -9 -34 -2 -49 0 -42 7 18 17 95 20 95 2z m-223 -7 c-3 -3
-12 -4 -19 -1 -8 3 -5 6 6 6 11 1 17 -2 13 -5z m-5487 -14 c0 -5 -4 -10 -10
-10 -5 0 -10 5 -10 10 0 6 5 10 10 10 6 0 10 -4 10 -10z m3134 -4 c-10 -8 -21
-12 -24 -10 -5 6 21 24 34 24 6 0 1 -6 -10 -14z m2436 -46 c0 -5 -9 -10 -20
-10 -11 0 -20 5 -20 10 0 6 9 10 20 10 11 0 20 -4 20 -10z m162 -32 c-9 -9
-15 -9 -24 0 -9 9 -7 12 12 12 19 0 21 -3 12 -12z m381 -53 c7 -15 -16 -23
-95 -34 -46 -6 -55 -5 -47 6 13 15 78 35 91 27 4 -3 8 -1 8 3 0 14 38 13 43
-2z m-2575 -7 c16 5 16 5 0 -11 -17 -17 -48 -23 -48 -9 0 14 24 34 28 23 2 -5
11 -7 20 -3z m2681 -2 c-12 -10 -49 -16 -49 -7 0 5 10 11 23 13 22 4 34 1 26
-6z m-3199 -21 c0 -8 -4 -15 -9 -15 -13 0 -22 16 -14 24 11 11 23 6 23 -9z
m442 -7 c-7 -7 -12 -8 -12 -2 0 14 12 26 19 19 2 -3 -1 -11 -7 -17z m118 8 c0
-2 -9 -6 -20 -9 -11 -3 -18 -1 -14 4 5 9 34 13 34 5z m2365 -6 c3 -6 -1 -7 -9
-4 -18 7 -21 14 -7 14 6 0 13 -4 16 -10z m-2655 -19 c0 -13 -9 -21 -30 -26
-34 -7 -41 -36 -15 -61 8 -9 15 -20 15 -25 0 -15 -17 -10 -24 8 -6 14 -8 14
-21 -3 -8 -10 -15 -16 -15 -11 0 4 -14 0 -32 -9 l-31 -16 21 27 c12 15 22 32
22 37 0 6 11 23 25 40 14 16 25 36 25 44 0 9 11 14 30 14 23 0 30 -5 30 -19z
m1615 9 c-4 -7 3 -8 21 -4 19 5 25 4 20 -5 -4 -6 0 -18 9 -27 15 -15 14 -19
-11 -45 -14 -15 -33 -25 -40 -22 -17 6 -19 23 -2 23 6 0 8 3 5 7 -14 13 -167
40 -216 38 -28 -2 -51 1 -51 5 0 5 25 10 55 12 30 1 55 0 55 -4 0 -5 18 -8 41
-8 36 0 40 2 34 20 -6 18 -2 20 40 20 29 0 44 -4 40 -10z m-391 -21 c-3 -5
-18 -9 -33 -9 -16 0 -48 -7 -71 -15 -23 -8 -46 -15 -51 -15 -18 0 -3 25 21 37
28 14 142 15 134 2z m-1335 -20 c-22 -14 -33 -10 -19 6 7 8 17 12 22 9 6 -4 5
-10 -3 -15z m3190 11 c-22 -13 -98 -20 -104 -10 -6 9 27 16 85 18 25 1 31 -1
19 -8z m-5699 -10 c0 -5 -7 -10 -16 -10 -8 0 -12 5 -9 10 3 6 10 10 16 10 5 0
9 -4 9 -10z m3649 -38 c-14 -22 -48 -46 -56 -38 -3 2 9 19 27 36 34 33 49 35
29 2z m162 -6 c-20 -11 -20 -12 13 -24 19 -7 38 -12 43 -11 31 5 83 -2 77 -12
-3 -6 -17 -9 -30 -6 -18 3 -29 -3 -45 -27 -15 -23 -37 -36 -79 -49 -63 -20
-84 -16 -75 14 5 15 1 19 -16 19 l-22 0 20 23 c11 12 23 30 26 40 4 10 11 16
17 12 5 -3 19 5 31 18 14 17 27 23 41 19 20 -5 20 -5 -1 -16z m-1784 -12 c-3
-18 -1 -24 9 -20 8 3 14 1 14 -5 0 -5 -8 -13 -17 -16 -10 -4 -25 -15 -34 -25
-17 -19 -72 -58 -109 -78 -16 -8 -20 -8 -20 4 0 8 9 18 21 21 11 4 27 22 35
41 8 19 32 46 54 60 22 15 40 31 40 35 0 5 3 9 6 9 4 0 4 -12 1 -26z m320 0
c-9 -9 -28 6 -21 18 4 6 10 6 17 -1 6 -6 8 -13 4 -17z m758 16 c18 -8 17 -9
-7 -9 -18 -1 -28 -6 -28 -17 0 -8 -4 -12 -10 -9 -5 3 -10 15 -10 26 0 20 20
24 55 9z m565 -10 c0 -5 -2 -10 -4 -10 -3 0 -8 5 -11 10 -3 6 -1 10 4 10 6 0
11 -4 11 -10z m750 -10 c-20 -13 -33 -13 -25 0 3 6 14 10 23 10 15 0 15 -2 2
-10z m-1680 -18 c0 -4 -9 -8 -20 -8 -11 0 -20 4 -20 8 0 4 9 8 20 8 11 0 20
-4 20 -8z m1678 -34 c-2 -23 1 -33 12 -35 8 -1 40 -5 71 -8 55 -6 57 -7 62
-38 2 -18 1 -39 -4 -48 -11 -21 25 -33 52 -18 10 5 40 11 66 13 25 2 51 10 57
18 17 22 44 29 50 12 4 -9 21 -14 52 -14 26 0 44 -3 41 -6 -8 -8 -119 -54
-130 -54 -4 0 -22 -16 -39 -35 -17 -20 -33 -33 -37 -30 -3 3 1 10 9 16 22 14
-2 26 -69 34 -31 4 -66 13 -77 20 -12 8 -37 18 -55 23 -42 10 -39 28 4 24 26
-3 30 -1 19 10 -7 7 -32 17 -55 23 -29 7 -41 15 -39 26 1 12 -15 21 -63 34
-66 19 -91 40 -33 28 28 -6 31 -4 26 15 -6 20 -2 22 39 22 44 0 44 0 41 -32z
m-1838 -7 c0 -12 -20 -25 -27 -18 -7 7 6 27 18 27 5 0 9 -4 9 -9z m-535 -11
c-3 -5 -12 -10 -19 -10 -8 0 -14 -6 -13 -12 1 -33 -4 -48 -16 -48 -8 0 -22 -9
-32 -20 -10 -11 -22 -20 -27 -20 -17 0 -7 21 22 50 17 16 30 32 30 36 0 10 33
33 48 34 7 0 10 -4 7 -10z m477 -22 c-9 -9 -12 -7 -12 12 0 19 3 21 12 12 9
-9 9 -15 0 -24z m518 22 c0 -5 -5 -10 -11 -10 -5 0 -7 5 -4 10 3 6 8 10 11 10
2 0 4 -4 4 -10z m80 6 c0 -3 -4 -8 -10 -11 -5 -3 -10 -1 -10 4 0 6 5 11 10 11
6 0 10 -2 10 -4z m790 -35 c0 -5 12 -11 28 -13 l27 -3 -35 -22 c-20 -14 -37
-18 -40 -12 -4 5 -19 -2 -34 -16 -16 -15 -35 -24 -43 -21 -10 4 -13 1 -8 -13
3 -11 1 -22 -4 -26 -7 -3 -8 0 -5 9 8 22 -3 20 -34 -4 -19 -16 -27 -18 -33 -8
-6 9 -10 8 -15 -6 -4 -11 -2 -21 7 -27 24 -15 -12 -10 -40 5 l-25 14 35 31
c18 17 39 29 46 26 7 -2 13 2 13 11 0 9 20 24 48 35 26 11 58 26 72 34 29 17
40 18 40 6z m-1203 -34 c4 -21 3 -21 -11 -2 -8 11 -12 24 -9 28 7 12 16 0 20
-26z m73 9 c0 -3 -4 -8 -10 -11 -5 -3 -10 -1 -10 4 0 6 5 11 10 11 6 0 10 -2
10 -4z m290 0 c0 -9 -40 -13 -46 -5 -3 5 6 9 20 9 14 0 26 -2 26 -4z m171 -16
c6 0 7 -4 4 -10 -3 -5 -22 -9 -42 -8 -33 1 -34 3 -17 15 10 7 25 11 32 8 8 -3
18 -5 23 -5z m-241 -12 c0 -15 -36 -44 -48 -40 -7 2 -19 -2 -27 -8 -8 -7 -22
-10 -30 -6 -8 3 -15 1 -15 -4 0 -6 -4 -10 -10 -10 -5 0 -10 9 -10 20 0 22 42
50 48 31 6 -17 19 -13 25 9 4 15 12 19 36 17 17 -1 31 -5 31 -9z m-1082 -29
c-1 -17 -4 -25 -8 -18 -7 10 -2 49 5 49 2 0 3 -14 3 -31z m692 11 c-6 -11 -18
-20 -28 -20 -13 0 -12 4 8 20 31 25 33 25 20 0z m510 -19 c-11 -7 -20 -21 -20
-30 1 -14 2 -14 14 2 16 21 30 22 22 1 -5 -12 -1 -14 15 -9 18 6 19 5 10 -13
-6 -11 -24 -23 -41 -27 -16 -4 -30 -12 -30 -20 0 -7 -7 -18 -15 -25 -21 -17
-19 -4 4 34 24 39 14 69 -15 45 -9 -8 -25 -13 -34 -11 -9 1 -25 -7 -35 -18
-10 -11 -26 -20 -37 -20 -10 0 -18 -4 -18 -9 0 -13 -53 -38 -69 -33 -9 3 -7 9
6 24 13 15 15 22 6 25 -31 11 -3 30 117 78 72 29 77 31 103 20 12 -5 17 -2 17
11 0 16 2 17 10 4 7 -11 5 -19 -10 -29z m-390 14 c0 -17 -25 -20 -35 -5 -3 6
1 7 9 4 9 -3 16 -1 16 5 0 6 2 11 5 11 3 0 5 -7 5 -15z m-656 -29 c-3 -9 -15
-16 -26 -16 -11 0 -28 -10 -38 -22 -14 -18 -22 -20 -40 -12 -20 9 -17 12 41
42 34 18 64 31 66 29 2 -2 1 -12 -3 -21z m-124 -11 c-7 -9 -15 -13 -17 -11 -7
7 7 26 19 26 6 0 6 -6 -2 -15z m1250 -20 c-7 -9 -15 -13 -18 -10 -3 2 1 11 8
20 7 9 15 13 18 10 3 -2 -1 -11 -8 -20z m1760 1 c0 -13 -7 -29 -15 -36 -25
-21 -17 -30 24 -30 43 0 62 -23 32 -39 -13 -8 -154 -15 -205 -12 -5 1 -1 10 8
20 17 18 16 20 -6 27 -13 4 -34 9 -48 10 -36 2 -36 3 -15 18 30 21 154 55 161
45 3 -5 15 -2 27 6 30 21 37 19 37 -9z m-2420 -1 c0 -8 -2 -15 -4 -15 -2 0 -6
7 -10 15 -3 8 -1 15 4 15 6 0 10 -7 10 -15z m1680 -15 c0 -7 -48 -20 -75 -20
-8 0 -11 8 -8 18 3 14 12 17 44 14 21 -2 39 -8 39 -12z m-110 0 c0 -5 -4 -10
-9 -10 -5 0 -11 -6 -14 -14 -4 -10 0 -12 14 -9 10 3 26 2 35 -1 13 -5 14 -9 4
-21 -9 -10 -24 -13 -55 -8 -47 6 -95 -2 -95 -16 0 -5 31 -7 69 -4 53 3 72 0
84 -12 9 -8 25 -15 37 -15 13 0 20 -5 18 -12 -3 -7 2 -20 10 -28 11 -10 17
-11 19 -3 5 13 31 6 51 -13 16 -17 15 -19 -5 -21 -37 -3 -93 -21 -107 -35 -8
-8 -36 -20 -63 -27 -26 -7 -55 -16 -64 -21 -9 -5 -34 -12 -55 -15 -22 -4 -54
-16 -73 -27 -37 -21 -36 -21 -45 8 -5 16 0 23 20 32 14 7 29 10 34 7 5 -3 11
-1 15 5 3 5 37 25 74 44 52 26 71 32 80 23 9 -9 11 -7 5 8 -5 16 -4 17 6 9 9
-9 17 -7 31 7 10 10 26 19 35 19 22 0 11 25 -12 26 -10 0 -29 4 -41 8 -27 9
-71 -5 -170 -50 -78 -37 -88 -40 -77 -23 4 7 7 25 6 41 0 17 5 31 14 35 8 3
14 11 14 18 0 18 69 49 102 46 14 -1 29 3 33 9 3 5 11 8 16 5 8 -6 11 2 8 21
-1 9 23 24 39 24 6 0 12 -4 12 -10z m-1620 -20 c0 -5 -4 -10 -10 -10 -5 0 -10
5 -10 10 0 6 5 10 10 10 6 0 10 -4 10 -10z m-35 -20 c-3 -5 -13 -10 -21 -10
-8 0 -12 5 -9 10 3 6 13 10 21 10 8 0 12 -4 9 -10z m770 0 c-3 -5 -13 -10 -21
-10 -8 0 -12 5 -9 10 3 6 13 10 21 10 8 0 12 -4 9 -10z m-1206 -17 c-7 -7 -20
-11 -31 -7 -11 3 -17 1 -16 -6 4 -17 -33 -39 -39 -22 -3 6 -9 12 -14 12 -6 0
-7 -4 -4 -10 6 -10 -53 -69 -71 -70 -6 0 -30 -13 -52 -30 -42 -30 -72 -39 -72
-20 0 6 9 10 20 10 13 0 20 7 20 18 0 23 52 54 77 46 15 -6 16 -4 6 7 -18 18
-16 32 2 25 8 -3 15 0 15 6 0 34 62 64 73 36 3 -10 9 -9 22 4 22 21 81 22 64
1z m266 -3 c3 -5 12 -7 20 -3 8 3 15 0 15 -6 0 -6 -13 -14 -30 -17 -16 -4 -35
-13 -41 -20 -6 -8 -18 -14 -25 -14 -18 0 -6 30 21 52 23 20 32 22 40 8z m930
-10 c-3 -5 -12 -10 -18 -10 -7 0 -6 4 3 10 19 12 23 12 15 0z m1030 -10 c-3
-5 -12 -10 -20 -10 -8 0 -17 5 -20 10 -4 6 5 10 20 10 15 0 24 -4 20 -10z
m-1325 -15 c-7 -9 -15 -13 -19 -10 -3 3 1 10 9 15 21 14 24 12 10 -5z m940
-25 c-9 -17 -14 -20 -20 -9 -6 8 -2 17 8 25 22 16 26 11 12 -16z m915 20 c-3
-5 -12 -10 -18 -10 -7 0 -6 4 3 10 19 12 23 12 15 0z m-2785 -39 c0 -5 -7 -11
-15 -15 -15 -5 -20 5 -8 17 9 10 23 9 23 -2z m3060 -6 c0 -8 -7 -15 -16 -15
-14 0 -14 3 -4 15 7 8 14 15 16 15 2 0 4 -7 4 -15z m-2960 -15 c0 -5 -4 -10
-10 -10 -5 0 -10 5 -10 10 0 6 5 10 10 10 6 0 10 -4 10 -10z m2285 -10 c-3 -5
-11 -10 -16 -10 -6 0 -7 5 -4 10 3 6 11 10 16 10 6 0 7 -4 4 -10z m589 -25
c-25 -19 -44 -19 -44 0 0 10 10 15 32 15 30 0 31 -1 12 -15z m-1634 -25 c23
15 34 12 20 -5 -7 -8 -18 -15 -24 -15 -6 0 -17 -9 -23 -19 -16 -25 -73 -54
-73 -37 0 7 11 19 25 26 14 7 25 17 25 22 0 4 7 8 15 8 9 0 12 6 9 18 -4 11
-3 13 3 5 6 -8 14 -9 23 -3z m1730 2 c0 -4 -9 -8 -20 -9 -11 -1 -18 2 -15 8 7
11 35 12 35 1z m-664 -27 c-3 -9 -11 -13 -16 -10 -8 5 -7 11 1 21 14 18 24 11
15 -11z m-2489 -15 c-1 -14 -8 -20 -24 -20 -13 0 -23 5 -23 10 0 6 7 10 15 10
8 0 15 5 15 10 0 6 4 10 9 10 6 0 9 -9 8 -20z m2447 -10 c-13 -12 -74 -23 -74
-13 1 22 20 35 44 31 15 -3 26 -1 27 6 0 6 3 5 6 -2 3 -8 1 -17 -3 -22z m-96
-17 c2 -8 -6 -13 -22 -13 -15 0 -26 6 -26 14 0 17 42 16 48 -1z m517 -3 c-32
-21 -45 -25 -45 -12 0 9 39 29 60 31 8 0 2 -8 -15 -19z m-2942 -15 c-3 -9 -8
-14 -10 -11 -3 3 -2 9 2 15 9 16 15 13 8 -4z m2367 5 c0 -5 -3 -10 -7 -11 -16
-1 -38 -7 -55 -14 -10 -4 -18 -3 -18 3 0 6 12 15 28 20 36 14 52 14 52 2z
m-340 -9 c0 -6 -4 -12 -9 -15 -13 -8 -42 4 -35 15 7 12 44 12 44 0z m2365 -54
c-4 -20 -14 -38 -22 -41 -8 -3 -13 -3 -11 1 2 5 10 25 17 45 18 45 25 43 16
-5z m-1750 24 c-15 -13 -65 -23 -65 -12 0 5 12 12 28 14 15 2 31 5 37 6 6 0 6
-2 0 -8z m2415 -68 c0 -10 -32 -43 -42 -43 -5 0 -1 11 9 25 17 23 33 32 33 18z
m-2594 -22 c-3 -4 -18 -11 -33 -14 -16 -3 -36 -9 -45 -12 -10 -4 -18 -3 -18 3
0 6 19 15 43 20 57 13 59 13 53 3z m1894 0 c0 -6 -4 -13 -10 -16 -5 -3 -10 1
-10 9 0 9 5 16 10 16 6 0 10 -4 10 -9z m496 -28 c-10 -10 -19 5 -10 18 6 11 8
11 12 0 2 -7 1 -15 -2 -18z m97 -40 c6 -32 3 -38 -12 -28 -13 8 -15 55 -2 55
5 0 11 -12 14 -27z m-2433 -14 c0 -5 -4 -9 -10 -9 -5 0 -10 7 -10 16 0 8 5 12
10 9 6 -3 10 -10 10 -16z m2133 -100 c-3 -12 -9 -17 -15 -11 -10 10 0 44 12
37 5 -3 6 -14 3 -26z m-2718 -9 c-3 -5 -12 -7 -20 -3 -21 7 -19 13 6 13 11 0
18 -4 14 -10z m-50 -10 c-3 -5 -15 -10 -25 -10 -10 0 -21 -4 -24 -9 -7 -11
-56 -21 -56 -10 0 7 74 37 98 38 7 1 10 -3 7 -9z m2760 -72 c-4 -18 -12 -38
-17 -45 -5 -7 -7 -17 -3 -23 4 -6 -1 -18 -11 -25 -11 -8 -15 -15 -11 -15 13 0
-44 -50 -58 -50 -6 0 -20 7 -31 15 -10 8 -29 15 -40 15 -12 0 -27 7 -34 15
-10 12 -9 15 5 15 10 0 33 17 52 38 l35 37 -21 -37 c-11 -21 -18 -38 -16 -38
16 0 55 26 55 36 0 15 19 29 27 20 3 -3 -2 -17 -11 -31 -10 -15 -16 -34 -14
-43 2 -11 14 3 32 38 15 30 34 62 42 71 8 8 14 21 14 27 0 7 3 12 6 12 3 0 2
-15 -1 -32z m-455 13 c0 -12 -20 -25 -27 -18 -7 7 6 27 18 27 5 0 9 -4 9 -9z
m424 -6 c-4 -8 -8 -15 -10 -15 -2 0 -4 7 -4 15 0 8 4 15 10 15 5 0 7 -7 4 -15z
m-204 -10 c0 -16 -26 -55 -37 -55 -17 0 -17 -17 0 -23 7 -4 6 -6 -5 -6 -9 -1
-24 2 -32 5 -14 5 -13 9 6 29 13 13 29 30 36 39 12 15 32 22 32 11z m-1705
-25 c3 -5 -3 -10 -14 -10 -11 0 -23 -4 -26 -10 -8 -13 -35 -13 -35 -1 0 5 12
14 28 19 36 14 40 14 47 2z m124 -46 c-14 -18 -24 -11 -15 11 3 9 11 13 16 10
8 -5 7 -11 -1 -21z m-842 -20 c-3 -3 -12 -4 -19 -1 -8 3 -5 6 6 6 11 1 17 -2
13 -5z m440 -100 c-3 -3 -12 -4 -19 -1 -8 3 -5 6 6 6 11 1 17 -2 13 -5z m263
-59 c0 -3 -9 -5 -20 -5 -11 0 -20 7 -20 15 0 13 4 14 20 5 11 -6 20 -13 20
-15z m280 -42 c0 -30 -17 -50 -31 -36 -8 8 -6 16 8 31 23 26 23 26 23 5z m280
-33 c0 -5 -7 -7 -15 -4 -8 4 -15 8 -15 10 0 2 7 4 15 4 8 0 15 -4 15 -10z
m120 -50 c0 -5 -2 -10 -4 -10 -3 0 -8 5 -11 10 -3 6 -1 10 4 10 6 0 11 -4 11
-10z m-174 -18 c1 -7 0 -8 -2 -3 -3 6 -12 7 -21 4 -11 -4 -14 -3 -9 6 9 14 29
10 32 -7z m253 -3 c-9 -17 -13 -19 -19 -8 -11 16 -4 29 16 29 12 0 13 -4 3
-21z m1245 -194 c10 -28 -17 -27 -40 1 -13 16 -23 32 -24 36 0 12 58 -22 64
-37z m194 -410 l12 -30 -24 29 c-14 17 -22 34 -19 39 7 11 16 0 31 -38z"/>
<path d="M5253 5373 c9 -9 20 -13 24 -9 4 4 1 11 -7 16 -25 16 -35 11 -17 -7z"/>
<path d="M5382 5379 c5 -17 48 -25 48 -10 0 6 -4 11 -9 11 -5 0 -17 3 -27 7
-12 4 -15 2 -12 -8z"/>
<path d="M6744 5371 c9 -10 14 -24 11 -32 -3 -9 6 -21 25 -32 16 -10 30 -15
30 -12 0 14 -62 95 -72 95 -6 0 -4 -8 6 -19z"/>
<path d="M9040 5372 c0 -5 7 -13 16 -16 10 -4 14 -1 12 6 -5 15 -28 23 -28 10z"/>
<path d="M9559 5359 c27 -22 49 -26 32 -5 -6 8 -22 16 -34 19 -22 6 -22 6 2
-14z"/>
<path d="M9793 5363 c9 -9 20 -13 24 -9 4 4 1 11 -7 16 -25 16 -35 11 -17 -7z"/>
<path d="M10205 5370 c-3 -5 -1 -10 4 -10 6 0 11 5 11 10 0 6 -2 10 -4 10 -3
0 -8 -4 -11 -10z"/>
<path d="M5653 5355 c16 -9 31 -14 35 -11 8 9 0 14 -33 21 l-30 6 28 -16z"/>
<path d="M6990 5357 c0 -8 9 -22 20 -32 23 -20 24 -17 10 19 -10 27 -30 35
-30 13z"/>
<path d="M7327 5340 c8 -17 19 -28 24 -25 10 7 -18 55 -31 55 -5 0 -2 -14 7
-30z"/>
<path d="M10650 5362 c0 -5 14 -21 30 -35 36 -33 41 -14 4 19 -27 26 -34 29
-34 16z"/>
<path d="M11095 5360 c-3 -5 -1 -10 4 -10 6 0 11 5 11 10 0 6 -2 10 -4 10 -3
0 -8 -4 -11 -10z"/>
<path d="M6904 5345 c-3 -8 -3 -19 1 -25 11 -18 25 -11 25 15 0 27 -17 34 -26
10z"/>
<path d="M9510 5330 c34 -30 75 -41 68 -17 -5 13 -38 31 -78 41 -23 6 -22 4
10 -24z"/>
<path d="M6630 5340 c0 -3 10 -12 21 -20 42 -29 80 -75 75 -92 -2 -10 0 -21 5
-24 5 -3 9 0 9 5 0 6 7 11 15 11 13 0 13 3 3 20 -11 17 -10 22 2 30 8 5 11 13
6 17 -5 4 -11 2 -13 -4 -3 -7 -13 -13 -23 -13 -14 0 -23 12 -31 40 -11 35 -15
40 -41 38 -15 -1 -28 -5 -28 -8z"/>
<path d="M7102 5328 c7 -13 11 -31 9 -42 -4 -29 22 -14 30 18 6 23 4 28 -17
37 -35 13 -36 12 -22 -13z"/>
<path d="M10037 5324 c9 -15 19 -21 21 -15 4 13 -16 41 -29 41 -5 0 -2 -12 8
-26z"/>
<path d="M10825 5339 c4 -5 4 -21 1 -35 -5 -19 -11 -24 -26 -19 -17 6 -20 2
-20 -29 0 -47 13 -45 46 4 26 39 28 90 3 90 -6 0 -7 -5 -4 -11z"/>
<path d="M6255 5329 c-4 -6 -5 -13 -2 -16 8 -7 47 7 47 18 0 13 -37 11 -45 -2z"/>
<path d="M7260 5330 c0 -5 5 -10 11 -10 5 0 7 5 4 10 -3 6 -8 10 -11 10 -2 0
-4 -4 -4 -10z"/>
<path d="M9950 5326 c0 -8 5 -18 10 -21 6 -3 10 1 10 9 0 8 -4 18 -10 21 -5 3
-10 -1 -10 -9z"/>
<path d="M11180 5322 c0 -5 7 -15 15 -22 8 -7 15 -8 15 -2 0 5 -7 15 -15 22
-8 7 -15 8 -15 2z"/>
<path d="M6020 5313 c8 -3 18 -11 22 -17 5 -7 8 -4 8 7 0 11 -7 17 -22 16 -16
0 -18 -2 -8 -6z"/>
<path d="M9590 5311 c0 -6 9 -15 20 -21 13 -7 20 -7 20 -1 0 6 -9 15 -20 21
-13 7 -20 7 -20 1z"/>
<path d="M11396 5311 c-3 -5 1 -14 8 -20 16 -13 32 2 21 19 -8 12 -22 13 -29
1z"/>
<path d="M8290 5301 c0 -21 13 -41 26 -41 17 0 17 5 4 31 -11 20 -30 26 -30
10z"/>
<path d="M9986 5278 c3 -24 21 -48 66 -90 33 -32 67 -58 75 -58 8 0 11 -5 7
-12 -4 -7 -3 -8 4 -4 25 15 -32 97 -86 123 -27 13 -38 25 -40 46 -2 15 -9 27
-17 27 -9 0 -12 -10 -9 -32z"/>
<path d="M11274 5299 c22 -5 43 -6 47 -2 4 5 -13 9 -39 10 l-47 1 39 -9z"/>
<path d="M7325 5278 c18 -24 44 -43 50 -36 1 2 -14 17 -34 33 -35 30 -35 30
-16 3z"/>
<path d="M10600 5286 c0 -8 5 -18 10 -21 6 -3 10 1 10 9 0 8 -4 18 -10 21 -5
3 -10 -1 -10 -9z"/>
<path d="M5745 5270 c80 -28 105 -41 105 -57 0 -21 18 -15 26 9 8 26 -17 48
-45 41 -11 -3 -27 0 -37 5 -11 5 -39 12 -64 16 -44 6 -44 5 15 -14z"/>
<path d="M5934 5279 c-3 -6 0 -15 7 -20 14 -8 32 9 23 23 -7 11 -22 10 -30 -3z"/>
<path d="M5990 5284 c0 -10 33 -33 48 -34 18 0 15 27 -4 34 -20 8 -44 8 -44 0z"/>
<path d="M7045 5280 c3 -5 8 -10 11 -10 2 0 4 5 4 10 0 6 -5 10 -11 10 -5 0
-7 -4 -4 -10z"/>
<path d="M5885 5270 c3 -5 11 -10 16 -10 6 0 7 5 4 10 -3 6 -11 10 -16 10 -6
0 -7 -4 -4 -10z"/>
<path d="M6141 5271 c-10 -6 -10 -10 -1 -16 13 -8 24 -1 19 14 -3 6 -10 7 -18
2z"/>
<path d="M9315 5270 c-3 -5 -3 -15 1 -21 6 -11 23 6 24 24 0 10 -18 9 -25 -3z"/>
<path d="M10947 5273 c-14 -13 -6 -33 13 -33 11 0 20 5 20 11 0 6 -7 9 -14 6
-10 -4 -13 -1 -9 9 5 15 1 18 -10 7z"/>
<path d="M7150 5260 c8 -5 20 -10 25 -10 6 0 3 5 -5 10 -8 5 -19 10 -25 10 -5
0 -3 -5 5 -10z"/>
<path d="M9220 5260 c0 -5 5 -10 11 -10 5 0 7 5 4 10 -3 6 -8 10 -11 10 -2 0
-4 -4 -4 -10z"/>
<path d="M9390 5251 c0 -6 5 -13 10 -16 6 -3 10 1 10 9 0 9 -4 16 -10 16 -5 0
-10 -4 -10 -9z"/>
<path d="M9606 5233 c-9 -33 13 -58 43 -48 26 8 26 16 0 49 -26 33 -35 33 -43
-1z"/>
<path d="M10827 5240 c-3 -11 -1 -20 4 -20 5 0 9 9 9 20 0 11 -2 20 -4 20 -2
0 -6 -9 -9 -20z"/>
<path d="M7910 5235 c7 -8 17 -15 22 -15 6 0 5 7 -2 15 -7 8 -17 15 -22 15 -6
0 -5 -7 2 -15z"/>
<path d="M11035 5240 c-3 -5 1 -10 10 -10 9 0 13 5 10 10 -3 6 -8 10 -10 10
-2 0 -7 -4 -10 -10z"/>
<path d="M6627 5233 c-11 -10 -8 -53 3 -53 6 0 10 14 10 30 0 31 -2 35 -13 23z"/>
<path d="M7030 5229 c0 -5 5 -7 10 -4 6 3 10 8 10 11 0 2 -4 4 -10 4 -5 0 -10
-5 -10 -11z"/>
<path d="M7700 5233 c0 -14 19 -38 25 -32 8 8 -5 39 -16 39 -5 0 -9 -3 -9 -7z"/>
<path d="M6103 5195 c3 -20 0 -38 -5 -41 -6 -4 -5 -10 3 -15 23 -15 30 -10 25
16 -4 22 -2 25 15 20 11 -4 19 -2 19 4 0 6 7 11 15 11 8 0 15 6 15 14 0 20
-17 29 -23 14 -3 -10 -9 -11 -26 0 -34 20 -42 15 -38 -23z"/>
<path d="M11265 5219 c-4 -6 -5 -13 -2 -16 7 -7 27 6 27 18 0 12 -17 12 -25
-2z"/>
<path d="M6030 5210 c0 -5 5 -10 11 -10 5 0 7 5 4 10 -3 6 -8 10 -11 10 -2 0
-4 -4 -4 -10z"/>
<path d="M6318 5203 c7 -3 16 -2 19 1 4 3 -2 6 -13 5 -11 0 -14 -3 -6 -6z"/>
<path d="M6404 5201 c3 -4 23 -11 43 -15 21 -3 49 -9 63 -12 14 -4 21 -3 17 2
-8 8 -91 33 -115 34 -7 0 -11 -4 -8 -9z"/>
<path d="M10840 5200 c0 -5 5 -10 10 -10 6 0 10 5 10 10 0 6 -4 10 -10 10 -5
0 -10 -4 -10 -10z"/>
<path d="M6212 5188 c3 -7 15 -14 29 -16 24 -4 24 -3 4 12 -24 19 -38 20 -33
4z"/>
<path d="M6280 5191 c0 -5 9 -11 21 -14 16 -4 18 -3 8 9 -13 16 -29 19 -29 5z"/>
<path d="M7316 5184 c-7 -19 -8 -17 22 -33 25 -13 29 -3 12 30 -13 23 -26 24
-34 3z"/>
<path d="M9988 5178 c12 -12 25 -19 28 -15 4 4 -1 14 -12 22 -29 22 -41 18
-16 -7z"/>
<path d="M11064 5189 c-3 -6 -1 -16 5 -22 8 -8 11 -5 11 11 0 24 -5 28 -16 11z"/>
<path d="M9780 5176 c0 -15 18 -31 26 -23 7 7 -7 37 -17 37 -5 0 -9 -6 -9 -14z"/>
<path d="M10370 5176 c0 -8 4 -17 9 -20 10 -7 23 19 14 28 -11 11 -23 6 -23
-8z"/>
<path d="M10790 5180 c0 -5 7 -10 16 -10 8 0 12 5 9 10 -3 6 -10 10 -16 10 -5
0 -9 -4 -9 -10z"/>
<path d="M6056 5165 c4 -8 11 -15 16 -15 6 0 5 6 -2 15 -7 8 -14 15 -16 15 -2
0 -1 -7 2 -15z"/>
<path d="M7430 5160 c0 -13 7 -20 20 -20 11 0 20 4 20 10 0 5 -9 14 -20 20
-17 9 -20 8 -20 -10z"/>
<path d="M10275 5170 c3 -5 11 -10 16 -10 6 0 7 5 4 10 -3 6 -11 10 -16 10 -6
0 -7 -4 -4 -10z"/>
<path d="M10981 5154 c0 -11 3 -14 6 -6 3 7 2 16 -1 19 -3 4 -6 -2 -5 -13z"/>
<path d="M11152 5150 c-7 -11 -8 -20 -3 -20 5 0 11 -10 14 -22 4 -12 9 -19 13
-15 4 4 13 2 20 -4 8 -6 26 -8 45 -4 l31 7 -31 19 c-17 10 -40 19 -51 19 -11
0 -20 8 -22 20 l-3 21 -13 -21z"/>
<path d="M6812 5139 c-15 -13 -29 -18 -42 -14 -11 4 -20 3 -20 -2 0 -14 53
-14 61 -1 6 9 13 9 34 0 46 -21 61 -9 29 22 -21 21 -36 20 -62 -5z"/>
<path d="M11030 5151 c0 -5 7 -16 15 -25 8 -8 15 -19 15 -25 0 -21 20 -20 43
1 25 24 27 59 2 38 -9 -7 -15 -8 -19 -1 -4 6 -13 8 -21 4 -8 -3 -15 0 -15 6 0
6 -4 11 -10 11 -5 0 -10 -4 -10 -9z"/>
<path d="M7476 5141 c-4 -7 -5 -15 -2 -18 9 -9 19 4 14 18 -4 11 -6 11 -12 0z"/>
<path d="M9820 5141 c0 -10 30 -24 37 -17 3 2 -5 9 -16 16 -12 6 -21 7 -21 1z"/>
<path d="M5480 5130 c0 -5 10 -10 23 -10 18 0 19 2 7 10 -19 13 -30 13 -30 0z"/>
<path d="M9980 5130 c0 -5 5 -10 11 -10 5 0 7 5 4 10 -3 6 -8 10 -11 10 -2 0
-4 -4 -4 -10z"/>
<path d="M6176 5107 c10 -15 23 -27 28 -27 12 0 -18 43 -34 48 -8 3 -6 -5 6
-21z"/>
<path d="M6603 5123 c-15 -5 -17 -23 -4 -23 5 0 11 7 15 15 3 8 4 15 3 14 -1
0 -8 -3 -14 -6z"/>
<path d="M9650 5123 c0 -1 9 -7 20 -13 16 -8 24 -8 34 3 11 11 8 13 -20 13
-19 0 -34 -1 -34 -3z"/>
<path d="M10250 5120 c0 -5 5 -10 10 -10 6 0 10 5 10 10 0 6 -4 10 -10 10 -5
0 -10 -4 -10 -10z"/>
<path d="M6250 5110 c0 -5 5 -10 10 -10 6 0 10 5 10 10 0 6 -4 10 -10 10 -5 0
-10 -4 -10 -10z"/>
<path d="M6426 5095 c17 -17 23 -32 19 -44 -4 -14 3 -25 26 -42 28 -20 32 -20
40 -6 5 9 16 14 24 11 9 -4 15 0 15 10 0 9 -7 16 -15 16 -8 0 -15 4 -15 9 0 5
-14 14 -31 20 -17 6 -33 20 -36 31 -3 13 -14 20 -29 20 l-23 0 25 -25z"/>
<path d="M7425 5108 c-4 -9 -4 -21 -1 -26 3 -5 -6 -26 -20 -47 -14 -21 -23
-44 -20 -51 6 -15 41 -11 62 7 8 6 21 9 29 5 8 -3 15 -1 15 4 0 13 65 40 120
50 37 7 28 8 -51 8 -96 -1 -124 5 -114 23 4 5 2 17 -4 26 -9 17 -10 17 -16 1z"/>
<path d="M9440 5107 c0 -8 7 -17 15 -21 8 -3 15 -2 15 3 0 5 -7 14 -15 21 -12
10 -15 10 -15 -3z"/>
<path d="M7044 5085 c-3 -8 -14 -17 -25 -20 -10 -4 -19 -9 -19 -13 1 -9 77
-62 89 -62 5 0 14 -7 22 -16 11 -14 13 -14 21 0 5 9 16 16 25 16 12 0 14 6 8
27 -4 16 -7 28 -8 29 -31 19 -96 54 -101 54 -4 0 -9 -7 -12 -15z m66 -30 c41
-26 51 -49 26 -58 -14 -5 -34 10 -68 52 -33 40 -16 42 42 6z"/>
<path d="M9970 5090 c0 -5 -7 -10 -16 -10 -13 0 -14 -3 -4 -15 7 -8 16 -12 21
-9 16 10 31 -6 19 -21 -8 -9 -7 -14 5 -18 8 -4 12 -13 9 -20 -7 -18 44 -10 64
10 7 7 22 13 33 13 10 0 19 5 19 10 0 6 -4 10 -9 10 -15 0 -22 33 -9 42 9 5
10 8 1 8 -6 0 -15 -5 -18 -10 -4 -6 -15 -8 -26 -5 -24 8 -25 -11 -2 -24 10 -5
14 -13 9 -18 -5 -4 -11 -2 -13 5 -3 6 -13 12 -24 12 -12 0 -21 9 -25 25 -6 24
-34 36 -34 15z"/>
<path d="M11431 5084 c0 -11 3 -14 6 -6 3 7 2 16 -1 19 -3 4 -6 -2 -5 -13z"/>
<path d="M5835 5080 c3 -5 13 -10 21 -10 8 0 12 5 9 10 -3 6 -13 10 -21 10 -8
0 -12 -4 -9 -10z"/>
<path d="M9390 5080 c0 -5 7 -10 16 -10 8 0 12 5 9 10 -3 6 -10 10 -16 10 -5
0 -9 -4 -9 -10z"/>
<path d="M9540 5075 c0 -8 4 -15 10 -15 5 0 7 7 4 15 -4 8 -8 15 -10 15 -2 0
-4 -7 -4 -15z"/>
<path d="M9840 5080 c0 -5 5 -10 10 -10 6 0 10 5 10 10 0 6 -4 10 -10 10 -5 0
-10 -4 -10 -10z"/>
<path d="M11360 5080 c-12 -8 -11 -10 8 -10 12 0 22 5 22 10 0 13 -11 13 -30
0z"/>
<path d="M6220 5070 c0 -5 5 -10 10 -10 6 0 10 5 10 10 0 6 -4 10 -10 10 -5 0
-10 -4 -10 -10z"/>
<path d="M8339 5060 c25 -22 41 -26 41 -10 0 11 -33 30 -52 30 -7 -1 -3 -9 11
-20z"/>
<path d="M11465 5069 c-4 -6 -5 -13 -2 -16 7 -7 27 6 27 18 0 12 -17 12 -25
-2z"/>
<path d="M11285 5060 c-3 -5 -1 -10 4 -10 6 0 11 5 11 10 0 6 -2 10 -4 10 -3
0 -8 -4 -11 -10z"/>
<path d="M6298 5043 c-35 -5 -36 -18 -3 -19 14 -1 25 2 25 6 0 5 8 11 18 13
21 6 -2 6 -40 0z"/>
<path d="M6695 5041 c-3 -5 -1 -12 5 -16 5 -3 10 1 10 9 0 18 -6 21 -15 7z"/>
<path d="M9770 5042 c0 -11 28 -36 58 -51 19 -10 22 -9 22 9 0 15 -7 20 -25
20 -14 0 -28 7 -31 15 -6 16 -24 21 -24 7z"/>
<path d="M10135 5030 c-3 -5 3 -10 14 -10 12 0 21 5 21 10 0 6 -6 10 -14 10
-8 0 -18 -4 -21 -10z"/>
<path d="M6080 5015 c0 -9 6 -12 15 -9 8 4 15 10 15 15 0 5 -7 9 -15 9 -8 0
-15 -7 -15 -15z"/>
<path d="M11305 5020 c-3 -5 -1 -10 4 -10 6 0 11 5 11 10 0 6 -2 10 -4 10 -3
0 -8 -4 -11 -10z"/>
<path d="M11435 5020 c-3 -5 -2 -10 4 -10 5 0 13 5 16 10 3 6 2 10 -4 10 -5 0
-13 -4 -16 -10z"/>
<path d="M6585 5010 c3 -5 11 -10 16 -10 6 0 7 5 4 10 -3 6 -11 10 -16 10 -6
0 -7 -4 -4 -10z"/>
<path d="M6638 5012 c-23 -5 -23 -15 0 -35 24 -22 42 -21 42 2 0 23 -19 39
-42 33z"/>
<path d="M6860 5010 c0 -5 5 -10 10 -10 6 0 10 5 10 10 0 6 -4 10 -10 10 -5 0
-10 -4 -10 -10z"/>
<path d="M5100 4999 c0 -5 5 -7 10 -4 6 3 10 8 10 11 0 2 -4 4 -10 4 -5 0 -10
-5 -10 -11z"/>
<path d="M6331 5001 c-8 -5 -9 -11 -3 -15 5 -3 15 1 22 9 14 16 3 20 -19 6z"/>
<path d="M6981 4994 c-23 -12 -23 -12 -3 -23 25 -13 35 -14 27 -2 -3 6 2 14
11 19 26 15 -7 21 -35 6z"/>
<path d="M6061 4983 c7 -12 15 -20 18 -17 3 2 -3 12 -13 22 -17 16 -18 16 -5
-5z"/>
<path d="M6720 4991 c0 -6 5 -13 10 -16 6 -3 10 1 10 9 0 9 -4 16 -10 16 -5 0
-10 -4 -10 -9z"/>
<path d="M6930 4990 c0 -5 5 -10 11 -10 5 0 7 5 4 10 -3 6 -8 10 -11 10 -2 0
-4 -4 -4 -10z"/>
<path d="M7241 4987 c-13 -16 -5 -27 20 -27 10 0 28 -14 40 -31 20 -28 23 -30
32 -13 7 13 7 19 -1 22 -7 2 -12 11 -12 21 0 37 -55 56 -79 28z"/>
<path d="M9734 4985 c2 -7 0 -16 -7 -18 -9 -3 -9 -8 -1 -17 9 -9 16 -9 33 2
27 17 26 20 -5 35 -21 10 -25 10 -20 -2z"/>
<path d="M6790 4970 c0 -5 5 -10 11 -10 5 0 7 5 4 10 -3 6 -8 10 -11 10 -2 0
-4 -4 -4 -10z"/>
<path d="M6883 4953 c-21 -8 -15 -20 9 -19 12 0 23 7 26 14 4 12 -12 15 -35 5z"/>
<path d="M9800 4945 c0 -8 7 -15 15 -15 9 0 12 6 9 15 -4 8 -10 15 -15 15 -5
0 -9 -7 -9 -15z"/>
<path d="M6675 4940 c-3 -5 1 -10 9 -10 9 0 16 5 16 10 0 6 -4 10 -9 10 -6 0
-13 -4 -16 -10z"/>
<path d="M7260 4940 c0 -5 5 -10 11 -10 5 0 7 5 4 10 -3 6 -8 10 -11 10 -2 0
-4 -4 -4 -10z"/>
<path d="M7570 4940 c0 -5 5 -10 10 -10 6 0 10 5 10 10 0 6 -4 10 -10 10 -5 0
-10 -4 -10 -10z"/>
<path d="M6160 4900 c-7 -4 -9 -13 -6 -19 10 -16 46 -14 46 3 0 17 -23 27 -40
16z"/>
<path d="M6530 4900 c0 -5 5 -10 10 -10 6 0 10 5 10 10 0 6 -4 10 -10 10 -5 0
-10 -4 -10 -10z"/>
<path d="M6243 4893 c-7 -3 -13 -8 -13 -13 0 -10 81 -43 88 -35 7 7 -9 23 -28
27 -8 2 -19 8 -25 14 -5 7 -16 10 -22 7z"/>
<path d="M7440 4890 c0 -5 7 -7 15 -4 8 4 15 8 15 10 0 2 -7 4 -15 4 -8 0 -15
-4 -15 -10z"/>
<path d="M5992 4878 c3 -7 13 -15 24 -17 16 -3 17 -1 5 13 -16 19 -34 21 -29
4z"/>
<path d="M6760 4879 c0 -5 5 -7 10 -4 6 3 10 8 10 11 0 2 -4 4 -10 4 -5 0 -10
-5 -10 -11z"/>
<path d="M8565 4870 c3 -5 8 -10 11 -10 2 0 4 5 4 10 0 6 -5 10 -11 10 -5 0
-7 -4 -4 -10z"/>
<path d="M4415 4820 c-3 -5 -1 -10 4 -10 6 0 11 5 11 10 0 6 -2 10 -4 10 -3 0
-8 -4 -11 -10z"/>
<path d="M6895 4820 c-3 -5 -1 -10 4 -10 6 0 11 5 11 10 0 6 -2 10 -4 10 -3 0
-8 -4 -11 -10z"/>
<path d="M6252 4795 c-1 -15 3 -25 12 -25 9 0 12 8 8 25 -2 14 -7 25 -11 25
-4 0 -8 -11 -9 -25z"/>
<path d="M6045 4790 c3 -5 8 -10 11 -10 2 0 4 5 4 10 0 6 -5 10 -11 10 -5 0
-7 -4 -4 -10z"/>
<path d="M6110 4790 c0 -5 5 -10 11 -10 5 0 7 5 4 10 -3 6 -8 10 -11 10 -2 0
-4 -4 -4 -10z"/>
<path d="M6212 4755 c6 -14 15 -22 20 -17 12 12 -1 42 -18 42 -11 0 -11 -5 -2
-25z"/>
<path d="M6105 4740 c-3 -5 -1 -10 4 -10 6 0 11 5 11 10 0 6 -2 10 -4 10 -3 0
-8 -4 -11 -10z"/>
<path d="M3805 4390 c3 -5 13 -10 21 -10 8 0 12 5 9 10 -3 6 -13 10 -21 10 -8
0 -12 -4 -9 -10z"/>
<path d="M4316 4231 c15 -15 57 -17 61 -3 3 8 -7 12 -33 12 -23 0 -34 -4 -28
-9z"/>
<path d="M4648 4149 c-10 -5 -18 -17 -18 -24 0 -19 5 -19 30 2 33 28 24 43
-12 22z"/>
<path d="M4800 4140 c0 -5 -7 -10 -15 -10 -8 0 -15 -5 -15 -10 0 -6 11 -8 28
-4 36 9 43 14 37 25 -8 12 -35 12 -35 -1z"/>
<path d="M4884 4079 c-19 -21 -19 -21 9 -8 15 7 27 16 27 21 0 14 -16 9 -36
-13z"/>
<path d="M5090 4090 c-9 -6 -10 -10 -3 -10 6 0 15 5 18 10 8 12 4 12 -15 0z"/>
<path d="M5785 4054 c-16 -13 -25 -24 -20 -24 14 1 61 38 55 43 -3 3 -18 -6
-35 -19z"/>
<path d="M5006 4027 l-30 -13 37 0 c24 0 37 5 37 13 0 16 -6 16 -44 0z"/>
<path d="M5425 4020 c-3 -5 -2 -10 4 -10 5 0 13 5 16 10 3 6 2 10 -4 10 -5 0
-13 -4 -16 -10z"/>
<path d="M5130 4006 c0 -2 7 -7 16 -10 8 -3 12 -2 9 4 -6 10 -25 14 -25 6z"/>
<path d="M4505 3950 c-3 -5 -1 -10 4 -10 6 0 11 5 11 10 0 6 -2 10 -4 10 -3 0
-8 -4 -11 -10z"/>
<path d="M5037 3923 c-12 -11 -8 -23 8 -23 8 0 15 7 15 15 0 16 -12 20 -23 8z"/>
<path d="M5533 3903 c-14 -5 -18 -23 -5 -23 5 0 17 7 28 15 14 11 15 14 4 14
-8 0 -21 -3 -27 -6z"/>
<path d="M4385 3760 c-3 -5 -1 -10 4 -10 6 0 11 5 11 10 0 6 -2 10 -4 10 -3 0
-8 -4 -11 -10z"/>
<path d="M4318 3743 c6 -2 18 -2 25 0 6 3 1 5 -13 5 -14 0 -19 -2 -12 -5z"/>
<path d="M3756 3571 c-4 -6 14 -12 41 -16 27 -3 68 -8 92 -11 27 -4 41 -2 37
4 -3 6 -34 13 -68 17 -35 3 -70 9 -80 11 -9 3 -19 0 -22 -5z"/>
<path d="M11516 3463 c-6 -14 -5 -15 5 -6 7 7 10 15 7 18 -3 3 -9 -2 -12 -12z"/>
<path d="M11383 3414 c-10 -22 -10 -25 3 -20 8 3 14 0 14 -8 0 -18 -36 -49
-49 -42 -5 4 -12 2 -15 -3 -3 -5 10 -11 29 -13 27 -3 39 1 55 19 11 13 32 23
47 24 16 0 22 3 15 6 -6 2 -10 9 -6 14 3 5 -5 8 -18 6 -18 -1 -23 3 -22 21 1
32 -37 30 -53 -4z"/>
<path d="M12435 3360 c-3 -5 1 -10 10 -10 9 0 13 5 10 10 -3 6 -8 10 -10 10
-2 0 -7 -4 -10 -10z"/>
<path d="M11470 3270 c0 -5 11 -10 25 -10 14 0 25 5 25 10 0 6 -11 10 -25 10
-14 0 -25 -4 -25 -10z"/>
<path d="M11080 3261 c1 -14 30 -44 37 -37 16 15 9 34 -13 39 -13 2 -24 1 -24
-2z"/>
<path d="M11540 3245 c0 -11 7 -15 23 -13 12 2 22 8 22 13 0 6 -10 11 -22 13
-16 2 -23 -2 -23 -13z"/>
<path d="M11143 3233 c-24 -9 -13 -30 15 -30 15 0 35 -3 45 -7 12 -6 17 -4 17
8 0 23 -48 41 -77 29z"/>
<path d="M11427 3224 c-4 -4 -7 -14 -7 -23 0 -11 3 -12 11 -4 6 6 10 16 7 23
-2 6 -7 8 -11 4z"/>
<path d="M11970 3200 c0 -5 9 -10 20 -10 11 0 20 5 20 10 0 6 -9 10 -20 10
-11 0 -20 -4 -20 -10z"/>
<path d="M7778 3193 c7 -3 16 -2 19 1 4 3 -2 6 -13 5 -11 0 -14 -3 -6 -6z"/>
<path d="M11115 3169 c-4 -6 -5 -13 -2 -16 7 -7 27 6 27 18 0 12 -17 12 -25
-2z"/>
<path d="M11160 3170 c0 -5 5 -10 11 -10 5 0 7 5 4 10 -3 6 -8 10 -11 10 -2 0
-4 -4 -4 -10z"/>
<path d="M11556 3164 c-9 -24 -8 -26 13 -14 11 5 30 10 42 10 29 0 22 6 -18
13 -23 5 -33 2 -37 -9z"/>
<path d="M12057 3134 c-4 -4 -4 -10 -1 -15 6 -10 34 0 34 12 0 10 -24 12 -33
3z"/>
<path d="M11220 3120 c0 -5 5 -10 10 -10 6 0 10 5 10 10 0 6 -4 10 -10 10 -5
0 -10 -4 -10 -10z"/>
<path d="M11160 3112 c0 -4 9 -8 20 -9 11 -1 20 2 20 8 0 5 -9 9 -20 9 -11 0
-20 -4 -20 -8z"/>
<path d="M11260 3105 c-7 -8 -22 -15 -34 -15 -30 -1 -2 -16 45 -25 27 -5 39
-2 49 10 12 15 12 19 -5 31 -24 18 -39 18 -55 -1z"/>
<path d="M11388 3113 c6 -2 18 -2 25 0 6 3 1 5 -13 5 -14 0 -19 -2 -12 -5z"/>
<path d="M11873 3113 c-13 -2 -23 -9 -23 -15 0 -5 7 -7 16 -4 9 3 27 6 40 6
13 0 24 5 24 10 0 10 -16 11 -57 3z"/>
<path d="M12030 3110 c0 -5 5 -10 11 -10 5 0 7 5 4 10 -3 6 -8 10 -11 10 -2 0
-4 -4 -4 -10z"/>
<path d="M7825 3091 c-96 -7 -54 -18 49 -13 46 3 64 7 55 13 -8 5 -16 8 -19 7
-3 -1 -41 -4 -85 -7z"/>
<path d="M8420 3070 c0 -5 4 -10 9 -10 6 0 13 5 16 10 3 6 -1 10 -9 10 -9 0
-16 -4 -16 -10z"/>
<path d="M8375 3050 c-3 -5 -1 -10 4 -10 6 0 11 5 11 10 0 6 -2 10 -4 10 -3 0
-8 -4 -11 -10z"/>
<path d="M11338 3014 c3 -15 -1 -29 -8 -34 -9 -6 -1 -12 25 -19 45 -12 60 -6
21 8 -25 10 -38 51 -16 51 6 0 10 5 10 10 0 6 -8 10 -19 10 -14 0 -17 -6 -13
-26z"/>
<path d="M12380 3030 c0 -5 4 -10 9 -10 6 0 13 5 16 10 3 6 -1 10 -9 10 -9 0
-16 -4 -16 -10z"/>
<path d="M5448 3023 c7 -3 16 -2 19 1 4 3 -2 6 -13 5 -11 0 -14 -3 -6 -6z"/>
<path d="M8636 3011 c-3 -4 6 -6 19 -3 14 2 25 6 25 8 0 8 -39 4 -44 -5z"/>
<path d="M11185 3010 c-3 -5 3 -10 15 -10 12 0 18 5 15 10 -3 6 -10 10 -15 10
-5 0 -12 -4 -15 -10z"/>
<path d="M12168 3013 c7 -3 16 -2 19 1 4 3 -2 6 -13 5 -11 0 -14 -3 -6 -6z"/>
<path d="M9188 2993 c7 -3 16 -2 19 1 4 3 -2 6 -13 5 -11 0 -14 -3 -6 -6z"/>
<path d="M8761 2963 c0 -19 16 -61 19 -53 1 3 3 20 5 38 2 22 -2 32 -11 32 -8
0 -14 -8 -13 -17z"/>
<path d="M11515 2970 c3 -5 8 -10 11 -10 2 0 4 5 4 10 0 6 -5 10 -11 10 -5 0
-7 -4 -4 -10z"/>
<path d="M9012 2946 c-1 -14 5 -27 15 -30 22 -9 36 8 28 33 -9 29 -40 27 -43
-3z"/>
<path d="M9100 2951 c0 -5 -8 -12 -17 -14 -14 -4 -14 -5 3 -6 12 0 27 6 34 14
10 12 10 15 -4 15 -9 0 -16 -4 -16 -9z"/>
<path d="M11747 2954 c-4 -4 -2 -13 4 -21 13 -15 59 -18 59 -3 0 6 -8 10 -18
10 -10 0 -23 5 -28 10 -6 6 -13 7 -17 4z"/>
<path d="M11285 2939 c-10 -15 1 -23 20 -15 9 3 13 10 10 16 -8 13 -22 13 -30
-1z"/>
<path d="M8888 2928 c9 -9 15 -9 24 0 9 9 7 12 -12 12 -19 0 -21 -3 -12 -12z"/>
<path d="M12170 2930 c0 -5 7 -10 16 -10 8 0 12 5 9 10 -3 6 -10 10 -16 10 -5
0 -9 -4 -9 -10z"/>
<path d="M11420 2915 c0 -10 7 -15 18 -13 21 4 19 22 -2 26 -10 2 -16 -3 -16
-13z"/>
<path d="M7800 2910 c0 -5 5 -10 10 -10 6 0 10 5 10 10 0 6 -4 10 -10 10 -5 0
-10 -4 -10 -10z"/>
<path d="M8796 2905 c-16 -12 -17 -15 -4 -15 24 0 48 11 48 21 0 13 -23 10
-44 -6z"/>
<path d="M8913 2912 c-17 -11 -4 -55 13 -48 8 3 21 9 31 13 11 4 14 3 9 -5
-10 -17 0 -15 18 4 28 27 20 44 -21 44 -21 0 -43 -4 -50 -8z"/>
<path d="M9080 2910 c0 -5 5 -10 11 -10 5 0 7 5 4 10 -3 6 -8 10 -11 10 -2 0
-4 -4 -4 -10z"/>
<path d="M11700 2894 c0 -31 22 -28 27 4 2 14 -2 22 -12 22 -9 0 -15 -10 -15
-26z"/>
<path d="M11385 2900 c-3 -5 -1 -10 4 -10 6 0 11 5 11 10 0 6 -2 10 -4 10 -3
0 -8 -4 -11 -10z"/>
<path d="M11310 2886 c0 -9 5 -16 10 -16 6 0 10 4 10 9 0 6 -4 13 -10 16 -5 3
-10 -1 -10 -9z"/>
<path d="M9400 2880 c-13 -8 -12 -10 3 -10 9 0 17 5 17 10 0 12 -1 12 -20 0z"/>
<path d="M8725 2870 c3 -5 10 -10 16 -10 5 0 9 5 9 10 0 6 -7 10 -16 10 -8 0
-12 -4 -9 -10z"/>
<path d="M8838 2867 c-15 -12 -15 -14 3 -25 28 -18 52 -15 45 4 -3 9 -6 20 -6
25 0 13 -22 11 -42 -4z"/>
<path d="M11600 2870 c0 -5 10 -10 23 -10 18 0 19 2 7 10 -19 13 -30 13 -30 0z"/>
<path d="M9902 2858 c2 -6 10 -14 16 -16 7 -2 10 2 6 12 -7 18 -28 22 -22 4z"/>
<path d="M11681 2858 c-1 -9 -7 -18 -13 -21 -9 -3 -7 -7 5 -12 24 -10 29 -3
18 26 -7 16 -10 18 -10 7z"/>
<path d="M8193 2843 c-7 -2 -13 -9 -13 -15 0 -12 41 -6 41 7 1 12 -11 15 -28
8z"/>
<path d="M9355 2840 c-3 -5 -2 -10 4 -10 5 0 13 5 16 10 3 6 2 10 -4 10 -5 0
-13 -4 -16 -10z"/>
<path d="M9830 2834 c0 -8 5 -12 10 -9 6 3 10 10 10 16 0 5 -4 9 -10 9 -5 0
-10 -7 -10 -16z"/>
<path d="M11722 2833 c2 -10 12 -18 23 -18 11 0 21 8 23 18 3 13 -3 17 -23 17
-20 0 -26 -4 -23 -17z"/>
<path d="M9381 2816 c-22 -23 -22 -25 -4 -35 15 -9 16 -12 3 -20 -8 -6 -11
-13 -7 -17 4 -4 13 1 21 11 7 10 18 15 24 12 11 -8 31 41 25 61 -7 20 -38 14
-62 -12z"/>
<path d="M11540 2820 c0 -5 5 -10 10 -10 6 0 10 5 10 10 0 6 -4 10 -10 10 -5
0 -10 -4 -10 -10z"/>
<path d="M8428 2813 c7 -3 16 -2 19 1 4 3 -2 6 -13 5 -11 0 -14 -3 -6 -6z"/>
<path d="M9018 2813 c7 -3 16 -2 19 1 4 3 -2 6 -13 5 -11 0 -14 -3 -6 -6z"/>
<path d="M10108 2813 c-10 -2 -18 -8 -18 -13 0 -10 38 -1 46 11 5 9 1 10 -28
2z"/>
<path d="M10187 2813 c-4 -3 -7 -11 -7 -17 0 -6 5 -5 12 2 6 6 9 14 7 17 -3 3
-9 2 -12 -2z"/>
<path d="M8373 2793 c9 -2 23 -2 30 0 6 3 -1 5 -18 5 -16 0 -22 -2 -12 -5z"/>
<path d="M9590 2789 c0 -5 5 -7 10 -4 6 3 10 8 10 11 0 2 -4 4 -10 4 -5 0 -10
-5 -10 -11z"/>
<path d="M9885 2790 c-3 -5 3 -10 15 -10 12 0 18 5 15 10 -3 6 -10 10 -15 10
-5 0 -12 -4 -15 -10z"/>
<path d="M9065 2780 c-4 -6 3 -10 14 -10 25 0 27 6 6 13 -8 4 -17 2 -20 -3z"/>
<path d="M9650 2770 c0 -5 5 -10 10 -10 6 0 10 5 10 10 0 6 -4 10 -10 10 -5 0
-10 -4 -10 -10z"/>
<path d="M7008 2763 c6 -2 18 -2 25 0 6 3 1 5 -13 5 -14 0 -19 -2 -12 -5z"/>
<path d="M9025 2760 c-3 -6 1 -7 9 -4 18 7 21 14 7 14 -6 0 -13 -4 -16 -10z"/>
<path d="M10230 2760 c0 -5 5 -10 10 -10 6 0 10 5 10 10 0 6 -4 10 -10 10 -5
0 -10 -4 -10 -10z"/>
<path d="M7948 2753 c6 -2 18 -2 25 0 6 3 1 5 -13 5 -14 0 -19 -2 -12 -5z"/>
<path d="M9815 2750 c-3 -5 -1 -10 4 -10 6 0 11 5 11 10 0 6 -2 10 -4 10 -3 0
-8 -4 -11 -10z"/>
<path d="M9448 2743 c7 -3 16 -2 19 1 4 3 -2 6 -13 5 -11 0 -14 -3 -6 -6z"/>
<path d="M8903 2733 c9 -2 17 -9 17 -14 0 -14 24 -11 46 6 17 13 15 14 -31 14
-27 -1 -42 -3 -32 -6z"/>
<path d="M9140 2729 c0 -5 5 -7 10 -4 6 3 10 8 10 11 0 2 -4 4 -10 4 -5 0 -10
-5 -10 -11z"/>
<path d="M10250 2730 c0 -5 5 -10 10 -10 6 0 10 5 10 10 0 6 -4 10 -10 10 -5
0 -10 -4 -10 -10z"/>
<path d="M9028 2723 c7 -3 16 -2 19 1 4 3 -2 6 -13 5 -11 0 -14 -3 -6 -6z"/>
<path d="M9238 2723 c6 -2 18 -2 25 0 6 3 1 5 -13 5 -14 0 -19 -2 -12 -5z"/>
<path d="M9745 2720 c-3 -5 1 -10 10 -10 9 0 13 5 10 10 -3 6 -8 10 -10 10 -2
0 -7 -4 -10 -10z"/>
<path d="M6963 2703 c9 -2 25 -2 35 0 9 3 1 5 -18 5 -19 0 -27 -2 -17 -5z"/>
<path d="M9367 2689 c-4 -16 -3 -18 9 -8 16 13 19 29 5 29 -5 0 -11 -9 -14
-21z"/>
<path d="M12260 2700 c0 -5 7 -10 16 -10 8 0 12 5 9 10 -3 6 -10 10 -16 10 -5
0 -9 -4 -9 -10z"/>
<path d="M8715 2690 c-3 -5 3 -10 14 -10 11 0 23 5 26 10 3 6 -3 10 -14 10
-11 0 -23 -4 -26 -10z"/>
<path d="M9407 2680 c-6 -22 0 -25 22 -11 7 5 10 14 7 20 -11 17 -23 13 -29
-9z"/>
<path d="M9476 2686 c3 -8 0 -17 -5 -21 -6 -3 -9 -11 -6 -16 4 -5 -2 -9 -12
-9 -14 0 -15 -2 -5 -9 8 -4 14 -12 14 -17 4 -40 11 -42 29 -7 23 45 23 47 4
39 -18 -6 -20 5 -4 21 6 6 8 16 5 22 -10 16 -26 13 -20 -3z"/>
<path d="M6837 2680 c-51 -9 -58 -20 -14 -20 20 0 39 -4 42 -10 7 -11 75 -3
89 11 17 16 -61 29 -117 19z"/>
<path d="M9525 2660 c-3 -5 1 -10 9 -10 8 0 18 5 21 10 3 6 -1 10 -9 10 -8 0
-18 -4 -21 -10z"/>
<path d="M10135 2660 c-3 -5 -1 -10 4 -10 6 0 11 5 11 10 0 6 -2 10 -4 10 -3
0 -8 -4 -11 -10z"/>
<path d="M9185 2650 c-3 -5 -1 -10 4 -10 6 0 11 5 11 10 0 6 -2 10 -4 10 -3 0
-8 -4 -11 -10z"/>
<path d="M8780 2640 c-8 -5 -12 -11 -9 -14 2 -3 11 -1 19 4 8 5 12 11 9 14 -2
3 -11 1 -19 -4z"/>
<path d="M9370 2626 c0 -2 7 -7 16 -10 8 -3 12 -2 9 4 -6 10 -25 14 -25 6z"/>
<path d="M9340 2607 c0 -7 12 -13 28 -14 15 0 19 1 10 4 -10 2 -18 9 -18 14 0
5 -4 9 -10 9 -5 0 -10 -6 -10 -13z"/>
<path d="M9745 2610 c-3 -5 1 -10 9 -10 9 0 16 5 16 10 0 6 -4 10 -9 10 -6 0
-13 -4 -16 -10z"/>
<path d="M6705 2601 c-17 -7 -16 -9 10 -14 35 -6 85 2 85 14 0 11 -67 11 -95
0z"/>
<path d="M7865 2590 c-3 -5 3 -10 14 -10 11 0 23 5 26 10 3 6 -3 10 -14 10
-11 0 -23 -4 -26 -10z"/>
<path d="M8785 2580 c-3 -5 -1 -10 4 -10 6 0 11 5 11 10 0 6 -2 10 -4 10 -3 0
-8 -4 -11 -10z"/>
<path d="M7805 2570 c-3 -5 3 -10 14 -10 12 0 21 5 21 10 0 6 -6 10 -14 10 -8
0 -18 -4 -21 -10z"/>
<path d="M9570 2569 c0 -5 5 -7 10 -4 6 3 10 8 10 11 0 2 -4 4 -10 4 -5 0 -10
-5 -10 -11z"/>
<path d="M7905 2560 c4 -6 11 -8 16 -5 14 9 11 15 -7 15 -8 0 -12 -5 -9 -10z"/>
<path d="M8950 2550 c0 -5 4 -10 9 -10 6 0 13 5 16 10 3 6 -1 10 -9 10 -9 0
-16 -4 -16 -10z"/>
<path d="M9005 2550 c-3 -5 3 -10 15 -10 12 0 18 5 15 10 -3 6 -10 10 -15 10
-5 0 -12 -4 -15 -10z"/>
<path d="M9490 2550 c0 -5 5 -10 10 -10 6 0 10 5 10 10 0 6 -4 10 -10 10 -5 0
-10 -4 -10 -10z"/>
<path d="M10210 2555 c0 -2 11 -10 24 -18 22 -15 25 -15 40 2 16 17 15 18 -24
18 -22 0 -40 -1 -40 -2z"/>
<path d="M9550 2541 c0 -5 9 -7 20 -4 11 3 20 7 20 9 0 2 -9 4 -20 4 -11 0
-20 -4 -20 -9z"/>
<path d="M9340 2520 c0 -5 4 -10 9 -10 6 0 13 5 16 10 3 6 -1 10 -9 10 -9 0
-16 -4 -16 -10z"/>
<path d="M8885 2510 c-3 -5 3 -10 14 -10 11 0 23 5 26 10 3 6 -3 10 -14 10
-11 0 -23 -4 -26 -10z"/>
<path d="M9820 2499 c0 -5 5 -7 10 -4 6 3 10 8 10 11 0 2 -4 4 -10 4 -5 0 -10
-5 -10 -11z"/>
<path d="M12237 2504 c-12 -12 4 -24 31 -24 26 1 26 1 8 15 -22 17 -30 18 -39
9z"/>
<path d="M9290 2481 c0 -11 -4 -22 -10 -26 -5 -3 -8 -19 -7 -34 1 -16 5 -27
10 -24 12 7 8 -32 -5 -45 -6 -6 -9 -15 -5 -19 15 -14 25 15 32 90 5 54 4 77
-4 77 -6 0 -11 -9 -11 -19z"/>
<path d="M9105 2480 c-3 -5 -1 -10 4 -10 6 0 11 5 11 10 0 6 -2 10 -4 10 -3 0
-8 -4 -11 -10z"/>
<path d="M8925 2450 c-3 -5 -1 -10 4 -10 6 0 11 5 11 10 0 6 -2 10 -4 10 -3 0
-8 -4 -11 -10z"/>
<path d="M9380 2456 c0 -1 8 -9 19 -18 17 -14 20 -14 33 1 13 16 11 17 -19 18
-18 1 -33 0 -33 -1z"/>
<path d="M9453 2424 c-10 -20 -22 -33 -30 -30 -19 8 -39 -34 -22 -45 10 -5 18
-1 25 14 14 26 73 71 81 63 4 -3 1 -6 -5 -6 -7 0 -12 -4 -12 -10 0 -12 37 -13
44 -1 12 19 -9 46 -37 48 -23 2 -31 -4 -44 -33z"/>
<path d="M7480 2439 c0 -5 5 -7 10 -4 6 3 10 8 10 11 0 2 -4 4 -10 4 -5 0 -10
-5 -10 -11z"/>
<path d="M5498 2433 c6 -2 18 -2 25 0 6 3 1 5 -13 5 -14 0 -19 -2 -12 -5z"/>
<path d="M6663 2433 c9 -2 23 -2 30 0 6 3 -1 5 -18 5 -16 0 -22 -2 -12 -5z"/>
<path d="M9805 2430 c-3 -5 1 -10 9 -10 9 0 16 5 16 10 0 6 -4 10 -9 10 -6 0
-13 -4 -16 -10z"/>
<path d="M5835 2410 c-3 -5 1 -10 9 -10 9 0 16 5 16 10 0 6 -4 10 -9 10 -6 0
-13 -4 -16 -10z"/>
<path d="M9929 2380 c-18 -14 -20 -19 -8 -20 22 0 54 25 42 33 -6 4 -22 -2
-34 -13z"/>
<path d="M5420 2370 c0 -5 7 -10 15 -10 8 0 15 5 15 10 0 6 -7 10 -15 10 -8 0
-15 -4 -15 -10z"/>
<path d="M7908 2343 c7 -3 16 -2 19 1 4 3 -2 6 -13 5 -11 0 -14 -3 -6 -6z"/>
<path d="M6788 2303 c6 -2 18 -2 25 0 6 3 1 5 -13 5 -14 0 -19 -2 -12 -5z"/>
<path d="M10145 2300 c-3 -5 -1 -10 4 -10 6 0 11 5 11 10 0 6 -2 10 -4 10 -3
0 -8 -4 -11 -10z"/>
<path d="M8590 2290 c0 -5 7 -7 15 -4 8 4 15 8 15 10 0 2 -7 4 -15 4 -8 0 -15
-4 -15 -10z"/>
<path d="M10050 2290 c0 -5 5 -10 11 -10 5 0 7 5 4 10 -3 6 -8 10 -11 10 -2 0
-4 -4 -4 -10z"/>
<path d="M8460 2270 c-20 -12 -5 -24 16 -12 9 5 12 12 7 15 -5 3 -15 2 -23 -3z"/>
<path d="M10005 2270 c-3 -5 -2 -10 4 -10 5 0 13 5 16 10 3 6 2 10 -4 10 -5 0
-13 -4 -16 -10z"/>
<path d="M8840 2260 c-12 -8 -11 -10 7 -10 12 0 25 5 28 10 8 13 -15 13 -35 0z"/>
<path d="M10576 2254 c-4 -9 -4 -19 -1 -22 6 -6 35 18 35 29 0 16 -28 10 -34
-7z"/>
<path d="M6210 2250 c0 -13 20 -13 40 0 12 8 9 10 -12 10 -16 0 -28 -4 -28
-10z"/>
<path d="M8795 2240 c-3 -5 -1 -10 4 -10 6 0 11 5 11 10 0 6 -2 10 -4 10 -3 0
-8 -4 -11 -10z"/>
<path d="M9497 2243 c-4 -3 -7 -13 -7 -21 0 -12 3 -12 15 -2 8 7 15 16 15 21
0 11 -14 12 -23 2z"/>
<path d="M9334 2215 c-16 -41 27 -60 50 -22 8 14 8 20 -4 27 -22 14 -40 12
-46 -5z"/>
<path d="M9707 2213 c-13 -13 -7 -21 13 -16 11 3 20 9 20 14 0 10 -24 12 -33
2z"/>
<path d="M7600 2180 c0 -5 4 -10 9 -10 6 0 13 5 16 10 3 6 -1 10 -9 10 -9 0
-16 -4 -16 -10z"/>
<path d="M9563 2155 c-3 -9 -3 -19 1 -22 9 -10 58 16 51 27 -10 16 -45 12 -52
-5z"/>
<path d="M10310 2105 c-8 -9 -8 -15 -2 -15 12 0 26 19 19 26 -2 2 -10 -2 -17
-11z"/>
<path d="M9250 2039 c0 -5 5 -7 10 -4 6 3 10 8 10 11 0 2 -4 4 -10 4 -5 0 -10
-5 -10 -11z"/>
<path d="M8355 1980 c-3 -5 -1 -10 4 -10 6 0 11 5 11 10 0 6 -2 10 -4 10 -3 0
-8 -4 -11 -10z"/>
<path d="M10566 1964 c-4 -10 -1 -14 6 -12 15 5 23 28 10 28 -5 0 -13 -7 -16
-16z"/>
<path d="M9820 1956 c0 -8 5 -18 10 -21 6 -3 10 1 10 9 0 8 -4 18 -10 21 -5 3
-10 -1 -10 -9z"/>
<path d="M9781 1944 c0 -11 3 -14 6 -6 3 7 2 16 -1 19 -3 4 -6 -2 -5 -13z"/>
<path d="M9297 1923 c-10 -10 -8 -45 2 -39 11 7 21 46 12 46 -4 0 -11 -3 -14
-7z"/>
<path d="M8685 1840 c-3 -5 -1 -10 4 -10 6 0 11 5 11 10 0 6 -2 10 -4 10 -3 0
-8 -4 -11 -10z"/>
<path d="M9326 1834 c-9 -24 -7 -54 4 -54 12 0 30 33 30 54 0 21 -26 21 -34 0z"/>
<path d="M9435 1810 c-3 -5 -1 -10 4 -10 6 0 11 5 11 10 0 6 -2 10 -4 10 -3 0
-8 -4 -11 -10z"/>
<path d="M7565 1800 c-3 -5 -2 -10 4 -10 5 0 13 5 16 10 3 6 2 10 -4 10 -5 0
-13 -4 -16 -10z"/>
<path d="M7920 1771 c0 -6 5 -13 10 -16 6 -4 7 -13 1 -24 -8 -15 -5 -16 24
-13 41 5 52 26 22 47 -24 17 -57 20 -57 6z"/>
<path d="M558 1478 c-13 -35 -96 -253 -183 -485 l-159 -423 -68 0 -68 0 0 -30
0 -30 170 0 170 0 0 30 0 30 -65 0 c-36 0 -65 3 -65 8 0 4 24 71 52 150 l53
142 166 0 166 0 48 -137 c27 -76 50 -144 53 -150 3 -10 -14 -13 -67 -13 l-71
0 0 -30 0 -30 215 0 215 0 0 30 0 29 -71 3 -71 3 -171 483 c-169 478 -170 482
-198 482 -24 0 -30 -7 -51 -62z m81 -354 l67 -189 -139 -3 c-77 -1 -141 -1
-143 1 -3 2 28 90 68 195 40 105 74 189 76 188 1 -2 33 -88 71 -192z"/>
<path d="M1150 1500 c0 -29 1 -30 50 -30 l50 0 0 -450 0 -450 -50 0 c-49 0
-50 -1 -50 -30 l0 -30 165 0 165 0 0 30 c0 29 -1 30 -50 30 l-50 0 0 480 0
480 -115 0 -115 0 0 -30z"/>
<path d="M5830 1500 l0 -30 70 0 70 0 0 -450 0 -450 -70 0 -70 0 0 -30 0 -30
205 0 205 0 0 30 0 30 -70 0 -70 0 0 450 0 450 70 0 70 0 0 30 0 30 -205 0
-205 0 0 -30z"/>
<path d="M6920 1500 c0 -29 1 -30 50 -30 l50 0 0 -450 0 -450 -50 0 c-49 0
-50 -1 -50 -30 l0 -30 165 0 165 0 0 30 c0 29 -1 30 -50 30 l-50 0 0 480 0
480 -115 0 -115 0 0 -30z"/>
<path d="M9200 1500 c0 -30 1 -30 55 -30 l55 0 0 -216 0 -216 -39 35 c-50 45
-99 61 -171 54 -71 -6 -126 -34 -174 -88 -64 -70 -81 -119 -81 -234 0 -90 3
-106 28 -157 79 -161 284 -211 398 -97 l39 39 0 -40 0 -40 115 0 115 0 0 30
c0 29 -1 30 -50 30 l-50 0 0 480 0 480 -120 0 -120 0 0 -30z m28 -456 c15 -11
38 -42 52 -70 22 -44 25 -61 24 -164 0 -99 -3 -122 -23 -163 -29 -59 -70 -89
-131 -95 -112 -10 -160 54 -168 222 -7 161 24 257 92 287 34 14 124 4 154 -17z"/>
<path d="M10580 1500 l0 -30 70 0 69 0 3 -382 c3 -379 3 -383 27 -436 52 -115
140 -157 331 -157 122 0 127 1 193 33 75 37 107 75 135 159 13 40 16 111 20
416 l4 367 69 0 69 0 0 30 0 30 -175 0 -175 0 0 -30 0 -30 70 0 70 0 0 -358
c0 -419 -3 -436 -76 -500 -55 -49 -118 -66 -219 -60 -98 7 -151 36 -185 103
l-25 50 -3 383 -4 382 71 0 71 0 0 30 0 30 -205 0 -205 0 0 -30z"/>
<path d="M3664 1456 c-58 -49 -20 -146 57 -146 43 0 79 39 79 85 0 74 -80 110
-136 61z"/>
<path d="M12554 1456 c-58 -49 -20 -146 57 -146 43 0 79 39 79 85 0 74 -80
110 -136 61z"/>
<path d="M15484 1456 c-58 -49 -20 -146 57 -146 43 0 79 39 79 85 0 74 -80
110 -136 61z"/>
<path d="M3183 1258 l-53 -10 0 -69 0 -69 -55 0 c-54 0 -55 0 -55 -30 0 -30 1
-30 55 -30 l55 0 0 -217 c0 -194 3 -223 20 -261 26 -58 88 -87 171 -79 69 6
111 32 139 87 27 53 26 77 -5 82 -14 3 -25 1 -25 -4 0 -6 -7 -25 -15 -43 -26
-54 -97 -73 -135 -35 -19 19 -20 33 -20 245 l0 225 90 0 90 0 0 30 0 30 -90 0
-90 0 0 80 c0 58 -3 80 -12 79 -7 -1 -37 -6 -65 -11z"/>
<path d="M15923 1258 l-53 -10 0 -69 0 -69 -55 0 c-54 0 -55 0 -55 -30 0 -30
1 -30 55 -30 l55 0 0 -217 c0 -194 3 -223 20 -261 26 -58 88 -87 171 -79 69 6
111 32 139 87 27 53 26 77 -5 82 -14 3 -25 1 -25 -4 0 -6 -7 -25 -15 -43 -26
-54 -97 -73 -135 -35 -19 19 -20 33 -20 245 l0 225 90 0 90 0 0 30 0 30 -90 0
-90 0 0 80 c0 58 -3 80 -12 79 -7 -1 -37 -6 -65 -11z"/>
<path d="M1787 1116 c-136 -51 -216 -181 -205 -335 14 -183 148 -303 323 -289
74 6 133 35 174 85 41 49 61 111 40 124 -26 16 -35 9 -58 -42 -31 -67 -82
-102 -159 -106 -113 -8 -168 55 -179 201 l-6 76 212 0 211 0 0 33 c0 94 -63
197 -144 239 -52 27 -156 34 -209 14z m169 -70 c26 -29 44 -85 44 -133 l0 -33
-139 0 -138 0 9 52 c20 108 67 152 152 145 38 -3 55 -11 72 -31z"/>
<path d="M4145 1114 c-70 -22 -112 -57 -126 -104 -10 -33 -9 -43 5 -64 30 -46
86 -48 120 -3 21 28 21 29 -9 99 -5 13 2 19 37 28 58 16 125 7 152 -19 18 -18
22 -36 24 -110 l4 -88 -76 -7 c-146 -13 -246 -58 -281 -127 -22 -41 -19 -117
5 -157 54 -88 215 -96 310 -15 l40 34 10 -26 c12 -32 64 -55 122 -55 62 0 88
9 88 31 0 15 -7 19 -32 19 -63 0 -63 -3 -68 249 -6 255 -8 263 -80 305 -45 27
-176 32 -245 10z m205 -371 c-1 -124 -88 -213 -184 -189 -50 12 -73 113 -41
176 20 39 92 65 188 69 l37 1 0 -57z"/>
<path d="M5009 1121 c-42 -14 -79 -42 -105 -80 l-24 -36 0 53 0 52 -115 0
-115 0 0 -30 c0 -29 1 -30 50 -30 l50 0 0 -240 0 -240 -50 0 c-49 0 -50 -1
-50 -30 l0 -30 165 0 165 0 0 30 c0 29 -1 30 -51 30 l-51 0 4 173 c3 170 4
175 33 232 48 92 140 125 202 71 l28 -24 3 -226 3 -226 -45 0 c-44 0 -46 -1
-46 -30 l0 -30 160 0 160 0 0 30 c0 29 -1 30 -49 30 l-49 0 -4 218 c-3 206 -4
219 -26 258 -13 22 -38 49 -54 59 -35 20 -147 30 -189 16z"/>
<path d="M6515 1121 c-79 -21 -127 -65 -145 -132 -28 -102 30 -176 176 -227
117 -41 157 -64 168 -96 23 -61 -30 -117 -117 -124 -108 -9 -158 28 -179 129
-10 51 -15 59 -35 59 -22 0 -23 -3 -23 -92 0 -51 4 -99 8 -106 14 -21 150 -44
228 -39 117 9 180 45 216 125 26 57 17 111 -25 159 -33 38 -86 65 -200 102
-89 30 -127 62 -127 107 0 65 68 104 162 91 63 -8 118 -74 118 -142 0 -20 5
-25 25 -25 25 0 25 0 25 95 l0 94 -37 11 c-50 14 -200 21 -238 11z"/>
<path d="M7515 1114 c-70 -22 -112 -57 -126 -104 -10 -33 -9 -43 5 -64 30 -46
86 -48 120 -3 21 28 21 29 -9 99 -5 13 2 19 37 28 58 16 125 7 152 -19 18 -18
22 -36 24 -110 l4 -88 -76 -7 c-146 -13 -246 -58 -281 -127 -22 -41 -19 -117
5 -157 54 -88 215 -96 310 -15 l40 34 10 -26 c12 -32 64 -55 122 -55 62 0 88
9 88 31 0 15 -7 19 -32 19 -63 0 -63 -3 -68 249 -6 255 -8 263 -80 305 -45 27
-176 32 -245 10z m205 -371 c-1 -124 -88 -213 -184 -189 -50 12 -73 113 -41
176 20 39 92 65 188 69 l37 1 0 -57z"/>
<path d="M8379 1121 c-42 -14 -79 -42 -105 -80 l-24 -36 0 53 0 52 -115 0
-115 0 0 -30 c0 -29 1 -30 50 -30 l50 0 0 -240 0 -240 -50 0 c-49 0 -50 -1
-50 -30 l0 -30 165 0 165 0 0 30 c0 29 -1 30 -51 30 l-51 0 4 173 c3 170 4
175 33 232 48 92 140 125 202 71 l28 -24 3 -226 3 -226 -45 0 c-44 0 -46 -1
-46 -30 l0 -30 160 0 160 0 0 30 c0 29 -1 30 -49 30 l-49 0 -4 218 c-3 206 -4
219 -26 258 -13 22 -38 49 -54 59 -35 20 -147 30 -189 16z"/>
<path d="M9805 1121 c-79 -21 -127 -65 -145 -132 -28 -102 30 -176 176 -227
117 -41 157 -64 168 -96 23 -61 -30 -117 -117 -124 -108 -9 -158 28 -179 129
-10 51 -15 59 -35 59 -22 0 -23 -3 -23 -92 0 -51 4 -99 8 -106 14 -21 150 -44
228 -39 117 9 180 45 216 125 26 57 17 111 -25 159 -33 38 -86 65 -200 102
-89 30 -127 62 -127 107 0 65 68 104 162 91 63 -8 118 -74 118 -142 0 -20 5
-25 25 -25 25 0 25 0 25 95 l0 94 -37 11 c-50 14 -200 21 -238 11z"/>
<path d="M11999 1121 c-42 -14 -79 -42 -105 -80 l-24 -36 0 53 0 52 -115 0
-115 0 0 -30 c0 -29 1 -30 50 -30 l50 0 0 -240 0 -240 -50 0 c-49 0 -50 -1
-50 -30 l0 -30 165 0 165 0 0 30 c0 29 -1 30 -51 30 l-51 0 4 173 c3 170 4
175 33 232 48 92 140 125 202 71 l28 -24 3 -226 3 -226 -45 0 c-44 0 -46 -1
-46 -30 l0 -30 160 0 160 0 0 30 c0 29 -1 30 -49 30 l-49 0 -4 218 c-3 206 -4
219 -26 258 -13 22 -38 49 -54 59 -35 20 -147 30 -189 16z"/>
<path d="M13777 1116 c-136 -51 -216 -181 -205 -335 14 -183 148 -303 323
-289 74 6 133 35 174 85 41 49 61 111 40 124 -26 16 -35 9 -58 -42 -31 -67
-82 -102 -159 -106 -113 -8 -168 55 -179 201 l-6 76 212 0 211 0 0 33 c0 94
-63 197 -144 239 -52 27 -156 34 -209 14z m169 -70 c26 -29 44 -85 44 -133 l0
-33 -139 0 -138 0 9 52 c20 108 67 152 152 145 38 -3 55 -11 72 -31z"/>
<path d="M14573 1109 c-24 -12 -56 -39 -73 -62 l-30 -41 0 52 0 52 -115 0
-115 0 0 -30 c0 -29 1 -30 50 -30 l50 0 0 -240 0 -240 -50 0 c-49 0 -50 -1
-50 -30 l0 -30 170 0 170 0 0 30 c0 30 0 30 -56 30 l-56 0 4 168 c3 150 6 172
27 215 34 70 109 128 96 74 -9 -36 28 -77 71 -77 75 0 103 93 45 151 -36 35
-78 38 -138 8z"/>
<path d="M14965 1121 c-79 -21 -127 -65 -145 -132 -28 -102 30 -176 176 -227
117 -41 157 -64 168 -96 23 -61 -30 -117 -117 -124 -108 -9 -158 28 -179 129
-10 51 -15 59 -35 59 -22 0 -23 -3 -23 -92 0 -51 4 -99 8 -106 14 -21 150 -44
228 -39 117 9 180 45 216 125 26 57 17 111 -25 159 -33 38 -86 65 -200 102
-89 30 -127 62 -127 107 0 65 68 104 162 91 63 -8 118 -74 118 -142 0 -20 5
-25 25 -25 25 0 25 0 25 95 l0 94 -37 11 c-50 14 -200 21 -238 11z"/>
<path d="M2240 1080 c0 -29 1 -30 49 -30 l50 0 3 -222 c3 -188 6 -228 20 -255
26 -47 79 -75 154 -81 83 -6 141 15 189 71 l35 41 0 -47 0 -47 115 0 115 0 0
30 c0 30 -1 30 -55 30 l-55 0 0 270 0 270 -115 0 -115 0 0 -30 c0 -30 0 -30
56 -30 l57 0 -5 -172 c-4 -152 -8 -180 -28 -226 -12 -29 -36 -62 -51 -73 -54
-38 -131 -37 -169 1 -19 19 -20 34 -20 275 l0 255 -115 0 -115 0 0 -30z"/>
<path d="M3550 1080 c0 -29 1 -30 50 -30 l50 0 0 -240 0 -240 -50 0 c-49 0
-50 -1 -50 -30 l0 -30 170 0 170 0 0 30 c0 30 -1 30 -55 30 l-55 0 0 270 0
270 -115 0 -115 0 0 -30z"/>
<path d="M12440 1080 c0 -29 1 -30 50 -30 l50 0 0 -240 0 -240 -50 0 c-49 0
-50 -1 -50 -30 l0 -30 170 0 170 0 0 30 c0 30 -1 30 -55 30 l-55 0 0 270 0
270 -115 0 -115 0 0 -30z"/>
<path d="M12790 1081 c0 -29 2 -30 51 -33 l51 -3 122 -270 c165 -365 142 -365
302 -3 l120 273 52 3 c50 3 52 4 52 33 l0 29 -130 0 -130 0 0 -29 c0 -29 2
-30 49 -33 l48 -3 -76 -170 c-42 -93 -81 -180 -86 -193 -9 -20 -20 0 -97 170
l-87 193 50 3 c47 3 49 4 49 33 l0 29 -170 0 -170 0 0 -29z"/>
<path d="M15370 1080 c0 -29 1 -30 50 -30 l50 0 0 -240 0 -240 -50 0 c-49 0
-50 -1 -50 -30 l0 -30 170 0 170 0 0 30 c0 30 -1 30 -55 30 l-55 0 0 270 0
270 -115 0 -115 0 0 -30z"/>
<path d="M16230 1081 c0 -29 2 -30 52 -33 l52 -3 121 -270 122 -270 -32 -70
c-55 -122 -95 -199 -115 -225 l-20 -25 0 28 c0 61 -76 89 -118 44 -34 -36 -30
-89 9 -121 64 -54 138 -23 203 84 30 50 326 700 367 808 7 19 16 22 64 22 54
0 55 0 55 30 l0 30 -135 0 -135 0 0 -29 c0 -29 2 -30 50 -33 l49 -3 -87 -193
c-77 -173 -87 -191 -97 -170 -5 12 -44 100 -86 193 l-77 170 49 3 c47 3 49 4
49 33 l0 29 -170 0 -170 0 0 -29z"/>
</g>
</svg>
