<?xml version="1.0" standalone="no"?>
<!DOCTYPE svg PUBLIC "-//W3C//DTD SVG 20010904//EN"
 "http://www.w3.org/TR/2001/REC-SVG-20010904/DTD/svg10.dtd">
<svg version="1.0" xmlns="http://www.w3.org/2000/svg"
 width="865.000000pt" height="355.000000pt" viewBox="0 0 865.000000 355.000000"
 preserveAspectRatio="xMidYMid meet">

<g transform="translate(0.000000,355.000000) scale(0.100000,-0.100000)"
fill="#F3F3F3" stroke="none">
<path d="M8106 3345 c-15 -14 -34 -25 -42 -25 -7 0 -14 -4 -14 -8 0 -4 -16 -6
-35 -4 -26 3 -35 0 -35 -11 0 -8 -9 -17 -20 -20 -11 -3 -24 -17 -30 -32 -13
-34 -13 -142 0 -150 15 -9 12 -65 -3 -65 -7 0 -25 -13 -40 -28 -37 -39 -85
-34 -94 10 -9 44 -50 61 -129 53 -42 -5 -64 -12 -64 -20 0 -7 -11 -16 -25 -19
-16 -4 -25 -13 -25 -26 0 -12 -9 -22 -23 -25 -17 -5 -26 -17 -33 -47 -5 -23
-18 -46 -28 -52 -11 -6 -32 -23 -47 -38 -16 -16 -32 -28 -37 -28 -15 0 -24
-123 -10 -132 10 -6 11 -11 1 -28 -17 -26 -16 -60 1 -60 7 0 16 -9 19 -21 8
-29 57 -22 74 11 6 13 21 28 32 32 12 4 21 14 21 23 0 8 6 15 14 15 8 0 16 5
18 12 3 7 23 11 52 10 l48 -2 -4 59 c-3 60 6 81 37 81 8 0 15 -7 15 -15 0 -8
9 -15 20 -15 11 0 20 -4 20 -10 0 -5 16 -10 35 -10 26 0 42 8 68 35 19 19 38
35 43 35 5 0 18 14 27 30 15 24 25 30 52 30 18 0 35 5 37 10 2 6 33 13 70 17
53 4 69 10 73 24 3 10 19 24 35 31 16 7 31 22 32 33 2 15 12 21 36 23 26 3 32
7 32 28 0 17 5 24 20 24 13 0 20 7 20 20 0 11 5 20 10 20 11 0 13 46 3 143
l-6 67 -38 10 c-21 6 -41 15 -44 20 -3 6 -30 10 -59 10 -43 0 -58 -5 -80 -25z"/>
<path d="M7095 2693 c-14 -21 -25 -44 -25 -51 0 -10 -6 -12 -17 -7 -35 15 -81
17 -89 4 -4 -7 -7 -33 -5 -57 1 -24 -3 -57 -10 -74 -10 -25 -9 -32 4 -45 15
-15 19 -15 51 2 29 16 39 17 61 7 21 -10 32 -9 58 4 39 21 48 33 41 60 -3 12
2 38 10 59 22 52 20 82 -9 110 -32 33 -40 32 -70 -12z"/>
<path d="M6727 2465 c-26 -25 -47 -50 -47 -56 0 -6 10 -24 23 -39 12 -16 30
-40 39 -53 23 -33 72 -40 104 -14 14 10 23 22 20 25 -3 3 -1 11 6 19 6 8 14
34 18 59 6 41 5 46 -19 63 -14 10 -35 20 -46 23 -11 3 -27 9 -36 12 -10 5 -31
-8 -62 -39z"/>
<path d="M6556 2384 c-24 -24 -19 -65 13 -104 25 -29 31 -32 45 -21 9 7 16 20
16 28 0 9 6 13 13 10 8 -3 20 -2 26 3 20 12 3 49 -24 56 -13 3 -31 14 -41 25
-21 23 -28 24 -48 3z"/>
<path d="M6162 2288 c-7 -7 -8 -17 -2 -27 10 -19 -10 -46 -54 -74 -24 -16 -27
-23 -22 -49 14 -69 62 -78 119 -23 21 20 37 40 37 44 0 5 11 12 24 15 43 11
42 76 0 76 -8 0 -14 4 -14 9 0 32 -64 53 -88 29z"/>
<path d="M995 2280 c-11 -5 -36 -9 -56 -9 -24 -1 -43 -9 -59 -26 -13 -14 -33
-25 -46 -25 -30 0 -46 -23 -49 -73 -4 -57 5 -64 71 -59 51 4 58 2 87 -26 38
-36 97 -51 118 -29 17 16 75 29 133 28 22 -1 45 4 53 10 15 13 17 55 3 64 -5
3 -10 18 -10 33 0 15 -4 32 -8 39 -9 14 -56 33 -92 38 -49 7 -85 18 -98 32
-15 15 -19 15 -47 3z"/>
<path d="M5551 2251 c-13 -3 -29 -15 -35 -26 -6 -11 -19 -26 -28 -33 -10 -7
-18 -23 -18 -35 0 -13 -14 -33 -35 -50 -19 -15 -35 -34 -35 -42 0 -17 -12 -19
-26 -5 -14 14 -95 -26 -101 -50 -7 -25 -15 -25 -38 0 -24 26 -30 25 -55 -10
-20 -28 -20 -31 -5 -54 19 -29 78 -66 103 -65 9 0 33 6 52 12 30 11 39 10 66
-5 l31 -18 34 37 c19 21 41 47 49 59 25 36 53 37 134 6 41 -16 82 -36 90 -45
9 -8 34 -18 56 -22 45 -8 70 5 70 35 0 27 29 45 67 41 27 -2 42 4 64 25 16 15
29 33 29 40 0 20 -29 44 -52 44 -12 0 -29 7 -39 16 -15 13 -23 14 -53 4 -20
-6 -36 -16 -36 -21 0 -5 -11 -9 -24 -9 -14 0 -37 -5 -53 -12 -43 -17 -56 -18
-85 -7 -34 14 -39 46 -14 81 23 32 16 55 -21 69 -15 5 -33 19 -40 29 -15 21
-16 21 -52 11z"/>
<path d="M4874 2050 c-27 -11 -69 -92 -60 -115 3 -9 15 -19 26 -22 32 -9 23
-18 -17 -17 -28 1 -38 6 -44 23 -5 12 -15 24 -23 27 -22 9 -96 -15 -120 -39
-18 -18 -32 -22 -77 -20 -41 1 -59 -3 -74 -17 -11 -10 -24 -18 -30 -18 -5 0
-15 -9 -21 -21 -11 -21 -12 -21 -29 -4 -17 17 -62 26 -193 39 -38 4 -59 2 -76
-10 -23 -14 -23 -18 -12 -55 6 -22 22 -50 34 -61 22 -20 26 -32 23 -58 -4 -24
21 -44 46 -37 15 3 30 0 40 -11 13 -12 26 -15 57 -9 23 4 52 8 65 9 13 2 31
12 40 23 19 24 70 28 116 8 18 -7 38 -9 45 -5 8 5 19 1 30 -13 l17 -20 41 33
c23 18 42 40 43 49 0 11 3 10 11 -5 5 -12 20 -26 33 -32 30 -14 56 4 75 52 9
24 21 36 34 37 95 7 101 9 134 44 26 28 31 40 26 63 -9 38 -22 51 -44 45 -15
-4 -20 0 -20 15 0 12 -8 27 -18 34 -27 20 -35 37 -23 52 9 11 8 18 -4 30 -18
18 -21 18 -51 6z"/>
<path d="M1302 1999 c-13 -5 -28 -6 -33 -3 -14 8 -76 -15 -83 -31 -3 -8 -14
-15 -25 -15 -27 0 -33 -25 -14 -65 19 -41 30 -46 105 -51 46 -3 60 0 70 14 7
9 20 18 28 20 23 5 28 21 20 58 -7 29 -35 85 -43 83 -1 0 -13 -4 -25 -10z"/>
<path d="M2002 1988 c-7 -7 -12 -19 -12 -28 0 -9 -5 -21 -11 -27 -28 -28 21
-73 80 -73 32 0 45 13 55 53 7 31 -7 57 -31 57 -8 0 -21 7 -29 15 -19 18 -36
19 -52 3z"/>
<path d="M2668 1884 c-40 -48 -88 -98 -88 -90 0 5 -6 3 -14 -4 -22 -17 -10
-106 20 -152 13 -21 28 -38 33 -38 16 0 41 30 42 51 2 34 4 36 25 55 30 27 63
157 45 178 -17 20 -47 20 -63 0z"/>
<path d="M3311 1842 c-37 -37 -49 -97 -24 -124 10 -11 25 -24 34 -29 24 -13
107 18 126 47 19 30 10 69 -20 85 -12 6 -30 20 -40 30 -25 26 -44 24 -76 -9z"/>
<path d="M2837 1838 c-28 -10 -35 -26 -40 -87 -4 -67 60 -64 126 5 35 38 47
42 47 17 1 -32 34 -86 58 -94 19 -7 27 -2 52 33 17 22 30 44 30 48 0 3 -12 21
-26 38 -22 26 -34 32 -64 32 -21 0 -43 -7 -50 -15 -9 -10 -16 -12 -25 -5 -29
24 -80 37 -108 28z"/>
<path d="M3951 1816 c-9 -10 -9 -20 0 -40 9 -20 9 -29 -1 -41 -17 -20 7 -57
49 -75 26 -11 35 -10 57 5 21 13 25 22 19 43 -9 35 -23 52 -39 46 -8 -3 -16 4
-20 18 -3 13 -17 31 -30 40 -20 15 -26 15 -35 4z"/>
<path d="M3037 1598 c-44 -40 -45 -51 -12 -101 l26 -37 37 15 c20 9 39 20 42
25 9 15 86 -63 82 -83 -2 -10 2 -24 8 -32 10 -11 19 -10 58 11 26 14 51 29 57
35 5 5 16 9 25 9 28 0 40 20 29 49 -12 30 -26 41 -55 41 -11 0 -35 16 -52 36
-21 23 -38 34 -48 30 -8 -3 -30 0 -48 8 -18 8 -51 17 -72 20 -35 6 -43 3 -77
-26z"/>
<path d="M3882 1537 c-7 -8 -7 -18 -2 -27 15 -23 12 -60 -4 -60 -40 0 -52 -54
-19 -81 18 -16 83 13 90 40 3 11 16 22 29 25 28 7 41 45 25 75 -6 11 -28 25
-49 31 -48 13 -57 13 -70 -3z"/>
<path d="M373 758 c-12 -29 -35 -89 -52 -133 -112 -296 -104 -280 -139 -283
-24 -2 -32 -8 -32 -23 0 -17 8 -19 85 -19 78 0 85 2 85 20 0 16 -7 20 -30 20
-16 0 -30 1 -30 3 0 2 11 30 24 63 l24 59 78 0 78 0 23 -60 c13 -32 23 -60 23
-62 0 -1 -15 -3 -32 -5 -22 -2 -34 -9 -36 -21 -3 -16 10 -17 195 -15 168 3
198 5 198 18 0 9 -11 16 -27 18 l-28 3 0 235 0 235 -57 -3 c-44 -2 -58 -7 -58
-18 0 -8 10 -16 23 -18 l22 -3 0 -215 0 -214 -58 0 -58 0 -33 93 c-18 50 -43
121 -56 157 -13 36 -36 100 -51 143 -33 95 -51 101 -81 25z m49 -168 l27 -80
-60 0 c-32 0 -59 3 -59 8 0 15 53 152 59 152 3 0 18 -36 33 -80z"/>
<path d="M2960 790 c0 -16 6 -20 30 -20 l30 0 0 -215 0 -215 -30 0 c-23 0 -30
-4 -30 -20 0 -19 7 -20 106 -20 95 0 105 2 102 17 -2 12 -14 19 -36 21 l-32 3
0 214 0 214 33 3 c20 2 32 8 32 18 0 12 -19 16 -102 18 -98 3 -103 2 -103 -18z"/>
<path d="M3485 800 c-10 -16 4 -30 31 -30 l24 0 0 -214 0 -215 -27 -3 c-17 -2
-28 -9 -28 -18 0 -12 18 -16 88 -18 82 -3 87 -2 87 18 0 15 -7 20 -25 20 l-25
0 -2 233 -3 232 -57 3 c-32 2 -59 -2 -63 -8z"/>
<path d="M4600 790 c0 -16 6 -20 30 -20 l30 0 0 -95 0 -96 -30 16 c-117 61
-236 -60 -195 -200 21 -74 59 -105 129 -105 30 0 61 6 74 16 12 8 22 10 22 5
0 -7 25 -11 60 -11 53 0 60 2 60 20 0 15 -7 20 -25 20 l-25 0 -2 233 -3 232
-62 3 c-58 3 -63 1 -63 -18z m28 -245 c44 -55 35 -165 -15 -204 -14 -12 -31
-21 -38 -21 -26 0 -56 36 -66 79 -12 54 5 146 29 161 31 18 70 11 90 -15z"/>
<path d="M5275 800 c-10 -17 5 -30 35 -30 l28 0 4 -192 c3 -169 6 -197 23
-225 27 -46 70 -63 154 -63 97 0 136 18 161 72 17 38 20 66 20 226 l0 182 35
0 c28 0 35 4 35 20 0 19 -7 20 -90 20 -83 0 -90 -1 -90 -20 0 -16 7 -20 35
-20 l35 0 0 -177 c0 -121 -4 -186 -13 -202 -21 -42 -62 -65 -117 -65 -42 0
-56 5 -78 27 l-27 27 -3 195 -3 194 33 3 c21 2 33 8 33 18 0 12 -19 16 -102
18 -62 2 -104 -1 -108 -8z"/>
<path d="M1902 771 c-8 -5 -12 -22 -10 -42 2 -28 8 -34 28 -37 35 -3 53 11 53
43 0 39 -38 58 -71 36z"/>
<path d="M6243 773 c-19 -7 -16 -70 3 -77 31 -12 55 -6 65 18 21 45 -19 79
-68 59z"/>
<path d="M7672 768 c-28 -28 -7 -78 33 -78 27 0 45 18 45 45 0 27 -18 45 -45
45 -12 0 -26 -5 -33 -12z"/>
<path d="M1647 673 c-4 -3 -7 -21 -7 -40 0 -29 -3 -33 -25 -33 -16 0 -25 -6
-25 -15 0 -9 9 -15 25 -15 l25 0 0 -120 c0 -107 2 -122 20 -140 30 -30 103
-28 135 5 31 30 33 65 5 65 -11 0 -20 -7 -20 -15 0 -22 -38 -39 -56 -24 -11 9
-14 38 -14 120 l0 109 45 0 c33 0 45 4 45 15 0 11 -12 15 -45 15 l-45 0 0 40
c0 37 -2 40 -28 40 -16 0 -32 -3 -35 -7z"/>
<path d="M7867 673 c-4 -3 -7 -21 -7 -40 0 -29 -3 -33 -25 -33 -16 0 -25 -6
-25 -15 0 -9 9 -15 24 -15 24 0 24 -1 28 -119 4 -144 13 -161 89 -161 54 0 89
26 89 67 0 30 -17 29 -42 -2 -46 -58 -68 -21 -68 114 l0 101 45 0 c33 0 45 4
45 15 0 11 -12 15 -45 15 l-45 0 0 40 c0 37 -2 40 -28 40 -16 0 -32 -3 -35 -7z"/>
<path d="M954 593 c-45 -22 -78 -86 -78 -148 0 -96 57 -155 147 -155 60 0 99
22 121 67 20 42 20 43 -4 43 -11 0 -26 -12 -34 -29 -28 -53 -109 -61 -135 -13
-6 11 -13 38 -17 61 l-7 41 107 0 c119 0 122 2 92 75 -28 67 -120 94 -192 58z
m110 -45 c32 -45 22 -58 -44 -58 -53 0 -60 2 -60 20 0 28 35 60 64 60 14 0 32
-10 40 -22z"/>
<path d="M2113 590 c-36 -22 -52 -62 -33 -85 27 -33 74 -7 68 37 -3 20 2 23
35 26 32 3 38 0 47 -24 15 -39 9 -59 -20 -62 -95 -12 -160 -58 -160 -114 0
-46 39 -78 97 -78 27 0 58 7 70 15 12 8 24 11 27 6 8 -12 70 -23 90 -15 9 3
16 12 16 20 0 7 -6 11 -14 8 -26 -10 -39 34 -33 111 7 83 -5 138 -36 160 -31
22 -115 19 -154 -5z m117 -181 c0 -39 -16 -68 -43 -78 -37 -14 -59 5 -55 47 3
32 8 39 38 49 53 18 60 16 60 -18z"/>
<path d="M2526 589 c-21 -17 -26 -18 -26 -5 0 13 -12 16 -60 16 -47 0 -60 -3
-60 -15 0 -9 9 -15 25 -15 l25 0 0 -115 0 -115 -25 0 c-18 0 -25 -5 -25 -20 0
-18 7 -20 85 -20 78 0 85 2 85 20 0 15 -7 20 -26 20 l-27 0 6 86 c6 97 25 137
70 142 43 5 57 -28 57 -135 0 -93 0 -93 -25 -93 -18 0 -25 -5 -25 -20 0 -18 7
-20 86 -20 76 0 85 2 82 18 -2 9 -13 18 -26 20 -21 3 -22 8 -22 96 0 108 -11
149 -46 165 -40 18 -98 13 -128 -10z"/>
<path d="M3274 600 c-51 -20 -71 -97 -36 -139 9 -12 44 -31 76 -44 70 -27 89
-48 63 -74 -25 -26 -85 -22 -108 6 -11 13 -19 32 -19 42 0 13 -7 19 -21 19
-20 0 -21 -3 -15 -52 4 -29 13 -56 19 -60 7 -4 44 -8 84 -8 62 0 75 3 102 26
24 20 31 34 31 61 0 49 -13 67 -62 87 -101 42 -108 46 -108 64 0 65 109 53
122 -13 2 -11 10 -20 18 -20 11 0 16 14 18 48 3 43 1 48 -23 57 -32 12 -112
12 -141 0z"/>
<path d="M3762 595 c-58 -25 -64 -105 -7 -105 28 0 46 28 38 58 -5 19 -1 22
29 22 42 0 58 -15 58 -56 0 -30 -2 -32 -45 -37 -54 -8 -120 -40 -129 -62 -13
-34 -6 -85 14 -105 24 -24 105 -28 137 -5 18 13 24 13 52 -1 20 -10 42 -13 61
-9 35 8 42 36 8 32 -22 -2 -23 1 -29 118 -4 66 -7 123 -8 127 0 4 -14 14 -31
23 -36 19 -104 19 -148 0z m118 -174 c0 -34 -18 -69 -45 -87 -24 -16 -27 -16
-45 1 -36 33 -18 85 35 98 42 10 55 7 55 -12z"/>
<path d="M4178 594 c-16 -8 -28 -10 -28 -4 0 6 -27 10 -65 10 -51 0 -65 -3
-65 -15 0 -9 9 -15 25 -15 l25 0 0 -114 c0 -111 -1 -115 -22 -118 -13 -2 -24
-11 -26 -20 -3 -16 6 -18 82 -18 79 0 86 2 86 20 0 13 -7 20 -20 20 -18 0 -20
7 -20 83 0 100 22 147 68 147 46 0 52 -15 52 -126 0 -99 -1 -103 -22 -106 -13
-2 -23 -10 -23 -18 0 -12 17 -16 83 -18 77 -3 82 -2 82 18 0 14 -7 20 -24 20
-24 0 -24 1 -28 116 -3 108 -5 117 -27 135 -28 23 -94 25 -133 3z"/>
<path d="M4864 591 c-39 -24 -52 -76 -30 -119 11 -21 31 -35 75 -52 75 -28 97
-49 77 -75 -18 -25 -78 -25 -105 -1 -10 9 -22 28 -25 42 -4 13 -13 24 -21 24
-11 0 -15 -13 -15 -54 0 -62 5 -66 105 -66 79 0 121 24 131 75 9 49 -18 85
-82 108 -74 26 -94 39 -94 57 0 25 21 40 55 40 34 0 58 -20 69 -57 4 -13 14
-23 22 -23 10 0 14 13 14 50 0 45 -3 52 -26 60 -42 16 -116 12 -150 -9z"/>
<path d="M5948 596 c-16 -8 -28 -11 -28 -5 0 5 -29 9 -65 9 -51 0 -65 -3 -65
-15 0 -9 9 -15 25 -15 l25 0 0 -115 0 -115 -25 0 c-18 0 -25 -5 -25 -20 0 -18
7 -20 85 -20 78 0 85 2 85 20 0 13 -7 20 -20 20 -18 0 -20 7 -20 89 0 103 19
141 70 141 41 0 50 -24 50 -134 0 -96 0 -96 -25 -96 -18 0 -25 -5 -25 -20 0
-18 7 -20 86 -20 76 0 85 2 82 18 -2 9 -13 18 -26 20 -21 3 -22 7 -22 102 0
55 -5 110 -11 123 -21 45 -96 61 -151 33z"/>
<path d="M6811 593 c-47 -23 -86 -108 -77 -165 15 -91 65 -138 149 -138 28 0
61 7 77 16 28 17 64 77 53 88 -14 14 -33 4 -47 -23 -28 -53 -109 -61 -135 -13
-6 11 -13 38 -17 61 l-7 41 107 0 c121 0 125 4 86 80 -34 67 -115 89 -189 53z
m113 -45 c32 -45 22 -58 -44 -58 -51 0 -60 3 -60 18 0 56 73 84 104 40z"/>
<path d="M7213 593 c-14 -9 -23 -11 -23 -4 0 7 -24 11 -65 11 -51 0 -65 -3
-65 -15 0 -9 9 -15 25 -15 l25 0 0 -114 c0 -111 -1 -115 -22 -118 -13 -2 -24
-11 -26 -20 -3 -16 6 -18 87 -18 84 0 91 1 91 20 0 15 -7 20 -25 20 -25 0 -25
1 -25 84 0 70 3 88 22 111 21 27 22 27 29 6 10 -26 63 -30 73 -5 23 60 -44 97
-101 57z"/>
<path d="M7405 601 c-39 -16 -56 -46 -53 -91 3 -50 25 -70 102 -98 60 -21 78
-44 53 -69 -25 -26 -85 -22 -108 6 -11 13 -19 32 -19 42 0 13 -7 19 -21 19
-20 0 -21 -3 -15 -52 4 -29 13 -56 19 -60 7 -4 45 -8 85 -8 68 0 76 2 103 29
52 53 34 122 -40 149 -17 7 -44 17 -61 23 -37 14 -52 32 -44 53 8 20 45 30 80
22 17 -5 30 -19 40 -42 20 -47 38 -38 42 19 3 43 1 48 -23 57 -31 12 -112 12
-140 1z"/>
<path d="M1200 585 c0 -9 9 -15 24 -15 24 0 24 -1 28 -121 3 -113 5 -122 27
-140 29 -24 107 -26 139 -3 12 8 22 10 22 5 0 -7 26 -11 66 -11 57 0 65 2 62
18 -2 9 -13 18 -26 20 -21 3 -22 6 -22 133 l0 129 -65 0 c-51 0 -65 -3 -65
-15 0 -9 9 -15 25 -15 25 0 25 -1 25 -87 0 -97 -11 -130 -52 -152 -24 -14 -28
-14 -47 3 -19 17 -21 30 -21 143 l0 123 -60 0 c-47 0 -60 -3 -60 -15z"/>
<path d="M1840 585 c0 -9 9 -15 25 -15 l25 0 0 -114 c0 -111 -1 -115 -22 -118
-13 -2 -24 -11 -26 -21 -3 -16 4 -18 85 -15 70 2 88 6 88 18 0 9 -11 16 -27
18 l-28 3 0 130 0 129 -60 0 c-47 0 -60 -3 -60 -15z"/>
<path d="M6180 585 c0 -9 9 -15 25 -15 l25 0 0 -114 c0 -111 -1 -115 -22 -118
-13 -2 -24 -11 -26 -20 -3 -16 6 -18 88 -18 82 0 91 2 88 18 -2 9 -13 18 -26
20 -21 3 -22 6 -22 133 l0 129 -65 0 c-51 0 -65 -3 -65 -15z"/>
<path d="M6350 586 c0 -8 12 -16 27 -18 24 -3 33 -17 84 -133 57 -128 79 -160
98 -140 4 6 34 70 66 143 51 116 60 132 81 132 15 0 24 6 24 15 0 12 -14 15
-70 15 -54 0 -70 -3 -70 -14 0 -8 11 -16 24 -18 l25 -3 -36 -82 c-32 -73 -53
-102 -53 -74 0 5 -13 39 -30 74 -35 77 -37 87 -10 87 11 0 20 7 20 15 0 12
-17 15 -90 15 -71 0 -90 -3 -90 -14z"/>
<path d="M7610 586 c0 -9 12 -16 28 -18 l27 -3 3 -112 3 -112 -28 -3 c-17 -2
-28 -9 -28 -18 0 -12 18 -16 88 -18 82 -3 87 -2 87 18 0 15 -7 20 -25 20 l-25
0 0 130 0 130 -65 0 c-50 0 -65 -3 -65 -14z"/>
<path d="M8040 585 c0 -9 9 -15 24 -15 20 0 31 -17 84 -136 l61 -137 -31 -61
c-37 -75 -34 -71 -52 -57 -39 33 -89 -16 -60 -58 21 -29 65 -27 93 3 13 14 65
118 116 233 84 189 95 208 119 211 14 2 26 10 26 18 0 11 -16 14 -70 14 -56 0
-70 -3 -70 -15 0 -8 9 -15 20 -15 27 0 26 -5 -16 -96 l-37 -79 -38 80 c-45 94
-45 95 -19 95 11 0 20 7 20 15 0 12 -16 15 -85 15 -69 0 -85 -3 -85 -15z"/>
</g>
</svg>
