<?xml version="1.0" standalone="yes"?>
<!DOCTYPE svg PUBLIC "-//W3C//DTD SVG 20010904//EN"
 "http://www.w3.org/TR/2001/REC-SVG-20010904/DTD/svg10.dtd">
<svg version="1.0" xmlns="http://www.w3.org/2000/svg"
 width="865.000000pt" height="355.000000pt" viewBox="0 0 865.000000 355.000000"
 preserveAspectRatio="xMidYMid meet">

<g transform="translate(0.000000,355.000000) scale(0.100000,-0.100000)"
fill="#000000" stroke="none">
<path d="M8133 3335 c-8 -22 -89 -57 -113 -50 -14 4 -20 2 -18 -7 2 -7 -7 -14
-19 -16 -30 -4 -35 -23 -38 -134 -3 -70 0 -98 8 -98 7 0 3 -6 -8 -12 -11 -6
-33 -25 -49 -41 -25 -25 -34 -28 -69 -23 -41 6 -57 18 -57 47 0 23 -59 64 -73
50 -6 -6 -26 -11 -44 -11 -25 0 -31 -4 -27 -15 4 -11 -1 -15 -17 -15 -33 0
-51 -14 -43 -33 4 -12 -1 -18 -20 -23 -19 -4 -26 -13 -26 -30 0 -13 -4 -24 -9
-24 -5 0 -12 -12 -15 -26 -5 -17 -12 -24 -21 -20 -9 3 -15 0 -15 -8 0 -8 -15
-24 -34 -36 -38 -23 -47 -43 -34 -77 4 -14 4 -23 -3 -23 -5 0 -3 -10 5 -22 21
-29 20 -48 -1 -64 -17 -12 -16 -13 4 -14 15 0 21 -5 17 -14 -11 -29 17 -26 33
3 10 16 26 32 35 35 10 2 18 11 18 20 0 9 6 16 14 16 8 0 16 5 18 12 2 6 24
11 51 11 25 0 44 4 41 8 -2 4 0 10 5 13 5 3 7 14 4 25 -4 14 6 23 39 40 46 22
78 27 78 12 0 -5 11 -11 25 -13 14 -3 25 -2 25 3 0 12 57 69 69 69 5 0 18 14
28 30 13 23 23 30 39 26 11 -3 29 1 40 8 22 15 90 30 118 27 10 -2 31 11 47
28 15 17 32 31 37 31 6 0 13 11 16 25 5 19 13 25 35 25 25 0 28 3 23 25 -4 22
-1 25 22 25 19 0 26 5 26 19 0 11 6 22 13 25 9 5 9 7 0 12 -9 4 -10 11 -4 22
5 9 6 44 2 77 -6 55 -8 60 -30 59 -13 -1 -32 6 -41 14 -24 20 -100 25 -107 7z"/>
<path d="M7113 2688 c-7 -13 -17 -35 -23 -50 -12 -28 -43 -38 -55 -18 -3 6
-20 10 -36 10 -17 0 -28 -4 -24 -9 13 -22 12 -100 -1 -105 -19 -7 -18 -46 1
-46 8 0 15 4 15 9 0 5 11 12 25 15 14 4 23 11 20 16 -11 18 10 10 27 -9 14
-17 21 -18 51 -9 32 10 34 13 33 55 -1 24 4 47 10 51 17 11 15 79 -2 97 -21
20 -27 19 -41 -7z"/>
<path d="M6755 2468 c-11 -13 -18 -27 -17 -31 1 -5 -2 -6 -8 -2 -6 3 -18 -1
-27 -10 -15 -16 -14 -18 9 -38 13 -12 30 -34 37 -49 9 -16 23 -28 41 -30 28
-4 65 14 53 25 -3 4 2 16 12 27 24 26 31 90 10 90 -8 0 -15 5 -15 10 0 6 -9
10 -19 10 -11 0 -23 5 -26 10 -10 16 -29 12 -50 -12z"/>
<path d="M6569 2378 c-8 -26 -7 -63 2 -74 6 -8 8 -14 3 -14 -10 0 17 -20 28
-20 4 0 8 10 10 23 2 16 9 22 26 21 12 0 22 2 22 6 0 13 -23 28 -36 23 -7 -2
-19 5 -26 16 -11 18 -26 27 -29 19z"/>
<path d="M6181 2258 c9 -17 9 -24 -3 -32 -8 -6 -17 -19 -21 -28 -6 -16 -25
-23 -49 -19 -9 1 -10 -41 -2 -63 11 -29 55 -19 91 20 18 20 33 40 33 45 0 4
10 9 22 11 13 2 24 11 26 22 3 14 0 17 -12 13 -11 -4 -21 3 -31 23 -11 21 -23
30 -41 30 -22 0 -24 -2 -13 -22z"/>
<path d="M990 2260 c-14 -4 -38 -8 -53 -9 -16 -1 -38 -12 -51 -26 -14 -14 -34
-25 -50 -25 -14 0 -27 -6 -27 -12 -10 -90 -8 -97 21 -79 8 6 19 7 25 3 5 -3
22 -5 37 -3 26 2 78 -35 78 -57 0 -13 69 -11 105 4 18 7 35 10 38 7 4 -3 14 0
22 7 10 8 35 13 61 11 41 -2 44 0 44 24 0 14 -4 25 -10 25 -5 0 -10 16 -10 35
0 30 -4 37 -36 50 -32 13 -37 13 -52 -2 -16 -16 -17 -15 -20 4 -2 15 -11 20
-34 21 -17 0 -35 8 -40 16 -10 17 -12 18 -48 6z"/>
<path d="M5548 2233 c-10 -2 -18 -14 -18 -25 0 -11 -8 -22 -19 -25 -12 -3 -21
-17 -26 -39 -3 -19 -10 -34 -16 -34 -14 0 -59 -50 -59 -66 0 -8 -9 -14 -21
-14 -11 0 -17 5 -14 10 8 14 2 13 -45 -6 -26 -10 -40 -23 -40 -34 0 -28 -42
-34 -63 -9 -10 12 -21 18 -25 14 -4 -4 -1 -10 6 -12 20 -8 14 -22 -8 -16 -12
3 -20 0 -20 -6 0 -7 4 -10 8 -7 4 2 14 0 22 -5 13 -8 13 -10 1 -18 -12 -8 -9
-11 12 -16 15 -4 27 -12 27 -17 0 -16 79 -2 100 17 17 15 19 15 31 -3 21 -29
41 -31 64 -6 40 44 55 64 55 73 0 6 9 13 20 16 23 7 130 -4 130 -14 0 -4 20
-13 45 -20 25 -7 45 -19 45 -27 0 -8 6 -14 13 -14 6 0 29 -3 50 -6 34 -6 37
-5 37 17 0 39 35 67 80 62 40 -4 69 13 83 50 5 14 0 17 -33 17 -26 0 -42 6
-48 16 -8 14 -14 15 -45 5 -19 -7 -38 -19 -41 -28 -5 -12 -9 -13 -21 -3 -12
10 -18 10 -31 -1 -13 -10 -17 -10 -25 2 -5 8 -7 20 -4 27 2 6 1 12 -4 12 -17
0 -20 -14 -6 -34 8 -11 15 -23 15 -26 0 -11 -74 -3 -78 8 -2 7 -8 9 -14 6 -14
-9 -37 27 -38 59 0 21 6 30 21 34 14 4 19 12 17 27 -3 20 -7 22 -55 25 -16 1
-23 7 -23 21 0 20 -8 22 -42 13z"/>
<path d="M4878 2033 c-10 -2 -18 -11 -18 -18 0 -7 -6 -20 -13 -27 -7 -7 -16
-23 -19 -35 -5 -19 -2 -23 16 -23 26 0 50 -26 60 -63 8 -32 -7 -35 -31 -7 -12
14 -30 20 -58 20 -49 0 -68 11 -59 33 5 14 0 17 -24 17 -16 0 -46 -7 -66 -15
-32 -14 -35 -18 -26 -35 6 -11 15 -20 19 -20 17 0 22 -50 7 -65 -13 -13 -15
-11 -21 18 -11 48 -19 53 -90 55 -50 0 -65 -3 -65 -14 0 -8 -10 -14 -23 -14
-16 0 -23 -6 -23 -17 1 -20 -4 -23 -34 -23 -12 0 -20 7 -20 18 0 14 -7 17 -46
13 -25 -2 -51 2 -57 8 -11 11 -114 15 -140 6 -11 -5 -12 -13 -3 -45 5 -22 15
-40 21 -40 7 0 17 -11 23 -25 6 -14 17 -25 24 -25 9 0 9 -3 0 -12 -24 -24 -14
-41 20 -36 22 4 36 0 44 -10 15 -21 55 -21 86 0 20 14 28 15 32 6 4 -9 10 -6
22 10 14 18 26 22 73 22 31 0 62 -5 67 -10 14 -14 44 -2 44 16 0 8 5 14 10 14
6 0 10 9 10 20 0 11 4 20 9 20 14 0 18 -52 7 -72 -14 -24 3 -37 18 -15 7 9 18
17 25 17 6 0 18 18 27 40 9 22 20 40 24 40 10 0 20 -26 20 -50 0 -10 10 -20
22 -23 26 -7 38 -1 38 19 0 9 7 22 15 31 8 8 13 18 10 23 -7 12 28 22 84 24
33 2 54 9 69 24 12 12 19 22 15 22 -5 0 -3 4 4 8 6 4 9 19 6 34 -4 23 -8 26
-23 18 -10 -6 -22 -19 -25 -30 -4 -12 -15 -20 -28 -20 -18 0 -19 1 -5 13 24
19 31 53 13 70 -11 12 -12 17 -2 20 9 4 8 6 -2 6 -28 2 -58 71 -30 71 5 0 7 5
4 10 -6 10 -9 11 -37 3z"/>
<path d="M1317 1983 c-4 -3 -21 -6 -38 -5 -41 1 -79 -14 -79 -31 0 -16 -32
-19 -42 -3 -5 7 -8 4 -8 -7 0 -21 27 -77 38 -78 95 -10 121 -7 127 12 4 11 14
18 23 17 13 -2 16 3 14 25 -4 34 -27 79 -35 70z"/>
<path d="M2010 1949 c0 -17 -4 -28 -10 -24 -5 3 -10 -1 -10 -9 0 -19 25 -32
68 -34 20 -2 32 2 32 10 0 7 3 23 6 36 5 18 2 22 -19 22 -14 0 -27 7 -31 15
-10 28 -36 17 -36 -16z"/>
<path d="M2667 1850 c-6 -16 -17 -30 -24 -30 -8 0 -19 -12 -25 -26 -9 -20 -17
-24 -35 -19 -22 5 -23 4 -12 -16 6 -12 11 -40 11 -61 -1 -25 4 -41 14 -45 8
-3 14 -11 14 -19 0 -17 16 -19 25 -3 4 6 7 26 8 44 1 29 5 35 29 40 16 4 26
10 23 15 -3 4 2 30 10 56 21 70 20 94 -6 94 -14 0 -24 -10 -32 -30z"/>
<path d="M3327 1836 c-36 -28 -46 -136 -12 -122 8 3 15 0 17 -5 4 -12 66 8 91
29 30 26 15 72 -24 72 -9 0 -19 9 -22 20 -6 23 -24 25 -50 6z"/>
<path d="M2843 1819 c-12 -4 -21 -16 -21 -26 0 -10 -3 -30 -7 -45 -6 -23 -4
-28 11 -28 11 0 30 8 45 18 25 17 72 62 65 62 -2 0 -19 6 -37 14 -22 9 -42 11
-56 5z"/>
<path d="M2976 1794 c-3 -8 1 -22 9 -30 8 -9 18 -26 21 -40 3 -13 12 -24 20
-24 8 0 17 -1 21 -2 3 -2 15 13 26 31 17 32 17 36 3 47 -9 6 -16 16 -16 23 0
18 -77 14 -84 -5z"/>
<path d="M3960 1801 c0 -5 5 -13 10 -16 13 -8 13 -52 -1 -57 -17 -6 0 -34 28
-47 45 -21 73 0 57 43 -5 12 -10 13 -25 5 -25 -13 -38 -4 -32 22 4 13 -2 27
-16 40 -11 11 -21 15 -21 10z"/>
<path d="M3064 1596 c-3 -8 -14 -18 -25 -21 -23 -8 -25 -38 -4 -55 8 -7 15
-18 15 -26 0 -17 56 1 64 22 7 17 47 19 44 2 -2 -7 3 -12 10 -10 6 1 12 -2 12
-8 0 -5 7 -10 15 -10 9 0 12 -6 9 -15 -5 -11 1 -15 20 -15 23 0 25 -2 16 -19
-22 -41 -7 -66 22 -37 8 7 23 16 35 20 12 4 24 13 27 21 3 8 16 15 30 15 19 0
23 4 19 20 -7 25 -10 27 -48 31 -20 3 -38 15 -53 37 -24 34 -37 40 -46 20 -5
-10 -7 -10 -12 0 -3 6 -14 12 -23 12 -10 0 -21 3 -25 7 -7 8 -16 10 -63 19
-25 5 -34 2 -39 -10z"/>
<path d="M3905 1529 c-11 -4 -14 -8 -7 -8 6 -1 11 -4 11 -8 -1 -5 -1 -10 1
-13 1 -3 3 -17 5 -32 3 -24 -1 -29 -28 -36 -24 -7 -31 -13 -29 -28 5 -27 8
-28 41 -14 18 7 31 21 33 33 2 13 13 23 28 27 43 10 34 70 -10 70 -10 0 -20 4
-22 9 -1 4 -12 5 -23 0z"/>
<path d="M310 583 c-45 -120 -86 -226 -91 -235 -6 -11 -21 -18 -39 -18 -20 0
-30 -5 -30 -15 0 -12 16 -15 85 -15 69 0 85 3 85 15 0 10 -10 15 -28 15 -16 0
-31 3 -34 6 -4 3 6 34 20 70 l27 64 81 0 81 0 22 -56 c28 -75 27 -84 -9 -84
-20 0 -30 -5 -30 -15 0 -12 29 -14 190 -14 159 0 190 2 190 14 0 9 -10 15 -25
15 l-25 0 0 235 0 235 -55 0 c-54 0 -77 -15 -32 -22 l22 -3 0 -220 0 -220 -61
-3 -61 -3 -21 58 c-73 204 -131 371 -137 391 -3 12 -14 22 -24 22 -15 0 -35
-45 -101 -217z m113 15 c15 -46 27 -86 27 -90 0 -5 -30 -8 -66 -8 -49 0 -65 3
-62 13 47 129 62 167 67 167 4 0 19 -37 34 -82z"/>
<path d="M2960 791 c0 -6 15 -11 33 -13 l32 -3 0 -220 0 -220 -32 -3 c-21 -2
-33 -9 -33 -18 0 -11 20 -14 100 -14 82 0 100 3 100 15 0 10 -10 15 -30 15
l-30 0 0 225 0 225 30 0 c17 0 30 5 30 10 0 6 -40 10 -100 10 -55 0 -100 -4
-100 -9z"/>
<path d="M3490 790 c0 -5 11 -10 25 -10 l25 0 0 -225 0 -225 -26 0 c-16 0 -24
-5 -21 -12 5 -17 159 -18 164 -1 3 7 -8 13 -24 15 l-28 3 -3 233 -2 232 -55 0
c-30 0 -55 -4 -55 -10z"/>
<path d="M4600 790 c0 -5 14 -10 30 -10 l30 0 0 -105 0 -105 -32 20 c-41 25
-73 25 -118 1 -93 -49 -107 -196 -25 -271 35 -32 121 -36 154 -6 19 17 21 17
21 2 0 -14 9 -17 57 -14 60 3 85 24 36 30 l-28 3 -3 233 -2 232 -60 0 c-33 0
-60 -4 -60 -10z m5 -220 c61 -23 75 -180 20 -227 -31 -28 -65 -29 -95 -5 -45
36 -36 206 12 230 30 14 32 14 63 2z"/>
<path d="M5280 791 c0 -6 15 -11 33 -13 l32 -3 5 -200 c6 -229 10 -242 86
-271 53 -20 161 -15 199 10 51 34 59 65 63 274 l4 192 34 0 c19 0 34 5 34 10
0 6 -37 10 -90 10 -53 0 -90 -4 -90 -10 0 -5 16 -10 36 -10 l35 0 -3 -200 -3
-200 -28 -27 c-24 -24 -35 -28 -93 -28 -59 0 -68 3 -89 27 -28 32 -38 128 -33
308 l3 115 33 3 c17 2 32 7 32 13 0 5 -45 9 -100 9 -55 0 -100 -4 -100 -9z"/>
<path d="M1908 769 c-44 -25 -3 -93 42 -69 26 14 26 56 1 70 -23 12 -22 12
-43 -1z"/>
<path d="M6248 769 c-44 -25 -3 -93 42 -69 26 14 26 56 1 70 -23 12 -22 12
-43 -1z"/>
<path d="M7676 764 c-9 -8 -16 -22 -16 -29 0 -14 26 -45 38 -45 16 0 52 32 52
45 0 13 -36 45 -52 45 -3 0 -14 -7 -22 -16z"/>
<path d="M1658 673 c-13 -3 -18 -15 -18 -39 0 -30 -3 -34 -25 -34 -16 0 -25
-6 -25 -15 0 -9 9 -15 24 -15 24 0 24 -1 28 -121 3 -113 5 -122 27 -140 46
-38 134 -10 143 45 5 29 -17 30 -30 1 -14 -31 -56 -34 -72 -6 -5 11 -10 65
-10 120 l0 101 45 0 c33 0 45 4 45 15 0 11 -12 15 -45 15 l-45 0 0 40 c0 40
-4 43 -42 33z"/>
<path d="M7888 673 c-13 -3 -18 -15 -18 -39 0 -30 -3 -34 -25 -34 -16 0 -25
-6 -25 -15 0 -9 9 -15 25 -15 l25 0 0 -119 c0 -117 1 -120 26 -140 51 -40 130
-17 136 38 4 31 -15 37 -27 9 -11 -26 -54 -36 -66 -16 -5 7 -9 61 -9 121 l0
107 45 0 c33 0 45 4 45 15 0 11 -12 15 -45 15 l-45 0 0 40 c0 40 -4 43 -42 33z"/>
<path d="M961 591 c-101 -54 -108 -214 -12 -278 62 -42 155 -24 186 37 19 36
19 50 1 50 -7 0 -19 -13 -25 -29 -19 -44 -78 -64 -121 -41 -21 11 -40 60 -40
101 l0 29 105 0 105 0 -6 33 c-9 44 -29 74 -67 97 -39 24 -82 25 -126 1z m97
-27 c14 -10 22 -25 22 -45 l0 -29 -65 0 c-36 0 -65 2 -65 4 0 21 26 66 43 74
31 15 39 14 65 -4z"/>
<path d="M2129 595 c-62 -27 -75 -95 -19 -95 30 0 42 17 33 48 -3 14 1 21 19
25 54 14 85 -16 76 -74 -2 -17 -10 -25 -28 -27 -67 -7 -92 -15 -120 -38 -24
-21 -30 -34 -30 -64 0 -54 38 -84 98 -77 24 2 51 12 61 21 16 15 19 15 31 1 8
-9 29 -15 56 -15 45 0 61 16 22 22 -22 3 -23 8 -28 120 -4 103 -8 120 -26 139
-28 28 -97 34 -145 14z m111 -180 c0 -59 -50 -106 -94 -89 -19 7 -30 39 -22
68 7 27 39 44 84 45 28 1 32 -2 32 -24z"/>
<path d="M2560 603 c-8 -3 -25 -15 -37 -26 l-23 -20 0 21 c0 20 -5 22 -60 22
-47 0 -60 -3 -60 -15 0 -9 9 -15 25 -15 l25 0 0 -120 0 -120 -26 0 c-16 0 -24
-5 -21 -12 2 -9 28 -13 82 -13 54 0 80 4 83 13 2 7 -6 12 -22 12 -26 0 -26 0
-26 88 0 69 4 94 20 120 11 17 24 32 29 32 5 0 16 3 24 6 9 3 25 -4 36 -15 19
-19 21 -33 21 -126 l0 -105 -26 0 c-16 0 -24 -5 -22 -12 3 -9 31 -14 81 -16
62 -2 77 0 77 12 0 8 -10 16 -22 18 -22 3 -23 8 -25 103 -2 55 -5 110 -8 122
-9 38 -78 63 -125 46z"/>
<path d="M3274 595 c-32 -17 -54 -51 -54 -85 0 -32 42 -69 105 -93 47 -18 61
-28 63 -47 5 -30 -21 -50 -63 -50 -40 0 -63 17 -73 54 -5 16 -13 31 -20 34
-15 5 -17 -94 -1 -103 6 -4 36 -9 68 -12 68 -6 122 14 140 53 27 60 4 92 -94
131 -80 32 -96 59 -51 88 38 25 83 12 103 -31 9 -19 20 -34 25 -34 12 0 10 88
-2 95 -25 16 -116 15 -146 0z"/>
<path d="M3775 596 c-40 -17 -57 -40 -53 -68 2 -18 9 -23 33 -23 27 0 30 3 29
32 -2 27 2 33 26 38 48 11 70 -9 70 -60 l0 -45 -40 0 c-47 0 -115 -31 -130
-59 -44 -84 66 -161 144 -100 24 19 27 19 42 5 17 -18 89 -22 99 -6 3 6 -5 10
-19 10 -21 0 -26 6 -32 36 -3 19 -3 62 0 95 9 76 -6 124 -44 144 -35 18 -85
19 -125 1z m105 -191 c0 -25 -8 -44 -25 -60 -42 -43 -85 -27 -85 31 0 40 30
64 77 64 31 0 33 -2 33 -35z"/>
<path d="M4176 585 c-34 -23 -36 -23 -36 -5 0 18 -7 20 -55 20 -42 0 -55 -3
-55 -15 0 -9 9 -15 25 -15 l26 0 -3 -117 c-3 -114 -4 -118 -25 -121 -13 -2
-23 -10 -23 -18 0 -12 15 -14 77 -12 47 2 78 7 80 15 2 6 -6 13 -19 15 -22 3
-23 6 -22 91 0 50 6 98 14 112 17 32 62 50 89 35 19 -10 21 -19 21 -125 0
-108 -1 -115 -20 -115 -11 0 -20 -7 -20 -15 0 -13 13 -15 77 -13 50 2 78 7 81
16 2 7 -6 12 -22 12 l-26 0 0 100 c0 113 -14 154 -56 170 -40 16 -69 12 -108
-15z"/>
<path d="M4883 596 c-36 -17 -53 -43 -53 -83 0 -44 23 -68 88 -92 33 -12 65
-28 72 -36 20 -24 2 -54 -37 -61 -48 -9 -85 12 -98 54 -5 17 -16 32 -23 32
-12 0 -13 -11 -8 -52 4 -29 10 -55 12 -58 3 -3 39 -5 79 -5 92 0 128 22 133
80 4 49 -23 78 -94 101 -65 20 -90 44 -75 72 24 45 105 33 124 -18 19 -49 38
-38 30 18 -3 26 -7 48 -7 49 -1 1 -27 5 -57 8 -36 4 -64 1 -86 -9z"/>
<path d="M5970 603 c-8 -3 -25 -15 -37 -26 l-23 -20 0 21 c0 20 -5 22 -60 22
-47 0 -60 -3 -60 -15 0 -10 10 -15 30 -15 l31 0 -3 -117 -3 -118 -28 -3 c-16
-2 -27 -8 -24 -15 5 -17 159 -16 165 1 2 7 -6 12 -22 12 -26 0 -26 1 -26 80 0
95 18 146 55 160 35 13 41 13 59 -6 13 -12 16 -39 16 -125 l0 -109 -26 0 c-16
0 -24 -5 -22 -12 3 -9 31 -14 81 -16 62 -2 77 0 77 12 0 8 -10 16 -22 18 -22
3 -23 8 -25 103 -2 55 -5 110 -8 122 -9 38 -78 63 -125 46z"/>
<path d="M6820 591 c-73 -38 -104 -156 -60 -229 40 -65 125 -91 190 -57 28 14
60 60 60 85 0 22 -28 9 -39 -19 -21 -49 -90 -67 -130 -33 -15 12 -23 33 -28
70 l-6 52 102 0 101 0 0 28 c0 61 -67 122 -132 122 -13 0 -39 -8 -58 -19z
m100 -31 c11 -11 20 -31 20 -45 0 -24 -2 -25 -65 -25 l-65 0 6 28 c9 37 13 42
38 52 33 13 44 12 66 -10z"/>
<path d="M7216 585 c-34 -23 -36 -23 -36 -5 0 18 -7 20 -55 20 -42 0 -55 -3
-55 -15 0 -9 9 -15 25 -15 l26 0 -3 -117 c-3 -114 -4 -118 -25 -121 -13 -2
-23 -10 -23 -18 0 -12 15 -14 82 -12 54 2 83 7 86 16 2 8 -7 12 -27 12 l-31 0
0 68 c0 76 12 126 36 153 17 19 17 18 28 -3 7 -15 21 -23 36 -23 20 0 26 6 28
30 3 19 -2 33 -14 42 -25 18 -36 16 -78 -12z"/>
<path d="M7406 595 c-39 -21 -55 -44 -55 -80 0 -44 19 -63 96 -94 54 -22 69
-33 71 -51 5 -29 -21 -50 -61 -50 -42 0 -64 16 -77 55 -6 19 -16 35 -21 35
-13 0 -11 -97 2 -105 6 -4 36 -9 68 -12 68 -6 122 14 140 53 26 59 2 93 -94
131 -59 24 -70 32 -73 54 -2 21 3 29 27 39 42 17 86 -1 100 -41 5 -16 15 -29
20 -29 14 0 14 87 1 95 -25 16 -116 16 -144 0z"/>
<path d="M1200 585 c0 -9 9 -15 25 -15 25 0 25 0 25 -99 0 -113 11 -154 46
-170 44 -20 134 -6 134 21 0 4 5 8 10 8 6 0 10 -7 10 -15 0 -12 13 -15 55 -15
42 0 55 3 55 15 0 9 -9 15 -25 15 l-25 0 0 135 0 135 -55 0 c-42 0 -55 -3 -55
-15 0 -10 10 -15 26 -15 l27 0 -5 -95 c-6 -104 -21 -140 -65 -151 -52 -13 -58
1 -61 145 l-3 131 -59 0 c-47 0 -60 -3 -60 -15z"/>
<path d="M1850 585 c0 -9 9 -15 25 -15 l26 0 -3 -117 c-3 -114 -4 -118 -25
-121 -13 -2 -23 -10 -23 -18 0 -11 17 -14 80 -14 64 0 80 3 80 15 0 9 -9 15
-25 15 l-25 0 0 135 0 135 -55 0 c-42 0 -55 -3 -55 -15z"/>
<path d="M6190 585 c0 -9 9 -15 25 -15 l25 0 0 -120 0 -120 -25 0 c-16 0 -25
-6 -25 -15 0 -12 16 -15 80 -15 64 0 80 3 80 15 0 9 -9 15 -25 15 l-25 0 0
135 0 135 -55 0 c-42 0 -55 -3 -55 -15z"/>
<path d="M6350 585 c0 -10 10 -15 29 -15 27 0 31 -7 87 -135 46 -106 63 -134
77 -133 12 2 35 43 75 133 52 116 61 130 85 133 15 2 27 10 27 18 0 11 -15 14
-65 14 -51 0 -65 -3 -65 -15 0 -8 9 -15 21 -15 24 0 23 -4 -26 -117 -31 -72
-34 -76 -43 -53 -6 14 -24 56 -41 93 -17 38 -31 71 -31 73 0 2 11 4 25 4 16 0
25 6 25 15 0 12 -17 15 -90 15 -73 0 -90 -3 -90 -15z"/>
<path d="M7620 585 c0 -9 9 -15 25 -15 l25 0 0 -120 0 -120 -26 0 c-16 0 -24
-5 -21 -12 2 -9 28 -13 82 -13 54 0 80 4 83 13 2 7 -6 12 -22 12 l-26 0 0 135
0 135 -60 0 c-47 0 -60 -3 -60 -15z"/>
<path d="M8040 586 c0 -8 12 -16 27 -18 24 -3 33 -17 86 -135 l59 -132 -32
-70 c-18 -39 -35 -71 -37 -71 -3 0 -11 7 -20 15 -19 19 -42 16 -57 -7 -27 -43
46 -77 86 -41 22 19 72 122 159 323 45 105 54 120 75 120 15 0 24 6 24 15 0
12 -14 15 -65 15 -51 0 -65 -3 -65 -15 0 -9 9 -15 25 -15 14 0 25 -2 25 -4 0
-2 -19 -43 -41 -92 l-42 -89 -42 90 -42 90 23 3 c13 2 24 10 24 18 0 11 -18
14 -85 14 -67 0 -85 -3 -85 -14z"/>
</g>
</svg>
